<svg width="48" height="49" viewBox="0 0 48 49" fill="none" xmlns="http://www.w3.org/2000/svg">
<path d="M38 30.625V38.625H10V30.625H38ZM40 26.625H8C6.9 26.625 6 27.525 6 28.625V40.625C6 41.725 6.9 42.625 8 42.625H40C41.1 42.625 42 41.725 42 40.625V28.625C42 27.525 41.1 26.625 40 26.625ZM14 37.625C12.36 37.625 11 36.285 11 34.625C11 32.965 12.36 31.625 14 31.625C15.64 31.625 17 32.965 17 34.625C17 36.285 15.66 37.625 14 37.625ZM38 10.625V18.625H10V10.625H38ZM40 6.625H8C6.9 6.625 6 7.525 6 8.625V20.625C6 21.725 6.9 22.625 8 22.625H40C41.1 22.625 42 21.725 42 20.625V8.625C42 7.525 41.1 6.625 40 6.625ZM14 17.625C12.36 17.625 11 16.285 11 14.625C11 12.965 12.36 11.625 14 11.625C15.64 11.625 17 12.985 17 14.625C17 16.265 15.66 17.625 14 17.625Z" fill="#BADE4F"/>
</svg>
