<svg width="48" height="49" viewBox="0 0 48 49" fill="none" xmlns="http://www.w3.org/2000/svg">
<path d="M38 6.625H10C7.8 6.625 6 8.425 6 10.625V38.625C6 40.825 7.8 42.625 10 42.625H38C40.2 42.625 42 40.825 42 38.625V10.625C42 8.425 40.2 6.625 38 6.625ZM38 38.625H34.54L38 35.165V38.625ZM38 32.625H36.3L30.3 38.625H27.06L33.06 32.625H28.82L22.82 38.625H19.6L25.6 32.625H21.36L15.36 38.625H11.68L17.68 32.625H13.44L10 36.065V10.625H38V32.625Z" fill="#BADE4F"/>
<path d="M21.34 22.625L25.34 26.625L35.5 16.445L32.68 13.625L25.34 20.965L21.34 16.965L12.5 25.805L15.32 28.625L21.34 22.625Z" fill="#BADE4F"/>
</svg>
