<svg width="41" height="42" viewBox="0 0 41 42" fill="none" xmlns="http://www.w3.org/2000/svg">
<circle cx="20.5" cy="21" r="20.5" fill="#191A23"/>
<path d="M11.2501 25.2009C10.5326 25.6151 10.2868 26.5325 10.701 27.2499C11.1152 27.9674 12.0326 28.2132 12.7501 27.799L11.2501 25.2009ZM30.7695 16.8882C30.9839 16.088 30.509 15.2655 29.7088 15.0511L16.6688 11.557C15.8686 11.3426 15.0461 11.8175 14.8317 12.6177C14.6173 13.4179 15.0921 14.2404 15.8923 14.4548L27.4835 17.5606L24.3776 29.1517C24.1632 29.9519 24.6381 30.7744 25.4383 30.9888C26.2385 31.2032 27.061 30.7284 27.2754 29.9282L30.7695 16.8882ZM12.7501 27.799L30.0706 17.799L28.5706 15.2009L11.2501 25.2009L12.7501 27.799Z" fill="white"/>
</svg>
