<svg width="40" height="41" viewBox="0 0 40 41" fill="none" xmlns="http://www.w3.org/2000/svg">
<path d="M20.2573 0.625C9.3588 0.625 0.513672 9.47013 0.513672 20.3686C0.513672 31.2671 9.3588 40.1122 20.2573 40.1122C31.1557 40.1122 40.0009 31.2671 40.0009 20.3686C40.0009 9.47013 31.1557 0.625 20.2573 0.625ZM29.4183 14.0506C29.1221 17.1701 27.8388 24.7517 27.1873 28.2463C26.9109 29.7271 26.358 30.2206 25.8447 30.2799C24.6996 30.3786 23.8309 29.5296 22.7252 28.7991C20.9878 27.654 20.0006 26.9432 18.3224 25.8376C16.3678 24.5542 17.6314 23.8435 18.7568 22.6983C19.0529 22.4022 24.1073 17.8019 24.206 17.3873C24.2197 17.3245 24.2179 17.2593 24.2007 17.1974C24.1835 17.1355 24.1514 17.0787 24.1073 17.0319C23.9888 16.9332 23.8309 16.9727 23.6926 16.9924C23.515 17.0319 20.7509 18.8681 15.3609 22.5009C14.5711 23.034 13.8603 23.3104 13.2285 23.2906C12.5178 23.2709 11.1752 22.8958 10.1683 22.5601C8.92444 22.1653 7.95701 21.9481 8.03598 21.2571C8.07547 20.9017 8.56906 20.5463 9.49701 20.1712C15.2621 17.6637 19.0924 16.0053 21.0075 15.2155C26.4962 12.9253 27.6216 12.5304 28.3719 12.5304C28.5298 12.5304 28.905 12.5699 29.1419 12.7673C29.3393 12.9253 29.3985 13.1424 29.4183 13.3004C29.3985 13.4188 29.438 13.7742 29.4183 14.0506Z" fill="#BADE4F"/>
</svg>
