<svg width="504" height="432" viewBox="0 0 504 432" fill="none" xmlns="http://www.w3.org/2000/svg">
<g clip-path="url(#clip0_1_116)">
<path d="M261.037 362.825L275.811 358.475L271.5 373.282L275.811 388.046L261.037 383.738L246.222 388.046L250.574 373.282L246.222 358.475L261.037 362.825Z" fill="black" stroke="white" stroke-miterlimit="10"/>
</g>
<g clip-path="url(#clip1_1_116)">
<path d="M104.875 289.825L131.294 304.211L104.875 318.713L90.4219 345.058L75.9693 318.713L49.5498 304.211L75.9693 289.825L90.4219 263.364L104.875 289.825Z" fill="black" stroke="white" stroke-miterlimit="10"/>
</g>
<path d="M473.812 326.547C472.231 329.412 469.282 331.491 465.018 332.784C460.751 334.077 455.211 334.567 448.533 334.279C435.18 333.703 417.392 330.024 396.399 323.602C354.421 310.762 299.732 286.99 242.291 255.326C184.849 223.661 135.556 190.113 102.296 161.478C85.6624 147.158 73.0594 134.084 65.449 123.103C61.6432 117.612 59.1026 112.668 57.9209 108.371C56.7398 104.077 56.9271 100.475 58.508 97.6109C60.089 94.7466 63.0375 92.6669 67.3019 91.3746C71.5687 90.0815 77.1086 89.5917 83.7861 89.8796C97.1392 90.4553 114.928 94.1345 135.921 100.556C177.899 113.396 232.587 137.168 290.029 168.833C347.47 200.497 396.763 234.046 430.024 262.681C446.657 277.001 459.26 290.075 466.871 301.055C470.676 306.546 473.217 311.491 474.399 315.787C475.58 320.081 475.393 323.683 473.812 326.547Z" stroke="black"/>
<path d="M456.831 357.311C455.25 360.175 452.302 362.255 448.037 363.547C443.77 364.84 438.23 365.33 431.553 365.042C418.2 364.466 400.412 360.787 379.418 354.366C337.44 341.526 282.752 317.754 225.31 286.089C167.869 254.424 118.576 220.876 85.3152 192.241C68.6818 177.921 56.0788 164.847 48.4685 153.866C44.6627 148.375 42.122 143.431 40.9403 139.135C39.7593 134.84 39.9465 131.239 41.5275 128.374C43.1084 125.51 46.057 123.43 50.3214 122.138C54.5882 120.845 60.128 120.355 66.8056 120.643C80.1587 121.219 97.947 124.898 118.94 131.319C160.918 144.159 215.607 167.931 273.048 199.596C330.49 231.261 379.783 264.809 413.043 293.444C429.677 307.764 442.28 320.838 449.89 331.819C453.696 337.31 456.236 342.254 457.418 346.55C458.599 350.845 458.412 354.446 456.831 357.311Z" stroke="black"/>
<path d="M439.852 388.074C438.271 390.939 435.323 393.019 431.058 394.311C426.791 395.604 421.252 396.094 414.574 395.806C401.221 395.23 383.433 391.551 362.44 385.13C320.461 372.289 265.773 348.517 208.331 316.853C150.89 285.188 101.597 251.64 68.3364 223.005C51.703 208.685 39.0999 195.611 31.4896 184.63C27.6838 179.139 25.1432 174.195 23.9614 169.898C22.7804 165.604 22.9677 162.002 24.5486 159.138C26.1295 156.274 29.0781 154.194 33.3425 152.902C37.6093 151.608 43.1492 151.119 49.8267 151.407C63.1798 151.982 80.9681 155.662 101.961 162.083C143.939 174.923 198.628 198.695 256.069 230.36C313.511 262.025 362.804 295.573 396.064 324.208C412.698 338.528 425.301 351.602 432.911 362.582C436.717 368.073 439.258 373.018 440.439 377.314C441.62 381.608 441.433 385.21 439.852 388.074Z" stroke="black"/>
<ellipse cx="110.375" cy="87.6582" rx="13.01" ry="13.0019" fill="#7B5FEB"/>
<ellipse cx="353.367" cy="364.893" rx="8.39354" ry="8.38835" fill="#B9FF66"/>
<ellipse cx="68.4069" cy="54.1049" rx="19.7248" ry="19.7126" fill="black"/>
<path d="M256.819 321.769C251.527 323.576 245.48 319.994 243.377 313.784L210.643 217.937L229.771 211.399L262.537 307.377C264.64 313.521 262.077 319.961 256.819 321.769Z" fill="black"/>
<path d="M253.959 322.951C252.414 322.951 250.837 322.59 249.325 321.834C246.268 320.323 243.836 317.497 242.653 314.014L209.92 218.167C209.788 217.806 209.985 217.379 210.38 217.247L229.507 210.709C229.704 210.643 229.902 210.643 230.066 210.741C230.23 210.84 230.362 210.971 230.428 211.169L263.194 307.147C265.396 313.653 262.635 320.52 257.015 322.459C256.062 322.787 255.011 322.951 253.959 322.951ZM211.563 218.397L244.067 313.554C245.118 316.676 247.287 319.238 249.982 320.553C252.151 321.604 254.485 321.801 256.588 321.079C261.452 319.403 263.818 313.357 261.847 307.607L229.31 212.319L211.563 218.397Z" fill="black"/>
<path d="M226.385 128.662L164.5 172.79L140.41 197.795L130.944 214.52L130.912 214.651C129.038 217.543 130.123 224.213 133.639 231.015C137.09 237.718 141.954 242.384 145.372 242.646L145.274 242.712L163.448 244.684L197.463 239.262L269.668 213.436L359.423 228.813L360.047 228.846C337.502 224.64 307.068 194.509 284.95 151.893C262.865 109.309 255.832 67.2176 265.527 46.4514H265.494L226.878 127.611L226.385 128.662Z" fill="#7B5FEB"/>
<path d="M374.963 226.991C397.145 215.474 392.856 163.262 365.383 110.371C337.91 57.4811 297.656 23.9415 275.474 35.4587C253.292 46.9758 257.582 99.1883 285.055 152.079C312.528 204.969 352.781 238.508 374.963 226.991Z" fill="white"/>
<path d="M365.207 229.996C355.545 229.996 343.911 224.607 331.389 214.126C314.332 199.865 297.604 177.883 284.293 152.188C264.147 113.285 255.832 73.395 263.128 50.5587C265.56 42.9357 269.636 37.6127 275.19 34.754C286.233 29.1024 301.778 33.8997 318.999 48.2915C336.056 62.5519 352.784 84.5339 366.095 110.229C386.274 149.133 394.589 189.022 387.26 211.859C384.828 219.482 380.753 224.805 375.198 227.663C372.208 229.24 368.855 229.996 365.207 229.996ZM285.247 33.8997C281.861 33.8997 278.706 34.5897 275.88 36.0683C270.654 38.7298 266.842 43.79 264.542 51.0516C257.344 73.5593 265.626 113.022 285.608 151.597C312.82 204.071 352.719 237.652 374.574 226.448C379.799 223.786 383.612 218.726 385.912 211.464C393.11 188.957 384.828 149.494 364.846 110.919C341.15 65.2462 307.891 33.8997 285.247 33.8997Z" fill="black"/>
<path d="M365.207 229.996C355.545 229.996 343.911 224.608 331.389 214.126C314.332 199.865 297.604 177.883 284.293 152.188C264.147 113.285 255.832 73.395 263.128 50.5587C265.56 42.9357 269.635 37.6127 275.19 34.754C282.584 30.9425 292.247 31.8954 303.125 37.4813C313.543 42.8371 324.816 52.3331 335.793 64.9177C336.056 65.2134 336.023 65.6734 335.727 65.9363C335.431 66.1991 334.971 66.1663 334.708 65.8706C312.426 40.307 289.88 28.8725 275.88 36.0684C270.654 38.7299 266.842 43.79 264.541 51.0516C257.344 73.5593 265.626 113.022 285.608 151.597C309.271 197.237 342.563 228.616 365.174 228.616C368.559 228.616 371.714 227.926 374.541 226.448C379.766 223.786 383.579 218.726 385.879 211.464C393.077 188.957 384.795 149.494 364.813 110.919C358.864 99.4186 352.16 88.6083 344.962 78.7838C344.732 78.4552 344.798 77.9952 345.127 77.7652C345.455 77.5352 345.915 77.6009 346.145 77.9294C353.409 87.8197 360.113 98.6957 366.127 110.262C386.274 149.133 394.588 189.022 387.26 211.859C384.828 219.482 380.752 224.805 375.198 227.663C372.207 229.24 368.855 229.996 365.207 229.996Z" fill="black"/>
<path d="M324.633 159.663C329.772 156.995 328.784 144.909 322.426 132.669C316.068 120.429 306.748 112.669 301.609 115.337C296.47 118.005 297.459 130.091 303.817 142.331C310.175 154.571 319.495 162.331 324.633 159.663Z" fill="#7B5FEB"/>
<path d="M322.384 160.929C316.732 160.929 308.844 153.634 303.158 142.627C298.426 133.492 296.487 124.095 298.229 118.673C298.853 116.768 299.872 115.421 301.285 114.698C306.872 111.839 316.436 119.626 323.075 132.408C327.807 141.543 329.746 150.94 328.004 156.362C327.38 158.267 326.361 159.615 324.948 160.337C324.159 160.732 323.305 160.929 322.384 160.929ZM303.849 115.519C303.158 115.519 302.501 115.651 301.942 115.946C300.858 116.505 300.069 117.556 299.576 119.101C297.966 124.161 299.839 133.164 304.407 141.97C310.454 153.634 319.558 161.487 324.258 159.056C325.342 158.497 326.131 157.446 326.624 155.902C328.234 150.809 326.328 141.838 321.793 133.032C316.469 122.814 308.844 115.519 303.849 115.519Z" fill="#7B5FEB"/>
<path d="M360.212 217.74C351.733 217.74 341.545 213.008 330.568 203.841C315.647 191.355 300.989 172.1 289.355 149.625C271.706 115.585 264.443 80.6565 270.819 60.646C272.955 53.943 276.538 49.2771 281.434 46.7471C292.674 40.9969 309.205 47.6342 326.821 64.9504C327.117 65.2461 327.117 65.6733 326.821 65.969C326.525 66.2647 326.098 66.2647 325.802 65.969C308.647 49.1128 292.707 42.5412 282.092 48.0285C277.556 50.3614 274.237 54.7316 272.199 61.0731C265.922 80.7222 273.152 115.223 290.637 148.968C311.309 188.891 340.394 216.294 360.179 216.294C363.137 216.294 365.865 215.67 368.363 214.421C372.898 212.088 376.217 207.718 378.255 201.377C384.532 181.728 377.302 147.227 359.818 113.482C354.526 103.296 348.611 93.734 342.235 85.0923C342.005 84.7638 342.071 84.3037 342.399 84.0737C342.728 83.8437 343.188 83.9095 343.418 84.238C349.86 92.9783 355.808 102.573 361.132 112.824C378.781 146.865 386.044 181.793 379.668 201.804C377.532 208.507 373.95 213.173 369.053 215.703C366.358 217.05 363.4 217.74 360.212 217.74Z" fill="black"/>
<path d="M163.482 245.374C163.449 245.374 163.416 245.374 163.416 245.374L145.241 243.402C145.143 243.402 145.044 243.369 144.946 243.304C141.199 242.712 136.466 237.981 133.016 231.343C129.335 224.345 128.25 217.51 130.255 214.29L130.288 214.192L139.753 197.434C139.786 197.368 139.819 197.335 139.852 197.303L163.942 172.298C163.974 172.265 164.007 172.232 164.04 172.199L225.761 128.169L264.805 46.123C264.903 45.9587 265.035 45.8272 265.232 45.7615C265.429 45.6958 265.626 45.6958 265.791 45.7944C266.152 45.9587 266.316 46.3858 266.152 46.7473C256.26 67.9407 264.082 110.065 285.575 151.531C307.102 193.064 337.108 223.819 360.212 228.058C360.573 228.123 360.836 228.452 360.804 228.846C360.771 229.208 360.442 229.471 360.08 229.503L359.456 229.471C359.423 229.471 359.39 229.471 359.357 229.471L269.767 214.126L197.727 239.887C197.694 239.887 197.628 239.919 197.595 239.919L163.58 245.341C163.547 245.374 163.514 245.374 163.482 245.374ZM145.767 242.022L163.482 243.928L197.333 238.506L269.504 212.713C269.636 212.68 269.734 212.647 269.866 212.68L350.517 226.48C328.727 216.919 303.257 188.694 284.359 152.221C265.593 116.012 257.213 79.2438 261.814 56.0132L227.043 128.958C226.977 129.057 226.911 129.155 226.813 129.221L164.993 173.349L141.002 198.223L131.537 214.98C131.537 215.013 131.504 215.046 131.504 215.046C129.795 217.707 130.945 224.279 134.264 230.686C137.518 236.962 142.218 241.694 145.439 241.924C145.57 241.924 145.669 241.957 145.767 242.022Z" fill="black"/>
<path d="M226.483 128.399L265.494 46.4186H265.526C255.831 67.1848 262.897 109.276 284.95 151.86C307.068 194.51 337.501 224.64 360.112 228.78L359.488 228.748L269.865 213.403L267.794 213.041C257.376 211.201 243.474 197.664 233.516 178.343C223.295 158.53 221.487 138.782 226.023 129.385L226.483 128.399Z" fill="white"/>
<path d="M360.112 229.503C360.08 229.503 360.112 229.503 360.112 229.503L359.455 229.47C359.422 229.47 359.389 229.47 359.356 229.47L269.733 214.126L267.663 213.764C256.653 211.826 242.685 197.73 232.859 178.705C221.718 157.084 221.159 137.83 225.366 129.089L225.859 128.104L264.869 46.1557C264.968 45.9915 265.099 45.86 265.297 45.7943C265.494 45.7286 265.691 45.7286 265.855 45.8272C266.217 45.9915 266.381 46.4186 266.217 46.78C256.324 67.9734 264.146 110.097 285.64 151.564C307.167 193.097 337.173 223.852 360.277 228.09C360.638 228.156 360.901 228.485 360.868 228.879C360.77 229.208 360.474 229.503 360.112 229.503ZM261.747 56.0131L227.14 128.728L226.647 129.714C222.473 138.388 223.689 157.774 234.141 178.015C243.77 196.678 257.343 210.479 267.926 212.319L269.996 212.68L350.483 226.48C328.693 216.919 303.223 188.694 284.325 152.221C265.56 116.012 257.179 79.2437 261.747 56.0131Z" fill="black"/>
<path d="M162.495 245.275C162.462 245.275 162.429 245.275 162.429 245.275L145.208 243.435C145.109 243.435 145.011 243.402 144.912 243.337C141.166 242.745 136.433 238.014 132.982 231.376C129.334 224.345 128.25 217.51 130.254 214.29L130.287 214.191L139.752 197.434C139.95 197.072 140.377 196.974 140.738 197.171C141.1 197.368 141.198 197.795 141.001 198.157L131.536 214.98C131.536 215.013 131.503 215.046 131.503 215.046C129.794 217.707 130.945 224.279 134.264 230.686C137.518 236.962 142.217 241.694 145.438 241.924C145.537 241.924 145.668 241.956 145.734 242.022L162.561 243.829C162.955 243.862 163.251 244.224 163.185 244.618C163.152 244.979 162.857 245.275 162.495 245.275Z" fill="black"/>
<path d="M163.645 244.552C158.058 244.158 150.236 236.239 144.551 225.298C138.536 213.699 137.123 201.706 140.804 197.434L130.977 214.52L130.912 214.652C129.038 217.543 130.123 224.213 133.639 231.015C137.09 237.718 141.954 242.384 145.372 242.647L145.274 242.712L163.645 244.552Z" fill="white"/>
<path d="M163.645 245.275C163.612 245.275 163.612 245.275 163.58 245.275C163.448 245.275 163.284 245.242 163.152 245.242L145.208 243.435C145.109 243.435 145.011 243.402 144.912 243.337C141.166 242.745 136.433 238.014 132.982 231.376C129.334 224.345 128.25 217.51 130.254 214.29L130.287 214.192L138.931 199.143C139.259 198.288 139.687 197.533 140.213 196.908C140.443 196.612 140.87 196.58 141.166 196.777C141.461 197.007 141.56 197.401 141.363 197.73L140.147 199.8C138.208 205.024 140.114 215.276 145.109 224.87C150.532 235.352 157.927 243.008 163.218 243.698L163.612 243.731C164.007 243.764 164.303 244.125 164.27 244.519C164.303 244.979 164.007 245.275 163.645 245.275ZM145.734 242.022L158.288 243.304C153.457 240.215 148.133 233.841 143.893 225.626C139.785 217.707 137.748 209.493 138.076 203.578L131.536 214.98C131.536 215.013 131.503 215.046 131.503 215.046C129.794 217.707 130.945 224.279 134.264 230.686C137.518 236.962 142.217 241.694 145.438 241.924C145.537 241.924 145.668 241.957 145.734 242.022Z" fill="black"/>
<path d="M196.247 239.393L197.693 239.098C189.871 240.741 177.514 228.912 168.805 212.121C159.898 194.969 158.222 177.85 164.532 172.79L163.711 173.612L140.869 197.335C137.123 201.541 138.503 213.6 144.55 225.264C150.367 236.502 158.617 244.519 164.236 244.486L196.247 239.393Z" fill="black"/>
<path d="M164.204 245.242C158.223 245.242 149.908 237.192 143.894 225.626C137.781 213.797 136.236 201.443 140.311 196.875L162.725 173.612C163.12 173.086 163.58 172.626 164.073 172.232C164.369 172.002 164.796 172.035 165.059 172.298C165.322 172.593 165.322 173.02 165.059 173.283L163.777 174.63C159.209 180.742 161.476 196.382 169.463 211.793C178.073 228.419 190.102 239.821 197.464 238.441L197.562 238.408C197.957 238.342 198.318 238.572 198.417 238.966C198.483 239.361 198.253 239.722 197.858 239.821C197.825 239.821 197.792 239.821 197.76 239.854L196.412 240.116H196.379L164.369 245.209C164.303 245.209 164.237 245.242 164.204 245.242ZM160.819 177.686L141.396 197.861C137.781 201.935 139.424 213.83 145.208 224.969C150.861 235.878 158.847 243.764 164.204 243.797L192.468 239.295C184.844 236.601 175.444 226.447 168.181 212.483C161.279 199.175 158.617 185.638 160.819 177.686Z" fill="black"/>
<path d="M301.614 115.322C296.454 117.95 297.21 130.141 303.783 142.298C314.793 162.637 323.568 160.239 324.586 159.877C324.619 159.877 324.619 159.91 324.586 159.91L305.689 175.123C300.135 167.336 294.843 158.662 289.979 149.297C285.345 140.327 281.435 131.389 278.345 122.715L301.614 115.322Z" fill="black"/>
<path d="M305.689 175.846C305.656 175.846 305.623 175.846 305.59 175.846C305.393 175.813 305.229 175.715 305.097 175.551C299.412 167.566 294.12 158.826 289.355 149.658C284.787 140.853 280.843 131.882 277.688 123.011C277.622 122.813 277.622 122.616 277.721 122.452C277.819 122.288 277.951 122.156 278.148 122.091L301.416 114.698C301.778 114.599 302.172 114.763 302.304 115.125C302.435 115.486 302.304 115.88 301.975 116.045C300.858 116.603 300.036 117.72 299.543 119.363C297.933 124.522 299.905 133.657 304.473 142.035C315.22 161.882 323.502 159.614 324.389 159.286C324.718 159.154 325.112 159.319 325.277 159.614C325.441 159.91 325.375 160.337 325.112 160.567L306.149 175.682C306.018 175.781 305.853 175.846 305.689 175.846ZM279.298 123.175C282.42 131.751 286.233 140.425 290.637 148.968C295.238 157.84 300.365 166.285 305.853 174.072L322.253 160.863C318.506 160.699 311.44 157.906 303.158 142.627C298.36 133.788 296.388 124.456 298.13 118.838C298.36 118.115 298.623 117.49 298.952 116.899L279.298 123.175Z" fill="black"/>
<path d="M398.849 68.4468C413.873 60.5586 419.685 42.039 411.828 27.082C403.972 12.125 385.424 6.39458 370.399 14.2827C355.375 22.1709 349.564 40.6905 357.42 55.6475C365.276 70.6045 383.824 76.3349 398.849 68.4468Z" fill="black"/>
<path d="M370.631 34.5895C372.077 32.618 374.213 31.4023 376.645 31.1394C378.485 30.9423 380.194 31.3366 381.805 32.3223C382.626 32.8152 383.349 33.4395 384.04 34.1952C384.533 33.3081 385.124 32.5195 385.814 31.8623C387.162 30.548 388.772 29.7923 390.58 29.5951C393.012 29.3322 395.378 30.0551 397.218 31.6652C399.026 33.2423 400.176 35.5424 400.472 38.1382C400.768 40.7997 400.045 43.3626 398.204 46.1884C396.561 48.7185 394.063 51.3471 391.171 54.4357C390.185 55.4872 389.068 56.6701 387.918 57.9187C387.622 58.2473 387.195 58.4773 386.734 58.5101C386.274 58.5758 385.847 58.4444 385.453 58.1816C384.04 57.1958 382.692 56.2758 381.509 55.4872C378.025 53.1214 375.002 51.0842 372.833 48.9813C370.401 46.6484 369.152 44.2826 368.856 41.6211C368.593 39.0253 369.217 36.5281 370.631 34.5895Z" fill="white"/>
<path d="M484.084 70.1202C495.083 59.1234 495.083 41.2941 484.084 30.2973C473.085 19.3005 455.252 19.3005 444.253 30.2973C433.254 41.2941 433.254 59.1234 444.253 70.1202C455.252 81.117 473.085 81.117 484.084 70.1202Z" fill="#7B5FEB"/>
<path d="M464.163 79.0795C448.257 79.0795 435.275 66.1335 435.275 50.1974C435.275 34.2941 448.224 21.3152 464.163 21.3152C480.103 21.3152 493.052 34.2612 493.052 50.1974C493.052 66.1006 480.103 79.0795 464.163 79.0795ZM464.163 22.7609C449.045 22.7609 436.721 35.0498 436.721 50.1974C436.721 65.312 449.013 77.6338 464.163 77.6338C479.281 77.6338 491.606 65.3449 491.606 50.1974C491.606 35.0827 479.314 22.7609 464.163 22.7609Z" fill="#7B5FEB"/>
<path d="M471.788 52.9903C470.21 52.9903 468.83 53.7461 467.91 54.9289L458.412 51.216C458.412 51.0846 458.444 50.986 458.444 50.8546C458.444 50.6245 458.412 50.3945 458.379 50.1645L468.107 45.663C468.994 46.6816 470.309 47.3387 471.788 47.3716C474.483 47.3716 476.717 45.1701 476.717 42.4429C476.717 39.7157 474.516 37.4814 471.788 37.4814C469.093 37.4814 466.858 39.6828 466.858 42.4101C466.858 42.6401 466.891 42.8701 466.924 43.1001L457.196 47.6016C456.308 46.583 454.994 45.9259 453.515 45.893C450.82 45.893 448.585 48.0945 448.585 50.8217C448.585 53.5489 450.787 55.7833 453.515 55.7833C455.092 55.7833 456.473 55.0275 457.393 53.8446L466.891 57.5576C466.891 57.689 466.858 57.7876 466.858 57.919C466.858 60.6462 469.06 62.8806 471.788 62.8806C474.483 62.8806 476.717 60.6791 476.717 57.9519C476.685 55.2247 474.483 53.0232 471.788 52.9903Z" fill="black"/>
<path d="M472.161 159.372C485.059 150.422 488.299 132.773 479.398 119.952C470.498 107.132 452.826 103.994 439.928 112.945C427.03 121.895 423.79 139.544 432.691 152.365C441.591 165.186 459.263 168.323 472.161 159.372Z" fill="black"/>
<path d="M448.948 149.625L444.807 127.183C444.61 126.033 445.662 125.081 446.779 125.376L471.264 132.309C472.512 132.671 472.808 134.281 471.789 135.069L451.413 150.578C450.526 151.301 449.178 150.808 448.948 149.625Z" fill="white"/>
<path d="M455.767 251.299C471.695 243.547 478.36 224.433 470.653 208.606C462.947 192.78 443.788 186.234 427.86 193.987C411.932 201.739 405.267 220.853 412.974 236.68C420.68 252.506 439.839 259.052 455.767 251.299Z" fill="#7B5FEB"/>
<path d="M458.15 217.477C457.822 225.462 444.314 244.125 441.094 248.495C440.765 248.955 440.075 248.922 439.779 248.429C437.741 245.144 431.004 234.103 427.487 225.166C426.074 221.617 425.187 218.397 425.285 216.13C425.647 207.061 433.304 199.997 442.375 200.358C451.446 200.785 458.512 208.408 458.15 217.477Z" fill="black"/>
<path d="M447.033 222.146C449.972 219.207 449.972 214.443 447.033 211.505C444.094 208.566 439.329 208.566 436.39 211.505C433.451 214.443 433.451 219.207 436.39 222.146C439.329 225.084 444.094 225.084 447.033 222.146Z" fill="#7B5FEB"/>
<defs>
<clipPath id="clip0_1_116">
<rect width="30.2167" height="30.1981" fill="white" transform="translate(245.93 358.182)"/>
</clipPath>
<clipPath id="clip1_1_116">
<rect width="59.01" height="59.01" fill="white" transform="matrix(0.707325 0.706888 -0.707325 0.706888 90.4219 262.555)"/>
</clipPath>
</defs>
</svg>
