<svg width="40" height="41" viewBox="0 0 40 41" fill="none" xmlns="http://www.w3.org/2000/svg">
<path fill-rule="evenodd" clip-rule="evenodd" d="M9.05813 0.625C6.73088 0.625 4.49894 1.5495 2.85332 3.19512C1.2077 4.84073 0.283203 7.07267 0.283203 9.39993V31.3373C0.283203 33.6645 1.2077 35.8964 2.85332 37.5421C4.49894 39.1877 6.73088 40.1122 9.05813 40.1122H30.9955C33.3227 40.1122 35.5546 39.1877 37.2003 37.5421C38.8459 35.8964 39.7704 33.6645 39.7704 31.3373V9.39993C39.7704 7.07267 38.8459 4.84073 37.2003 3.19512C35.5546 1.5495 33.3227 0.625 30.9955 0.625H9.05813ZM31.7238 16.1018C32.0467 15.6177 32.1641 15.0252 32.0501 14.4546C31.9361 13.884 31.6002 13.382 31.1161 13.0591C30.632 12.7362 30.0395 12.6188 29.4689 12.7327C28.8983 12.8467 28.3963 13.1827 28.0734 13.6667C27.2968 14.6978 26.4829 15.685 25.5309 16.5625C24.4274 17.5804 23.3108 18.3438 22.2227 18.7957L22.2052 14.6276C22.1423 14.094 21.8858 13.602 21.4842 13.2449C21.0827 12.8879 20.5641 12.6906 20.0268 12.6905C18.8378 12.7585 17.8331 13.636 17.8331 14.8843V24.4775C13.5597 23.2928 11.2519 19.1467 11.2519 14.8843C11.2519 14.3024 11.0207 13.7445 10.6093 13.3331C10.1979 12.9217 9.63995 12.6905 9.05813 12.6905C8.47632 12.6905 7.91833 12.9217 7.50693 13.3331C7.09553 13.7445 6.8644 14.3024 6.8644 14.8843C6.8644 22.8519 12.3707 29.1435 20.0268 29.1435C20.6086 29.1435 21.1666 28.9124 21.578 28.501C21.9894 28.0896 22.2205 27.5316 22.2205 26.9498V23.521C25.1426 23.7535 27.9769 25.8178 29.0343 27.9304C29.1575 28.1971 29.333 28.4363 29.5504 28.6339C29.7678 28.8315 30.0227 28.9834 30.3 29.0806C30.5772 29.1778 30.8712 29.2183 31.1644 29.1998C31.4576 29.1812 31.7441 29.1039 32.0068 28.9726C32.2696 28.8412 32.5033 28.6583 32.6941 28.4349C32.8849 28.2115 33.0288 27.952 33.1174 27.6719C33.206 27.3918 33.2374 27.0967 33.2098 26.8042C33.1822 26.5117 33.0961 26.2278 32.9566 25.9692C31.908 23.8698 29.9512 21.9064 27.5425 20.6253C27.8672 20.3591 28.1889 20.0797 28.5078 19.7873C29.7165 18.6851 30.7955 17.4486 31.7238 16.1018Z" fill="#BADE4F"/>
</svg>
