<svg width="200" height="201" viewBox="0 0 200 201" fill="none" xmlns="http://www.w3.org/2000/svg">
<g filter="url(#filter0_i_432_603)">
<path d="M147.644 134.406L153.863 140.631C154.658 141.429 155.603 142.061 156.643 142.493C157.684 142.925 158.799 143.147 159.925 143.147C161.052 143.147 162.167 142.925 163.207 142.493C164.247 142.061 165.192 141.429 165.988 140.631L185.631 120.963C186.223 120.376 186.692 119.678 187.013 118.909C187.333 118.139 187.498 117.314 187.498 116.481C187.498 115.648 187.333 114.823 187.013 114.054C186.692 113.285 186.223 112.587 185.631 112L149.194 75.5188C148.928 75.2597 148.717 74.9501 148.573 74.6082C148.429 74.2664 148.355 73.8991 148.355 73.5282C148.355 73.1572 148.429 72.7899 148.573 72.4481C148.717 72.1062 148.928 71.7966 149.194 71.5375C149.881 70.85 150.819 70.6 151.688 70.7875C157.594 71.7875 163.875 70.0375 168.413 65.5C170.201 63.7037 171.616 61.5707 172.576 59.2243C173.535 56.8779 174.02 54.3646 174.003 51.8297C173.986 49.2948 173.466 46.7884 172.474 44.4554C171.483 42.1225 170.038 40.0091 168.225 38.2375L162.875 32.8188L160.45 33.6313C157.357 32.7004 154.077 32.571 150.92 33.2553C147.762 33.9396 144.83 35.4151 142.4 37.5434C139.969 39.6716 138.119 42.3827 137.024 45.422C135.929 48.4614 135.624 51.7293 136.138 54.9188C136.263 55.8563 136.013 56.725 135.331 57.4063L135.206 57.5313C134.948 57.7966 134.639 58.0075 134.298 58.1515C133.956 58.2955 133.589 58.3697 133.219 58.3697C132.848 58.3697 132.482 58.2955 132.14 58.1515C131.799 58.0075 131.49 57.7966 131.231 57.5313L94.7939 21.125C94.2072 20.5345 93.5095 20.0659 92.741 19.746C91.9725 19.4262 91.1482 19.2616 90.3158 19.2616C89.4834 19.2616 88.6592 19.4262 87.8906 19.746C87.1221 20.0659 86.4244 20.5345 85.8377 21.125L66.3814 40.6063C65.8814 41.1063 65.5064 41.6688 65.1314 42.225L63.8314 40.9125L59.2252 45.525L66.3752 52.6813L66.5002 52.8063C68.2439 54.55 70.6064 55.4813 73.0314 55.3563C75.9237 55.2222 78.8087 55.7466 81.4687 56.8899C84.1288 58.0332 86.4946 59.7655 88.3877 61.9563C91.3821 65.4374 93.0288 69.877 93.0288 74.4688C93.0288 79.0606 91.3821 83.5002 88.3877 86.9813C86.6722 88.9711 84.565 90.5862 82.1978 91.7257C79.8305 92.8653 77.2538 93.5048 74.6284 93.6045C72.003 93.7042 69.3852 93.2619 66.9383 92.3052C64.4915 91.3484 62.2679 89.8978 60.4064 88.0438C58.4806 86.1375 56.9893 83.8376 56.0347 81.3015C55.08 78.7655 54.6845 76.0531 54.8752 73.35C55.0002 70.9188 54.1252 68.5563 52.3877 66.8125C52.3474 66.7147 52.2829 66.6287 52.2002 66.5625L46.1064 60.4625L43.4377 63.2L44.6189 64.3875C42.9618 64.7176 41.4432 65.5411 40.2627 66.75L20.6127 86.4188C20.0212 87.0056 19.5518 87.7037 19.2314 88.4728C18.911 89.2419 18.7461 90.0669 18.7461 90.9C18.7461 91.7332 18.911 92.5581 19.2314 93.3273C19.5518 94.0964 20.0212 94.7945 20.6127 95.3813L57.1127 131.925C58.2377 133.044 58.2377 134.788 57.1127 135.906C56.7953 136.231 56.4006 136.471 55.9656 136.602C55.5306 136.733 55.0694 136.752 54.6252 136.656C51.4056 136.104 48.0983 136.386 45.0184 137.474C41.9385 138.563 39.1888 140.422 37.0314 142.875C34.0116 146.353 32.3436 150.801 32.3321 155.407C32.3206 160.013 33.9665 164.47 36.9689 167.963C38.6837 169.956 40.7924 171.574 43.1625 172.713C45.5326 173.853 48.1128 174.489 50.7408 174.583C53.3689 174.677 55.988 174.226 58.4333 173.259C60.8787 172.292 63.0975 170.829 64.9502 168.963C67.0781 166.828 68.6713 164.221 69.6 161.353C70.5286 158.486 70.7664 155.439 70.2939 152.463C70.2229 152.013 70.2595 151.553 70.4008 151.121C70.542 150.689 70.7839 150.296 71.1064 149.975L71.2314 149.85C71.49 149.585 71.7991 149.374 72.1404 149.23C72.4817 149.086 72.8485 149.012 73.2189 149.012C73.5894 149.012 73.9561 149.086 74.2975 149.23C74.6388 149.374 74.9479 149.585 75.2064 149.85L111.456 186.138C112.043 186.728 112.741 187.197 113.509 187.517C114.278 187.836 115.102 188.001 115.935 188.001C116.767 188.001 117.591 187.836 118.36 187.517C119.128 187.197 119.826 186.728 120.413 186.138L139.875 166.656C140.675 165.861 141.309 164.915 141.742 163.874C142.174 162.832 142.397 161.715 142.397 160.588C142.397 159.46 142.174 158.343 141.742 157.302C141.309 156.26 140.675 155.314 139.875 154.519L139.75 154.394L134.213 148.85L131.788 151.281L132.475 151.969C129.718 151.979 126.991 151.394 124.481 150.255C121.97 149.116 119.734 147.45 117.925 145.369C114.931 141.888 113.284 137.448 113.284 132.856C113.284 128.264 114.931 123.825 117.925 120.344C119.641 118.354 121.748 116.739 124.115 115.599C126.482 114.46 129.059 113.82 131.685 113.721C134.31 113.621 136.928 114.063 139.375 115.02C141.821 115.977 144.045 117.427 145.906 119.281C149.138 122.525 151 126.694 151.375 130.925L151.25 130.8L147.644 134.406Z" fill="#EAE4F2"/>
<path d="M147.644 134.406L153.863 140.631C154.658 141.429 155.603 142.061 156.643 142.493C157.684 142.925 158.799 143.147 159.925 143.147C161.052 143.147 162.167 142.925 163.207 142.493C164.247 142.061 165.192 141.429 165.988 140.631L185.631 120.963C186.223 120.376 186.692 119.678 187.013 118.909C187.333 118.139 187.498 117.314 187.498 116.481C187.498 115.648 187.333 114.823 187.013 114.054C186.692 113.285 186.223 112.587 185.631 112L149.194 75.5188C148.928 75.2597 148.717 74.9501 148.573 74.6082C148.429 74.2664 148.355 73.8991 148.355 73.5282C148.355 73.1572 148.429 72.7899 148.573 72.4481C148.717 72.1062 148.928 71.7966 149.194 71.5375C149.881 70.85 150.819 70.6 151.688 70.7875C157.594 71.7875 163.875 70.0375 168.413 65.5C170.201 63.7037 171.616 61.5707 172.576 59.2243C173.535 56.8779 174.02 54.3646 174.003 51.8297C173.986 49.2948 173.466 46.7884 172.474 44.4554C171.483 42.1225 170.038 40.0091 168.225 38.2375L162.875 32.8188L160.45 33.6313C157.357 32.7004 154.077 32.571 150.92 33.2553C147.762 33.9396 144.83 35.4151 142.4 37.5434C139.969 39.6716 138.119 42.3827 137.024 45.422C135.929 48.4614 135.624 51.7293 136.138 54.9188C136.263 55.8563 136.013 56.725 135.331 57.4063L135.206 57.5313C134.948 57.7966 134.639 58.0075 134.298 58.1515C133.956 58.2955 133.589 58.3697 133.219 58.3697C132.848 58.3697 132.482 58.2955 132.14 58.1515C131.799 58.0075 131.49 57.7966 131.231 57.5313L94.7939 21.125C94.2072 20.5345 93.5095 20.0659 92.741 19.746C91.9725 19.4262 91.1482 19.2616 90.3158 19.2616C89.4834 19.2616 88.6592 19.4262 87.8906 19.746C87.1221 20.0659 86.4244 20.5345 85.8377 21.125L66.3814 40.6063C65.8814 41.1063 65.5064 41.6688 65.1314 42.225L63.8314 40.9125L59.2252 45.525L66.3752 52.6813L66.5002 52.8063C68.2439 54.55 70.6064 55.4813 73.0314 55.3563C75.9237 55.2222 78.8087 55.7466 81.4687 56.8899C84.1288 58.0332 86.4946 59.7655 88.3877 61.9563C91.3821 65.4374 93.0288 69.877 93.0288 74.4688C93.0288 79.0606 91.3821 83.5002 88.3877 86.9813C86.6722 88.9711 84.565 90.5862 82.1978 91.7257C79.8305 92.8653 77.2538 93.5048 74.6284 93.6045C72.003 93.7042 69.3852 93.2619 66.9383 92.3052C64.4915 91.3484 62.2679 89.8978 60.4064 88.0438C58.4806 86.1375 56.9893 83.8376 56.0347 81.3015C55.08 78.7655 54.6845 76.0531 54.8752 73.35C55.0002 70.9188 54.1252 68.5563 52.3877 66.8125C52.3474 66.7147 52.2829 66.6287 52.2002 66.5625L46.1064 60.4625L43.4377 63.2L44.6189 64.3875C42.9618 64.7176 41.4432 65.5411 40.2627 66.75L20.6127 86.4188C20.0212 87.0056 19.5518 87.7037 19.2314 88.4728C18.911 89.2419 18.7461 90.0669 18.7461 90.9C18.7461 91.7332 18.911 92.5581 19.2314 93.3273C19.5518 94.0964 20.0212 94.7945 20.6127 95.3813L57.1127 131.925C58.2377 133.044 58.2377 134.788 57.1127 135.906C56.7953 136.231 56.4006 136.471 55.9656 136.602C55.5306 136.733 55.0694 136.752 54.6252 136.656C51.4056 136.104 48.0983 136.386 45.0184 137.474C41.9385 138.563 39.1888 140.422 37.0314 142.875C34.0116 146.353 32.3436 150.801 32.3321 155.407C32.3206 160.013 33.9665 164.47 36.9689 167.963C38.6837 169.956 40.7924 171.574 43.1625 172.713C45.5326 173.853 48.1128 174.489 50.7408 174.583C53.3689 174.677 55.988 174.226 58.4333 173.259C60.8787 172.292 63.0975 170.829 64.9502 168.963C67.0781 166.828 68.6713 164.221 69.6 161.353C70.5286 158.486 70.7664 155.439 70.2939 152.463C70.2229 152.013 70.2595 151.553 70.4008 151.121C70.542 150.689 70.7839 150.296 71.1064 149.975L71.2314 149.85C71.49 149.585 71.7991 149.374 72.1404 149.23C72.4817 149.086 72.8485 149.012 73.2189 149.012C73.5894 149.012 73.9561 149.086 74.2975 149.23C74.6388 149.374 74.9479 149.585 75.2064 149.85L111.456 186.138C112.043 186.728 112.741 187.197 113.509 187.517C114.278 187.836 115.102 188.001 115.935 188.001C116.767 188.001 117.591 187.836 118.36 187.517C119.128 187.197 119.826 186.728 120.413 186.138L139.875 166.656C140.675 165.861 141.309 164.915 141.742 163.874C142.174 162.832 142.397 161.715 142.397 160.588C142.397 159.46 142.174 158.343 141.742 157.302C141.309 156.26 140.675 155.314 139.875 154.519L139.75 154.394L134.213 148.85L131.788 151.281L132.475 151.969C129.718 151.979 126.991 151.394 124.481 150.255C121.97 149.116 119.734 147.45 117.925 145.369C114.931 141.888 113.284 137.448 113.284 132.856C113.284 128.264 114.931 123.825 117.925 120.344C119.641 118.354 121.748 116.739 124.115 115.599C126.482 114.46 129.059 113.82 131.685 113.721C134.31 113.621 136.928 114.063 139.375 115.02C141.821 115.977 144.045 117.427 145.906 119.281C149.138 122.525 151 126.694 151.375 130.925L151.25 130.8L147.644 134.406Z" fill="url(#paint0_radial_432_603)"/>
</g>
<path d="M147.644 134.406L153.863 140.631C154.658 141.429 155.603 142.061 156.643 142.493C157.684 142.925 158.799 143.147 159.925 143.147C161.052 143.147 162.167 142.925 163.207 142.493C164.247 142.061 165.192 141.429 165.988 140.631L185.631 120.963C186.223 120.376 186.692 119.678 187.013 118.909C187.333 118.139 187.498 117.314 187.498 116.481C187.498 115.648 187.333 114.823 187.013 114.054C186.692 113.285 186.223 112.587 185.631 112L149.194 75.5188C148.928 75.2597 148.717 74.9501 148.573 74.6082C148.429 74.2664 148.355 73.8991 148.355 73.5282C148.355 73.1572 148.429 72.7899 148.573 72.4481C148.717 72.1062 148.928 71.7966 149.194 71.5375C149.881 70.85 150.819 70.6 151.688 70.7875C157.594 71.7875 163.875 70.0375 168.413 65.5C170.201 63.7037 171.616 61.5707 172.576 59.2243C173.535 56.8779 174.02 54.3646 174.003 51.8297C173.986 49.2948 173.466 46.7884 172.474 44.4554C171.483 42.1225 170.038 40.0091 168.225 38.2375L162.875 32.8188L160.45 33.6313C157.357 32.7004 154.077 32.571 150.92 33.2553C147.762 33.9396 144.83 35.4151 142.4 37.5434C139.969 39.6716 138.119 42.3827 137.024 45.422C135.929 48.4614 135.624 51.7293 136.138 54.9188C136.263 55.8563 136.013 56.725 135.331 57.4063L135.206 57.5313C134.948 57.7966 134.639 58.0075 134.298 58.1515C133.956 58.2955 133.589 58.3697 133.219 58.3697C132.848 58.3697 132.482 58.2955 132.14 58.1515C131.799 58.0075 131.49 57.7966 131.231 57.5313L94.7939 21.125C94.2072 20.5345 93.5095 20.0659 92.741 19.746C91.9725 19.4262 91.1482 19.2616 90.3158 19.2616C89.4834 19.2616 88.6592 19.4262 87.8906 19.746C87.1221 20.0659 86.4244 20.5345 85.8377 21.125L66.3814 40.6063C65.8814 41.1063 65.5064 41.6688 65.1314 42.225L63.8314 40.9125L59.2252 45.525L66.3752 52.6813L66.5002 52.8063C68.2439 54.55 70.6064 55.4813 73.0314 55.3563C75.9237 55.2222 78.8087 55.7466 81.4687 56.8899C84.1288 58.0332 86.4946 59.7655 88.3877 61.9563C91.3821 65.4374 93.0288 69.877 93.0288 74.4688C93.0288 79.0606 91.3821 83.5002 88.3877 86.9813C86.6722 88.9711 84.565 90.5862 82.1978 91.7257C79.8305 92.8653 77.2538 93.5048 74.6284 93.6045C72.003 93.7042 69.3852 93.2619 66.9383 92.3052C64.4915 91.3484 62.2679 89.8978 60.4064 88.0438C58.4806 86.1375 56.9893 83.8376 56.0347 81.3015C55.08 78.7655 54.6845 76.0531 54.8752 73.35C55.0002 70.9188 54.1252 68.5563 52.3877 66.8125C52.3474 66.7147 52.2829 66.6287 52.2002 66.5625L46.1064 60.4625L43.4377 63.2L44.6189 64.3875C42.9618 64.7176 41.4432 65.5411 40.2627 66.75L20.6127 86.4188C20.0212 87.0056 19.5518 87.7037 19.2314 88.4728C18.911 89.2419 18.7461 90.0669 18.7461 90.9C18.7461 91.7332 18.911 92.5581 19.2314 93.3273C19.5518 94.0964 20.0212 94.7945 20.6127 95.3813L57.1127 131.925C58.2377 133.044 58.2377 134.788 57.1127 135.906C56.7953 136.231 56.4006 136.471 55.9656 136.602C55.5306 136.733 55.0694 136.752 54.6252 136.656C51.4056 136.104 48.0983 136.386 45.0184 137.474C41.9385 138.563 39.1888 140.422 37.0314 142.875C34.0116 146.353 32.3436 150.801 32.3321 155.407C32.3206 160.013 33.9665 164.47 36.9689 167.963C38.6837 169.956 40.7924 171.574 43.1625 172.713C45.5326 173.853 48.1128 174.489 50.7408 174.583C53.3689 174.677 55.988 174.226 58.4333 173.259C60.8787 172.292 63.0975 170.829 64.9502 168.963C67.0781 166.828 68.6713 164.221 69.6 161.353C70.5286 158.486 70.7664 155.439 70.2939 152.463C70.2229 152.013 70.2595 151.553 70.4008 151.121C70.542 150.689 70.7839 150.296 71.1064 149.975L71.2314 149.85C71.49 149.585 71.7991 149.374 72.1404 149.23C72.4817 149.086 72.8485 149.012 73.2189 149.012C73.5894 149.012 73.9561 149.086 74.2975 149.23C74.6388 149.374 74.9479 149.585 75.2064 149.85L111.456 186.138C112.043 186.728 112.741 187.197 113.509 187.517C114.278 187.836 115.102 188.001 115.935 188.001C116.767 188.001 117.591 187.836 118.36 187.517C119.128 187.197 119.826 186.728 120.413 186.138L139.875 166.656C140.675 165.861 141.309 164.915 141.742 163.874C142.174 162.832 142.397 161.715 142.397 160.588C142.397 159.46 142.174 158.343 141.742 157.302C141.309 156.26 140.675 155.314 139.875 154.519L139.75 154.394L134.213 148.85L131.788 151.281L132.475 151.969C129.718 151.979 126.991 151.394 124.481 150.255C121.97 149.116 119.734 147.45 117.925 145.369C114.931 141.888 113.284 137.448 113.284 132.856C113.284 128.264 114.931 123.825 117.925 120.344C119.641 118.354 121.748 116.739 124.115 115.599C126.482 114.46 129.059 113.82 131.685 113.721C134.31 113.621 136.928 114.063 139.375 115.02C141.821 115.977 144.045 117.427 145.906 119.281C149.138 122.525 151 126.694 151.375 130.925L151.25 130.8L147.644 134.406Z" fill="url(#paint1_radial_432_603)"/>
<path d="M147.644 134.406L153.863 140.631C154.658 141.429 155.603 142.061 156.643 142.493C157.684 142.925 158.799 143.147 159.925 143.147C161.052 143.147 162.167 142.925 163.207 142.493C164.247 142.061 165.192 141.429 165.988 140.631L185.631 120.963C186.223 120.376 186.692 119.678 187.013 118.909C187.333 118.139 187.498 117.314 187.498 116.481C187.498 115.648 187.333 114.823 187.013 114.054C186.692 113.285 186.223 112.587 185.631 112L149.194 75.5188C148.928 75.2597 148.717 74.9501 148.573 74.6082C148.429 74.2664 148.355 73.8991 148.355 73.5282C148.355 73.1572 148.429 72.7899 148.573 72.4481C148.717 72.1062 148.928 71.7966 149.194 71.5375C149.881 70.85 150.819 70.6 151.688 70.7875C157.594 71.7875 163.875 70.0375 168.413 65.5C170.201 63.7037 171.616 61.5707 172.576 59.2243C173.535 56.8779 174.02 54.3646 174.003 51.8297C173.986 49.2948 173.466 46.7884 172.474 44.4554C171.483 42.1225 170.038 40.0091 168.225 38.2375L162.875 32.8188L160.45 33.6313C157.357 32.7004 154.077 32.571 150.92 33.2553C147.762 33.9396 144.83 35.4151 142.4 37.5434C139.969 39.6716 138.119 42.3827 137.024 45.422C135.929 48.4614 135.624 51.7293 136.138 54.9188C136.263 55.8563 136.013 56.725 135.331 57.4063L135.206 57.5313C134.948 57.7966 134.639 58.0075 134.298 58.1515C133.956 58.2955 133.589 58.3697 133.219 58.3697C132.848 58.3697 132.482 58.2955 132.14 58.1515C131.799 58.0075 131.49 57.7966 131.231 57.5313L94.7939 21.125C94.2072 20.5345 93.5095 20.0659 92.741 19.746C91.9725 19.4262 91.1482 19.2616 90.3158 19.2616C89.4834 19.2616 88.6592 19.4262 87.8906 19.746C87.1221 20.0659 86.4244 20.5345 85.8377 21.125L66.3814 40.6063C65.8814 41.1063 65.5064 41.6688 65.1314 42.225L63.8314 40.9125L59.2252 45.525L66.3752 52.6813L66.5002 52.8063C68.2439 54.55 70.6064 55.4813 73.0314 55.3563C75.9237 55.2222 78.8087 55.7466 81.4687 56.8899C84.1288 58.0332 86.4946 59.7655 88.3877 61.9563C91.3821 65.4374 93.0288 69.877 93.0288 74.4688C93.0288 79.0606 91.3821 83.5002 88.3877 86.9813C86.6722 88.9711 84.565 90.5862 82.1978 91.7257C79.8305 92.8653 77.2538 93.5048 74.6284 93.6045C72.003 93.7042 69.3852 93.2619 66.9383 92.3052C64.4915 91.3484 62.2679 89.8978 60.4064 88.0438C58.4806 86.1375 56.9893 83.8376 56.0347 81.3015C55.08 78.7655 54.6845 76.0531 54.8752 73.35C55.0002 70.9188 54.1252 68.5563 52.3877 66.8125C52.3474 66.7147 52.2829 66.6287 52.2002 66.5625L46.1064 60.4625L43.4377 63.2L44.6189 64.3875C42.9618 64.7176 41.4432 65.5411 40.2627 66.75L20.6127 86.4188C20.0212 87.0056 19.5518 87.7037 19.2314 88.4728C18.911 89.2419 18.7461 90.0669 18.7461 90.9C18.7461 91.7332 18.911 92.5581 19.2314 93.3273C19.5518 94.0964 20.0212 94.7945 20.6127 95.3813L57.1127 131.925C58.2377 133.044 58.2377 134.788 57.1127 135.906C56.7953 136.231 56.4006 136.471 55.9656 136.602C55.5306 136.733 55.0694 136.752 54.6252 136.656C51.4056 136.104 48.0983 136.386 45.0184 137.474C41.9385 138.563 39.1888 140.422 37.0314 142.875C34.0116 146.353 32.3436 150.801 32.3321 155.407C32.3206 160.013 33.9665 164.47 36.9689 167.963C38.6837 169.956 40.7924 171.574 43.1625 172.713C45.5326 173.853 48.1128 174.489 50.7408 174.583C53.3689 174.677 55.988 174.226 58.4333 173.259C60.8787 172.292 63.0975 170.829 64.9502 168.963C67.0781 166.828 68.6713 164.221 69.6 161.353C70.5286 158.486 70.7664 155.439 70.2939 152.463C70.2229 152.013 70.2595 151.553 70.4008 151.121C70.542 150.689 70.7839 150.296 71.1064 149.975L71.2314 149.85C71.49 149.585 71.7991 149.374 72.1404 149.23C72.4817 149.086 72.8485 149.012 73.2189 149.012C73.5894 149.012 73.9561 149.086 74.2975 149.23C74.6388 149.374 74.9479 149.585 75.2064 149.85L111.456 186.138C112.043 186.728 112.741 187.197 113.509 187.517C114.278 187.836 115.102 188.001 115.935 188.001C116.767 188.001 117.591 187.836 118.36 187.517C119.128 187.197 119.826 186.728 120.413 186.138L139.875 166.656C140.675 165.861 141.309 164.915 141.742 163.874C142.174 162.832 142.397 161.715 142.397 160.588C142.397 159.46 142.174 158.343 141.742 157.302C141.309 156.26 140.675 155.314 139.875 154.519L139.75 154.394L134.213 148.85L131.788 151.281L132.475 151.969C129.718 151.979 126.991 151.394 124.481 150.255C121.97 149.116 119.734 147.45 117.925 145.369C114.931 141.888 113.284 137.448 113.284 132.856C113.284 128.264 114.931 123.825 117.925 120.344C119.641 118.354 121.748 116.739 124.115 115.599C126.482 114.46 129.059 113.82 131.685 113.721C134.31 113.621 136.928 114.063 139.375 115.02C141.821 115.977 144.045 117.427 145.906 119.281C149.138 122.525 151 126.694 151.375 130.925L151.25 130.8L147.644 134.406Z" fill="url(#paint2_radial_432_603)"/>
<path d="M147.644 134.406L153.863 140.631C154.658 141.429 155.603 142.061 156.643 142.493C157.684 142.925 158.799 143.147 159.925 143.147C161.052 143.147 162.167 142.925 163.207 142.493C164.247 142.061 165.192 141.429 165.988 140.631L185.631 120.963C186.223 120.376 186.692 119.678 187.013 118.909C187.333 118.139 187.498 117.314 187.498 116.481C187.498 115.648 187.333 114.823 187.013 114.054C186.692 113.285 186.223 112.587 185.631 112L149.194 75.5188C148.928 75.2597 148.717 74.9501 148.573 74.6082C148.429 74.2664 148.355 73.8991 148.355 73.5282C148.355 73.1572 148.429 72.7899 148.573 72.4481C148.717 72.1062 148.928 71.7966 149.194 71.5375C149.881 70.85 150.819 70.6 151.688 70.7875C157.594 71.7875 163.875 70.0375 168.413 65.5C170.201 63.7037 171.616 61.5707 172.576 59.2243C173.535 56.8779 174.02 54.3646 174.003 51.8297C173.986 49.2948 173.466 46.7884 172.474 44.4554C171.483 42.1225 170.038 40.0091 168.225 38.2375L162.875 32.8188L160.45 33.6313C157.357 32.7004 154.077 32.571 150.92 33.2553C147.762 33.9396 144.83 35.4151 142.4 37.5434C139.969 39.6716 138.119 42.3827 137.024 45.422C135.929 48.4614 135.624 51.7293 136.138 54.9188C136.263 55.8563 136.013 56.725 135.331 57.4063L135.206 57.5313C134.948 57.7966 134.639 58.0075 134.298 58.1515C133.956 58.2955 133.589 58.3697 133.219 58.3697C132.848 58.3697 132.482 58.2955 132.14 58.1515C131.799 58.0075 131.49 57.7966 131.231 57.5313L94.7939 21.125C94.2072 20.5345 93.5095 20.0659 92.741 19.746C91.9725 19.4262 91.1482 19.2616 90.3158 19.2616C89.4834 19.2616 88.6592 19.4262 87.8906 19.746C87.1221 20.0659 86.4244 20.5345 85.8377 21.125L66.3814 40.6063C65.8814 41.1063 65.5064 41.6688 65.1314 42.225L63.8314 40.9125L59.2252 45.525L66.3752 52.6813L66.5002 52.8063C68.2439 54.55 70.6064 55.4813 73.0314 55.3563C75.9237 55.2222 78.8087 55.7466 81.4687 56.8899C84.1288 58.0332 86.4946 59.7655 88.3877 61.9563C91.3821 65.4374 93.0288 69.877 93.0288 74.4688C93.0288 79.0606 91.3821 83.5002 88.3877 86.9813C86.6722 88.9711 84.565 90.5862 82.1978 91.7257C79.8305 92.8653 77.2538 93.5048 74.6284 93.6045C72.003 93.7042 69.3852 93.2619 66.9383 92.3052C64.4915 91.3484 62.2679 89.8978 60.4064 88.0438C58.4806 86.1375 56.9893 83.8376 56.0347 81.3015C55.08 78.7655 54.6845 76.0531 54.8752 73.35C55.0002 70.9188 54.1252 68.5563 52.3877 66.8125C52.3474 66.7147 52.2829 66.6287 52.2002 66.5625L46.1064 60.4625L43.4377 63.2L44.6189 64.3875C42.9618 64.7176 41.4432 65.5411 40.2627 66.75L20.6127 86.4188C20.0212 87.0056 19.5518 87.7037 19.2314 88.4728C18.911 89.2419 18.7461 90.0669 18.7461 90.9C18.7461 91.7332 18.911 92.5581 19.2314 93.3273C19.5518 94.0964 20.0212 94.7945 20.6127 95.3813L57.1127 131.925C58.2377 133.044 58.2377 134.788 57.1127 135.906C56.7953 136.231 56.4006 136.471 55.9656 136.602C55.5306 136.733 55.0694 136.752 54.6252 136.656C51.4056 136.104 48.0983 136.386 45.0184 137.474C41.9385 138.563 39.1888 140.422 37.0314 142.875C34.0116 146.353 32.3436 150.801 32.3321 155.407C32.3206 160.013 33.9665 164.47 36.9689 167.963C38.6837 169.956 40.7924 171.574 43.1625 172.713C45.5326 173.853 48.1128 174.489 50.7408 174.583C53.3689 174.677 55.988 174.226 58.4333 173.259C60.8787 172.292 63.0975 170.829 64.9502 168.963C67.0781 166.828 68.6713 164.221 69.6 161.353C70.5286 158.486 70.7664 155.439 70.2939 152.463C70.2229 152.013 70.2595 151.553 70.4008 151.121C70.542 150.689 70.7839 150.296 71.1064 149.975L71.2314 149.85C71.49 149.585 71.7991 149.374 72.1404 149.23C72.4817 149.086 72.8485 149.012 73.2189 149.012C73.5894 149.012 73.9561 149.086 74.2975 149.23C74.6388 149.374 74.9479 149.585 75.2064 149.85L111.456 186.138C112.043 186.728 112.741 187.197 113.509 187.517C114.278 187.836 115.102 188.001 115.935 188.001C116.767 188.001 117.591 187.836 118.36 187.517C119.128 187.197 119.826 186.728 120.413 186.138L139.875 166.656C140.675 165.861 141.309 164.915 141.742 163.874C142.174 162.832 142.397 161.715 142.397 160.588C142.397 159.46 142.174 158.343 141.742 157.302C141.309 156.26 140.675 155.314 139.875 154.519L139.75 154.394L134.213 148.85L131.788 151.281L132.475 151.969C129.718 151.979 126.991 151.394 124.481 150.255C121.97 149.116 119.734 147.45 117.925 145.369C114.931 141.888 113.284 137.448 113.284 132.856C113.284 128.264 114.931 123.825 117.925 120.344C119.641 118.354 121.748 116.739 124.115 115.599C126.482 114.46 129.059 113.82 131.685 113.721C134.31 113.621 136.928 114.063 139.375 115.02C141.821 115.977 144.045 117.427 145.906 119.281C149.138 122.525 151 126.694 151.375 130.925L151.25 130.8L147.644 134.406Z" fill="url(#paint3_radial_432_603)"/>
<path d="M147.644 134.406L153.863 140.631C154.658 141.429 155.603 142.061 156.643 142.493C157.684 142.925 158.799 143.147 159.925 143.147C161.052 143.147 162.167 142.925 163.207 142.493C164.247 142.061 165.192 141.429 165.988 140.631L185.631 120.963C186.223 120.376 186.692 119.678 187.013 118.909C187.333 118.139 187.498 117.314 187.498 116.481C187.498 115.648 187.333 114.823 187.013 114.054C186.692 113.285 186.223 112.587 185.631 112L149.194 75.5188C148.928 75.2597 148.717 74.9501 148.573 74.6082C148.429 74.2664 148.355 73.8991 148.355 73.5282C148.355 73.1572 148.429 72.7899 148.573 72.4481C148.717 72.1062 148.928 71.7966 149.194 71.5375C149.881 70.85 150.819 70.6 151.688 70.7875C157.594 71.7875 163.875 70.0375 168.413 65.5C170.201 63.7037 171.616 61.5707 172.576 59.2243C173.535 56.8779 174.02 54.3646 174.003 51.8297C173.986 49.2948 173.466 46.7884 172.474 44.4554C171.483 42.1225 170.038 40.0091 168.225 38.2375L162.875 32.8188L160.45 33.6313C157.357 32.7004 154.077 32.571 150.92 33.2553C147.762 33.9396 144.83 35.4151 142.4 37.5434C139.969 39.6716 138.119 42.3827 137.024 45.422C135.929 48.4614 135.624 51.7293 136.138 54.9188C136.263 55.8563 136.013 56.725 135.331 57.4063L135.206 57.5313C134.948 57.7966 134.639 58.0075 134.298 58.1515C133.956 58.2955 133.589 58.3697 133.219 58.3697C132.848 58.3697 132.482 58.2955 132.14 58.1515C131.799 58.0075 131.49 57.7966 131.231 57.5313L94.7939 21.125C94.2072 20.5345 93.5095 20.0659 92.741 19.746C91.9725 19.4262 91.1482 19.2616 90.3158 19.2616C89.4834 19.2616 88.6592 19.4262 87.8906 19.746C87.1221 20.0659 86.4244 20.5345 85.8377 21.125L66.3814 40.6063C65.8814 41.1063 65.5064 41.6688 65.1314 42.225L63.8314 40.9125L59.2252 45.525L66.3752 52.6813L66.5002 52.8063C68.2439 54.55 70.6064 55.4813 73.0314 55.3563C75.9237 55.2222 78.8087 55.7466 81.4687 56.8899C84.1288 58.0332 86.4946 59.7655 88.3877 61.9563C91.3821 65.4374 93.0288 69.877 93.0288 74.4688C93.0288 79.0606 91.3821 83.5002 88.3877 86.9813C86.6722 88.9711 84.565 90.5862 82.1978 91.7257C79.8305 92.8653 77.2538 93.5048 74.6284 93.6045C72.003 93.7042 69.3852 93.2619 66.9383 92.3052C64.4915 91.3484 62.2679 89.8978 60.4064 88.0438C58.4806 86.1375 56.9893 83.8376 56.0347 81.3015C55.08 78.7655 54.6845 76.0531 54.8752 73.35C55.0002 70.9188 54.1252 68.5563 52.3877 66.8125C52.3474 66.7147 52.2829 66.6287 52.2002 66.5625L46.1064 60.4625L43.4377 63.2L44.6189 64.3875C42.9618 64.7176 41.4432 65.5411 40.2627 66.75L20.6127 86.4188C20.0212 87.0056 19.5518 87.7037 19.2314 88.4728C18.911 89.2419 18.7461 90.0669 18.7461 90.9C18.7461 91.7332 18.911 92.5581 19.2314 93.3273C19.5518 94.0964 20.0212 94.7945 20.6127 95.3813L57.1127 131.925C58.2377 133.044 58.2377 134.788 57.1127 135.906C56.7953 136.231 56.4006 136.471 55.9656 136.602C55.5306 136.733 55.0694 136.752 54.6252 136.656C51.4056 136.104 48.0983 136.386 45.0184 137.474C41.9385 138.563 39.1888 140.422 37.0314 142.875C34.0116 146.353 32.3436 150.801 32.3321 155.407C32.3206 160.013 33.9665 164.47 36.9689 167.963C38.6837 169.956 40.7924 171.574 43.1625 172.713C45.5326 173.853 48.1128 174.489 50.7408 174.583C53.3689 174.677 55.988 174.226 58.4333 173.259C60.8787 172.292 63.0975 170.829 64.9502 168.963C67.0781 166.828 68.6713 164.221 69.6 161.353C70.5286 158.486 70.7664 155.439 70.2939 152.463C70.2229 152.013 70.2595 151.553 70.4008 151.121C70.542 150.689 70.7839 150.296 71.1064 149.975L71.2314 149.85C71.49 149.585 71.7991 149.374 72.1404 149.23C72.4817 149.086 72.8485 149.012 73.2189 149.012C73.5894 149.012 73.9561 149.086 74.2975 149.23C74.6388 149.374 74.9479 149.585 75.2064 149.85L111.456 186.138C112.043 186.728 112.741 187.197 113.509 187.517C114.278 187.836 115.102 188.001 115.935 188.001C116.767 188.001 117.591 187.836 118.36 187.517C119.128 187.197 119.826 186.728 120.413 186.138L139.875 166.656C140.675 165.861 141.309 164.915 141.742 163.874C142.174 162.832 142.397 161.715 142.397 160.588C142.397 159.46 142.174 158.343 141.742 157.302C141.309 156.26 140.675 155.314 139.875 154.519L139.75 154.394L134.213 148.85L131.788 151.281L132.475 151.969C129.718 151.979 126.991 151.394 124.481 150.255C121.97 149.116 119.734 147.45 117.925 145.369C114.931 141.888 113.284 137.448 113.284 132.856C113.284 128.264 114.931 123.825 117.925 120.344C119.641 118.354 121.748 116.739 124.115 115.599C126.482 114.46 129.059 113.82 131.685 113.721C134.31 113.621 136.928 114.063 139.375 115.02C141.821 115.977 144.045 117.427 145.906 119.281C149.138 122.525 151 126.694 151.375 130.925L151.25 130.8L147.644 134.406Z" fill="url(#paint4_radial_432_603)"/>
<path d="M147.644 134.406L153.863 140.631C154.658 141.429 155.603 142.061 156.643 142.493C157.684 142.925 158.799 143.147 159.925 143.147C161.052 143.147 162.167 142.925 163.207 142.493C164.247 142.061 165.192 141.429 165.988 140.631L185.631 120.963C186.223 120.376 186.692 119.678 187.013 118.909C187.333 118.139 187.498 117.314 187.498 116.481C187.498 115.648 187.333 114.823 187.013 114.054C186.692 113.285 186.223 112.587 185.631 112L149.194 75.5188C148.928 75.2597 148.717 74.9501 148.573 74.6082C148.429 74.2664 148.355 73.8991 148.355 73.5282C148.355 73.1572 148.429 72.7899 148.573 72.4481C148.717 72.1062 148.928 71.7966 149.194 71.5375C149.881 70.85 150.819 70.6 151.688 70.7875C157.594 71.7875 163.875 70.0375 168.413 65.5C170.201 63.7037 171.616 61.5707 172.576 59.2243C173.535 56.8779 174.02 54.3646 174.003 51.8297C173.986 49.2948 173.466 46.7884 172.474 44.4554C171.483 42.1225 170.038 40.0091 168.225 38.2375L162.875 32.8188L160.45 33.6313C157.357 32.7004 154.077 32.571 150.92 33.2553C147.762 33.9396 144.83 35.4151 142.4 37.5434C139.969 39.6716 138.119 42.3827 137.024 45.422C135.929 48.4614 135.624 51.7293 136.138 54.9188C136.263 55.8563 136.013 56.725 135.331 57.4063L135.206 57.5313C134.948 57.7966 134.639 58.0075 134.298 58.1515C133.956 58.2955 133.589 58.3697 133.219 58.3697C132.848 58.3697 132.482 58.2955 132.14 58.1515C131.799 58.0075 131.49 57.7966 131.231 57.5313L94.7939 21.125C94.2072 20.5345 93.5095 20.0659 92.741 19.746C91.9725 19.4262 91.1482 19.2616 90.3158 19.2616C89.4834 19.2616 88.6592 19.4262 87.8906 19.746C87.1221 20.0659 86.4244 20.5345 85.8377 21.125L66.3814 40.6063C65.8814 41.1063 65.5064 41.6688 65.1314 42.225L63.8314 40.9125L59.2252 45.525L66.3752 52.6813L66.5002 52.8063C68.2439 54.55 70.6064 55.4813 73.0314 55.3563C75.9237 55.2222 78.8087 55.7466 81.4687 56.8899C84.1288 58.0332 86.4946 59.7655 88.3877 61.9563C91.3821 65.4374 93.0288 69.877 93.0288 74.4688C93.0288 79.0606 91.3821 83.5002 88.3877 86.9813C86.6722 88.9711 84.565 90.5862 82.1978 91.7257C79.8305 92.8653 77.2538 93.5048 74.6284 93.6045C72.003 93.7042 69.3852 93.2619 66.9383 92.3052C64.4915 91.3484 62.2679 89.8978 60.4064 88.0438C58.4806 86.1375 56.9893 83.8376 56.0347 81.3015C55.08 78.7655 54.6845 76.0531 54.8752 73.35C55.0002 70.9188 54.1252 68.5563 52.3877 66.8125C52.3474 66.7147 52.2829 66.6287 52.2002 66.5625L46.1064 60.4625L43.4377 63.2L44.6189 64.3875C42.9618 64.7176 41.4432 65.5411 40.2627 66.75L20.6127 86.4188C20.0212 87.0056 19.5518 87.7037 19.2314 88.4728C18.911 89.2419 18.7461 90.0669 18.7461 90.9C18.7461 91.7332 18.911 92.5581 19.2314 93.3273C19.5518 94.0964 20.0212 94.7945 20.6127 95.3813L57.1127 131.925C58.2377 133.044 58.2377 134.788 57.1127 135.906C56.7953 136.231 56.4006 136.471 55.9656 136.602C55.5306 136.733 55.0694 136.752 54.6252 136.656C51.4056 136.104 48.0983 136.386 45.0184 137.474C41.9385 138.563 39.1888 140.422 37.0314 142.875C34.0116 146.353 32.3436 150.801 32.3321 155.407C32.3206 160.013 33.9665 164.47 36.9689 167.963C38.6837 169.956 40.7924 171.574 43.1625 172.713C45.5326 173.853 48.1128 174.489 50.7408 174.583C53.3689 174.677 55.988 174.226 58.4333 173.259C60.8787 172.292 63.0975 170.829 64.9502 168.963C67.0781 166.828 68.6713 164.221 69.6 161.353C70.5286 158.486 70.7664 155.439 70.2939 152.463C70.2229 152.013 70.2595 151.553 70.4008 151.121C70.542 150.689 70.7839 150.296 71.1064 149.975L71.2314 149.85C71.49 149.585 71.7991 149.374 72.1404 149.23C72.4817 149.086 72.8485 149.012 73.2189 149.012C73.5894 149.012 73.9561 149.086 74.2975 149.23C74.6388 149.374 74.9479 149.585 75.2064 149.85L111.456 186.138C112.043 186.728 112.741 187.197 113.509 187.517C114.278 187.836 115.102 188.001 115.935 188.001C116.767 188.001 117.591 187.836 118.36 187.517C119.128 187.197 119.826 186.728 120.413 186.138L139.875 166.656C140.675 165.861 141.309 164.915 141.742 163.874C142.174 162.832 142.397 161.715 142.397 160.588C142.397 159.46 142.174 158.343 141.742 157.302C141.309 156.26 140.675 155.314 139.875 154.519L139.75 154.394L134.213 148.85L131.788 151.281L132.475 151.969C129.718 151.979 126.991 151.394 124.481 150.255C121.97 149.116 119.734 147.45 117.925 145.369C114.931 141.888 113.284 137.448 113.284 132.856C113.284 128.264 114.931 123.825 117.925 120.344C119.641 118.354 121.748 116.739 124.115 115.599C126.482 114.46 129.059 113.82 131.685 113.721C134.31 113.621 136.928 114.063 139.375 115.02C141.821 115.977 144.045 117.427 145.906 119.281C149.138 122.525 151 126.694 151.375 130.925L151.25 130.8L147.644 134.406Z" fill="url(#paint5_radial_432_603)"/>
<path d="M147.644 134.406L153.863 140.631C154.658 141.429 155.603 142.061 156.643 142.493C157.684 142.925 158.799 143.147 159.925 143.147C161.052 143.147 162.167 142.925 163.207 142.493C164.247 142.061 165.192 141.429 165.988 140.631L185.631 120.963C186.223 120.376 186.692 119.678 187.013 118.909C187.333 118.139 187.498 117.314 187.498 116.481C187.498 115.648 187.333 114.823 187.013 114.054C186.692 113.285 186.223 112.587 185.631 112L149.194 75.5188C148.928 75.2597 148.717 74.9501 148.573 74.6082C148.429 74.2664 148.355 73.8991 148.355 73.5282C148.355 73.1572 148.429 72.7899 148.573 72.4481C148.717 72.1062 148.928 71.7966 149.194 71.5375C149.881 70.85 150.819 70.6 151.688 70.7875C157.594 71.7875 163.875 70.0375 168.413 65.5C170.201 63.7037 171.616 61.5707 172.576 59.2243C173.535 56.8779 174.02 54.3646 174.003 51.8297C173.986 49.2948 173.466 46.7884 172.474 44.4554C171.483 42.1225 170.038 40.0091 168.225 38.2375L162.875 32.8188L160.45 33.6313C157.357 32.7004 154.077 32.571 150.92 33.2553C147.762 33.9396 144.83 35.4151 142.4 37.5434C139.969 39.6716 138.119 42.3827 137.024 45.422C135.929 48.4614 135.624 51.7293 136.138 54.9188C136.263 55.8563 136.013 56.725 135.331 57.4063L135.206 57.5313C134.948 57.7966 134.639 58.0075 134.298 58.1515C133.956 58.2955 133.589 58.3697 133.219 58.3697C132.848 58.3697 132.482 58.2955 132.14 58.1515C131.799 58.0075 131.49 57.7966 131.231 57.5313L94.7939 21.125C94.2072 20.5345 93.5095 20.0659 92.741 19.746C91.9725 19.4262 91.1482 19.2616 90.3158 19.2616C89.4834 19.2616 88.6592 19.4262 87.8906 19.746C87.1221 20.0659 86.4244 20.5345 85.8377 21.125L66.3814 40.6063C65.8814 41.1063 65.5064 41.6688 65.1314 42.225L63.8314 40.9125L59.2252 45.525L66.3752 52.6813L66.5002 52.8063C68.2439 54.55 70.6064 55.4813 73.0314 55.3563C75.9237 55.2222 78.8087 55.7466 81.4687 56.8899C84.1288 58.0332 86.4946 59.7655 88.3877 61.9563C91.3821 65.4374 93.0288 69.877 93.0288 74.4688C93.0288 79.0606 91.3821 83.5002 88.3877 86.9813C86.6722 88.9711 84.565 90.5862 82.1978 91.7257C79.8305 92.8653 77.2538 93.5048 74.6284 93.6045C72.003 93.7042 69.3852 93.2619 66.9383 92.3052C64.4915 91.3484 62.2679 89.8978 60.4064 88.0438C58.4806 86.1375 56.9893 83.8376 56.0347 81.3015C55.08 78.7655 54.6845 76.0531 54.8752 73.35C55.0002 70.9188 54.1252 68.5563 52.3877 66.8125C52.3474 66.7147 52.2829 66.6287 52.2002 66.5625L46.1064 60.4625L43.4377 63.2L44.6189 64.3875C42.9618 64.7176 41.4432 65.5411 40.2627 66.75L20.6127 86.4188C20.0212 87.0056 19.5518 87.7037 19.2314 88.4728C18.911 89.2419 18.7461 90.0669 18.7461 90.9C18.7461 91.7332 18.911 92.5581 19.2314 93.3273C19.5518 94.0964 20.0212 94.7945 20.6127 95.3813L57.1127 131.925C58.2377 133.044 58.2377 134.788 57.1127 135.906C56.7953 136.231 56.4006 136.471 55.9656 136.602C55.5306 136.733 55.0694 136.752 54.6252 136.656C51.4056 136.104 48.0983 136.386 45.0184 137.474C41.9385 138.563 39.1888 140.422 37.0314 142.875C34.0116 146.353 32.3436 150.801 32.3321 155.407C32.3206 160.013 33.9665 164.47 36.9689 167.963C38.6837 169.956 40.7924 171.574 43.1625 172.713C45.5326 173.853 48.1128 174.489 50.7408 174.583C53.3689 174.677 55.988 174.226 58.4333 173.259C60.8787 172.292 63.0975 170.829 64.9502 168.963C67.0781 166.828 68.6713 164.221 69.6 161.353C70.5286 158.486 70.7664 155.439 70.2939 152.463C70.2229 152.013 70.2595 151.553 70.4008 151.121C70.542 150.689 70.7839 150.296 71.1064 149.975L71.2314 149.85C71.49 149.585 71.7991 149.374 72.1404 149.23C72.4817 149.086 72.8485 149.012 73.2189 149.012C73.5894 149.012 73.9561 149.086 74.2975 149.23C74.6388 149.374 74.9479 149.585 75.2064 149.85L111.456 186.138C112.043 186.728 112.741 187.197 113.509 187.517C114.278 187.836 115.102 188.001 115.935 188.001C116.767 188.001 117.591 187.836 118.36 187.517C119.128 187.197 119.826 186.728 120.413 186.138L139.875 166.656C140.675 165.861 141.309 164.915 141.742 163.874C142.174 162.832 142.397 161.715 142.397 160.588C142.397 159.46 142.174 158.343 141.742 157.302C141.309 156.26 140.675 155.314 139.875 154.519L139.75 154.394L134.213 148.85L131.788 151.281L132.475 151.969C129.718 151.979 126.991 151.394 124.481 150.255C121.97 149.116 119.734 147.45 117.925 145.369C114.931 141.888 113.284 137.448 113.284 132.856C113.284 128.264 114.931 123.825 117.925 120.344C119.641 118.354 121.748 116.739 124.115 115.599C126.482 114.46 129.059 113.82 131.685 113.721C134.31 113.621 136.928 114.063 139.375 115.02C141.821 115.977 144.045 117.427 145.906 119.281C149.138 122.525 151 126.694 151.375 130.925L151.25 130.8L147.644 134.406Z" fill="url(#paint6_radial_432_603)"/>
<path d="M147.644 134.406L153.863 140.631C154.658 141.429 155.603 142.061 156.643 142.493C157.684 142.925 158.799 143.147 159.925 143.147C161.052 143.147 162.167 142.925 163.207 142.493C164.247 142.061 165.192 141.429 165.988 140.631L185.631 120.963C186.223 120.376 186.692 119.678 187.013 118.909C187.333 118.139 187.498 117.314 187.498 116.481C187.498 115.648 187.333 114.823 187.013 114.054C186.692 113.285 186.223 112.587 185.631 112L149.194 75.5188C148.928 75.2597 148.717 74.9501 148.573 74.6082C148.429 74.2664 148.355 73.8991 148.355 73.5282C148.355 73.1572 148.429 72.7899 148.573 72.4481C148.717 72.1062 148.928 71.7966 149.194 71.5375C149.881 70.85 150.819 70.6 151.688 70.7875C157.594 71.7875 163.875 70.0375 168.413 65.5C170.201 63.7037 171.616 61.5707 172.576 59.2243C173.535 56.8779 174.02 54.3646 174.003 51.8297C173.986 49.2948 173.466 46.7884 172.474 44.4554C171.483 42.1225 170.038 40.0091 168.225 38.2375L162.875 32.8188L160.45 33.6313C157.357 32.7004 154.077 32.571 150.92 33.2553C147.762 33.9396 144.83 35.4151 142.4 37.5434C139.969 39.6716 138.119 42.3827 137.024 45.422C135.929 48.4614 135.624 51.7293 136.138 54.9188C136.263 55.8563 136.013 56.725 135.331 57.4063L135.206 57.5313C134.948 57.7966 134.639 58.0075 134.298 58.1515C133.956 58.2955 133.589 58.3697 133.219 58.3697C132.848 58.3697 132.482 58.2955 132.14 58.1515C131.799 58.0075 131.49 57.7966 131.231 57.5313L94.7939 21.125C94.2072 20.5345 93.5095 20.0659 92.741 19.746C91.9725 19.4262 91.1482 19.2616 90.3158 19.2616C89.4834 19.2616 88.6592 19.4262 87.8906 19.746C87.1221 20.0659 86.4244 20.5345 85.8377 21.125L66.3814 40.6063C65.8814 41.1063 65.5064 41.6688 65.1314 42.225L63.8314 40.9125L59.2252 45.525L66.3752 52.6813L66.5002 52.8063C68.2439 54.55 70.6064 55.4813 73.0314 55.3563C75.9237 55.2222 78.8087 55.7466 81.4687 56.8899C84.1288 58.0332 86.4946 59.7655 88.3877 61.9563C91.3821 65.4374 93.0288 69.877 93.0288 74.4688C93.0288 79.0606 91.3821 83.5002 88.3877 86.9813C86.6722 88.9711 84.565 90.5862 82.1978 91.7257C79.8305 92.8653 77.2538 93.5048 74.6284 93.6045C72.003 93.7042 69.3852 93.2619 66.9383 92.3052C64.4915 91.3484 62.2679 89.8978 60.4064 88.0438C58.4806 86.1375 56.9893 83.8376 56.0347 81.3015C55.08 78.7655 54.6845 76.0531 54.8752 73.35C55.0002 70.9188 54.1252 68.5563 52.3877 66.8125C52.3474 66.7147 52.2829 66.6287 52.2002 66.5625L46.1064 60.4625L43.4377 63.2L44.6189 64.3875C42.9618 64.7176 41.4432 65.5411 40.2627 66.75L20.6127 86.4188C20.0212 87.0056 19.5518 87.7037 19.2314 88.4728C18.911 89.2419 18.7461 90.0669 18.7461 90.9C18.7461 91.7332 18.911 92.5581 19.2314 93.3273C19.5518 94.0964 20.0212 94.7945 20.6127 95.3813L57.1127 131.925C58.2377 133.044 58.2377 134.788 57.1127 135.906C56.7953 136.231 56.4006 136.471 55.9656 136.602C55.5306 136.733 55.0694 136.752 54.6252 136.656C51.4056 136.104 48.0983 136.386 45.0184 137.474C41.9385 138.563 39.1888 140.422 37.0314 142.875C34.0116 146.353 32.3436 150.801 32.3321 155.407C32.3206 160.013 33.9665 164.47 36.9689 167.963C38.6837 169.956 40.7924 171.574 43.1625 172.713C45.5326 173.853 48.1128 174.489 50.7408 174.583C53.3689 174.677 55.988 174.226 58.4333 173.259C60.8787 172.292 63.0975 170.829 64.9502 168.963C67.0781 166.828 68.6713 164.221 69.6 161.353C70.5286 158.486 70.7664 155.439 70.2939 152.463C70.2229 152.013 70.2595 151.553 70.4008 151.121C70.542 150.689 70.7839 150.296 71.1064 149.975L71.2314 149.85C71.49 149.585 71.7991 149.374 72.1404 149.23C72.4817 149.086 72.8485 149.012 73.2189 149.012C73.5894 149.012 73.9561 149.086 74.2975 149.23C74.6388 149.374 74.9479 149.585 75.2064 149.85L111.456 186.138C112.043 186.728 112.741 187.197 113.509 187.517C114.278 187.836 115.102 188.001 115.935 188.001C116.767 188.001 117.591 187.836 118.36 187.517C119.128 187.197 119.826 186.728 120.413 186.138L139.875 166.656C140.675 165.861 141.309 164.915 141.742 163.874C142.174 162.832 142.397 161.715 142.397 160.588C142.397 159.46 142.174 158.343 141.742 157.302C141.309 156.26 140.675 155.314 139.875 154.519L139.75 154.394L134.213 148.85L131.788 151.281L132.475 151.969C129.718 151.979 126.991 151.394 124.481 150.255C121.97 149.116 119.734 147.45 117.925 145.369C114.931 141.888 113.284 137.448 113.284 132.856C113.284 128.264 114.931 123.825 117.925 120.344C119.641 118.354 121.748 116.739 124.115 115.599C126.482 114.46 129.059 113.82 131.685 113.721C134.31 113.621 136.928 114.063 139.375 115.02C141.821 115.977 144.045 117.427 145.906 119.281C149.138 122.525 151 126.694 151.375 130.925L151.25 130.8L147.644 134.406Z" fill="url(#paint7_radial_432_603)"/>
<path d="M147.644 134.406L153.863 140.631C154.658 141.429 155.603 142.061 156.643 142.493C157.684 142.925 158.799 143.147 159.925 143.147C161.052 143.147 162.167 142.925 163.207 142.493C164.247 142.061 165.192 141.429 165.988 140.631L185.631 120.963C186.223 120.376 186.692 119.678 187.013 118.909C187.333 118.139 187.498 117.314 187.498 116.481C187.498 115.648 187.333 114.823 187.013 114.054C186.692 113.285 186.223 112.587 185.631 112L149.194 75.5188C148.928 75.2597 148.717 74.9501 148.573 74.6082C148.429 74.2664 148.355 73.8991 148.355 73.5282C148.355 73.1572 148.429 72.7899 148.573 72.4481C148.717 72.1062 148.928 71.7966 149.194 71.5375C149.881 70.85 150.819 70.6 151.688 70.7875C157.594 71.7875 163.875 70.0375 168.413 65.5C170.201 63.7037 171.616 61.5707 172.576 59.2243C173.535 56.8779 174.02 54.3646 174.003 51.8297C173.986 49.2948 173.466 46.7884 172.474 44.4554C171.483 42.1225 170.038 40.0091 168.225 38.2375L162.875 32.8188L160.45 33.6313C157.357 32.7004 154.077 32.571 150.92 33.2553C147.762 33.9396 144.83 35.4151 142.4 37.5434C139.969 39.6716 138.119 42.3827 137.024 45.422C135.929 48.4614 135.624 51.7293 136.138 54.9188C136.263 55.8563 136.013 56.725 135.331 57.4063L135.206 57.5313C134.948 57.7966 134.639 58.0075 134.298 58.1515C133.956 58.2955 133.589 58.3697 133.219 58.3697C132.848 58.3697 132.482 58.2955 132.14 58.1515C131.799 58.0075 131.49 57.7966 131.231 57.5313L94.7939 21.125C94.2072 20.5345 93.5095 20.0659 92.741 19.746C91.9725 19.4262 91.1482 19.2616 90.3158 19.2616C89.4834 19.2616 88.6592 19.4262 87.8906 19.746C87.1221 20.0659 86.4244 20.5345 85.8377 21.125L66.3814 40.6063C65.8814 41.1063 65.5064 41.6688 65.1314 42.225L63.8314 40.9125L59.2252 45.525L66.3752 52.6813L66.5002 52.8063C68.2439 54.55 70.6064 55.4813 73.0314 55.3563C75.9237 55.2222 78.8087 55.7466 81.4687 56.8899C84.1288 58.0332 86.4946 59.7655 88.3877 61.9563C91.3821 65.4374 93.0288 69.877 93.0288 74.4688C93.0288 79.0606 91.3821 83.5002 88.3877 86.9813C86.6722 88.9711 84.565 90.5862 82.1978 91.7257C79.8305 92.8653 77.2538 93.5048 74.6284 93.6045C72.003 93.7042 69.3852 93.2619 66.9383 92.3052C64.4915 91.3484 62.2679 89.8978 60.4064 88.0438C58.4806 86.1375 56.9893 83.8376 56.0347 81.3015C55.08 78.7655 54.6845 76.0531 54.8752 73.35C55.0002 70.9188 54.1252 68.5563 52.3877 66.8125C52.3474 66.7147 52.2829 66.6287 52.2002 66.5625L46.1064 60.4625L43.4377 63.2L44.6189 64.3875C42.9618 64.7176 41.4432 65.5411 40.2627 66.75L20.6127 86.4188C20.0212 87.0056 19.5518 87.7037 19.2314 88.4728C18.911 89.2419 18.7461 90.0669 18.7461 90.9C18.7461 91.7332 18.911 92.5581 19.2314 93.3273C19.5518 94.0964 20.0212 94.7945 20.6127 95.3813L57.1127 131.925C58.2377 133.044 58.2377 134.788 57.1127 135.906C56.7953 136.231 56.4006 136.471 55.9656 136.602C55.5306 136.733 55.0694 136.752 54.6252 136.656C51.4056 136.104 48.0983 136.386 45.0184 137.474C41.9385 138.563 39.1888 140.422 37.0314 142.875C34.0116 146.353 32.3436 150.801 32.3321 155.407C32.3206 160.013 33.9665 164.47 36.9689 167.963C38.6837 169.956 40.7924 171.574 43.1625 172.713C45.5326 173.853 48.1128 174.489 50.7408 174.583C53.3689 174.677 55.988 174.226 58.4333 173.259C60.8787 172.292 63.0975 170.829 64.9502 168.963C67.0781 166.828 68.6713 164.221 69.6 161.353C70.5286 158.486 70.7664 155.439 70.2939 152.463C70.2229 152.013 70.2595 151.553 70.4008 151.121C70.542 150.689 70.7839 150.296 71.1064 149.975L71.2314 149.85C71.49 149.585 71.7991 149.374 72.1404 149.23C72.4817 149.086 72.8485 149.012 73.2189 149.012C73.5894 149.012 73.9561 149.086 74.2975 149.23C74.6388 149.374 74.9479 149.585 75.2064 149.85L111.456 186.138C112.043 186.728 112.741 187.197 113.509 187.517C114.278 187.836 115.102 188.001 115.935 188.001C116.767 188.001 117.591 187.836 118.36 187.517C119.128 187.197 119.826 186.728 120.413 186.138L139.875 166.656C140.675 165.861 141.309 164.915 141.742 163.874C142.174 162.832 142.397 161.715 142.397 160.588C142.397 159.46 142.174 158.343 141.742 157.302C141.309 156.26 140.675 155.314 139.875 154.519L139.75 154.394L134.213 148.85L131.788 151.281L132.475 151.969C129.718 151.979 126.991 151.394 124.481 150.255C121.97 149.116 119.734 147.45 117.925 145.369C114.931 141.888 113.284 137.448 113.284 132.856C113.284 128.264 114.931 123.825 117.925 120.344C119.641 118.354 121.748 116.739 124.115 115.599C126.482 114.46 129.059 113.82 131.685 113.721C134.31 113.621 136.928 114.063 139.375 115.02C141.821 115.977 144.045 117.427 145.906 119.281C149.138 122.525 151 126.694 151.375 130.925L151.25 130.8L147.644 134.406Z" fill="url(#paint8_radial_432_603)"/>
<path d="M136.063 31.1875C133.609 33.3131 131.74 36.0299 130.631 39.0804C129.522 42.1309 129.21 45.414 129.725 48.6188C129.85 49.5563 129.6 50.425 128.913 51.1063L128.788 51.2313C128.529 51.4966 128.22 51.7075 127.879 51.8515C127.537 51.9955 127.17 52.0696 126.8 52.0696C126.43 52.0696 126.063 51.9955 125.721 51.8515C125.38 51.7075 125.071 51.4966 124.813 51.2313L88.4563 14.875C87.8709 14.2822 87.1736 13.8115 86.4048 13.4903C85.6361 13.1691 84.8113 13.0037 83.9781 13.0037C83.145 13.0037 82.3202 13.1691 81.5514 13.4903C80.7827 13.8115 80.0854 14.2822 79.5 14.875L60.05 34.3563C59.252 35.1532 58.6189 36.0997 58.1869 37.1416C57.7549 38.1835 57.5326 39.3003 57.5326 40.4281C57.5326 41.556 57.7549 42.6728 58.1869 43.7147C58.6189 44.7565 59.252 45.703 60.05 46.5L60.2375 46.625C61.9125 48.3125 64.275 49.2438 66.7 49.1188C69.5918 48.981 72.477 49.5038 75.1367 50.6473C77.7963 51.7909 80.1606 53.5252 82.05 55.7188C85.0461 59.2003 86.6938 63.6411 86.6938 68.2344C86.6938 72.8276 85.0461 77.2684 82.05 80.75C80.3346 82.7379 78.2282 84.3513 75.862 85.4896C73.4959 86.6279 70.9207 87.2668 68.2968 87.3665C65.673 87.4662 63.0567 87.0245 60.611 86.069C58.1653 85.1134 55.9426 83.6645 54.0813 81.8125C52.1825 79.8724 50.7098 77.5572 49.7573 75.0151C48.8048 72.4731 48.3936 69.7601 48.55 67.05C48.7375 64.6188 47.8 62.1938 46.0625 60.5125C45.2684 59.7128 44.3239 59.0781 43.2834 58.645C42.2429 58.2118 41.127 57.9889 40 57.9889C38.873 57.9889 37.7571 58.2118 36.7166 58.645C35.6761 59.0781 34.7316 59.7128 33.9375 60.5125L14.3688 80.125C13.7764 80.7119 13.3061 81.4104 12.9852 82.1801C12.6643 82.9498 12.499 83.7755 12.499 84.6094C12.499 85.4433 12.6643 86.269 12.9852 87.0387C13.3061 87.8084 13.7764 88.5068 14.3688 89.0938L50.8563 125.644C51.122 125.903 51.3331 126.213 51.4773 126.556C51.6214 126.898 51.6957 127.266 51.6957 127.637C51.6957 128.009 51.6214 128.377 51.4773 128.719C51.3331 129.062 51.122 129.372 50.8563 129.631C50.5388 129.956 50.1442 130.196 49.7092 130.327C49.2742 130.458 48.813 130.477 48.3688 130.381C45.1496 129.831 41.8432 130.114 38.7645 131.204C35.6858 132.293 32.9374 134.153 30.7813 136.606C27.7658 140.087 26.1008 144.536 26.0893 149.142C26.0778 153.747 27.7207 158.204 30.7188 161.7C32.4334 163.692 34.5414 165.308 36.9104 166.446C39.2793 167.584 41.858 168.22 44.4845 168.314C47.1111 168.408 49.7286 167.958 52.1728 166.991C54.617 166.025 56.835 164.564 58.6875 162.7C60.8154 160.565 62.4087 157.958 63.3373 155.091C64.266 152.223 64.5038 149.177 64.0313 146.2C63.9582 145.749 63.9938 145.286 64.1351 144.852C64.2764 144.417 64.5193 144.022 64.8438 143.7L64.9688 143.575C65.2273 143.31 65.5364 143.099 65.8777 142.955C66.2191 142.811 66.5858 142.737 66.9563 142.737C67.3267 142.737 67.6935 142.811 68.0348 142.955C68.3762 143.099 68.6852 143.31 68.9438 143.575L105.181 179.888C105.767 180.479 106.463 180.949 107.232 181.27C108 181.591 108.824 181.756 109.656 181.756C110.489 181.756 111.313 181.591 112.081 181.27C112.849 180.949 113.546 180.479 114.131 179.888L133.581 160.388C134.378 159.591 135.011 158.645 135.442 157.603C135.873 156.562 136.096 155.446 136.096 154.319C136.096 153.192 135.873 152.076 135.442 151.034C135.011 149.993 134.378 149.047 133.581 148.25L133.456 148.125C132.612 147.282 131.601 146.625 130.488 146.195C129.376 145.766 128.185 145.574 126.994 145.631C124.102 145.769 121.217 145.246 118.557 144.103C115.897 142.959 113.533 141.225 111.644 139.031C108.648 135.55 107 131.109 107 126.516C107 121.922 108.648 117.482 111.644 114C113.359 112.012 115.466 110.399 117.832 109.26C120.198 108.122 122.773 107.483 125.397 107.384C128.021 107.284 130.637 107.726 133.083 108.681C135.528 109.637 137.751 111.085 139.613 112.938C143.65 116.988 145.519 122.344 145.144 127.637C145.019 130.069 145.894 132.431 147.631 134.175C148.425 134.975 149.37 135.609 150.41 136.043C151.451 136.476 152.567 136.699 153.694 136.699C154.821 136.699 155.937 136.476 156.977 136.043C158.018 135.609 158.962 134.975 159.756 134.175L179.394 114.5C179.986 113.913 180.456 113.215 180.777 112.445C181.098 111.675 181.264 110.85 181.264 110.016C181.264 109.182 181.098 108.356 180.777 107.586C180.456 106.817 179.986 106.118 179.394 105.531L142.969 69.0438C142.703 68.7841 142.492 68.474 142.348 68.1316C142.204 67.7892 142.129 67.4215 142.129 67.05C142.129 66.6785 142.204 66.3108 142.348 65.9684C142.492 65.626 142.703 65.3159 142.969 65.0563C143.656 64.3688 144.588 64.1188 145.456 64.3063C148.463 64.8273 151.55 64.6191 154.46 63.699C157.369 62.7789 160.015 61.1738 162.175 59.0188C164.034 57.1553 165.488 54.9286 166.447 52.4778C167.407 50.027 167.85 47.4047 167.75 44.7747C167.651 42.1448 167.01 39.5636 165.868 37.1925C164.726 34.8213 163.107 32.7112 161.113 30.9938C153.906 25.0188 143.156 25.0188 136.069 31.1813" fill="url(#paint9_linear_432_603)"/>
<defs>
<filter id="filter0_i_432_603" x="18.7461" y="17.2616" width="170.752" height="170.739" filterUnits="userSpaceOnUse" color-interpolation-filters="sRGB">
<feFlood flood-opacity="0" result="BackgroundImageFix"/>
<feBlend mode="normal" in="SourceGraphic" in2="BackgroundImageFix" result="shape"/>
<feColorMatrix in="SourceAlpha" type="matrix" values="0 0 0 0 0 0 0 0 0 0 0 0 0 0 0 0 0 0 127 0" result="hardAlpha"/>
<feOffset dx="2" dy="-2"/>
<feGaussianBlur stdDeviation="4"/>
<feComposite in2="hardAlpha" operator="arithmetic" k2="-1" k3="1"/>
<feColorMatrix type="matrix" values="0 0 0 0 0.74902 0 0 0 0 0.545098 0 0 0 0 0.913725 0 0 0 1 0"/>
<feBlend mode="normal" in2="shape" result="effect1_innerShadow_432_603"/>
</filter>
<radialGradient id="paint0_radial_432_603" cx="0" cy="0" r="1" gradientUnits="userSpaceOnUse" gradientTransform="translate(135.194 112.625) rotate(160.396) scale(30.9215 26.1172)">
<stop offset="0.315" stop-color="#BA84E6"/>
<stop offset="1" stop-color="#BA84E6" stop-opacity="0"/>
</radialGradient>
<radialGradient id="paint1_radial_432_603" cx="0" cy="0" r="1" gradientUnits="userSpaceOnUse" gradientTransform="translate(45.4161 64.7413) rotate(74.055) scale(31.9547)">
<stop stop-color="#E8DFF2"/>
<stop offset="1" stop-color="#E8DFF2" stop-opacity="0"/>
</radialGradient>
<radialGradient id="paint2_radial_432_603" cx="0" cy="0" r="1" gradientUnits="userSpaceOnUse" gradientTransform="translate(72.1499 144.75) rotate(66.552) scale(18.0503 9.09238)">
<stop offset="0.24" stop-color="#BC81EC"/>
<stop offset="1" stop-color="#BC81EC" stop-opacity="0"/>
</radialGradient>
<radialGradient id="paint3_radial_432_603" cx="0" cy="0" r="1" gradientUnits="userSpaceOnUse" gradientTransform="translate(112.054 187.997) rotate(-45) scale(9.42156 17.3832)">
<stop stop-color="#C285F2"/>
<stop offset="1" stop-color="#C285F2" stop-opacity="0"/>
</radialGradient>
<radialGradient id="paint4_radial_432_603" cx="0" cy="0" r="1" gradientUnits="userSpaceOnUse" gradientTransform="translate(155.948 144.152) rotate(-35.838) scale(8.85988 16.3469)">
<stop stop-color="#C285F2"/>
<stop offset="1" stop-color="#C285F2" stop-opacity="0"/>
</radialGradient>
<radialGradient id="paint5_radial_432_603" cx="0" cy="0" r="1" gradientUnits="userSpaceOnUse" gradientTransform="translate(169.907 38.8054) rotate(131.496) scale(13.8515)">
<stop stop-color="#EEECF1"/>
<stop offset="1" stop-color="#EEECF1" stop-opacity="0"/>
</radialGradient>
<radialGradient id="paint6_radial_432_603" cx="0" cy="0" r="1" gradientUnits="userSpaceOnUse" gradientTransform="translate(187.499 111.433) rotate(130.536) scale(17.8514)">
<stop stop-color="#EEECF1"/>
<stop offset="1" stop-color="#EEECF1" stop-opacity="0"/>
</radialGradient>
<radialGradient id="paint7_radial_432_603" cx="0" cy="0" r="1" gradientUnits="userSpaceOnUse" gradientTransform="translate(141.179 155.725) rotate(133.025) scale(16.3748)">
<stop stop-color="#EEECF1"/>
<stop offset="1" stop-color="#EEECF1" stop-opacity="0"/>
</radialGradient>
<radialGradient id="paint8_radial_432_603" cx="0" cy="0" r="1" gradientUnits="userSpaceOnUse" gradientTransform="translate(152.35 60.3523) rotate(47.726) scale(35.5919 14.2797)">
<stop offset="0.204" stop-color="#C0A5DB"/>
<stop offset="1" stop-color="#C0A5DB" stop-opacity="0"/>
</radialGradient>
<linearGradient id="paint9_linear_432_603" x1="132.006" y1="58.3563" x2="31.425" y2="162.656" gradientUnits="userSpaceOnUse">
<stop stop-color="#CEDA5F"/>
<stop offset="1" stop-color="#74EB95"/>
</linearGradient>
</defs>
</svg>
