<svg width="48" height="49" viewBox="0 0 48 49" fill="none" xmlns="http://www.w3.org/2000/svg">
<rect y="0.625" width="48" height="48" rx="9" fill="#BADE4F"/>
<path d="M22.1381 25.325C23.6781 22.545 26.6381 20.905 28.3581 18.445C30.1781 15.865 29.1581 11.045 23.9981 11.045C20.6181 11.045 18.9581 13.605 18.2581 15.725L13.0781 13.545C14.4981 9.285 18.3581 5.625 23.9781 5.625C28.6781 5.625 31.8981 7.765 33.5381 10.445C34.9381 12.745 35.7581 17.045 33.5981 20.245C31.1981 23.785 28.8981 24.865 27.6581 27.145C27.1581 28.065 26.9581 28.665 26.9581 31.625H21.1781C21.1581 30.065 20.9181 27.525 22.1381 25.325ZM27.9981 39.625C27.9981 41.825 26.1981 43.625 23.9981 43.625C21.7981 43.625 19.9981 41.825 19.9981 39.625C19.9981 37.425 21.7981 35.625 23.9981 35.625C26.1981 35.625 27.9981 37.425 27.9981 39.625Z" fill="#242424"/>
</svg>
