<svg width="60" height="60" viewBox="0 0 60 60" fill="none" xmlns="http://www.w3.org/2000/svg">
<path d="M52.654 4.01517L52.9225 4L53.2517 4.02022L53.4796 4.06066L53.7911 4.14913L54.0621 4.2654L54.3154 4.40948L54.5433 4.57883L54.751 4.76841L54.8827 4.91754L55.0904 5.21075L55.2221 5.4534C55.3403 5.70617 55.4162 5.97241 55.45 6.25214L55.4627 6.52007C55.4627 6.71049 55.4424 6.89585 55.4019 7.07616L55.3132 7.38706L38.7702 53.0795C38.4566 53.7608 37.9537 54.3381 37.3212 54.7427C36.6886 55.1473 35.9531 55.3622 35.2018 55.362C34.5253 55.3634 33.8599 55.1902 33.2702 54.8594C32.6805 54.5286 32.1864 54.0513 31.8359 53.4738L31.6713 53.1528L23.182 36.2124L6.28948 27.7802C5.66444 27.4949 5.1254 27.0508 4.72628 26.4923C4.32717 25.9338 4.08197 25.2806 4.0152 24.5979L4 24.2212C4 22.8058 4.76232 21.5116 6.12993 20.7584L6.48449 20.5814L52.1146 4.13649L52.383 4.06066L52.654 4.01517Z" fill="url(#paint0_linear_456_842)"/>
<defs>
<linearGradient id="paint0_linear_456_842" x1="29.7313" y1="4" x2="29.7313" y2="55.362" gradientUnits="userSpaceOnUse">
<stop stop-color="#BADE4F"/>
<stop offset="1" stop-color="#83D216"/>
</linearGradient>
</defs>
</svg>
