<svg width="60" height="60" viewBox="0 0 60 60" fill="none" xmlns="http://www.w3.org/2000/svg">
<path fill-rule="evenodd" clip-rule="evenodd" d="M39.0539 40.8273L38.7484 41.5951C33.2839 43.4299 27.3744 43.4299 21.91 41.5951L21.6045 40.8273C21.3143 40.121 21.1676 39.7647 20.9141 39.4392C20.6636 39.1106 20.2237 38.7789 19.3439 38.1186C16.2633 35.7999 13.9869 32.5653 12.8371 28.8732C11.6874 25.1811 11.7228 21.2189 12.9382 17.5482C14.1536 13.8774 16.4874 10.6844 19.6088 8.42161C22.7302 6.15884 26.4809 4.94116 30.3292 4.94116C34.1774 4.94116 37.9281 6.15884 41.0495 8.42161C44.1709 10.6844 46.5047 13.8774 47.7202 17.5482C48.9356 21.2189 48.9709 25.1811 47.8212 28.8732C46.6715 32.5653 44.395 35.7999 41.3144 38.1186C40.4346 38.7789 39.9947 39.1106 39.7442 39.4392C39.4938 39.7678 39.3471 40.1179 39.0539 40.8273ZM23.7612 48.4437C24.026 50.0653 24.1767 51.7012 24.2133 53.3514C24.2164 53.5694 24.2786 53.7825 24.3933 53.9676C24.508 54.1527 24.6707 54.3028 24.864 54.4017C26.5609 55.2548 28.432 55.6989 30.3292 55.6989C32.2263 55.6989 34.0975 55.2548 35.7943 54.4017C35.9876 54.3028 36.1504 54.1527 36.265 53.9676C36.3797 53.7825 36.4419 53.5694 36.445 53.3514C36.4817 51.7012 36.6324 50.0653 36.8971 48.4437C32.5636 49.3373 28.0947 49.3373 23.7612 48.4437Z" fill="url(#paint0_linear_456_770)"/>
<defs>
<linearGradient id="paint0_linear_456_770" x1="30.3292" y1="4.94116" x2="30.3292" y2="55.6989" gradientUnits="userSpaceOnUse">
<stop stop-color="#BADE4F"/>
<stop offset="1" stop-color="#83D216"/>
</linearGradient>
</defs>
</svg>
