<svg width="60" height="60" viewBox="0 0 60 60" fill="none" xmlns="http://www.w3.org/2000/svg">
<path fill-rule="evenodd" clip-rule="evenodd" d="M8.98235 18.0015C14.1686 13.8105 21.566 9.88232 29.9611 9.88232C38.3563 9.88232 45.7507 13.8105 50.9399 18.0015C53.2864 19.8752 55.3947 22.0156 57.2198 24.3772C57.9778 25.3819 58.613 26.369 59.0714 27.289C59.4908 28.1243 59.9223 29.2107 59.9223 30.3264C59.9223 31.4421 59.4878 32.5285 59.0714 33.3638C58.5441 34.3861 57.9244 35.3605 57.2198 36.2756C55.3947 38.6372 53.2864 40.7776 50.9399 42.6512C45.7537 46.8423 38.3563 50.7705 29.9611 50.7705C21.566 50.7705 14.1716 46.8423 8.98235 42.6512C6.63586 40.7776 4.52761 38.6372 2.70249 36.2756C1.99786 35.3605 1.37821 34.3861 0.850896 33.3638C0.43144 32.5285 0 31.4421 0 30.3264C0 29.2107 0.434436 28.1243 0.850896 27.289C1.3093 26.369 1.94448 25.3819 2.70249 24.3772C4.52761 22.0156 6.63586 19.8752 8.98235 18.0015ZM29.9611 39.0881C32.345 39.0881 34.6312 38.165 36.3169 36.5219C38.0025 34.8787 38.9495 32.6502 38.9495 30.3264C38.9495 28.0026 38.0025 25.7741 36.3169 24.1309C34.6312 22.4878 32.345 21.5647 29.9611 21.5647C27.5773 21.5647 25.2911 22.4878 23.6054 24.1309C21.9198 25.7741 20.9728 28.0026 20.9728 30.3264C20.9728 32.6502 21.9198 34.8787 23.6054 36.5219C25.2911 38.165 27.5773 39.0881 29.9611 39.0881Z" fill="url(#paint0_linear_456_776)"/>
<defs>
<linearGradient id="paint0_linear_456_776" x1="29.9611" y1="9.88232" x2="29.9611" y2="50.7705" gradientUnits="userSpaceOnUse">
<stop stop-color="#BADE4F"/>
<stop offset="1" stop-color="#83D216"/>
</linearGradient>
</defs>
</svg>
