<svg width="60" height="60" viewBox="0 0 60 60" fill="none" xmlns="http://www.w3.org/2000/svg">
<path d="M12.4364 10.5883C12.0356 10.5842 11.647 10.7258 11.3427 10.9867C11.0384 11.2475 10.8392 11.61 10.782 12.0067C10.6543 12.9129 10.5895 13.8269 10.5879 14.742C10.5879 24.7744 18.3614 32.9847 28.2349 33.8163V47.5369C28.2349 47.9757 28.4093 48.3965 28.7195 48.7067C29.0298 49.017 29.4506 49.1913 29.8894 49.1913C30.3281 49.1913 30.7489 49.017 31.0592 48.7067C31.3695 48.3965 31.5438 47.9757 31.5438 47.5369V33.8163C41.4173 32.9847 49.1908 24.7722 49.1908 14.7398C49.1908 13.8133 49.1254 12.9016 48.9945 12.0045C48.9369 11.6082 48.7374 11.2463 48.4332 10.9858C48.1289 10.7254 47.7406 10.5842 47.3401 10.5883C43.6486 10.6195 40.0432 11.7074 36.9506 13.7234C33.858 15.7394 31.4076 18.5991 29.8894 21.9641C28.3709 18.5987 25.9202 15.7388 22.8272 13.7228C19.7342 11.7068 16.1283 10.6191 12.4364 10.5883Z" fill="url(#paint0_linear_456_773)"/>
<defs>
<linearGradient id="paint0_linear_456_773" x1="29.8894" y1="10.5883" x2="29.8894" y2="49.1913" gradientUnits="userSpaceOnUse">
<stop stop-color="#BADE4F"/>
<stop offset="1" stop-color="#83D216"/>
</linearGradient>
</defs>
</svg>
