<svg width="174" height="173" viewBox="0 0 174 173" fill="none" xmlns="http://www.w3.org/2000/svg">
<g filter="url(#filter0_f_524_120)">
<path d="M119.686 50.5837L120.067 50.5625L120.533 50.5908L120.856 50.6474L121.297 50.7713L121.681 50.9341L122.04 51.1358L122.363 51.3729L122.657 51.6383L122.844 51.8471L123.138 52.2575L123.324 52.5973C123.492 52.9511 123.599 53.3239 123.647 53.7155L123.665 54.0906C123.665 54.3572 123.637 54.6167 123.579 54.8691L123.454 55.3044L100.018 119.274C99.5733 120.228 98.8608 121.036 97.9648 121.602C97.0687 122.169 96.0266 122.47 94.9623 122.469C94.0039 122.471 93.0613 122.229 92.2258 121.766C91.3904 121.303 90.6905 120.634 90.194 119.826L89.9608 119.376L77.9343 95.6599L54.0032 83.8548C53.1177 83.4553 52.3541 82.8336 51.7887 82.0517C51.2233 81.2699 50.8759 80.3553 50.7813 79.3995L50.7598 78.8722C50.7598 76.8906 51.8397 75.0787 53.7772 74.0242L54.2795 73.7765L118.922 50.7536L119.302 50.6474L119.686 50.5837Z" fill="url(#paint0_linear_524_120)"/>
</g>
<path d="M119.686 50.5837L120.067 50.5625L120.533 50.5908L120.856 50.6474L121.297 50.7713L121.681 50.9341L122.04 51.1358L122.363 51.3729L122.657 51.6383L122.844 51.8471L123.138 52.2575L123.324 52.5973C123.492 52.9511 123.599 53.3239 123.647 53.7155L123.665 54.0906C123.665 54.3572 123.637 54.6167 123.579 54.8691L123.454 55.3044L100.018 119.274C99.5733 120.228 98.8608 121.036 97.9648 121.602C97.0687 122.169 96.0266 122.47 94.9623 122.469C94.0039 122.471 93.0613 122.229 92.2258 121.766C91.3904 121.303 90.6905 120.634 90.194 119.826L89.9608 119.376L77.9343 95.6599L54.0032 83.8548C53.1177 83.4553 52.3541 82.8336 51.7887 82.0517C51.2233 81.2699 50.8759 80.3553 50.7813 79.3995L50.7598 78.8722C50.7598 76.8906 51.8397 75.0787 53.7772 74.0242L54.2795 73.7765L118.922 50.7536L119.302 50.6474L119.686 50.5837Z" fill="url(#paint1_linear_524_120)"/>
<defs>
<filter id="filter0_f_524_120" x="0.824532" y="0.627266" width="172.777" height="171.777" filterUnits="userSpaceOnUse" color-interpolation-filters="sRGB">
<feFlood flood-opacity="0" result="BackgroundImageFix"/>
<feBlend mode="normal" in="SourceGraphic" in2="BackgroundImageFix" result="shape"/>
<feGaussianBlur stdDeviation="24.9676" result="effect1_foregroundBlur_524_120"/>
</filter>
<linearGradient id="paint0_linear_524_120" x1="87.2125" y1="50.5625" x2="87.2125" y2="122.469" gradientUnits="userSpaceOnUse">
<stop stop-color="#BADE4F"/>
<stop offset="1" stop-color="#83D216"/>
</linearGradient>
<linearGradient id="paint1_linear_524_120" x1="87.2125" y1="50.5625" x2="87.2125" y2="122.469" gradientUnits="userSpaceOnUse">
<stop stop-color="#BADE4F"/>
<stop offset="1" stop-color="#83D216"/>
</linearGradient>
</defs>
</svg>
