<svg width="153" height="173" viewBox="0 0 153 173" fill="none" xmlns="http://www.w3.org/2000/svg">
<g filter="url(#filter0_f_524_131)">
<path fill-rule="evenodd" clip-rule="evenodd" d="M89.0724 101.401L88.6396 102.489C80.8983 105.088 72.5265 105.088 64.7852 102.489L64.3524 101.401C63.9413 100.401 63.7336 99.8959 63.3744 99.4347C63.0195 98.9692 62.3963 98.4993 61.1499 97.5639C56.7858 94.279 53.5608 89.6967 51.9321 84.4662C50.3033 79.2358 50.3533 73.6227 52.0752 68.4224C53.797 63.2222 57.1032 58.6987 61.5253 55.4931C65.9473 52.2875 71.2607 50.5625 76.7124 50.5625C82.1641 50.5625 87.4776 52.2875 91.8996 55.4931C96.3216 58.6987 99.6278 63.2222 101.35 68.4224C103.071 73.6227 103.122 79.2358 101.493 84.4662C99.864 89.6967 96.639 94.279 92.2749 97.5639C91.0285 98.4993 90.4053 98.9692 90.0504 99.4347C89.6956 99.9002 89.4878 100.396 89.0724 101.401ZM67.4078 112.191C67.7829 114.488 67.9964 116.806 68.0483 119.144C68.0527 119.453 68.1408 119.754 68.3033 120.017C68.4657 120.279 68.6963 120.491 68.9701 120.632C71.374 121.84 74.0247 122.469 76.7124 122.469C79.4001 122.469 82.0508 121.84 84.4547 120.632C84.7285 120.491 84.9591 120.279 85.1215 120.017C85.284 119.754 85.3721 119.453 85.3765 119.144C85.4284 116.806 85.6419 114.488 86.017 112.191C79.8779 113.457 73.547 113.457 67.4078 112.191Z" fill="url(#paint0_linear_524_131)"/>
</g>
<path fill-rule="evenodd" clip-rule="evenodd" d="M89.0724 101.401L88.6396 102.489C80.8983 105.088 72.5265 105.088 64.7852 102.489L64.3524 101.401C63.9413 100.401 63.7336 99.8959 63.3744 99.4347C63.0195 98.9692 62.3963 98.4993 61.1499 97.5639C56.7858 94.279 53.5608 89.6967 51.9321 84.4662C50.3033 79.2358 50.3533 73.6227 52.0752 68.4224C53.797 63.2222 57.1032 58.6987 61.5253 55.4931C65.9473 52.2875 71.2607 50.5625 76.7124 50.5625C82.1641 50.5625 87.4776 52.2875 91.8996 55.4931C96.3216 58.6987 99.6278 63.2222 101.35 68.4224C103.071 73.6227 103.122 79.2358 101.493 84.4662C99.864 89.6967 96.639 94.279 92.2749 97.5639C91.0285 98.4993 90.4053 98.9692 90.0504 99.4347C89.6956 99.9002 89.4878 100.396 89.0724 101.401ZM67.4078 112.191C67.7829 114.488 67.9964 116.806 68.0483 119.144C68.0527 119.453 68.1408 119.754 68.3033 120.017C68.4657 120.279 68.6963 120.491 68.9701 120.632C71.374 121.84 74.0247 122.469 76.7124 122.469C79.4001 122.469 82.0508 121.84 84.4547 120.632C84.7285 120.491 84.9591 120.279 85.1215 120.017C85.284 119.754 85.3721 119.453 85.3765 119.144C85.4284 116.806 85.6419 114.488 86.017 112.191C79.8779 113.457 73.547 113.457 67.4078 112.191Z" fill="url(#paint1_linear_524_131)"/>
<defs>
<filter id="filter0_f_524_131" x="0.81086" y="0.627266" width="151.804" height="171.777" filterUnits="userSpaceOnUse" color-interpolation-filters="sRGB">
<feFlood flood-opacity="0" result="BackgroundImageFix"/>
<feBlend mode="normal" in="SourceGraphic" in2="BackgroundImageFix" result="shape"/>
<feGaussianBlur stdDeviation="24.9676" result="effect1_foregroundBlur_524_131"/>
</filter>
<linearGradient id="paint0_linear_524_131" x1="76.7124" y1="50.5625" x2="76.7124" y2="122.469" gradientUnits="userSpaceOnUse">
<stop stop-color="#BADE4F"/>
<stop offset="1" stop-color="#83D216"/>
</linearGradient>
<linearGradient id="paint1_linear_524_131" x1="76.7124" y1="50.5625" x2="76.7124" y2="122.469" gradientUnits="userSpaceOnUse">
<stop stop-color="#BADE4F"/>
<stop offset="1" stop-color="#83D216"/>
</linearGradient>
</defs>
</svg>
