<svg width="157" height="156" viewBox="0 0 157 156" fill="none" xmlns="http://www.w3.org/2000/svg">
<g filter="url(#filter0_f_524_143)">
<path d="M52.8609 49.9767C52.2787 49.9707 51.7142 50.1763 51.2722 50.5553C50.8302 50.9342 50.5408 51.4607 50.4577 52.037C50.2723 53.3533 50.1781 54.6808 50.1758 56.0102C50.1758 70.5828 61.4673 82.5087 75.8092 83.7167V103.647C75.8092 104.284 76.0624 104.895 76.5131 105.346C76.9637 105.797 77.575 106.05 78.2123 106.05C78.8497 106.05 79.4609 105.797 79.9116 105.346C80.3623 104.895 80.6155 104.284 80.6155 103.647V83.7167C94.9574 82.5087 106.249 70.5796 106.249 56.007C106.249 54.6612 106.154 53.3368 105.964 52.0338C105.88 51.4581 105.59 50.9324 105.148 50.5541C104.706 50.1758 104.142 49.9706 103.561 49.9767C98.1984 50.0219 92.9614 51.6022 88.4692 54.5305C83.977 57.4589 80.4177 61.6128 78.2123 66.5006C76.0067 61.6123 72.4469 57.4581 67.9541 54.5297C63.4613 51.6013 58.2236 50.0213 52.8609 49.9767Z" fill="url(#paint0_linear_524_143)"/>
</g>
<path d="M52.8589 49.9767C52.2768 49.9707 51.7122 50.1763 51.2702 50.5553C50.8282 50.9342 50.5388 51.4607 50.4558 52.037C50.2703 53.3533 50.1761 54.6808 50.1738 56.0102C50.1738 70.5828 61.4654 82.5087 75.8072 83.7167V103.647C75.8072 104.284 76.0604 104.895 76.5111 105.346C76.9618 105.797 77.573 106.05 78.2104 106.05C78.8477 106.05 79.459 105.797 79.9097 105.346C80.3603 104.895 80.6135 104.284 80.6135 103.647V83.7167C94.9554 82.5087 106.247 70.5796 106.247 56.007C106.247 54.6612 106.152 53.3368 105.962 52.0338C105.878 51.4581 105.588 50.9324 105.146 50.5541C104.704 50.1758 104.14 49.9706 103.559 49.9767C98.1965 50.0219 92.9594 51.6022 88.4673 54.5305C83.9751 57.4589 80.4157 61.6128 78.2104 66.5006C76.0048 61.6123 72.445 57.4581 67.9521 54.5297C63.4593 51.6013 58.2216 50.0213 52.8589 49.9767Z" fill="url(#paint1_linear_524_143)"/>
<defs>
<filter id="filter0_f_524_143" x="0.240547" y="0.0413284" width="155.943" height="155.941" filterUnits="userSpaceOnUse" color-interpolation-filters="sRGB">
<feFlood flood-opacity="0" result="BackgroundImageFix"/>
<feBlend mode="normal" in="SourceGraphic" in2="BackgroundImageFix" result="shape"/>
<feGaussianBlur stdDeviation="24.9676" result="effect1_foregroundBlur_524_143"/>
</filter>
<linearGradient id="paint0_linear_524_143" x1="78.2123" y1="49.9766" x2="78.2123" y2="106.05" gradientUnits="userSpaceOnUse">
<stop stop-color="#BADE4F"/>
<stop offset="1" stop-color="#83D216"/>
</linearGradient>
<linearGradient id="paint1_linear_524_143" x1="78.2104" y1="49.9766" x2="78.2104" y2="106.05" gradientUnits="userSpaceOnUse">
<stop stop-color="#BADE4F"/>
<stop offset="1" stop-color="#83D216"/>
</linearGradient>
</defs>
</svg>
