<svg width="186" height="159" viewBox="0 0 186 159" fill="none" xmlns="http://www.w3.org/2000/svg">
<g filter="url(#filter0_f_524_154)">
<path fill-rule="evenodd" clip-rule="evenodd" d="M63.4926 62.0569C70.8398 56.1196 81.3195 50.5547 93.2125 50.5547C105.106 50.5547 115.581 56.1196 122.932 62.0569C126.257 64.7112 129.243 67.7435 131.829 71.0891C132.903 72.5124 133.803 73.9108 134.452 75.2141C135.046 76.3975 135.657 77.9366 135.657 79.5171C135.657 81.0976 135.042 82.6368 134.452 83.8201C133.705 85.2683 132.827 86.6488 131.829 87.9452C129.243 91.2908 126.257 94.323 122.932 96.9773C115.585 102.915 105.106 108.48 93.2125 108.48C81.3195 108.48 70.844 102.915 63.4926 96.9773C60.1684 94.323 57.1817 91.2908 54.5961 87.9452C53.5979 86.6488 52.72 85.2683 51.973 83.8201C51.3788 82.6368 50.7676 81.0976 50.7676 79.5171C50.7676 77.9366 51.383 76.3975 51.973 75.2141C52.6224 73.9108 53.5223 72.5124 54.5961 71.0891C57.1817 67.7435 60.1684 64.7112 63.4926 62.0569ZM93.2125 91.9296C96.5897 91.9296 99.8285 90.6219 102.216 88.2941C104.604 85.9663 105.946 82.8091 105.946 79.5171C105.946 76.2251 104.604 73.068 102.216 70.7402C99.8285 68.4124 96.5897 67.1047 93.2125 67.1047C89.8354 67.1047 86.5966 68.4124 84.2086 70.7402C81.8206 73.068 80.479 76.2251 80.479 79.5171C80.479 82.8091 81.8206 85.9663 84.2086 88.2941C86.5966 90.6219 89.8354 91.9296 93.2125 91.9296Z" fill="url(#paint0_linear_524_154)"/>
<path d="M63.8042 62.4471L63.8064 62.4453C71.1016 56.5501 81.4734 51.054 93.2125 51.054C104.952 51.054 115.319 56.55 122.619 62.4454L122.621 62.4471C125.913 65.0761 128.871 68.0792 131.432 71.3922C132.493 72.7979 133.373 74.1692 134.005 75.4368L134.006 75.4382C134.589 76.6001 135.158 78.0546 135.158 79.5171C135.158 80.9778 134.587 82.4307 134.007 83.5941C133.274 85.0144 132.413 86.3685 131.433 87.6403C128.872 90.954 125.914 93.9576 122.621 96.5871L122.619 96.5889C115.323 102.484 104.952 107.98 93.2125 107.98C81.4735 107.98 71.1059 102.484 63.8063 96.5888L63.8042 96.5871C60.511 93.9576 57.5526 90.954 54.9916 87.6403C54.0122 86.3683 53.1509 85.014 52.418 83.5936C51.835 82.432 51.2669 80.9786 51.2669 79.5171C51.2669 78.0551 51.8396 76.6009 52.4199 75.4369L52.42 75.4368C53.0516 74.1691 53.9326 72.7978 54.993 71.3921C57.5537 68.0791 60.5117 65.0761 63.8042 62.4471L63.8042 62.4471ZM93.2125 92.4289C96.718 92.4289 100.082 91.0716 102.565 88.6516C105.048 86.2312 106.445 82.9457 106.445 79.5171C106.445 76.0885 105.048 72.803 102.565 70.3826C100.082 67.9626 96.718 66.6053 93.2125 66.6053C89.707 66.6053 86.3426 67.9626 83.86 70.3826C81.377 72.803 79.9797 76.0885 79.9797 79.5171C79.9797 82.9457 81.377 86.2312 83.86 88.6516C86.3426 91.0716 89.707 92.4289 93.2125 92.4289Z" stroke="#1C1C1C" stroke-width="0.998705"/>
</g>
<path fill-rule="evenodd" clip-rule="evenodd" d="M63.4926 62.0569C70.8398 56.1196 81.3195 50.5547 93.2125 50.5547C105.106 50.5547 115.581 56.1196 122.932 62.0569C126.257 64.7112 129.243 67.7435 131.829 71.0891C132.903 72.5124 133.803 73.9108 134.452 75.2141C135.046 76.3975 135.657 77.9366 135.657 79.5171C135.657 81.0976 135.042 82.6368 134.452 83.8201C133.705 85.2683 132.827 86.6488 131.829 87.9452C129.243 91.2908 126.257 94.323 122.932 96.9773C115.585 102.915 105.106 108.48 93.2125 108.48C81.3195 108.48 70.844 102.915 63.4926 96.9773C60.1684 94.323 57.1817 91.2908 54.5961 87.9452C53.5979 86.6488 52.72 85.2683 51.973 83.8201C51.3788 82.6368 50.7676 81.0976 50.7676 79.5171C50.7676 77.9366 51.383 76.3975 51.973 75.2141C52.6224 73.9108 53.5223 72.5124 54.5961 71.0891C57.1817 67.7435 60.1684 64.7112 63.4926 62.0569ZM93.2125 91.9296C96.5897 91.9296 99.8285 90.6219 102.216 88.2941C104.604 85.9663 105.946 82.8091 105.946 79.5171C105.946 76.2251 104.604 73.068 102.216 70.7402C99.8285 68.4124 96.5897 67.1047 93.2125 67.1047C89.8354 67.1047 86.5966 68.4124 84.2086 70.7402C81.8206 73.068 80.479 76.2251 80.479 79.5171C80.479 82.8091 81.8206 85.9663 84.2086 88.2941C86.5966 90.6219 89.8354 91.9296 93.2125 91.9296Z" fill="url(#paint1_linear_524_154)"/>
<defs>
<filter id="filter0_f_524_154" x="0.832344" y="0.619453" width="184.761" height="157.792" filterUnits="userSpaceOnUse" color-interpolation-filters="sRGB">
<feFlood flood-opacity="0" result="BackgroundImageFix"/>
<feBlend mode="normal" in="SourceGraphic" in2="BackgroundImageFix" result="shape"/>
<feGaussianBlur stdDeviation="24.9676" result="effect1_foregroundBlur_524_154"/>
</filter>
<linearGradient id="paint0_linear_524_154" x1="93.2125" y1="50.5547" x2="93.2125" y2="108.48" gradientUnits="userSpaceOnUse">
<stop stop-color="#BADE4F"/>
<stop offset="1" stop-color="#83D216"/>
</linearGradient>
<linearGradient id="paint1_linear_524_154" x1="93.2125" y1="50.5547" x2="93.2125" y2="108.48" gradientUnits="userSpaceOnUse">
<stop stop-color="#BADE4F"/>
<stop offset="1" stop-color="#83D216"/>
</linearGradient>
</defs>
</svg>
