<svg width="1200" height="12" viewBox="0 0 1200 12" fill="none" xmlns="http://www.w3.org/2000/svg">
<path d="M-969.78 8.63672L-970.079 11.625H-971.802L-971.494 8.63672H-973.533L-973.832 11.625H-975.554L-975.247 8.63672H-976.794V7.02832H-975.089L-974.834 4.50586H-976.328V2.89746H-974.676L-974.394 0.137695H-972.672L-972.953 2.89746H-970.923L-970.641 0.137695H-968.919L-969.2 2.89746H-967.635V4.50586H-969.358L-969.613 7.02832H-968.101V8.63672H-969.78ZM-971.081 4.50586H-973.111L-973.366 7.02832H-971.336L-971.081 4.50586ZM-949.624 8.63672L-949.922 11.625H-951.645L-951.337 8.63672H-953.376L-953.675 11.625H-955.398L-955.09 8.63672H-956.637V7.02832H-954.932L-954.677 4.50586H-956.171V2.89746H-954.519L-954.238 0.137695H-952.515L-952.796 2.89746H-950.766L-950.485 0.137695H-948.762L-949.043 2.89746H-947.479V4.50586H-949.202L-949.457 7.02832H-947.945V8.63672H-949.624ZM-950.924 4.50586H-952.955L-953.209 7.02832H-951.179L-950.924 4.50586ZM-929.467 8.63672L-929.766 11.625H-931.489L-931.181 8.63672H-933.22L-933.519 11.625H-935.241L-934.934 8.63672H-936.481V7.02832H-934.776L-934.521 4.50586H-936.015V2.89746H-934.363L-934.081 0.137695H-932.359L-932.64 2.89746H-930.61L-930.328 0.137695H-928.606L-928.887 2.89746H-927.323V4.50586H-929.045L-929.3 7.02832H-927.788V8.63672H-929.467ZM-930.768 4.50586H-932.798L-933.053 7.02832H-931.023L-930.768 4.50586ZM-909.311 8.63672L-909.609 11.625H-911.332L-911.024 8.63672H-913.064L-913.362 11.625H-915.085L-914.777 8.63672H-916.324V7.02832H-914.619L-914.364 4.50586H-915.858V2.89746H-914.206L-913.925 0.137695H-912.202L-912.483 2.89746H-910.453L-910.172 0.137695H-908.449L-908.73 2.89746H-907.166V4.50586H-908.889L-909.144 7.02832H-907.632V8.63672H-909.311ZM-910.611 4.50586H-912.642L-912.897 7.02832H-910.866L-910.611 4.50586ZM-889.154 8.63672L-889.453 11.625H-891.176L-890.868 8.63672H-892.907L-893.206 11.625H-894.928L-894.621 8.63672H-896.168V7.02832H-894.463L-894.208 4.50586H-895.702V2.89746H-894.05L-893.768 0.137695H-892.046L-892.327 2.89746H-890.297L-890.015 0.137695H-888.293L-888.574 2.89746H-887.01V4.50586H-888.732L-888.987 7.02832H-887.475V8.63672H-889.154ZM-890.455 4.50586H-892.485L-892.74 7.02832H-890.71L-890.455 4.50586ZM-868.998 8.63672L-869.296 11.625H-871.019L-870.711 8.63672H-872.751L-873.049 11.625H-874.772L-874.464 8.63672H-876.011V7.02832H-874.306L-874.051 4.50586H-875.545V2.89746H-873.893L-873.612 0.137695H-871.889L-872.17 2.89746H-870.14L-869.859 0.137695H-868.136L-868.418 2.89746H-866.853V4.50586H-868.576L-868.831 7.02832H-867.319V8.63672H-868.998ZM-870.298 4.50586H-872.329L-872.584 7.02832H-870.553L-870.298 4.50586ZM-848.841 8.63672L-849.14 11.625H-850.863L-850.555 8.63672H-852.594L-852.893 11.625H-854.616L-854.308 8.63672H-855.855V7.02832H-854.15L-853.895 4.50586H-855.389V2.89746H-853.737L-853.455 0.137695H-851.733L-852.014 2.89746H-849.984L-849.702 0.137695H-847.98L-848.261 2.89746H-846.697V4.50586H-848.419L-848.674 7.02832H-847.162V8.63672H-848.841ZM-850.142 4.50586H-852.172L-852.427 7.02832H-850.397L-850.142 4.50586ZM-828.685 8.63672L-828.983 11.625H-830.706L-830.398 8.63672H-832.438L-832.736 11.625H-834.459L-834.151 8.63672H-835.698V7.02832H-833.993L-833.738 4.50586H-835.232V2.89746H-833.58L-833.299 0.137695H-831.576L-831.857 2.89746H-829.827L-829.546 0.137695H-827.823L-828.105 2.89746H-826.54V4.50586H-828.263L-828.518 7.02832H-827.006V8.63672H-828.685ZM-829.985 4.50586H-832.016L-832.271 7.02832H-830.24L-829.985 4.50586ZM-808.528 8.63672L-808.827 11.625H-810.55L-810.242 8.63672H-812.281L-812.58 11.625H-814.303L-813.995 8.63672H-815.542V7.02832H-813.837L-813.582 4.50586H-815.076V2.89746H-813.424L-813.142 0.137695H-811.42L-811.701 2.89746H-809.671L-809.389 0.137695H-807.667L-807.948 2.89746H-806.384V4.50586H-808.106L-808.361 7.02832H-806.849V8.63672H-808.528ZM-809.829 4.50586H-811.859L-812.114 7.02832H-810.084L-809.829 4.50586ZM-788.372 8.63672L-788.671 11.625H-790.393L-790.086 8.63672H-792.125L-792.423 11.625H-794.146L-793.838 8.63672H-795.385V7.02832H-793.68L-793.425 4.50586H-794.92V2.89746H-793.267L-792.986 0.137695H-791.263L-791.545 2.89746H-789.514L-789.233 0.137695H-787.51L-787.792 2.89746H-786.227V4.50586H-787.95L-788.205 7.02832H-786.693V8.63672H-788.372ZM-789.672 4.50586H-791.703L-791.958 7.02832H-789.927L-789.672 4.50586ZM-768.215 8.63672L-768.514 11.625H-770.237L-769.929 8.63672H-771.968L-772.267 11.625H-773.99L-773.682 8.63672H-775.229V7.02832H-773.524L-773.269 4.50586H-774.763V2.89746H-773.111L-772.829 0.137695H-771.107L-771.388 2.89746H-769.358L-769.077 0.137695H-767.354L-767.635 2.89746H-766.071V4.50586H-767.793L-768.048 7.02832H-766.536V8.63672H-768.215ZM-769.516 4.50586H-771.546L-771.801 7.02832H-769.771L-769.516 4.50586ZM-748.059 8.63672L-748.358 11.625H-750.08L-749.773 8.63672H-751.812L-752.11 11.625H-753.833L-753.526 8.63672H-755.072V7.02832H-753.367L-753.112 4.50586H-754.607V2.89746H-752.954L-752.673 0.137695H-750.95L-751.232 2.89746H-749.201L-748.92 0.137695H-747.197L-747.479 2.89746H-745.914V4.50586H-747.637L-747.892 7.02832H-746.38V8.63672H-748.059ZM-749.359 4.50586H-751.39L-751.645 7.02832H-749.614L-749.359 4.50586ZM-727.902 8.63672L-728.201 11.625H-729.924L-729.616 8.63672H-731.655L-731.954 11.625H-733.677L-733.369 8.63672H-734.916V7.02832H-733.211L-732.956 4.50586H-734.45V2.89746H-732.798L-732.516 0.137695H-730.794L-731.075 2.89746H-729.045L-728.764 0.137695H-727.041L-727.322 2.89746H-725.758V4.50586H-727.48L-727.735 7.02832H-726.224V8.63672H-727.902ZM-729.203 4.50586H-731.233L-731.488 7.02832H-729.458L-729.203 4.50586ZM-707.746 8.63672L-708.045 11.625H-709.767L-709.46 8.63672H-711.499L-711.797 11.625H-713.52L-713.213 8.63672H-714.759V7.02832H-713.054L-712.799 4.50586H-714.294V2.89746H-712.641L-712.36 0.137695H-710.637L-710.919 2.89746H-708.888L-708.607 0.137695H-706.884L-707.166 2.89746H-705.601V4.50586H-707.324L-707.579 7.02832H-706.067V8.63672H-707.746ZM-709.047 4.50586H-711.077L-711.332 7.02832H-709.301L-709.047 4.50586ZM-687.589 8.63672L-687.888 11.625H-689.611L-689.303 8.63672H-691.342L-691.641 11.625H-693.364L-693.056 8.63672H-694.603V7.02832H-692.898L-692.643 4.50586H-694.137V2.89746H-692.485L-692.203 0.137695H-690.481L-690.762 2.89746H-688.732L-688.451 0.137695H-686.728L-687.009 2.89746H-685.445V4.50586H-687.167L-687.422 7.02832H-685.911V8.63672H-687.589ZM-688.89 4.50586H-690.92L-691.175 7.02832H-689.145L-688.89 4.50586ZM-667.433 8.63672L-667.732 11.625H-669.454L-669.147 8.63672H-671.186L-671.485 11.625H-673.207L-672.9 8.63672H-674.446V7.02832H-672.741L-672.486 4.50586H-673.981V2.89746H-672.328L-672.047 0.137695H-670.324L-670.606 2.89746H-668.575L-668.294 0.137695H-666.571L-666.853 2.89746H-665.288V4.50586H-667.011L-667.266 7.02832H-665.754V8.63672H-667.433ZM-668.734 4.50586H-670.764L-671.019 7.02832H-668.988L-668.734 4.50586ZM-647.276 8.63672L-647.575 11.625H-649.298L-648.99 8.63672H-651.029L-651.328 11.625H-653.051L-652.743 8.63672H-654.29V7.02832H-652.585L-652.33 4.50586H-653.824V2.89746H-652.172L-651.891 0.137695H-650.168L-650.449 2.89746H-648.419L-648.138 0.137695H-646.415L-646.696 2.89746H-645.132V4.50586H-646.854L-647.109 7.02832H-645.598V8.63672H-647.276ZM-648.577 4.50586H-650.607L-650.862 7.02832H-648.832L-648.577 4.50586ZM-627.12 8.63672L-627.419 11.625H-629.141L-628.834 8.63672H-630.873L-631.172 11.625H-632.894L-632.587 8.63672H-634.133V7.02832H-632.428L-632.173 4.50586H-633.668V2.89746H-632.015L-631.734 0.137695H-630.011L-630.293 2.89746H-628.262L-627.981 0.137695H-626.258L-626.54 2.89746H-624.975V4.50586H-626.698L-626.953 7.02832H-625.441V8.63672H-627.12ZM-628.421 4.50586H-630.451L-630.706 7.02832H-628.675L-628.421 4.50586ZM-606.963 8.63672L-607.262 11.625H-608.985L-608.677 8.63672H-610.716L-611.015 11.625H-612.738L-612.43 8.63672H-613.977V7.02832H-612.272L-612.017 4.50586H-613.511V2.89746H-611.859L-611.578 0.137695H-609.855L-610.136 2.89746H-608.106L-607.825 0.137695H-606.102L-606.383 2.89746H-604.819V4.50586H-606.541L-606.796 7.02832H-605.285V8.63672H-606.963ZM-608.264 4.50586H-610.294L-610.549 7.02832H-608.519L-608.264 4.50586ZM-586.807 8.63672L-587.106 11.625H-588.828L-588.521 8.63672H-590.56L-590.859 11.625H-592.581L-592.274 8.63672H-593.82V7.02832H-592.115L-591.861 4.50586H-593.355V2.89746H-591.702L-591.421 0.137695H-589.698L-589.98 2.89746H-587.949L-587.668 0.137695H-585.945L-586.227 2.89746H-584.662V4.50586H-586.385L-586.64 7.02832H-585.128V8.63672H-586.807ZM-588.108 4.50586H-590.138L-590.393 7.02832H-588.362L-588.108 4.50586ZM-566.65 8.63672L-566.949 11.625H-568.672L-568.364 8.63672H-570.403L-570.702 11.625H-572.425L-572.117 8.63672H-573.664V7.02832H-571.959L-571.704 4.50586H-573.198V2.89746H-571.546L-571.265 0.137695H-569.542L-569.823 2.89746H-567.793L-567.512 0.137695H-565.789L-566.07 2.89746H-564.506V4.50586H-566.228L-566.483 7.02832H-564.972V8.63672H-566.65ZM-567.951 4.50586H-569.981L-570.236 7.02832H-568.206L-567.951 4.50586ZM-546.494 8.63672L-546.793 11.625H-548.515L-548.208 8.63672H-550.247L-550.546 11.625H-552.268L-551.961 8.63672H-553.508V7.02832H-551.802L-551.548 4.50586H-553.042V2.89746H-551.389L-551.108 0.137695H-549.385L-549.667 2.89746H-547.636L-547.355 0.137695H-545.633L-545.914 2.89746H-544.349V4.50586H-546.072L-546.327 7.02832H-544.815V8.63672H-546.494ZM-547.795 4.50586H-549.825L-550.08 7.02832H-548.05L-547.795 4.50586ZM-526.337 8.63672L-526.636 11.625H-528.359L-528.051 8.63672H-530.09L-530.389 11.625H-532.112L-531.804 8.63672H-533.351V7.02832H-531.646L-531.391 4.50586H-532.885V2.89746H-531.233L-530.952 0.137695H-529.229L-529.51 2.89746H-527.48L-527.199 0.137695H-525.476L-525.757 2.89746H-524.193V4.50586H-525.915L-526.17 7.02832H-524.659V8.63672H-526.337ZM-527.638 4.50586H-529.668L-529.923 7.02832H-527.893L-527.638 4.50586ZM-506.181 8.63672L-506.48 11.625H-508.202L-507.895 8.63672H-509.934L-510.233 11.625H-511.955L-511.648 8.63672H-513.195V7.02832H-511.49L-511.235 4.50586H-512.729V2.89746H-511.076L-510.795 0.137695H-509.073L-509.354 2.89746H-507.323L-507.042 0.137695H-505.32L-505.601 2.89746H-504.036V4.50586H-505.759L-506.014 7.02832H-504.502V8.63672H-506.181ZM-507.482 4.50586H-509.512L-509.767 7.02832H-507.737L-507.482 4.50586ZM-486.024 8.63672L-486.323 11.625H-488.046L-487.738 8.63672H-489.777L-490.076 11.625H-491.799L-491.491 8.63672H-493.038V7.02832H-491.333L-491.078 4.50586H-492.572V2.89746H-490.92L-490.639 0.137695H-488.916L-489.197 2.89746H-487.167L-486.886 0.137695H-485.163L-485.444 2.89746H-483.88V4.50586H-485.603L-485.857 7.02832H-484.346V8.63672H-486.024ZM-487.325 4.50586H-489.355L-489.61 7.02832H-487.58L-487.325 4.50586ZM-465.868 8.63672L-466.167 11.625H-467.889L-467.582 8.63672H-469.621L-469.92 11.625H-471.642L-471.335 8.63672H-472.882V7.02832H-471.177L-470.922 4.50586H-472.416V2.89746H-470.763L-470.482 0.137695H-468.76L-469.041 2.89746H-467.01L-466.729 0.137695H-465.007L-465.288 2.89746H-463.723V4.50586H-465.446L-465.701 7.02832H-464.189V8.63672H-465.868ZM-467.169 4.50586H-469.199L-469.454 7.02832H-467.424L-467.169 4.50586ZM-445.711 8.63672L-446.01 11.625H-447.733L-447.425 8.63672H-449.464L-449.763 11.625H-451.486L-451.178 8.63672H-452.725V7.02832H-451.02L-450.765 4.50586H-452.259V2.89746H-450.607L-450.326 0.137695H-448.603L-448.884 2.89746H-446.854L-446.573 0.137695H-444.85L-445.131 2.89746H-443.567V4.50586H-445.29L-445.544 7.02832H-444.033V8.63672H-445.711ZM-447.012 4.50586H-449.042L-449.297 7.02832H-447.267L-447.012 4.50586ZM-425.555 8.63672L-425.854 11.625H-427.576L-427.269 8.63672H-429.308L-429.607 11.625H-431.329L-431.022 8.63672H-432.569V7.02832H-430.864L-430.609 4.50586H-432.103V2.89746H-430.45L-430.169 0.137695H-428.447L-428.728 2.89746H-426.698L-426.416 0.137695H-424.694L-424.975 2.89746H-423.41V4.50586H-425.133L-425.388 7.02832H-423.876V8.63672H-425.555ZM-426.856 4.50586H-428.886L-429.141 7.02832H-427.111L-426.856 4.50586ZM-405.398 8.63672L-405.697 11.625H-407.42L-407.112 8.63672H-409.151L-409.45 11.625H-411.173L-410.865 8.63672H-412.412V7.02832H-410.707L-410.452 4.50586H-411.946V2.89746H-410.294L-410.013 0.137695H-408.29L-408.571 2.89746H-406.541L-406.26 0.137695H-404.537L-404.818 2.89746H-403.254V4.50586H-404.977L-405.231 7.02832H-403.72V8.63672H-405.398ZM-406.699 4.50586H-408.729L-408.984 7.02832H-406.954L-406.699 4.50586ZM-385.242 8.63672L-385.541 11.625H-387.263L-386.956 8.63672H-388.995L-389.294 11.625H-391.016L-390.709 8.63672H-392.256V7.02832H-390.551L-390.296 4.50586H-391.79V2.89746H-390.138L-389.856 0.137695H-388.134L-388.415 2.89746H-386.385L-386.103 0.137695H-384.381L-384.662 2.89746H-383.097V4.50586H-384.82L-385.075 7.02832H-383.563V8.63672H-385.242ZM-386.543 4.50586H-388.573L-388.828 7.02832H-386.798L-386.543 4.50586ZM-365.086 8.63672L-365.384 11.625H-367.107L-366.799 8.63672H-368.838L-369.137 11.625H-370.86L-370.552 8.63672H-372.099V7.02832H-370.394L-370.139 4.50586H-371.633V2.89746H-369.981L-369.7 0.137695H-367.977L-368.258 2.89746H-366.228L-365.947 0.137695H-364.224L-364.505 2.89746H-362.941V4.50586H-364.664L-364.919 7.02832H-363.407V8.63672H-365.086ZM-366.386 4.50586H-368.417L-368.671 7.02832H-366.641L-366.386 4.50586ZM-344.929 8.63672L-345.228 11.625H-346.951L-346.643 8.63672H-348.682L-348.981 11.625H-350.703L-350.396 8.63672H-351.943V7.02832H-350.238L-349.983 4.50586H-351.477V2.89746H-349.825L-349.543 0.137695H-347.821L-348.102 2.89746H-346.072L-345.79 0.137695H-344.068L-344.349 2.89746H-342.784V4.50586H-344.507L-344.762 7.02832H-343.25V8.63672H-344.929ZM-346.23 4.50586H-348.26L-348.515 7.02832H-346.485L-346.23 4.50586ZM-324.773 8.63672L-325.071 11.625H-326.794L-326.486 8.63672H-328.525L-328.824 11.625H-330.547L-330.239 8.63672H-331.786V7.02832H-330.081L-329.826 4.50586H-331.32V2.89746H-329.668L-329.387 0.137695H-327.664L-327.945 2.89746H-325.915L-325.634 0.137695H-323.911L-324.192 2.89746H-322.628V4.50586H-324.351L-324.606 7.02832H-323.094V8.63672H-324.773ZM-326.073 4.50586H-328.104L-328.358 7.02832H-326.328L-326.073 4.50586ZM-304.616 8.63672L-304.915 11.625H-306.638L-306.33 8.63672H-308.369L-308.668 11.625H-310.39L-310.083 8.63672H-311.63V7.02832H-309.925L-309.67 4.50586H-311.164V2.89746H-309.512L-309.23 0.137695H-307.508L-307.789 2.89746H-305.759L-305.477 0.137695H-303.755L-304.036 2.89746H-302.471V4.50586H-304.194L-304.449 7.02832H-302.937V8.63672H-304.616ZM-305.917 4.50586H-307.947L-308.202 7.02832H-306.172L-305.917 4.50586ZM-284.46 8.63672L-284.758 11.625H-286.481L-286.173 8.63672H-288.212L-288.511 11.625H-290.234L-289.926 8.63672H-291.473V7.02832H-289.768L-289.513 4.50586H-291.007V2.89746H-289.355L-289.074 0.137695H-287.351L-287.632 2.89746H-285.602L-285.321 0.137695H-283.598L-283.879 2.89746H-282.315V4.50586H-284.038L-284.293 7.02832H-282.781V8.63672H-284.46ZM-285.76 4.50586H-287.791L-288.045 7.02832H-286.015L-285.76 4.50586ZM-264.303 8.63672L-264.602 11.625H-266.325L-266.017 8.63672H-268.056L-268.355 11.625H-270.077L-269.77 8.63672H-271.317V7.02832H-269.612L-269.357 4.50586H-270.851V2.89746H-269.199L-268.917 0.137695H-267.195L-267.476 2.89746H-265.446L-265.164 0.137695H-263.442L-263.723 2.89746H-262.159V4.50586H-263.881L-264.136 7.02832H-262.624V8.63672H-264.303ZM-265.604 4.50586H-267.634L-267.889 7.02832H-265.859L-265.604 4.50586ZM-244.147 8.63672L-244.445 11.625H-246.168L-245.86 8.63672H-247.9L-248.198 11.625H-249.921L-249.613 8.63672H-251.16V7.02832H-249.455L-249.2 4.50586H-250.694V2.89746H-249.042L-248.761 0.137695H-247.038L-247.319 2.89746H-245.289L-245.008 0.137695H-243.285L-243.567 2.89746H-242.002V4.50586H-243.725L-243.98 7.02832H-242.468V8.63672H-244.147ZM-245.447 4.50586H-247.478L-247.733 7.02832H-245.702L-245.447 4.50586ZM-223.99 8.63672L-224.289 11.625H-226.012L-225.704 8.63672H-227.743L-228.042 11.625H-229.765L-229.457 8.63672H-231.004V7.02832H-229.299L-229.044 4.50586H-230.538V2.89746H-228.886L-228.604 0.137695H-226.882L-227.163 2.89746H-225.133L-224.851 0.137695H-223.129L-223.41 2.89746H-221.846V4.50586H-223.568L-223.823 7.02832H-222.311V8.63672H-223.99ZM-225.291 4.50586H-227.321L-227.576 7.02832H-225.546L-225.291 4.50586ZM-203.834 8.63672L-204.132 11.625H-205.855L-205.547 8.63672H-207.587L-207.885 11.625H-209.608L-209.3 8.63672H-210.847V7.02832H-209.142L-208.887 4.50586H-210.381V2.89746H-208.729L-208.448 0.137695H-206.725L-207.006 2.89746H-204.976L-204.695 0.137695H-202.972L-203.254 2.89746H-201.689V4.50586H-203.412L-203.667 7.02832H-202.155V8.63672H-203.834ZM-205.134 4.50586H-207.165L-207.42 7.02832H-205.389L-205.134 4.50586ZM-183.677 8.63672L-183.976 11.625H-185.699L-185.391 8.63672H-187.43L-187.729 11.625H-189.452L-189.144 8.63672H-190.691V7.02832H-188.986L-188.731 4.50586H-190.225V2.89746H-188.573L-188.291 0.137695H-186.569L-186.85 2.89746H-184.82L-184.538 0.137695H-182.816L-183.097 2.89746H-181.533V4.50586H-183.255L-183.51 7.02832H-181.998V8.63672H-183.677ZM-184.978 4.50586H-187.008L-187.263 7.02832H-185.233L-184.978 4.50586ZM-163.521 8.63672L-163.819 11.625H-165.542L-165.234 8.63672H-167.274L-167.572 11.625H-169.295L-168.987 8.63672H-170.534V7.02832H-168.829L-168.574 4.50586H-170.068V2.89746H-168.416L-168.135 0.137695H-166.412L-166.693 2.89746H-164.663L-164.382 0.137695H-162.659L-162.941 2.89746H-161.376V4.50586H-163.099L-163.354 7.02832H-161.842V8.63672H-163.521ZM-164.821 4.50586H-166.852L-167.107 7.02832H-165.076L-164.821 4.50586ZM-143.364 8.63672L-143.663 11.625H-145.386L-145.078 8.63672H-147.117L-147.416 11.625H-149.139L-148.831 8.63672H-150.378V7.02832H-148.673L-148.418 4.50586H-149.912V2.89746H-148.26L-147.978 0.137695H-146.256L-146.537 2.89746H-144.507L-144.225 0.137695H-142.503L-142.784 2.89746H-141.22V4.50586H-142.942L-143.197 7.02832H-141.685V8.63672H-143.364ZM-144.665 4.50586H-146.695L-146.95 7.02832H-144.92L-144.665 4.50586ZM-123.208 8.63672L-123.507 11.625H-125.229L-124.922 8.63672H-126.961L-127.259 11.625H-128.982L-128.674 8.63672H-130.221V7.02832H-128.516L-128.261 4.50586H-129.756V2.89746H-128.103L-127.822 0.137695H-126.099L-126.381 2.89746H-124.35L-124.069 0.137695H-122.346L-122.628 2.89746H-121.063V4.50586H-122.786L-123.041 7.02832H-121.529V8.63672H-123.208ZM-124.508 4.50586H-126.539L-126.794 7.02832H-124.763L-124.508 4.50586ZM-103.051 8.63672L-103.35 11.625H-105.073L-104.765 8.63672H-106.804L-107.103 11.625H-108.826L-108.518 8.63672H-110.065V7.02832H-108.36L-108.105 4.50586H-109.599V2.89746H-107.947L-107.665 0.137695H-105.943L-106.224 2.89746H-104.194L-103.913 0.137695H-102.19L-102.471 2.89746H-100.907V4.50586H-102.629L-102.884 7.02832H-101.372V8.63672H-103.051ZM-104.352 4.50586H-106.382L-106.637 7.02832H-104.607L-104.352 4.50586ZM-82.8947 8.63672L-83.1935 11.625H-84.9162L-84.6086 8.63672H-86.6476L-86.9465 11.625H-88.6691L-88.3615 8.63672H-89.9084V7.02832H-88.2033L-87.9484 4.50586H-89.4426V2.89746H-87.7902L-87.509 0.137695H-85.7863L-86.0676 2.89746H-84.0373L-83.756 0.137695H-82.0334L-82.3146 2.89746H-80.7502V4.50586H-82.4728L-82.7277 7.02832H-81.216V8.63672H-82.8947ZM-84.1955 4.50586H-86.2258L-86.4807 7.02832H-84.4504L-84.1955 4.50586ZM-62.7382 8.63672L-63.037 11.625H-64.7597L-64.4521 8.63672H-66.4911L-66.79 11.625H-68.5126L-68.205 8.63672H-69.7519V7.02832H-68.0468L-67.7919 4.50586H-69.2861V2.89746H-67.6337L-67.3525 0.137695H-65.6298L-65.9111 2.89746H-63.8808L-63.5995 0.137695H-61.8769L-62.1581 2.89746H-60.5937V4.50586H-62.3163L-62.5712 7.02832H-61.0595V8.63672H-62.7382ZM-64.039 4.50586H-66.0693L-66.3242 7.02832H-64.2939L-64.039 4.50586ZM-42.5817 8.63672L-42.8806 11.625H-44.6032L-44.2956 8.63672H-46.3347L-46.6335 11.625H-48.3561L-48.0485 8.63672H-49.5954V7.02832H-47.8903L-47.6354 4.50586H-49.1296V2.89746H-47.4772L-47.196 0.137695H-45.4733L-45.7546 2.89746H-43.7243L-43.4431 0.137695H-41.7204L-42.0016 2.89746H-40.4372V4.50586H-42.1599L-42.4147 7.02832H-40.903V8.63672H-42.5817ZM-43.8825 4.50586H-45.9128L-46.1677 7.02832H-44.1374L-43.8825 4.50586ZM-22.4252 8.63672L-22.7241 11.625H-24.4467L-24.1391 8.63672H-26.1782L-26.477 11.625H-28.1996L-27.892 8.63672H-29.4389V7.02832H-27.7338L-27.4789 4.50586H-28.9731V2.89746H-27.3207L-27.0395 0.137695H-25.3168L-25.5981 2.89746H-23.5678L-23.2866 0.137695H-21.5639L-21.8452 2.89746H-20.2807V4.50586H-22.0034L-22.2582 7.02832H-20.7465V8.63672H-22.4252ZM-23.726 4.50586H-25.7563L-26.0112 7.02832H-23.9809L-23.726 4.50586ZM-2.2688 8.63672L-2.56763 11.625H-4.29028L-3.98267 8.63672H-6.02173L-6.32056 11.625H-8.04321L-7.7356 8.63672H-9.28247V7.02832H-7.57739L-7.32251 4.50586H-8.81665V2.89746H-7.16431L-6.88306 0.137695H-5.1604L-5.44165 2.89746H-3.41138L-3.13013 0.137695H-1.40747L-1.68872 2.89746H-0.124268V4.50586H-1.84692L-2.10181 7.02832H-0.590088V8.63672H-2.2688ZM-3.56958 4.50586H-5.59985L-5.85474 7.02832H-3.82446L-3.56958 4.50586ZM17.8877 8.63672L17.5889 11.625H15.8662L16.1738 8.63672H14.1348L13.8359 11.625H12.1133L12.4209 8.63672H10.874V7.02832H12.5791L12.834 4.50586H11.3398V2.89746H12.9922L13.2734 0.137695H14.9961L14.7148 2.89746H16.7451L17.0264 0.137695H18.749L18.4678 2.89746H20.0322V4.50586H18.3096L18.0547 7.02832H19.5664V8.63672H17.8877ZM16.5869 4.50586H14.5566L14.3018 7.02832H16.332L16.5869 4.50586ZM38.0442 8.63672L37.7454 11.625H36.0227L36.3303 8.63672H34.2913L33.9924 11.625H32.2698L32.5774 8.63672H31.0305V7.02832H32.7356L32.9905 4.50586H31.4963V2.89746H33.1487L33.4299 0.137695H35.1526L34.8713 2.89746H36.9016L37.1829 0.137695H38.9055L38.6243 2.89746H40.1887V4.50586H38.4661L38.2112 7.02832H39.7229V8.63672H38.0442ZM36.7434 4.50586H34.7131L34.4583 7.02832H36.4885L36.7434 4.50586ZM58.2007 8.63672L57.9019 11.625H56.1792L56.4868 8.63672H54.4478L54.1489 11.625H52.4263L52.7339 8.63672H51.187V7.02832H52.8921L53.147 4.50586H51.6528V2.89746H53.3052L53.5864 0.137695H55.3091L55.0278 2.89746H57.0581L57.3394 0.137695H59.062L58.7808 2.89746H60.3452V4.50586H58.6226L58.3677 7.02832H59.8794V8.63672H58.2007ZM56.8999 4.50586H54.8696L54.6147 7.02832H56.645L56.8999 4.50586ZM78.3572 8.63672L78.0583 11.625H76.3357L76.6433 8.63672H74.6042L74.3054 11.625H72.5828L72.8904 8.63672H71.3435V7.02832H73.0486L73.3035 4.50586H71.8093V2.89746H73.4617L73.7429 0.137695H75.4656L75.1843 2.89746H77.2146L77.4958 0.137695H79.2185L78.9373 2.89746H80.5017V4.50586H78.7791L78.5242 7.02832H80.0359V8.63672H78.3572ZM77.0564 4.50586H75.0261L74.7712 7.02832H76.8015L77.0564 4.50586ZM98.5137 8.63672L98.2148 11.625H96.4922L96.7998 8.63672H94.7607L94.4619 11.625H92.7393L93.0469 8.63672H91.5V7.02832H93.2051L93.46 4.50586H91.9658V2.89746H93.6182L93.8994 0.137695H95.6221L95.3408 2.89746H97.3711L97.6523 0.137695H99.375L99.0938 2.89746H100.658V4.50586H98.9355L98.6807 7.02832H100.192V8.63672H98.5137ZM97.2129 4.50586H95.1826L94.9277 7.02832H96.958L97.2129 4.50586ZM118.67 8.63672L118.371 11.625H116.649L116.956 8.63672H114.917L114.618 11.625H112.896L113.203 8.63672H111.656V7.02832H113.362L113.616 4.50586H112.122V2.89746H113.775L114.056 0.137695H115.779L115.497 2.89746H117.528L117.809 0.137695H119.531L119.25 2.89746H120.815V4.50586H119.092L118.837 7.02832H120.349V8.63672H118.67ZM117.369 4.50586H115.339L115.084 7.02832H117.115L117.369 4.50586ZM138.827 8.63672L138.528 11.625H136.805L137.113 8.63672H135.074L134.775 11.625H133.052L133.36 8.63672H131.813V7.02832H133.518L133.773 4.50586H132.279V2.89746H133.931L134.212 0.137695H135.935L135.654 2.89746H137.684L137.965 0.137695H139.688L139.407 2.89746H140.971V4.50586H139.249L138.994 7.02832H140.505V8.63672H138.827ZM137.526 4.50586H135.496L135.241 7.02832H137.271L137.526 4.50586ZM158.983 8.63672L158.684 11.625H156.962L157.269 8.63672H155.23L154.931 11.625H153.209L153.516 8.63672H151.969V7.02832H153.675L153.929 4.50586H152.435V2.89746H154.088L154.369 0.137695H156.092L155.81 2.89746H157.841L158.122 0.137695H159.844L159.563 2.89746H161.128V4.50586H159.405L159.15 7.02832H160.662V8.63672H158.983ZM157.682 4.50586H155.652L155.397 7.02832H157.427L157.682 4.50586ZM179.14 8.63672L178.841 11.625H177.118L177.426 8.63672H175.387L175.088 11.625H173.365L173.673 8.63672H172.126V7.02832H173.831L174.086 4.50586H172.592V2.89746H174.244L174.525 0.137695H176.248L175.967 2.89746H177.997L178.278 0.137695H180.001L179.72 2.89746H181.284V4.50586H179.562L179.307 7.02832H180.818V8.63672H179.14ZM177.839 4.50586H175.809L175.554 7.02832H177.584L177.839 4.50586ZM199.296 8.63672L198.997 11.625H197.275L197.582 8.63672H195.543L195.244 11.625H193.522L193.829 8.63672H192.282V7.02832H193.987L194.242 4.50586H192.748V2.89746H194.401L194.682 0.137695H196.404L196.123 2.89746H198.153L198.435 0.137695H200.157L199.876 2.89746H201.441V4.50586H199.718L199.463 7.02832H200.975V8.63672H199.296ZM197.995 4.50586H195.965L195.71 7.02832H197.74L197.995 4.50586ZM219.453 8.63672L219.154 11.625H217.431L217.739 8.63672H215.7L215.401 11.625H213.678L213.986 8.63672H212.439V7.02832H214.144L214.399 4.50586H212.905V2.89746H214.557L214.838 0.137695H216.561L216.28 2.89746H218.31L218.591 0.137695H220.314L220.033 2.89746H221.597V4.50586H219.874L219.62 7.02832H221.131V8.63672H219.453ZM218.152 4.50586H216.121L215.867 7.02832H217.897L218.152 4.50586ZM239.609 8.63672L239.31 11.625H237.588L237.895 8.63672H235.856L235.557 11.625H233.835L234.142 8.63672H232.595V7.02832H234.3L234.555 4.50586H233.061V2.89746H234.714L234.995 0.137695H236.717L236.436 2.89746H238.466L238.748 0.137695H240.47L240.189 2.89746H241.754V4.50586H240.031L239.776 7.02832H241.288V8.63672H239.609ZM238.308 4.50586H236.278L236.023 7.02832H238.053L238.308 4.50586ZM259.766 8.63672L259.467 11.625H257.744L258.052 8.63672H256.013L255.714 11.625H253.991L254.299 8.63672H252.752V7.02832H254.457L254.712 4.50586H253.218V2.89746H254.87L255.151 0.137695H256.874L256.593 2.89746H258.623L258.904 0.137695H260.627L260.346 2.89746H261.91V4.50586H260.187L259.932 7.02832H261.444V8.63672H259.766ZM258.465 4.50586H256.434L256.18 7.02832H258.21L258.465 4.50586ZM279.922 8.63672L279.623 11.625H277.901L278.208 8.63672H276.169L275.87 11.625H274.148L274.455 8.63672H272.908V7.02832H274.613L274.868 4.50586H273.374V2.89746H275.026L275.308 0.137695H277.03L276.749 2.89746H278.779L279.061 0.137695H280.783L280.502 2.89746H282.067V4.50586H280.344L280.089 7.02832H281.601V8.63672H279.922ZM278.621 4.50586H276.591L276.336 7.02832H278.366L278.621 4.50586ZM300.078 8.63672L299.78 11.625H298.057L298.365 8.63672H296.326L296.027 11.625H294.304L294.612 8.63672H293.065V7.02832H294.77L295.025 4.50586H293.531V2.89746H295.183L295.464 0.137695H297.187L296.906 2.89746H298.936L299.217 0.137695H300.94L300.659 2.89746H302.223V4.50586H300.5L300.245 7.02832H301.757V8.63672H300.078ZM298.778 4.50586H296.747L296.493 7.02832H298.523L298.778 4.50586ZM320.235 8.63672L319.936 11.625H318.214L318.521 8.63672H316.482L316.183 11.625H314.461L314.768 8.63672H313.221V7.02832H314.926L315.181 4.50586H313.687V2.89746H315.339L315.621 0.137695H317.343L317.062 2.89746H319.092L319.374 0.137695H321.096L320.815 2.89746H322.38V4.50586H320.657L320.402 7.02832H321.914V8.63672H320.235ZM318.934 4.50586H316.904L316.649 7.02832H318.679L318.934 4.50586ZM340.391 8.63672L340.093 11.625H338.37L338.678 8.63672H336.639L336.34 11.625H334.617L334.925 8.63672H333.378V7.02832H335.083L335.338 4.50586H333.844V2.89746H335.496L335.777 0.137695H337.5L337.219 2.89746H339.249L339.53 0.137695H341.253L340.972 2.89746H342.536V4.50586H340.813L340.558 7.02832H342.07V8.63672H340.391ZM339.091 4.50586H337.06L336.806 7.02832H338.836L339.091 4.50586ZM360.548 8.63672L360.249 11.625H358.526L358.834 8.63672H356.795L356.496 11.625H354.774L355.081 8.63672H353.534V7.02832H355.239L355.494 4.50586H354V2.89746H355.652L355.934 0.137695H357.656L357.375 2.89746H359.405L359.687 0.137695H361.409L361.128 2.89746H362.693V4.50586H360.97L360.715 7.02832H362.227V8.63672H360.548ZM359.247 4.50586H357.217L356.962 7.02832H358.992L359.247 4.50586ZM380.704 8.63672L380.406 11.625H378.683L378.991 8.63672H376.952L376.653 11.625H374.93L375.238 8.63672H373.691V7.02832H375.396L375.651 4.50586H374.157V2.89746H375.809L376.09 0.137695H377.813L377.532 2.89746H379.562L379.843 0.137695H381.566L381.285 2.89746H382.849V4.50586H381.126L380.871 7.02832H382.383V8.63672H380.704ZM379.404 4.50586H377.373L377.119 7.02832H379.149L379.404 4.50586ZM400.861 8.63672L400.562 11.625H398.839L399.147 8.63672H397.108L396.809 11.625H395.087L395.394 8.63672H393.847V7.02832H395.552L395.807 4.50586H394.313V2.89746H395.965L396.247 0.137695H397.969L397.688 2.89746H399.718L400 0.137695H401.722L401.441 2.89746H403.005V4.50586H401.283L401.028 7.02832H402.54V8.63672H400.861ZM399.56 4.50586H397.53L397.275 7.02832H399.305L399.56 4.50586ZM421.017 8.63672L420.719 11.625H418.996L419.304 8.63672H417.265L416.966 11.625H415.243L415.551 8.63672H414.004V7.02832H415.709L415.964 4.50586H414.47V2.89746H416.122L416.403 0.137695H418.126L417.845 2.89746H419.875L420.156 0.137695H421.879L421.598 2.89746H423.162V4.50586H421.439L421.184 7.02832H422.696V8.63672H421.017ZM419.717 4.50586H417.686L417.432 7.02832H419.462L419.717 4.50586ZM441.174 8.63672L440.875 11.625H439.152L439.46 8.63672H437.421L437.122 11.625H435.4L435.707 8.63672H434.16V7.02832H435.865L436.12 4.50586H434.626V2.89746H436.278L436.56 0.137695H438.282L438.001 2.89746H440.031L440.313 0.137695H442.035L441.754 2.89746H443.318V4.50586H441.596L441.341 7.02832H442.853V8.63672H441.174ZM439.873 4.50586H437.843L437.588 7.02832H439.618L439.873 4.50586ZM461.33 8.63672L461.031 11.625H459.309L459.616 8.63672H457.577L457.279 11.625H455.556L455.864 8.63672H454.317V7.02832H456.022L456.277 4.50586H454.782V2.89746H456.435L456.716 0.137695H458.439L458.157 2.89746H460.188L460.469 0.137695H462.192L461.91 2.89746H463.475V4.50586H461.752L461.497 7.02832H463.009V8.63672H461.33ZM460.03 4.50586H457.999L457.744 7.02832H459.775L460.03 4.50586ZM481.487 8.63672L481.188 11.625H479.465L479.773 8.63672H477.734L477.435 11.625H475.712L476.02 8.63672H474.473V7.02832H476.178L476.433 4.50586H474.939V2.89746H476.591L476.873 0.137695H478.595L478.314 2.89746H480.344L480.625 0.137695H482.348L482.067 2.89746H483.631V4.50586H481.909L481.654 7.02832H483.166V8.63672H481.487ZM480.186 4.50586H478.156L477.901 7.02832H479.931L480.186 4.50586ZM501.643 8.63672L501.344 11.625H499.622L499.929 8.63672H497.89L497.592 11.625H495.869L496.177 8.63672H494.63V7.02832H496.335L496.59 4.50586H495.095V2.89746H496.748L497.029 0.137695H498.752L498.47 2.89746H500.501L500.782 0.137695H502.505L502.223 2.89746H503.788V4.50586H502.065L501.81 7.02832H503.322V8.63672H501.643ZM500.343 4.50586H498.312L498.057 7.02832H500.088L500.343 4.50586ZM521.8 8.63672L521.501 11.625H519.778L520.086 8.63672H518.047L517.748 11.625H516.025L516.333 8.63672H514.786V7.02832H516.491L516.746 4.50586H515.252V2.89746H516.904L517.186 0.137695H518.908L518.627 2.89746H520.657L520.938 0.137695H522.661L522.38 2.89746H523.944V4.50586H522.222L521.967 7.02832H523.479V8.63672H521.8ZM520.499 4.50586H518.469L518.214 7.02832H520.244L520.499 4.50586ZM541.956 8.63672L541.657 11.625H539.935L540.242 8.63672H538.203L537.905 11.625H536.182L536.49 8.63672H534.943V7.02832H536.648L536.903 4.50586H535.408V2.89746H537.061L537.342 0.137695H539.065L538.783 2.89746H540.814L541.095 0.137695H542.818L542.536 2.89746H544.101V4.50586H542.378L542.123 7.02832H543.635V8.63672H541.956ZM540.656 4.50586H538.625L538.37 7.02832H540.401L540.656 4.50586ZM562.113 8.63672L561.814 11.625H560.091L560.399 8.63672H558.36L558.061 11.625H556.338L556.646 8.63672H555.099V7.02832H556.804L557.059 4.50586H555.565V2.89746H557.217L557.499 0.137695H559.221L558.94 2.89746H560.97L561.251 0.137695H562.974L562.693 2.89746H564.257V4.50586H562.535L562.28 7.02832H563.792V8.63672H562.113ZM560.812 4.50586H558.782L558.527 7.02832H560.557L560.812 4.50586ZM582.269 8.63672L581.97 11.625H580.248L580.555 8.63672H578.516L578.218 11.625H576.495L576.802 8.63672H575.256V7.02832H576.961L577.216 4.50586H575.721V2.89746H577.374L577.655 0.137695H579.378L579.096 2.89746H581.127L581.408 0.137695H583.131L582.849 2.89746H584.414V4.50586H582.691L582.436 7.02832H583.948V8.63672H582.269ZM580.969 4.50586H578.938L578.683 7.02832H580.714L580.969 4.50586ZM602.426 8.63672L602.127 11.625H600.404L600.712 8.63672H598.673L598.374 11.625H596.651L596.959 8.63672H595.412V7.02832H597.117L597.372 4.50586H595.878V2.89746H597.53L597.812 0.137695H599.534L599.253 2.89746H601.283L601.564 0.137695H603.287L603.006 2.89746H604.57V4.50586H602.848L602.593 7.02832H604.104V8.63672H602.426ZM601.125 4.50586H599.095L598.84 7.02832H600.87L601.125 4.50586ZM622.582 8.63672L622.283 11.625H620.561L620.868 8.63672H618.829L618.531 11.625H616.808L617.115 8.63672H615.569V7.02832H617.274L617.529 4.50586H616.034V2.89746H617.687L617.968 0.137695H619.691L619.409 2.89746H621.44L621.721 0.137695H623.444L623.162 2.89746H624.727V4.50586H623.004L622.749 7.02832H624.261V8.63672H622.582ZM621.281 4.50586H619.251L618.996 7.02832H621.027L621.281 4.50586ZM642.739 8.63672L642.44 11.625H640.717L641.025 8.63672H638.986L638.687 11.625H636.964L637.272 8.63672H635.725V7.02832H637.43L637.685 4.50586H636.191V2.89746H637.843L638.125 0.137695H639.847L639.566 2.89746H641.596L641.877 0.137695H643.6L643.319 2.89746H644.883V4.50586H643.161L642.906 7.02832H644.417V8.63672H642.739ZM641.438 4.50586H639.408L639.153 7.02832H641.183L641.438 4.50586ZM662.895 8.63672L662.596 11.625H660.874L661.181 8.63672H659.142L658.844 11.625H657.121L657.428 8.63672H655.882V7.02832H657.587L657.842 4.50586H656.347V2.89746H658L658.281 0.137695H660.004L659.722 2.89746H661.753L662.034 0.137695H663.757L663.475 2.89746H665.04V4.50586H663.317L663.062 7.02832H664.574V8.63672H662.895ZM661.594 4.50586H659.564L659.309 7.02832H661.34L661.594 4.50586ZM683.052 8.63672L682.753 11.625H681.03L681.338 8.63672H679.299L679 11.625H677.277L677.585 8.63672H676.038V7.02832H677.743L677.998 4.50586H676.504V2.89746H678.156L678.438 0.137695H680.16L679.879 2.89746H681.909L682.19 0.137695H683.913L683.632 2.89746H685.196V4.50586H683.474L683.219 7.02832H684.73V8.63672H683.052ZM681.751 4.50586H679.721L679.466 7.02832H681.496L681.751 4.50586ZM703.208 8.63672L702.909 11.625H701.187L701.494 8.63672H699.455L699.156 11.625H697.434L697.741 8.63672H696.195V7.02832H697.9L698.155 4.50586H696.66V2.89746H698.313L698.594 0.137695H700.317L700.035 2.89746H702.066L702.347 0.137695H704.07L703.788 2.89746H705.353V4.50586H703.63L703.375 7.02832H704.887V8.63672H703.208ZM701.907 4.50586H699.877L699.622 7.02832H701.653L701.907 4.50586ZM723.365 8.63672L723.066 11.625H721.343L721.651 8.63672H719.612L719.313 11.625H717.59L717.898 8.63672H716.351V7.02832H718.056L718.311 4.50586H716.817V2.89746H718.469L718.75 0.137695H720.473L720.192 2.89746H722.222L722.503 0.137695H724.226L723.945 2.89746H725.509V4.50586H723.786L723.532 7.02832H725.043V8.63672H723.365ZM722.064 4.50586H720.034L719.779 7.02832H721.809L722.064 4.50586ZM743.521 8.63672L743.222 11.625H741.5L741.807 8.63672H739.768L739.469 11.625H737.747L738.054 8.63672H736.507V7.02832H738.213L738.467 4.50586H736.973V2.89746H738.626L738.907 0.137695H740.63L740.348 2.89746H742.379L742.66 0.137695H744.382L744.101 2.89746H745.666V4.50586H743.943L743.688 7.02832H745.2V8.63672H743.521ZM742.22 4.50586H740.19L739.935 7.02832H741.965L742.22 4.50586ZM763.678 8.63672L763.379 11.625H761.656L761.964 8.63672H759.925L759.626 11.625H757.903L758.211 8.63672H756.664V7.02832H758.369L758.624 4.50586H757.13V2.89746H758.782L759.063 0.137695H760.786L760.505 2.89746H762.535L762.816 0.137695H764.539L764.258 2.89746H765.822V4.50586H764.099L763.845 7.02832H765.356V8.63672H763.678ZM762.377 4.50586H760.347L760.092 7.02832H762.122L762.377 4.50586ZM783.834 8.63672L783.535 11.625H781.813L782.12 8.63672H780.081L779.782 11.625H778.06L778.367 8.63672H776.82V7.02832H778.526L778.78 4.50586H777.286V2.89746H778.939L779.22 0.137695H780.943L780.661 2.89746H782.692L782.973 0.137695H784.695L784.414 2.89746H785.979V4.50586H784.256L784.001 7.02832H785.513V8.63672H783.834ZM782.533 4.50586H780.503L780.248 7.02832H782.278L782.533 4.50586ZM803.991 8.63672L803.692 11.625H801.969L802.277 8.63672H800.238L799.939 11.625H798.216L798.524 8.63672H796.977V7.02832H798.682L798.937 4.50586H797.443V2.89746H799.095L799.376 0.137695H801.099L800.818 2.89746H802.848L803.129 0.137695H804.852L804.571 2.89746H806.135V4.50586H804.412L804.158 7.02832H805.669V8.63672H803.991ZM802.69 4.50586H800.66L800.405 7.02832H802.435L802.69 4.50586ZM824.147 8.63672L823.848 11.625H822.126L822.433 8.63672H820.394L820.095 11.625H818.373L818.68 8.63672H817.133V7.02832H818.839L819.093 4.50586H817.599V2.89746H819.252L819.533 0.137695H821.255L820.974 2.89746H823.005L823.286 0.137695H825.008L824.727 2.89746H826.292V4.50586H824.569L824.314 7.02832H825.826V8.63672H824.147ZM822.846 4.50586H820.816L820.561 7.02832H822.591L822.846 4.50586ZM844.304 8.63672L844.005 11.625H842.282L842.59 8.63672H840.551L840.252 11.625H838.529L838.837 8.63672H837.29V7.02832H838.995L839.25 4.50586H837.756V2.89746H839.408L839.689 0.137695H841.412L841.131 2.89746H843.161L843.442 0.137695H845.165L844.884 2.89746H846.448V4.50586H844.725L844.471 7.02832H845.982V8.63672H844.304ZM843.003 4.50586H840.973L840.718 7.02832H842.748L843.003 4.50586ZM864.46 8.63672L864.161 11.625H862.439L862.746 8.63672H860.707L860.408 11.625H858.686L858.993 8.63672H857.446V7.02832H859.151L859.406 4.50586H857.912V2.89746H859.565L859.846 0.137695H861.568L861.287 2.89746H863.318L863.599 0.137695H865.321L865.04 2.89746H866.605V4.50586H864.882L864.627 7.02832H866.139V8.63672H864.46ZM863.159 4.50586H861.129L860.874 7.02832H862.904L863.159 4.50586ZM884.617 8.63672L884.318 11.625H882.595L882.903 8.63672H880.864L880.565 11.625H878.842L879.15 8.63672H877.603V7.02832H879.308L879.563 4.50586H878.069V2.89746H879.721L880.002 0.137695H881.725L881.444 2.89746H883.474L883.755 0.137695H885.478L885.197 2.89746H886.761V4.50586H885.038L884.784 7.02832H886.295V8.63672H884.617ZM883.316 4.50586H881.286L881.031 7.02832H883.061L883.316 4.50586ZM904.773 8.63672L904.474 11.625H902.752L903.059 8.63672H901.02L900.721 11.625H898.999L899.306 8.63672H897.759V7.02832H899.464L899.719 4.50586H898.225V2.89746H899.878L900.159 0.137695H901.881L901.6 2.89746H903.63L903.912 0.137695H905.634L905.353 2.89746H906.918V4.50586H905.195L904.94 7.02832H906.452V8.63672H904.773ZM903.472 4.50586H901.442L901.187 7.02832H903.217L903.472 4.50586ZM924.93 8.63672L924.631 11.625H922.908L923.216 8.63672H921.177L920.878 11.625H919.155L919.463 8.63672H917.916V7.02832H919.621L919.876 4.50586H918.382V2.89746H920.034L920.315 0.137695H922.038L921.757 2.89746H923.787L924.068 0.137695H925.791L925.51 2.89746H927.074V4.50586H925.351L925.097 7.02832H926.608V8.63672H924.93ZM923.629 4.50586H921.599L921.344 7.02832H923.374L923.629 4.50586ZM945.086 8.63672L944.787 11.625H943.065L943.372 8.63672H941.333L941.034 11.625H939.312L939.619 8.63672H938.072V7.02832H939.777L940.032 4.50586H938.538V2.89746H940.191L940.472 0.137695H942.194L941.913 2.89746H943.943L944.225 0.137695H945.947L945.666 2.89746H947.231V4.50586H945.508L945.253 7.02832H946.765V8.63672H945.086ZM943.785 4.50586H941.755L941.5 7.02832H943.53L943.785 4.50586ZM965.242 8.63672L964.944 11.625H963.221L963.529 8.63672H961.49L961.191 11.625H959.468L959.776 8.63672H958.229V7.02832H959.934L960.189 4.50586H958.695V2.89746H960.347L960.628 0.137695H962.351L962.07 2.89746H964.1L964.381 0.137695H966.104L965.823 2.89746H967.387V4.50586H965.664L965.409 7.02832H966.921V8.63672H965.242ZM963.942 4.50586H961.911L961.656 7.02832H963.687L963.942 4.50586ZM985.399 8.63672L985.1 11.625H983.377L983.685 8.63672H981.646L981.347 11.625H979.625L979.932 8.63672H978.385V7.02832H980.09L980.345 4.50586H978.851V2.89746H980.503L980.785 0.137695H982.507L982.226 2.89746H984.256L984.538 0.137695H986.26L985.979 2.89746H987.543V4.50586H985.821L985.566 7.02832H987.078V8.63672H985.399ZM984.098 4.50586H982.068L981.813 7.02832H983.843L984.098 4.50586ZM1005.56 8.63672L1005.26 11.625H1003.53L1003.84 8.63672H1001.8L1001.5 11.625H999.781L1000.09 8.63672H998.542V7.02832H1000.25L1000.5 4.50586H999.008V2.89746H1000.66L1000.94 0.137695H1002.66L1002.38 2.89746H1004.41L1004.69 0.137695H1006.42L1006.14 2.89746H1007.7V4.50586H1005.98L1005.72 7.02832H1007.23V8.63672H1005.56ZM1004.25 4.50586H1002.22L1001.97 7.02832H1004L1004.25 4.50586ZM1025.71 8.63672L1025.41 11.625H1023.69L1024 8.63672H1021.96L1021.66 11.625H1019.94L1020.25 8.63672H1018.7V7.02832H1020.4L1020.66 4.50586H1019.16V2.89746H1020.82L1021.1 0.137695H1022.82L1022.54 2.89746H1024.57L1024.85 0.137695H1026.57L1026.29 2.89746H1027.86V4.50586H1026.13L1025.88 7.02832H1027.39V8.63672H1025.71ZM1024.41 4.50586H1022.38L1022.13 7.02832H1024.16L1024.41 4.50586ZM1045.87 8.63672L1045.57 11.625H1043.85L1044.15 8.63672H1042.12L1041.82 11.625H1040.09L1040.4 8.63672H1038.85V7.02832H1040.56L1040.81 4.50586H1039.32V2.89746H1040.97L1041.25 0.137695H1042.98L1042.7 2.89746H1044.73L1045.01 0.137695H1046.73L1046.45 2.89746H1048.01V4.50586H1046.29L1046.04 7.02832H1047.55V8.63672H1045.87ZM1044.57 4.50586H1042.54L1042.28 7.02832H1044.31L1044.57 4.50586ZM1066.02 8.63672L1065.73 11.625H1064L1064.31 8.63672H1062.27L1061.97 11.625H1060.25L1060.56 8.63672H1059.01V7.02832H1060.72L1060.97 4.50586H1059.48V2.89746H1061.13L1061.41 0.137695H1063.13L1062.85 2.89746H1064.88L1065.16 0.137695H1066.89L1066.6 2.89746H1068.17V4.50586H1066.45L1066.19 7.02832H1067.7V8.63672H1066.02ZM1064.72 4.50586H1062.69L1062.44 7.02832H1064.47L1064.72 4.50586ZM1086.18 8.63672L1085.88 11.625H1084.16L1084.47 8.63672H1082.43L1082.13 11.625H1080.41L1080.71 8.63672H1079.17V7.02832H1080.87L1081.13 4.50586H1079.63V2.89746H1081.29L1081.57 0.137695H1083.29L1083.01 2.89746H1085.04L1085.32 0.137695H1087.04L1086.76 2.89746H1088.33V4.50586H1086.6L1086.35 7.02832H1087.86V8.63672H1086.18ZM1084.88 4.50586H1082.85L1082.6 7.02832H1084.63L1084.88 4.50586ZM1106.34 8.63672L1106.04 11.625H1104.32L1104.62 8.63672H1102.58L1102.29 11.625H1100.56L1100.87 8.63672H1099.32V7.02832H1101.03L1101.28 4.50586H1099.79V2.89746H1101.44L1101.72 0.137695H1103.45L1103.17 2.89746H1105.2L1105.48 0.137695H1107.2L1106.92 2.89746H1108.48V4.50586H1106.76L1106.5 7.02832H1108.02V8.63672H1106.34ZM1105.04 4.50586H1103.01L1102.75 7.02832H1104.78L1105.04 4.50586ZM1126.49 8.63672L1126.2 11.625H1124.47L1124.78 8.63672H1122.74L1122.44 11.625H1120.72L1121.03 8.63672H1119.48V7.02832H1121.19L1121.44 4.50586H1119.95V2.89746H1121.6L1121.88 0.137695H1123.6L1123.32 2.89746H1125.35L1125.63 0.137695H1127.36L1127.07 2.89746H1128.64V4.50586H1126.92L1126.66 7.02832H1128.17V8.63672H1126.49ZM1125.19 4.50586H1123.16L1122.91 7.02832H1124.94L1125.19 4.50586ZM1146.65 8.63672L1146.35 11.625H1144.63L1144.94 8.63672H1142.9L1142.6 11.625H1140.88L1141.18 8.63672H1139.64V7.02832H1141.34L1141.6 4.50586H1140.1V2.89746H1141.76L1142.04 0.137695H1143.76L1143.48 2.89746H1145.51L1145.79 0.137695H1147.51L1147.23 2.89746H1148.8V4.50586H1147.07L1146.82 7.02832H1148.33V8.63672H1146.65ZM1145.35 4.50586H1143.32L1143.06 7.02832H1145.1L1145.35 4.50586ZM1166.81 8.63672L1166.51 11.625H1164.79L1165.09 8.63672H1163.05L1162.76 11.625H1161.03L1161.34 8.63672H1159.79V7.02832H1161.5L1161.75 4.50586H1160.26V2.89746H1161.91L1162.19 0.137695H1163.92L1163.63 2.89746H1165.66L1165.95 0.137695H1167.67L1167.39 2.89746H1168.95V4.50586H1167.23L1166.97 7.02832H1168.49V8.63672H1166.81ZM1165.51 4.50586H1163.48L1163.22 7.02832H1165.25L1165.51 4.50586ZM1186.96 8.63672L1186.67 11.625H1184.94L1185.25 8.63672H1183.21L1182.91 11.625H1181.19L1181.5 8.63672H1179.95V7.02832H1181.66L1181.91 4.50586H1180.42V2.89746H1182.07L1182.35 0.137695H1184.07L1183.79 2.89746H1185.82L1186.1 0.137695H1187.83L1187.54 2.89746H1189.11V4.50586H1187.39L1187.13 7.02832H1188.64V8.63672H1186.96ZM1185.66 4.50586H1183.63L1183.38 7.02832H1185.41L1185.66 4.50586ZM1207.12 8.63672L1206.82 11.625H1205.1L1205.41 8.63672H1203.37L1203.07 11.625H1201.35L1201.65 8.63672H1200.11V7.02832H1201.81L1202.07 4.50586H1200.57V2.89746H1202.22L1202.51 0.137695H1204.23L1203.95 2.89746H1205.98L1206.26 0.137695H1207.98L1207.7 2.89746H1209.26V4.50586H1207.54L1207.29 7.02832H1208.8V8.63672H1207.12ZM1205.82 4.50586H1203.79L1203.53 7.02832H1205.56L1205.82 4.50586ZM1227.28 8.63672L1226.98 11.625H1225.26L1225.56 8.63672H1223.52L1223.23 11.625H1221.5L1221.81 8.63672H1220.26V7.02832H1221.97L1222.22 4.50586H1220.73V2.89746H1222.38L1222.66 0.137695H1224.39L1224.1 2.89746H1226.13L1226.42 0.137695H1228.14L1227.86 2.89746H1229.42V4.50586H1227.7L1227.44 7.02832H1228.96V8.63672H1227.28ZM1225.98 4.50586H1223.95L1223.69 7.02832H1225.72L1225.98 4.50586ZM1247.43 8.63672L1247.13 11.625H1245.41L1245.72 8.63672H1243.68L1243.38 11.625H1241.66L1241.97 8.63672H1240.42V7.02832H1242.12L1242.38 4.50586H1240.89V2.89746H1242.54L1242.82 0.137695H1244.54L1244.26 2.89746H1246.29L1246.57 0.137695H1248.29L1248.01 2.89746H1249.58V4.50586H1247.86L1247.6 7.02832H1249.11V8.63672H1247.43ZM1246.13 4.50586H1244.1L1243.85 7.02832H1245.88L1246.13 4.50586ZM1267.59 8.63672L1267.29 11.625H1265.57L1265.88 8.63672H1263.84L1263.54 11.625H1261.82L1262.12 8.63672H1260.58V7.02832H1262.28L1262.54 4.50586H1261.04V2.89746H1262.69L1262.98 0.137695H1264.7L1264.42 2.89746H1266.45L1266.73 0.137695H1268.45L1268.17 2.89746H1269.73V4.50586H1268.01L1267.76 7.02832H1269.27V8.63672H1267.59ZM1266.29 4.50586H1264.26L1264 7.02832H1266.03L1266.29 4.50586ZM1287.75 8.63672L1287.45 11.625H1285.72L1286.03 8.63672H1283.99L1283.69 11.625H1281.97L1282.28 8.63672H1280.73V7.02832H1282.44L1282.69 4.50586H1281.2V2.89746H1282.85L1283.13 0.137695H1284.85L1284.57 2.89746H1286.6L1286.89 0.137695H1288.61L1288.33 2.89746H1289.89V4.50586H1288.17L1287.91 7.02832H1289.43V8.63672H1287.75ZM1286.45 4.50586H1284.42L1284.16 7.02832H1286.19L1286.45 4.50586ZM1307.9 8.63672L1307.6 11.625H1305.88L1306.19 8.63672H1304.15L1303.85 11.625H1302.13L1302.44 8.63672H1300.89V7.02832H1302.59L1302.85 4.50586H1301.35V2.89746H1303.01L1303.29 0.137695H1305.01L1304.73 2.89746H1306.76L1307.04 0.137695H1308.76L1308.48 2.89746H1310.05V4.50586H1308.32L1308.07 7.02832H1309.58V8.63672H1307.9ZM1306.6 4.50586H1304.57L1304.32 7.02832H1306.35L1306.6 4.50586ZM1328.06 8.63672L1327.76 11.625H1326.04L1326.35 8.63672H1324.31L1324.01 11.625H1322.28L1322.59 8.63672H1321.05V7.02832H1322.75L1323.01 4.50586H1321.51V2.89746H1323.16L1323.45 0.137695H1325.17L1324.89 2.89746H1326.92L1327.2 0.137695H1328.92L1328.64 2.89746H1330.2V4.50586H1328.48L1328.23 7.02832H1329.74V8.63672H1328.06ZM1326.76 4.50586H1324.73L1324.47 7.02832H1326.5L1326.76 4.50586ZM1348.22 8.63672L1347.92 11.625H1346.19L1346.5 8.63672H1344.46L1344.16 11.625H1342.44L1342.75 8.63672H1341.2V7.02832H1342.91L1343.16 4.50586H1341.67V2.89746H1343.32L1343.6 0.137695H1345.32L1345.04 2.89746H1347.07L1347.35 0.137695H1349.08L1348.8 2.89746H1350.36V4.50586H1348.64L1348.38 7.02832H1349.89V8.63672H1348.22ZM1346.92 4.50586H1344.88L1344.63 7.02832H1346.66L1346.92 4.50586ZM1368.37 8.63672L1368.07 11.625H1366.35L1366.66 8.63672H1364.62L1364.32 11.625H1362.6L1362.91 8.63672H1361.36V7.02832H1363.06L1363.32 4.50586H1361.82V2.89746H1363.48L1363.76 0.137695H1365.48L1365.2 2.89746H1367.23L1367.51 0.137695H1369.23L1368.95 2.89746H1370.52V4.50586H1368.79L1368.54 7.02832H1370.05V8.63672H1368.37ZM1367.07 4.50586H1365.04L1364.79 7.02832H1366.82L1367.07 4.50586ZM1388.53 8.63672L1388.23 11.625H1386.51L1386.81 8.63672H1384.78L1384.48 11.625H1382.75L1383.06 8.63672H1381.51V7.02832H1383.22L1383.47 4.50586H1381.98V2.89746H1383.63L1383.91 0.137695H1385.64L1385.36 2.89746H1387.39L1387.67 0.137695H1389.39L1389.11 2.89746H1390.67V4.50586H1388.95L1388.7 7.02832H1390.21V8.63672H1388.53ZM1387.23 4.50586H1385.2L1384.94 7.02832H1386.97L1387.23 4.50586ZM1408.69 8.63672L1408.39 11.625H1406.66L1406.97 8.63672H1404.93L1404.63 11.625H1402.91L1403.22 8.63672H1401.67V7.02832H1403.38L1403.63 4.50586H1402.14V2.89746H1403.79L1404.07 0.137695H1405.79L1405.51 2.89746H1407.54L1407.82 0.137695H1409.55L1409.27 2.89746H1410.83V4.50586H1409.11L1408.85 7.02832H1410.36V8.63672H1408.69ZM1407.38 4.50586H1405.35L1405.1 7.02832H1407.13L1407.38 4.50586ZM1428.84 8.63672L1428.54 11.625H1426.82L1427.13 8.63672H1425.09L1424.79 11.625H1423.07L1423.37 8.63672H1421.83V7.02832H1423.53L1423.79 4.50586H1422.29V2.89746H1423.95L1424.23 0.137695H1425.95L1425.67 2.89746H1427.7L1427.98 0.137695H1429.7L1429.42 2.89746H1430.99V4.50586H1429.26L1429.01 7.02832H1430.52V8.63672H1428.84ZM1427.54 4.50586H1425.51L1425.26 7.02832H1427.29L1427.54 4.50586ZM1449 8.63672L1448.7 11.625H1446.98L1447.28 8.63672H1445.25L1444.95 11.625H1443.22L1443.53 8.63672H1441.98V7.02832H1443.69L1443.94 4.50586H1442.45V2.89746H1444.1L1444.38 0.137695H1446.11L1445.83 2.89746H1447.86L1448.14 0.137695H1449.86L1449.58 2.89746H1451.14V4.50586H1449.42L1449.17 7.02832H1450.68V8.63672H1449ZM1447.7 4.50586H1445.67L1445.41 7.02832H1447.44L1447.7 4.50586ZM1469.15 8.63672L1468.86 11.625H1467.13L1467.44 8.63672H1465.4L1465.1 11.625H1463.38L1463.69 8.63672H1462.14V7.02832H1463.85L1464.1 4.50586H1462.61V2.89746H1464.26L1464.54 0.137695H1466.26L1465.98 2.89746H1468.01L1468.29 0.137695H1470.02L1469.73 2.89746H1471.3V4.50586H1469.58L1469.32 7.02832H1470.83V8.63672H1469.15ZM1467.85 4.50586H1465.82L1465.57 7.02832H1467.6L1467.85 4.50586ZM1489.31 8.63672L1489.01 11.625H1487.29L1487.6 8.63672H1485.56L1485.26 11.625H1483.54L1483.84 8.63672H1482.3V7.02832H1484L1484.26 4.50586H1482.76V2.89746H1484.42L1484.7 0.137695H1486.42L1486.14 2.89746H1488.17L1488.45 0.137695H1490.17L1489.89 2.89746H1491.46V4.50586H1489.73L1489.48 7.02832H1490.99V8.63672H1489.31ZM1488.01 4.50586H1485.98L1485.73 7.02832H1487.76L1488.01 4.50586ZM1509.47 8.63672L1509.17 11.625H1507.45L1507.75 8.63672H1505.71L1505.42 11.625H1503.69L1504 8.63672H1502.45V7.02832H1504.16L1504.41 4.50586H1502.92V2.89746H1504.57L1504.85 0.137695H1506.58L1506.29 2.89746H1508.32L1508.61 0.137695H1510.33L1510.05 2.89746H1511.61V4.50586H1509.89L1509.63 7.02832H1511.15V8.63672H1509.47ZM1508.17 4.50586H1506.14L1505.88 7.02832H1507.91L1508.17 4.50586ZM1529.62 8.63672L1529.33 11.625H1527.6L1527.91 8.63672H1525.87L1525.57 11.625H1523.85L1524.16 8.63672H1522.61V7.02832H1524.32L1524.57 4.50586H1523.08V2.89746H1524.73L1525.01 0.137695H1526.73L1526.45 2.89746H1528.48L1528.76 0.137695H1530.49L1530.2 2.89746H1531.77V4.50586H1530.05L1529.79 7.02832H1531.3V8.63672H1529.62ZM1528.32 4.50586H1526.29L1526.04 7.02832H1528.07L1528.32 4.50586ZM1549.78 8.63672L1549.48 11.625H1547.76L1548.07 8.63672H1546.03L1545.73 11.625H1544.01L1544.31 8.63672H1542.77V7.02832H1544.47L1544.73 4.50586H1543.23V2.89746H1544.89L1545.17 0.137695H1546.89L1546.61 2.89746H1548.64L1548.92 0.137695H1550.64L1550.36 2.89746H1551.93V4.50586H1550.2L1549.95 7.02832H1551.46V8.63672H1549.78ZM1548.48 4.50586H1546.45L1546.19 7.02832H1548.22L1548.48 4.50586ZM1569.94 8.63672L1569.64 11.625H1567.92L1568.22 8.63672H1566.18L1565.89 11.625H1564.16L1564.47 8.63672H1562.92V7.02832H1564.63L1564.88 4.50586H1563.39V2.89746H1565.04L1565.32 0.137695H1567.05L1566.76 2.89746H1568.79L1569.08 0.137695H1570.8L1570.52 2.89746H1572.08V4.50586H1570.36L1570.1 7.02832H1571.62V8.63672H1569.94ZM1568.64 4.50586H1566.61L1566.35 7.02832H1568.38L1568.64 4.50586ZM1590.09 8.63672L1589.79 11.625H1588.07L1588.38 8.63672H1586.34L1586.04 11.625H1584.32L1584.63 8.63672H1583.08V7.02832H1584.78L1585.04 4.50586H1583.55V2.89746H1585.2L1585.48 0.137695H1587.2L1586.92 2.89746H1588.95L1589.23 0.137695H1590.95L1590.67 2.89746H1592.24V4.50586H1590.52L1590.26 7.02832H1591.77V8.63672H1590.09ZM1588.79 4.50586H1586.76L1586.51 7.02832H1588.54L1588.79 4.50586ZM1610.25 8.63672L1609.95 11.625H1608.23L1608.54 8.63672H1606.5L1606.2 11.625H1604.48L1604.78 8.63672H1603.24V7.02832H1604.94L1605.2 4.50586H1603.7V2.89746H1605.35L1605.64 0.137695H1607.36L1607.08 2.89746H1609.11L1609.39 0.137695H1611.11L1610.83 2.89746H1612.39V4.50586H1610.67L1610.42 7.02832H1611.93V8.63672H1610.25ZM1608.95 4.50586H1606.92L1606.66 7.02832H1608.69L1608.95 4.50586ZM1630.41 8.63672L1630.11 11.625H1628.39L1628.69 8.63672H1626.65L1626.35 11.625H1624.63L1624.94 8.63672H1623.39V7.02832H1625.1L1625.35 4.50586H1623.86V2.89746H1625.51L1625.79 0.137695H1627.51L1627.23 2.89746H1629.26L1629.55 0.137695H1631.27L1630.99 2.89746H1632.55V4.50586H1630.83L1630.57 7.02832H1632.09V8.63672H1630.41ZM1629.11 4.50586H1627.08L1626.82 7.02832H1628.85L1629.11 4.50586ZM1650.56 8.63672L1650.26 11.625H1648.54L1648.85 8.63672H1646.81L1646.51 11.625H1644.79L1645.1 8.63672H1643.55V7.02832H1645.25L1645.51 4.50586H1644.02V2.89746H1645.67L1645.95 0.137695H1647.67L1647.39 2.89746H1649.42L1649.7 0.137695H1651.42L1651.14 2.89746H1652.71V4.50586H1650.98L1650.73 7.02832H1652.24V8.63672H1650.56ZM1649.26 4.50586H1647.23L1646.98 7.02832H1649.01L1649.26 4.50586ZM1670.72 8.63672L1670.42 11.625H1668.7L1669.01 8.63672H1666.97L1666.67 11.625H1664.95L1665.25 8.63672H1663.71V7.02832H1665.41L1665.67 4.50586H1664.17V2.89746H1665.82L1666.11 0.137695H1667.83L1667.55 2.89746H1669.58L1669.86 0.137695H1671.58L1671.3 2.89746H1672.86V4.50586H1671.14L1670.89 7.02832H1672.4V8.63672H1670.72ZM1669.42 4.50586H1667.39L1667.13 7.02832H1669.16L1669.42 4.50586ZM1690.88 8.63672L1690.58 11.625H1688.85L1689.16 8.63672H1687.12L1686.82 11.625H1685.1L1685.41 8.63672H1683.86V7.02832H1685.57L1685.82 4.50586H1684.33V2.89746H1685.98L1686.26 0.137695H1687.98L1687.7 2.89746H1689.73L1690.01 0.137695H1691.74L1691.46 2.89746H1693.02V4.50586H1691.3L1691.04 7.02832H1692.55V8.63672H1690.88ZM1689.58 4.50586H1687.54L1687.29 7.02832H1689.32L1689.58 4.50586ZM1711.03 8.63672L1710.73 11.625H1709.01L1709.32 8.63672H1707.28L1706.98 11.625H1705.26L1705.57 8.63672H1704.02V7.02832H1705.72L1705.98 4.50586H1704.48V2.89746H1706.14L1706.42 0.137695H1708.14L1707.86 2.89746H1709.89L1710.17 0.137695H1711.89L1711.61 2.89746H1713.18V4.50586H1711.45L1711.2 7.02832H1712.71V8.63672H1711.03ZM1709.73 4.50586H1707.7L1707.45 7.02832H1709.48L1709.73 4.50586ZM1731.19 8.63672L1730.89 11.625H1729.17L1729.48 8.63672H1727.44L1727.14 11.625H1725.41L1725.72 8.63672H1724.18V7.02832H1725.88L1726.14 4.50586H1724.64V2.89746H1726.29L1726.57 0.137695H1728.3L1728.02 2.89746H1730.05L1730.33 0.137695H1732.05L1731.77 2.89746H1733.33V4.50586H1731.61L1731.36 7.02832H1732.87V8.63672H1731.19ZM1729.89 4.50586H1727.86L1727.6 7.02832H1729.63L1729.89 4.50586ZM1751.35 8.63672L1751.05 11.625H1749.32L1749.63 8.63672H1747.59L1747.29 11.625H1745.57L1745.88 8.63672H1744.33V7.02832H1746.04L1746.29 4.50586H1744.8V2.89746H1746.45L1746.73 0.137695H1748.45L1748.17 2.89746H1750.2L1750.48 0.137695H1752.21L1751.93 2.89746H1753.49V4.50586H1751.77L1751.51 7.02832H1753.02V8.63672H1751.35ZM1750.04 4.50586H1748.01L1747.76 7.02832H1749.79L1750.04 4.50586ZM1771.5 8.63672L1771.2 11.625H1769.48L1769.79 8.63672H1767.75L1767.45 11.625H1765.73L1766.04 8.63672H1764.49V7.02832H1766.19L1766.45 4.50586H1764.95V2.89746H1766.61L1766.89 0.137695H1768.61L1768.33 2.89746H1770.36L1770.64 0.137695H1772.36L1772.08 2.89746H1773.65V4.50586H1771.92L1771.67 7.02832H1773.18V8.63672H1771.5ZM1770.2 4.50586H1768.17L1767.92 7.02832H1769.95L1770.2 4.50586ZM1791.66 8.63672L1791.36 11.625H1789.64L1789.94 8.63672H1787.91L1787.61 11.625H1785.88L1786.19 8.63672H1784.64V7.02832H1786.35L1786.6 4.50586H1785.11V2.89746H1786.76L1787.04 0.137695H1788.77L1788.49 2.89746H1790.52L1790.8 0.137695H1792.52L1792.24 2.89746H1793.8V4.50586H1792.08L1791.83 7.02832H1793.34V8.63672H1791.66ZM1790.36 4.50586H1788.33L1788.07 7.02832H1790.1L1790.36 4.50586ZM1811.81 8.63672L1811.52 11.625H1809.79L1810.1 8.63672H1808.06L1807.76 11.625H1806.04L1806.35 8.63672H1804.8V7.02832H1806.51L1806.76 4.50586H1805.27V2.89746H1806.92L1807.2 0.137695H1808.92L1808.64 2.89746H1810.67L1810.95 0.137695H1812.68L1812.4 2.89746H1813.96V4.50586H1812.24L1811.98 7.02832H1813.49V8.63672H1811.81ZM1810.51 4.50586H1808.48L1808.23 7.02832H1810.26L1810.51 4.50586ZM1831.97 8.63672L1831.67 11.625H1829.95L1830.26 8.63672H1828.22L1827.92 11.625H1826.2L1826.5 8.63672H1824.96V7.02832H1826.66L1826.92 4.50586H1825.42V2.89746H1827.08L1827.36 0.137695H1829.08L1828.8 2.89746H1830.83L1831.11 0.137695H1832.83L1832.55 2.89746H1834.12V4.50586H1832.39L1832.14 7.02832H1833.65V8.63672H1831.97ZM1830.67 4.50586H1828.64L1828.39 7.02832H1830.42L1830.67 4.50586ZM1852.13 8.63672L1851.83 11.625H1850.11L1850.41 8.63672H1848.38L1848.08 11.625H1846.35L1846.66 8.63672H1845.11V7.02832H1846.82L1847.07 4.50586H1845.58V2.89746H1847.23L1847.51 0.137695H1849.24L1848.96 2.89746H1850.99L1851.27 0.137695H1852.99L1852.71 2.89746H1854.27V4.50586H1852.55L1852.29 7.02832H1853.81V8.63672H1852.13ZM1850.83 4.50586H1848.8L1848.54 7.02832H1850.57L1850.83 4.50586ZM1872.28 8.63672L1871.99 11.625H1870.26L1870.57 8.63672H1868.53L1868.23 11.625H1866.51L1866.82 8.63672H1865.27V7.02832H1866.98L1867.23 4.50586H1865.74V2.89746H1867.39L1867.67 0.137695H1869.39L1869.11 2.89746H1871.14L1871.42 0.137695H1873.15L1872.86 2.89746H1874.43V4.50586H1872.71L1872.45 7.02832H1873.96V8.63672H1872.28ZM1870.98 4.50586H1868.95L1868.7 7.02832H1870.73L1870.98 4.50586ZM1892.44 8.63672L1892.14 11.625H1890.42L1890.73 8.63672H1888.69L1888.39 11.625H1886.67L1886.97 8.63672H1885.43V7.02832H1887.13L1887.39 4.50586H1885.89V2.89746H1887.55L1887.83 0.137695H1889.55L1889.27 2.89746H1891.3L1891.58 0.137695H1893.3L1893.02 2.89746H1894.59V4.50586H1892.86L1892.61 7.02832H1894.12V8.63672H1892.44ZM1891.14 4.50586H1889.11L1888.85 7.02832H1890.89L1891.14 4.50586ZM1912.6 8.63672L1912.3 11.625H1910.58L1910.88 8.63672H1908.84L1908.55 11.625H1906.82L1907.13 8.63672H1905.58V7.02832H1907.29L1907.54 4.50586H1906.05V2.89746H1907.7L1907.98 0.137695H1909.71L1909.42 2.89746H1911.45L1911.74 0.137695H1913.46L1913.18 2.89746H1914.74V4.50586H1913.02L1912.76 7.02832H1914.28V8.63672H1912.6ZM1911.3 4.50586H1909.27L1909.01 7.02832H1911.04L1911.3 4.50586ZM1932.75 8.63672L1932.45 11.625H1930.73L1931.04 8.63672H1929L1928.7 11.625H1926.98L1927.29 8.63672H1925.74V7.02832H1927.45L1927.7 4.50586H1926.21V2.89746H1927.86L1928.14 0.137695H1929.86L1929.58 2.89746H1931.61L1931.89 0.137695H1933.61L1933.33 2.89746H1934.9V4.50586H1933.18L1932.92 7.02832H1934.43V8.63672H1932.75ZM1931.45 4.50586H1929.42L1929.17 7.02832H1931.2L1931.45 4.50586ZM1952.91 8.63672L1952.61 11.625H1950.89L1951.2 8.63672H1949.16L1948.86 11.625H1947.14L1947.44 8.63672H1945.9V7.02832H1947.6L1947.86 4.50586H1946.36V2.89746H1948.01L1948.3 0.137695H1950.02L1949.74 2.89746H1951.77L1952.05 0.137695H1953.77L1953.49 2.89746H1955.05V4.50586H1953.33L1953.08 7.02832H1954.59V8.63672H1952.91ZM1951.61 4.50586H1949.58L1949.32 7.02832H1951.35L1951.61 4.50586ZM1973.07 8.63672L1972.77 11.625H1971.05L1971.35 8.63672H1969.31L1969.01 11.625H1967.29L1967.6 8.63672H1966.05V7.02832H1967.76L1968.01 4.50586H1966.52V2.89746H1968.17L1968.45 0.137695H1970.18L1969.89 2.89746H1971.92L1972.21 0.137695H1973.93L1973.65 2.89746H1975.21V4.50586H1973.49L1973.23 7.02832H1974.75V8.63672H1973.07ZM1971.77 4.50586H1969.74L1969.48 7.02832H1971.51L1971.77 4.50586ZM1993.22 8.63672L1992.92 11.625H1991.2L1991.51 8.63672H1989.47L1989.17 11.625H1987.45L1987.76 8.63672H1986.21V7.02832H1987.91L1988.17 4.50586H1986.68V2.89746H1988.33L1988.61 0.137695H1990.33L1990.05 2.89746H1992.08L1992.36 0.137695H1994.08L1993.8 2.89746H1995.37V4.50586H1993.65L1993.39 7.02832H1994.9V8.63672H1993.22ZM1991.92 4.50586H1989.89L1989.64 7.02832H1991.67L1991.92 4.50586ZM2013.38 8.63672L2013.08 11.625H2011.36L2011.67 8.63672H2009.63L2009.33 11.625H2007.61L2007.91 8.63672H2006.37V7.02832H2008.07L2008.33 4.50586H2006.83V2.89746H2008.48L2008.77 0.137695H2010.49L2010.21 2.89746H2012.24L2012.52 0.137695H2014.24L2013.96 2.89746H2015.52V4.50586H2013.8L2013.55 7.02832H2015.06V8.63672H2013.38ZM2012.08 4.50586H2010.05L2009.79 7.02832H2011.82L2012.08 4.50586ZM2033.54 8.63672L2033.24 11.625H2031.51L2031.82 8.63672H2029.78L2029.48 11.625H2027.76L2028.07 8.63672H2026.52V7.02832H2028.23L2028.48 4.50586H2026.99V2.89746H2028.64L2028.92 0.137695H2030.64L2030.36 2.89746H2032.39L2032.67 0.137695H2034.4L2034.12 2.89746H2035.68V4.50586H2033.96L2033.7 7.02832H2035.21V8.63672H2033.54ZM2032.24 4.50586H2030.21L2029.95 7.02832H2031.98L2032.24 4.50586ZM2053.69 8.63672L2053.39 11.625H2051.67L2051.98 8.63672H2049.94L2049.64 11.625H2047.92L2048.23 8.63672H2046.68V7.02832H2048.38L2048.64 4.50586H2047.14V2.89746H2048.8L2049.08 0.137695H2050.8L2050.52 2.89746H2052.55L2052.83 0.137695H2054.55L2054.27 2.89746H2055.84V4.50586H2054.11L2053.86 7.02832H2055.37V8.63672H2053.69ZM2052.39 4.50586H2050.36L2050.11 7.02832H2052.14L2052.39 4.50586ZM2073.85 8.63672L2073.55 11.625H2071.83L2072.14 8.63672H2070.1L2069.8 11.625H2068.07L2068.38 8.63672H2066.84V7.02832H2068.54L2068.8 4.50586H2067.3V2.89746H2068.95L2069.23 0.137695H2070.96L2070.68 2.89746H2072.71L2072.99 0.137695H2074.71L2074.43 2.89746H2075.99V4.50586H2074.27L2074.02 7.02832H2075.53V8.63672H2073.85ZM2072.55 4.50586H2070.52L2070.26 7.02832H2072.29L2072.55 4.50586ZM2094.01 8.63672L2093.71 11.625H2091.98L2092.29 8.63672H2090.25L2089.95 11.625H2088.23L2088.54 8.63672H2086.99V7.02832H2088.7L2088.95 4.50586H2087.46V2.89746H2089.11L2089.39 0.137695H2091.11L2090.83 2.89746H2092.86L2093.14 0.137695H2094.87L2094.59 2.89746H2096.15V4.50586H2094.43L2094.17 7.02832H2095.68V8.63672H2094.01ZM2092.7 4.50586H2090.67L2090.42 7.02832H2092.45L2092.7 4.50586ZM2114.16 8.63672L2113.86 11.625H2112.14L2112.45 8.63672H2110.41L2110.11 11.625H2108.39L2108.7 8.63672H2107.15V7.02832H2108.85L2109.11 4.50586H2107.61V2.89746H2109.27L2109.55 0.137695H2111.27L2110.99 2.89746H2113.02L2113.3 0.137695H2115.02L2114.74 2.89746H2116.31V4.50586H2114.58L2114.33 7.02832H2115.84V8.63672H2114.16ZM2112.86 4.50586H2110.83L2110.58 7.02832H2112.61L2112.86 4.50586ZM2134.32 8.63672L2134.02 11.625H2132.3L2132.6 8.63672H2130.57L2130.27 11.625H2128.54L2128.85 8.63672H2127.3V7.02832H2129.01L2129.26 4.50586H2127.77V2.89746H2129.42L2129.7 0.137695H2131.43L2131.15 2.89746H2133.18L2133.46 0.137695H2135.18L2134.9 2.89746H2136.46V4.50586H2134.74L2134.49 7.02832H2136V8.63672H2134.32ZM2133.02 4.50586H2130.99L2130.73 7.02832H2132.76L2133.02 4.50586ZM2154.48 8.63672L2154.18 11.625H2152.45L2152.76 8.63672H2150.72L2150.42 11.625H2148.7L2149.01 8.63672H2147.46V7.02832H2149.17L2149.42 4.50586H2147.93V2.89746H2149.58L2149.86 0.137695H2151.58L2151.3 2.89746H2153.33L2153.61 0.137695H2155.34L2155.06 2.89746H2156.62V4.50586H2154.9L2154.64 7.02832H2156.15V8.63672H2154.48ZM2153.17 4.50586H2151.14L2150.89 7.02832H2152.92L2153.17 4.50586ZM2174.63 8.63672L2174.33 11.625H2172.61L2172.92 8.63672H2170.88L2170.58 11.625H2168.86L2169.16 8.63672H2167.62V7.02832H2169.32L2169.58 4.50586H2168.08V2.89746H2169.74L2170.02 0.137695H2171.74L2171.46 2.89746H2173.49L2173.77 0.137695H2175.49L2175.21 2.89746H2176.78V4.50586H2175.05L2174.8 7.02832H2176.31V8.63672H2174.63ZM2173.33 4.50586H2171.3L2171.05 7.02832H2173.08L2173.33 4.50586Z" fill="#F2F2F2"/>
</svg>
