<svg width="359" height="395" viewBox="0 0 359 395" fill="none" xmlns="http://www.w3.org/2000/svg">
<path d="M337.5 198.866C337.5 201.144 336.403 203.418 334.208 205.671C332.012 207.926 328.746 210.126 324.497 212.236C316 216.456 303.672 220.27 288.398 223.479C257.858 229.894 215.644 233.866 169 233.866C122.356 233.866 80.1419 229.894 49.6017 223.479C34.3276 220.27 22.0001 216.456 13.5033 212.236C9.25393 210.126 5.98843 207.926 3.79163 205.671C1.5966 203.418 0.5 201.144 0.5 198.866C0.5 196.588 1.5966 194.313 3.79163 192.06C5.98843 189.805 9.25393 187.606 13.5033 185.495C22.0001 181.276 34.3276 177.461 49.6017 174.253C80.1419 167.838 122.356 163.866 169 163.866C215.644 163.866 257.858 167.838 288.398 174.253C303.672 177.461 316 181.276 324.497 185.495C328.746 187.606 332.012 189.805 334.208 192.06C336.403 194.313 337.5 196.588 337.5 198.866Z" stroke="black"/>
<path d="M337.5 223.866C337.5 226.144 336.403 228.418 334.208 230.671C332.012 232.926 328.746 235.126 324.497 237.236C316 241.456 303.672 245.27 288.398 248.479C257.858 254.894 215.644 258.866 169 258.866C122.356 258.866 80.1419 254.894 49.6017 248.479C34.3276 245.27 22.0001 241.456 13.5033 237.236C9.25393 235.126 5.98843 232.926 3.79163 230.671C1.5966 228.418 0.5 226.144 0.5 223.866C0.5 221.588 1.5966 219.313 3.79163 217.06C5.98843 214.805 9.25393 212.606 13.5033 210.495C22.0001 206.276 34.3276 202.461 49.6017 199.253C80.1419 192.838 122.356 188.866 169 188.866C215.644 188.866 257.858 192.838 288.398 199.253C303.672 202.461 316 206.276 324.497 210.495C328.746 212.606 332.012 214.805 334.208 217.06C336.403 219.313 337.5 221.588 337.5 223.866Z" stroke="black"/>
<path d="M337.5 248.866C337.5 251.144 336.403 253.418 334.208 255.671C332.012 257.926 328.746 260.126 324.497 262.236C316 266.456 303.672 270.27 288.398 273.479C257.858 279.894 215.644 283.866 169 283.866C122.356 283.866 80.1419 279.894 49.6017 273.479C34.3276 270.27 22.0001 266.456 13.5033 262.236C9.25393 260.126 5.98843 257.926 3.79163 255.671C1.5966 253.418 0.5 251.144 0.5 248.866C0.5 246.588 1.5966 244.313 3.79163 242.06C5.98843 239.805 9.25393 237.606 13.5033 235.495C22.0001 231.276 34.3276 227.461 49.6017 224.253C80.1419 217.838 122.356 213.866 169 213.866C215.644 213.866 257.858 217.838 288.398 224.253C303.672 227.461 316 231.276 324.497 235.495C328.746 237.606 332.012 239.805 334.208 242.06C336.403 244.313 337.5 246.588 337.5 248.866Z" stroke="black"/>
<path d="M252.343 66.995L252.511 67.9004L253.179 67.2666L300.311 22.5427L272.341 81.1888L271.945 82.0199L272.858 81.8997L337.276 73.4211L280.177 104.426L279.368 104.866L280.177 105.305L337.276 136.31L272.858 127.832L271.945 127.712L272.341 128.543L300.311 187.189L253.179 142.465L252.511 141.831L252.343 142.736L240.5 206.623L228.657 142.736L228.489 141.831L227.821 142.465L180.689 187.189L208.659 128.543L209.055 127.712L208.142 127.832L143.724 136.31L200.823 105.305L201.632 104.866L200.823 104.426L143.724 73.4211L208.142 81.8997L209.055 82.0199L208.659 81.1888L180.689 22.5427L227.821 67.2666L228.489 67.9004L228.657 66.995L240.5 3.10889L252.343 66.995Z" fill="#F3F3F3" stroke="black"/>
<path d="M277 177.366L294.789 222.426L341.11 208.24L316.972 250.242L356.944 277.612L309.055 284.929L312.579 333.245L277 300.366L241.422 333.245L244.945 284.929L197.056 277.612L237.028 250.242L212.89 208.24L259.211 222.426L277 177.366Z" fill="#D9D9D9"/>
<path d="M81.534 306.468L98.2048 264.366L115.01 306.468L145.539 329.5L115.01 352.532L98.2048 394.634L81.534 352.532L50.8704 329.5L81.534 306.468Z" fill="#B9FF66"/>
<circle cx="152.5" cy="186.866" r="62" fill="black" stroke="black"/>
<ellipse cx="132" cy="173.366" rx="10" ry="20" fill="white"/>
<ellipse cx="173" cy="173.366" rx="10" ry="20" fill="white"/>
</svg>
