<svg width="100" height="101" viewBox="0 0 100 101" fill="none" xmlns="http://www.w3.org/2000/svg">
<rect y="0.622192" width="100" height="100" rx="50" fill="#D9D9D9"/>
<path fill-rule="evenodd" clip-rule="evenodd" d="M64.9996 40.6222C64.9996 48.9065 58.2839 55.6222 49.9996 55.6222C41.7154 55.6222 34.9996 48.9065 34.9996 40.6222C34.9996 32.3379 41.7154 25.6222 49.9996 25.6222C58.2839 25.6222 64.9996 32.3379 64.9996 40.6222ZM59.9996 40.6222C59.9996 46.145 55.5225 50.6222 49.9996 50.6222C44.4768 50.6222 39.9996 46.145 39.9996 40.6222C39.9996 35.0993 44.4768 30.6222 49.9996 30.6222C55.5225 30.6222 59.9996 35.0993 59.9996 40.6222Z" fill="#1C1C1C"/>
<path d="M49.9996 63.1222C33.8137 63.1222 20.0228 72.6932 14.7695 86.1023C16.0493 87.3731 17.3974 88.5751 18.8079 89.7023C22.7197 77.3914 34.9914 68.1222 49.9996 68.1222C65.0079 68.1222 77.2796 77.3914 81.1914 89.7024C82.6019 88.5751 83.95 87.3731 85.2298 86.1023C79.9765 72.6932 66.1856 63.1222 49.9996 63.1222Z" fill="#1C1C1C"/>
</svg>
