<svg width="41" height="42" viewBox="0 0 41 42" fill="none" xmlns="http://www.w3.org/2000/svg">
<circle cx="20.5" cy="21" r="20.5" fill="white"/>
<path d="M11.2501 25.201C10.5326 25.6152 10.2868 26.5326 10.701 27.25C11.1152 27.9674 12.0326 28.2133 12.7501 27.799L11.2501 25.201ZM30.7695 16.8882C30.9839 16.088 30.509 15.2655 29.7088 15.0511L16.6688 11.5571C15.8686 11.3426 15.0461 11.8175 14.8317 12.6177C14.6173 13.4179 15.0921 14.2404 15.8923 14.4548L27.4835 17.5607L24.3776 29.1518C24.1632 29.952 24.6381 30.7745 25.4383 30.9889C26.2385 31.2033 27.061 30.7284 27.2754 29.9282L30.7695 16.8882ZM12.7501 27.799L30.0706 17.799L28.5706 15.201L11.2501 25.201L12.7501 27.799Z" fill="black"/>
</svg>
