<svg width="2753" height="1096" viewBox="0 0 2753 1096" fill="none" xmlns="http://www.w3.org/2000/svg">
<path fill-rule="evenodd" clip-rule="evenodd" d="M732.464 694.352C661.148 776.242 556.118 828 439 828C224.161 828 50 653.839 50 439C50 224.161 224.161 50 439 50C627.838 50 785.248 184.556 820.584 363.021C835.524 360.311 851.022 359 867 359C868.247 359 869.491 359.008 870.733 359.024C833.135 154.758 654.14 0 439 0C196.547 0 0 196.547 0 439C0 681.453 196.547 878 439 878C574.76 878 696.127 816.375 776.654 719.572C771.961 717.678 767.344 715.612 762.803 713.372L762.514 713.23L762.228 713.083C751.592 707.621 741.657 701.376 732.464 694.352Z" fill="#BADE4F"/>
<path d="M453.311 391.637H410.928V322.936H453.311V261.445L538.76 230V322.936H639.248V391.637H538.76V551.939C538.76 578.144 542.861 596.715 551.064 607.652C559.268 618.362 573.623 623.717 594.131 623.717C614.639 623.717 633.779 618.134 651.553 606.969V685.582C631.729 692.418 603.473 695.836 566.787 695.836C530.329 695.836 502.301 685.582 482.705 665.074C463.109 644.339 453.311 614.944 453.311 576.891V391.637Z" fill="#BADE4F"/>
<path d="M319.135 181.09C332.807 181.09 344.428 185.989 353.998 195.787C363.796 205.357 368.695 216.979 368.695 230.65C368.695 244.322 363.796 256.057 353.998 265.855C344.428 275.426 332.807 280.211 319.135 280.211C305.463 280.211 293.728 275.426 283.93 265.855C274.359 256.057 269.574 244.322 269.574 230.65C269.574 216.979 274.359 205.357 283.93 195.787C293.728 185.989 305.463 181.09 319.135 181.09ZM275.043 689V393.004H228.217V322.936H361.518V689H275.043Z" fill="#BADE4F"/>
<path d="M2685.64 689L2674.64 584L2687.64 547.5L2674.64 511.5L2685.64 406H2752.64L2737.64 547.5L2752.64 689H2685.64ZM2705.64 547.5C2699.31 577.167 2688.81 603.167 2674.14 625.5C2659.47 647.833 2641.31 665.167 2619.64 677.5C2598.31 689.833 2574.47 696 2548.14 696C2520.47 696 2495.97 689.833 2474.64 677.5C2453.31 664.833 2436.64 647.333 2424.64 625C2412.64 602.667 2406.64 576.833 2406.64 547.5C2406.64 517.833 2412.64 492 2424.64 470C2436.64 447.667 2453.31 430.333 2474.64 418C2495.97 405.333 2520.47 399 2548.14 399C2574.47 399 2598.31 405.167 2619.64 417.5C2641.31 429.833 2659.47 447.167 2674.14 469.5C2689.14 491.5 2699.64 517.5 2705.64 547.5ZM2472.64 547.5C2472.64 566.5 2476.47 583.333 2484.14 598C2492.14 612.333 2502.97 623.667 2516.64 632C2530.31 640 2545.97 644 2563.64 644C2581.64 644 2598.31 640 2613.64 632C2628.97 623.667 2642.47 612.333 2654.14 598C2666.14 583.333 2675.64 566.5 2682.64 547.5C2675.64 528.5 2666.14 511.833 2654.14 497.5C2642.47 482.833 2628.97 471.5 2613.64 463.5C2598.31 455.167 2581.64 451 2563.64 451C2545.97 451 2530.31 455.167 2516.64 463.5C2502.97 471.5 2492.14 482.833 2484.14 497.5C2476.47 511.833 2472.64 528.5 2472.64 547.5Z" fill="#F2F2F2"/>
<path d="M2038.57 406H2103.57V504.5L2100.57 514.5V571.5L2103.57 589V752.999H2038.57L2038.57 406ZM2078.57 547.5C2084.91 517.5 2095.41 491.5 2110.07 469.5C2124.74 447.167 2142.74 429.833 2164.07 417.5C2185.74 405.167 2209.74 399 2236.07 399C2263.74 399 2288.24 405.333 2309.57 418C2330.91 430.333 2347.57 447.667 2359.57 470C2371.57 492 2377.57 517.833 2377.57 547.5C2377.57 576.833 2371.57 602.667 2359.57 625C2347.57 647.333 2330.91 664.833 2309.57 677.5C2288.24 689.833 2263.74 696 2236.07 696C2209.74 696 2185.91 689.833 2164.57 677.5C2143.24 665.167 2125.07 647.833 2110.07 625.5C2095.41 603.167 2084.91 577.167 2078.57 547.5ZM2311.57 547.5C2311.57 528.5 2307.57 511.833 2299.57 497.5C2291.91 482.833 2281.24 471.5 2267.57 463.5C2253.91 455.167 2238.24 451 2220.57 451C2202.91 451 2186.24 455.167 2170.57 463.5C2155.24 471.5 2141.74 482.833 2130.07 497.5C2118.41 511.833 2108.91 528.5 2101.57 547.5C2108.91 566.5 2118.41 583.333 2130.07 598C2141.74 612.333 2155.24 623.667 2170.57 632C2186.24 640 2202.91 644 2220.57 644C2238.24 644 2253.91 640 2267.57 632C2281.24 623.667 2291.91 612.333 2299.57 598C2307.57 583.333 2311.57 566.5 2311.57 547.5Z" fill="#F2F2F2"/>
<path d="M1848.09 696C1815.09 696 1785.76 689.833 1760.09 677.5C1734.43 664.833 1714.26 647.333 1699.59 625C1684.93 602.667 1677.59 576.667 1677.59 547C1677.59 517.667 1684.43 492 1698.09 470C1712.09 447.667 1731.26 430.333 1755.59 418C1780.26 405.333 1808.43 399 1840.09 399C1871.76 399 1899.09 406.167 1922.09 420.5C1945.43 434.5 1963.43 454.333 1976.09 480C1988.76 505.667 1995.09 535.833 1995.09 570.5H1728.59V521H1962.59L1930.09 539.5C1929.09 520.833 1924.59 504.833 1916.59 491.5C1908.93 478.167 1898.43 468 1885.09 461C1872.09 453.667 1856.59 450 1838.59 450C1819.59 450 1802.93 453.833 1788.59 461.5C1774.59 469.167 1763.59 480 1755.59 494C1747.59 507.667 1743.59 524 1743.59 543C1743.59 564 1748.26 582.167 1757.59 597.5C1767.26 612.833 1780.76 624.667 1798.09 633C1815.76 641 1836.59 645 1860.59 645C1882.26 645 1904.43 641.667 1927.09 635C1949.76 628 1969.76 618.333 1987.09 606V653C1969.76 666.333 1948.59 676.833 1923.59 684.5C1898.93 692.167 1873.76 696 1848.09 696Z" fill="#F2F2F2"/>
<path d="M1030 577.5C1026.67 600.833 1017.5 621.5 1002.5 639.5C987.5 657.167 968.333 671 945 681C921.667 691 895.667 696 867 696C834.333 696 805.5 689.833 780.5 677.5C755.833 664.833 736.5 647.333 722.5 625C708.5 602.667 701.5 576.833 701.5 547.5C701.5 518.167 708.5 492.333 722.5 470C736.5 447.667 755.833 430.333 780.5 418C805.5 405.333 834.333 399 867 399C895.667 399 921.667 404 945 414C968.333 424 987.5 438 1002.5 456C1017.5 473.667 1026.67 494.333 1030 518H964.5C959.833 496.667 948.667 480 931 468C913.333 456 892 450 867 450C847 450 829.5 454 814.5 462C799.5 469.667 787.833 480.833 779.5 495.5C771.5 509.833 767.5 527.167 767.5 547.5C767.5 567.5 771.5 584.833 779.5 599.5C787.833 614.167 799.5 625.5 814.5 633.5C829.5 641.167 847 645 867 645C892.333 645 913.833 638.833 931.5 626.5C949.167 614.167 960.167 597.833 964.5 577.5H1030Z" fill="#F2F2F2"/>
<path d="M1321.5 753V603.5L1327.5 580.5V511.5L1321.5 488V304H1385.5V488.5L1379.5 511.5V580L1385.5 603.5V753H1321.5ZM1360.5 547.5C1366.83 517.5 1377 491.5 1391 469.5C1405 447.167 1422.33 429.833 1443 417.5C1464 405.167 1487.5 399 1513.5 399C1540.83 399 1564.83 405.333 1585.5 418C1606.17 430.333 1622.33 447.667 1634 470C1645.67 492 1651.5 517.833 1651.5 547.5C1651.5 576.833 1645.67 602.667 1634 625C1622.33 647.333 1606.17 664.833 1585.5 677.5C1564.83 689.833 1540.83 696 1513.5 696C1487.5 696 1464 689.833 1443 677.5C1422.33 665.167 1405 647.833 1391 625.5C1377 603.167 1366.83 577.167 1360.5 547.5ZM1585.5 547.5C1585.5 528.5 1581.67 511.833 1574 497.5C1566.67 482.833 1556.5 471.5 1543.5 463.5C1530.5 455.167 1515.33 451 1498 451C1471.67 451 1448.5 460 1428.5 478C1408.5 495.667 1393.17 518.833 1382.5 547.5C1393.17 575.833 1408.5 599.167 1428.5 617.5C1448.5 635.5 1471.67 644.5 1498 644.5C1515.33 644.5 1530.5 640.333 1543.5 632C1556.5 623.667 1566.67 612.333 1574 598C1581.67 583.333 1585.5 566.5 1585.5 547.5ZM1346.5 547.5C1340.5 577.167 1330.33 603.167 1316 625.5C1302 647.833 1284.67 665.167 1264 677.5C1243.33 689.833 1220 696 1194 696C1166.67 696 1142.67 689.833 1122 677.5C1101.33 664.833 1085.17 647.333 1073.5 625C1061.83 602.667 1056 576.833 1056 547.5C1056 517.833 1061.83 492 1073.5 470C1085.17 447.667 1101.33 430.333 1122 418C1142.67 405.333 1166.67 399 1194 399C1220 399 1243.33 405.167 1264 417.5C1284.67 429.833 1302 447.167 1316 469.5C1330.33 491.5 1340.5 517.5 1346.5 547.5ZM1122 547.5C1122 566.5 1125.67 583.333 1133 598C1140.33 612.333 1150.5 623.667 1163.5 632C1176.83 640.333 1192 644.5 1209 644.5C1235.67 644.5 1258.83 635.5 1278.5 617.5C1298.5 599.167 1314 575.833 1325 547.5C1314 518.833 1298.5 495.667 1278.5 478C1258.83 460 1235.67 451 1209 451C1192 451 1176.83 455.167 1163.5 463.5C1150.5 471.5 1140.33 482.833 1133 497.5C1125.67 511.833 1122 528.5 1122 547.5Z" fill="#F2F2F2"/>
</svg>
