<svg xmlns="http://www.w3.org/2000/svg" width="100" height="32"><path d="M26.605 25.309a14.075 14.075 0 0 1-10.66 4.867C8.141 30.176 1.816 23.832 1.816 16S8.141 1.824 15.946 1.824c6.859 0 12.577 4.903 13.863 11.406a9.475 9.475 0 0 1 1.683-.144h.137C30.262 5.64 23.762 0 15.945 0 7.141 0 0 7.164 0 16s7.14 16 15.945 16c4.934 0 9.34-2.246 12.266-5.773a7.327 7.327 0 0 1-.504-.227l-.008-.004-.012-.008a7.436 7.436 0 0 1-1.082-.68Zm0 0" style="stroke:none;fill-rule:evenodd;fill:#bade4f;fill-opacity:1"/><path d="M16.465 14.273h-1.54V11.77h1.54V9.527l3.105-1.144v3.387h3.649v2.503H19.57v5.844c0 .953.149 1.633.446 2.031.3.391.82.582 1.566.582a3.86 3.86 0 0 0 2.086-.609v2.867c-.723.246-1.746.371-3.078.371-1.324 0-2.344-.37-3.055-1.12-.715-.755-1.07-1.825-1.07-3.212ZM11.594 6.602c.496 0 .918.175 1.265.535.356.347.532.77.532 1.27s-.176.925-.532 1.284c-.347.348-.77.52-1.265.52a1.778 1.778 0 0 1-1.8-1.805c-.001-.5.17-.922.518-1.27.356-.359.782-.534 1.282-.534ZM9.992 25.113V14.324H8.29V11.77h4.844v13.343Zm0 0" style="stroke:none;fill-rule:nonzero;fill:#bade4f;fill-opacity:1"/><path d="m97.555 25.113-.403-3.828.473-1.332-.473-1.312.403-3.844h2.433l-.547 5.156.547 5.16Zm.726-5.16c-.23 1.082-.613 2.031-1.144 2.844-.535.812-1.196 1.445-1.98 1.894-.774.45-1.641.676-2.598.676-1.004 0-1.895-.226-2.668-.676a4.79 4.79 0 0 1-1.817-1.914c-.437-.812-.656-1.754-.656-2.824 0-1.078.219-2.02.656-2.824a4.69 4.69 0 0 1 1.817-1.895c.773-.46 1.664-.691 2.668-.691.957 0 1.824.223 2.597.672.785.45 1.446 1.082 1.98 1.898.544.801.927 1.746 1.145 2.84Zm-8.465 0c0 .695.141 1.309.418 1.844.29.52.684.933 1.18 1.238.496.29 1.066.438 1.707.438.656 0 1.262-.149 1.817-.438a4.984 4.984 0 0 0 1.472-1.238 6.381 6.381 0 0 0 1.035-1.844 6.152 6.152 0 0 0-1.035-1.82 4.556 4.556 0 0 0-1.472-1.238 3.711 3.711 0 0 0-1.817-.457c-.64 0-1.21.152-1.707.457a3.11 3.11 0 0 0-1.18 1.238c-.277.523-.418 1.129-.418 1.82ZM74.05 14.797h2.36v3.59l-.11.363v2.078l.11.64v5.977h-2.36Zm1.454 5.156c.226-1.094.61-2.039 1.14-2.84.536-.816 1.188-1.449 1.965-1.898.786-.45 1.657-.672 2.614-.672 1.004 0 1.894.23 2.672.691a4.741 4.741 0 0 1 1.816 1.895c.434.805.652 1.746.652 2.824 0 1.07-.218 2.012-.652 2.824a4.844 4.844 0 0 1-1.816 1.914c-.778.45-1.668.676-2.672.676-.957 0-1.82-.226-2.598-.676-.773-.449-1.434-1.082-1.98-1.894-.532-.813-.915-1.762-1.141-2.844Zm8.46 0c0-.691-.144-1.297-.433-1.82a3.022 3.022 0 0 0-1.164-1.238c-.496-.305-1.066-.457-1.707-.457a3.8 3.8 0 0 0-1.816.457 4.556 4.556 0 0 0-1.473 1.238 6.82 6.82 0 0 0-1.035 1.82 7.09 7.09 0 0 0 1.035 1.844c.426.52.914.933 1.473 1.238.57.29 1.176.438 1.816.438.64 0 1.211-.149 1.707-.438a3.227 3.227 0 0 0 1.164-1.238c.29-.535.434-1.149.434-1.844ZM67.129 25.367c-1.2 0-2.262-.226-3.195-.676-.934-.46-1.664-1.097-2.2-1.914-.53-.812-.797-1.761-.797-2.84 0-1.07.247-2.003.743-2.808a5.213 5.213 0 0 1 2.09-1.895c.898-.46 1.917-.691 3.07-.691 1.148 0 2.144.262 2.976.781.848.512 1.504 1.235 1.965 2.172.457.934.688 2.031.688 3.297h-9.68v-1.805h8.5l-1.18.676c-.035-.68-.199-1.266-.492-1.75a2.803 2.803 0 0 0-1.144-1.113c-.473-.266-1.035-.399-1.688-.399-.691 0-1.297.137-1.816.418a3.064 3.064 0 0 0-1.2 1.184c-.289.5-.433 1.094-.433 1.785 0 .766.168 1.43.508 1.988.351.559.84.989 1.468 1.293.645.293 1.399.438 2.274.438A8.54 8.54 0 0 0 70 23.145a7.643 7.643 0 0 0 2.18-1.06v1.716c-.63.484-1.399.867-2.309 1.148a9.21 9.21 0 0 1-2.742.418ZM37.414 21.047a4.44 4.44 0 0 1-1 2.262c-.543.644-1.242 1.148-2.086 1.511-.848.364-1.793.547-2.836.547-1.187 0-2.234-.226-3.14-.676a5.267 5.267 0 0 1-2.11-1.914c-.508-.812-.762-1.754-.762-2.824 0-1.066.254-2.008.762-2.824a5.167 5.167 0 0 1 2.11-1.895c.906-.46 1.953-.691 3.14-.691 1.043 0 1.988.18 2.836.547.844.363 1.543.875 2.086 1.531.547.64.879 1.395 1 2.258h-2.379c-.172-.777-.574-1.383-1.219-1.82-.64-.438-1.414-.657-2.324-.657-.726 0-1.363.145-1.906.438a2.985 2.985 0 0 0-1.27 1.219c-.293.523-.437 1.156-.437 1.894 0 .73.144 1.363.437 1.899.301.53.727.945 1.27 1.238.543.277 1.18.418 1.906.418.922 0 1.703-.223 2.344-.676.64-.45 1.043-1.043 1.2-1.785ZM48.004 27.445v-5.449l.215-.84v-2.515l-.215-.856v-6.707h2.324v6.727l-.219.836v2.5l.22.855v5.45Zm1.414-7.492c.23-1.094.602-2.039 1.11-2.84.507-.816 1.136-1.449 1.886-1.898.766-.45 1.617-.672 2.563-.672.992 0 1.863.23 2.613.691.754.45 1.34 1.082 1.762 1.895.425.805.636 1.746.636 2.824 0 1.07-.21 2.012-.636 2.824a4.741 4.741 0 0 1-1.762 1.914c-.75.45-1.621.676-2.613.676-.946 0-1.797-.226-2.563-.676-.75-.449-1.379-1.082-1.887-1.894-.507-.813-.879-1.762-1.109-2.844Zm8.172 0c0-.691-.137-1.297-.414-1.82-.27-.535-.637-.95-1.11-1.238-.472-.305-1.023-.457-1.652-.457-.957 0-1.797.328-2.523.984-.727.644-1.286 1.488-1.672 2.531.386 1.035.945 1.883 1.672 2.55.726.657 1.566.985 2.523.985.629 0 1.18-.152 1.652-.453.473-.305.84-.719 1.11-1.238.277-.535.414-1.149.414-1.844Zm-8.68 0c-.219 1.082-.586 2.031-1.11 2.844-.507.812-1.136 1.445-1.886 1.894-.75.45-1.598.676-2.543.676-.992 0-1.863-.226-2.617-.676a4.796 4.796 0 0 1-1.762-1.914c-.422-.812-.633-1.754-.633-2.824 0-1.078.211-2.02.633-2.824.426-.813 1.012-1.445 1.762-1.895.754-.46 1.625-.691 2.617-.691.945 0 1.793.223 2.543.672.75.45 1.379 1.082 1.887 1.898.523.801.89 1.746 1.11 2.84Zm-8.156 0c0 .695.137 1.309.402 1.844.266.52.633.933 1.106 1.238.484.3 1.035.453 1.652.453.969 0 1.813-.328 2.527-.984.727-.668 1.29-1.516 1.688-2.55-.399-1.044-.961-1.888-1.688-2.532a3.617 3.617 0 0 0-2.527-.985c-.617 0-1.168.153-1.652.458-.473.289-.84.703-1.106 1.238-.265.523-.402 1.129-.402 1.82Zm0 0" style="stroke:none;fill-rule:nonzero;fill:#f2f2f2;fill-opacity:1"/></svg>