<svg width="50" height="51" viewBox="0 0 50 51" fill="none" xmlns="http://www.w3.org/2000/svg">
<g clip-path="url(#clip0_1270_3830)">
<path d="M29.7538 41.3975C28.2663 42.3027 26.5135 42.6708 24.7877 42.4408C24.0788 42.3677 23.3796 42.221 22.7013 42.0025C22.0273 41.7918 21.3823 41.4975 20.7816 41.1262C20.0387 40.7314 19.3885 40.1831 18.874 39.5175C18.3595 38.8518 17.9927 38.0843 17.7978 37.266C17.7978 36.661 17.6309 36.0977 17.6309 35.4716C17.7321 33.89 17.6621 32.302 17.4223 30.7352C17.2472 29.855 16.8109 29.0479 16.1703 28.4191C15.874 28.1623 15.4983 28.015 15.1062 28.0018C14.6784 28.0258 14.253 28.0816 13.8334 28.1689H8.07458C7.71633 27.5883 7.40246 26.9814 7.13565 26.3535C6.89986 25.7508 6.74548 25.1193 6.6766 24.4756C6.61419 23.9837 6.61419 23.486 6.6766 22.9941C6.74746 22.5062 6.88071 22.0293 7.07304 21.5754C7.5214 20.1891 8.4549 19.0111 9.70208 18.2578C10.6463 17.7793 11.6899 17.53 12.7484 17.53C13.8069 17.53 14.8506 17.7793 15.7948 18.2578C16.8589 18.7377 22.9933 21.9927 18.9037 27.7725C18.8014 27.9302 18.766 28.122 18.8051 28.3058C18.8442 28.4898 18.9547 28.6506 19.1124 28.7531C19.8137 29.3706 20.4373 30.0712 20.9694 30.8395C21.4931 31.6008 21.9273 32.42 22.2629 33.2808C22.5931 34.1431 22.8581 35.0289 23.0558 35.9308C23.2688 36.69 23.6304 37.3991 24.12 38.0173C24.5875 38.5681 25.2069 38.9687 25.901 39.1691C26.595 39.3695 27.3327 39.3608 28.0219 39.1439C28.3404 39.0658 28.654 38.9681 28.9608 38.8518L29.7954 38.4554C29.8913 38.4116 29.9777 38.3493 30.0494 38.272C30.1213 38.195 30.1773 38.1043 30.214 38.0054C30.2508 37.9066 30.2677 37.8016 30.264 37.6962C30.2602 37.5908 30.2356 37.4872 30.1919 37.3912C30.1479 37.2954 30.0856 37.2091 30.0085 37.1372C29.9313 37.0654 29.8406 37.0095 29.7419 36.9727C29.6431 36.9358 29.5379 36.9189 29.4325 36.9227C29.3273 36.9264 29.2235 36.951 29.1277 36.9947L27.7715 37.266C27.4515 37.3229 27.1217 37.2862 26.8219 37.1604C26.5221 37.0345 26.265 36.825 26.0815 36.5566C25.7879 36.0027 25.5904 35.4031 25.4971 34.7831C25.3063 33.946 25.0192 33.1339 24.6417 32.3627C24.0631 31.3998 23.3617 30.5158 22.5552 29.7337C21.9663 29.2014 21.3229 28.7329 20.6355 28.3358C20.6355 28.3358 20.8024 28.3358 20.865 28.1898C24.2452 23.3906 21.3031 18.2995 16.9424 16.1087C15.8483 15.5206 14.6464 15.1601 13.4093 15.0489C12.1721 14.9377 10.9252 15.0782 9.74381 15.4618C8.58244 15.9084 7.54467 16.6262 6.71713 17.5554C5.88956 18.4846 5.29619 19.5982 4.98652 20.8034C4.8166 21.43 4.7186 22.0741 4.6944 22.7229C4.64869 23.3804 4.69788 24.041 4.84046 24.6843C5.01415 25.4673 5.28763 26.2245 5.65421 26.9377C5.88696 27.3631 6.14475 27.7741 6.42623 28.1689C5.72821 28.1868 5.03169 28.2425 4.33969 28.3358C3.74094 28.4045 3.15254 28.5448 2.587 28.7531C2.18346 28.9043 1.82961 29.1643 1.5646 29.5041C1.17716 30.0404 0.887542 30.6408 0.709121 31.2777C0.427388 32.47 0.252815 33.685 0.187487 34.9083C-0.142119 37.947 -0.036732 41.0175 0.500467 44.0264C0.861381 46.0875 1.66588 48.0452 2.85825 49.7643C2.97094 49.9168 3.1384 50.0193 3.32527 50.0504C3.51215 50.0816 3.70379 50.0389 3.85979 49.9314C4.01067 49.8224 4.11271 49.6587 4.14394 49.4752C4.17515 49.2918 4.13306 49.1033 4.02671 48.9508C3.05833 47.3656 2.45929 45.5827 2.27402 43.7343C1.95187 40.9054 2.04324 38.0447 2.54527 35.2423C2.67046 34.4702 2.81652 33.406 3.0669 32.4462C3.167 32.0118 3.33606 31.5962 3.56767 31.2152C3.37988 30.8812 4.40229 31.0483 4.71527 31.0064C5.35831 30.9164 6.00646 30.8677 6.65575 30.8604H9.8064C15.4818 30.6518 14.9601 30.2137 15.2314 31.7785C15.3882 32.9895 15.4718 34.2089 15.4818 35.43C15.5637 37.5075 15.8645 39.5708 16.379 41.5852C16.861 43.581 17.5029 45.5347 18.2986 47.4275C18.3733 47.6268 18.5241 47.7881 18.7178 47.8762C18.9115 47.9641 19.1322 47.9716 19.3314 47.897C19.5306 47.8222 19.692 47.6714 19.7801 47.4779C19.8681 47.2841 19.8756 47.0633 19.8009 46.8641C19.3039 45.401 18.8928 43.9102 18.5699 42.3989C18.8201 42.6839 19.0922 42.9491 19.3836 43.1918C20.161 43.7804 21.0371 44.2256 21.9708 44.5064C22.8798 44.8022 23.8321 44.9433 24.7877 44.9237C27.0233 44.9147 29.1773 44.0829 30.8388 42.5868C30.9233 42.5233 30.9946 42.4435 31.0479 42.3518C31.1013 42.2604 31.1358 42.1593 31.1494 42.0541C31.1631 41.9491 31.1554 41.8425 31.1273 41.7404C31.099 41.6385 31.0504 41.5431 30.9848 41.46C30.9129 41.3677 30.8221 41.2918 30.7183 41.2379C30.6146 41.1837 30.5004 41.1527 30.3835 41.1466C30.2667 41.1408 30.15 41.1602 30.0413 41.2033C29.9325 41.2466 29.8344 41.3129 29.7538 41.3975Z" fill="#BADE4F"/>
<path d="M29.5036 9.38998C29.6765 9.26448 29.7932 9.07594 29.8284 8.8651C29.8634 8.65429 29.8142 8.4381 29.6913 8.26325C29.5588 8.0931 29.3671 7.97923 29.1544 7.94439C28.9415 7.90958 28.7234 7.95639 28.5438 8.07548L23.223 10.621C22.4919 10.9921 21.794 11.4249 21.1365 11.9147C20.8299 12.1873 20.6425 12.5694 20.6149 12.9788C20.5858 13.1925 20.6044 13.41 20.6694 13.6156C20.7343 13.8212 20.844 14.0099 20.9905 14.1681C21.2617 14.4811 22.0963 15.1697 22.159 15.2323L26.8328 19.0715C26.9657 19.204 27.1459 19.2784 27.3336 19.2784C27.5213 19.2784 27.7013 19.204 27.8342 19.0715C27.9667 18.9385 28.0413 18.7585 28.0413 18.5707C28.0413 18.383 27.9667 18.2029 27.8342 18.07L24.0159 13.2918L23.8073 13.1666L24.5792 12.8328L29.5036 9.38998Z" fill="#BADE4F"/>
<path d="M35.6379 17.8405C35.5529 17.9007 35.4806 17.9771 35.4252 18.0654C35.3698 18.1535 35.3323 18.2518 35.3148 18.3545C35.2975 18.4572 35.3004 18.5623 35.3236 18.6639C35.3469 18.7654 35.3898 18.8614 35.4502 18.9463C35.579 19.115 35.7671 19.2283 35.9763 19.2632C36.1856 19.2981 36.4004 19.2519 36.5769 19.1341L41.8975 16.5886C42.6329 16.2334 43.3317 15.8071 43.984 15.3158C44.2733 15.056 44.4588 14.7002 44.5056 14.3142C44.5346 14.1038 44.5158 13.8895 44.4508 13.6873C44.3858 13.4851 44.2763 13.3 44.13 13.1458C43.7617 12.7686 43.3715 12.4133 42.9617 12.0816L38.2877 8.22156C38.2236 8.14929 38.1452 8.09092 38.0577 8.05002C37.97 8.00912 37.875 7.98654 37.7783 7.98371C37.6817 7.98085 37.5856 7.99779 37.4956 8.03348C37.4058 8.06915 37.3242 8.12281 37.2558 8.19119C37.1875 8.25954 37.134 8.34115 37.0981 8.431C37.0625 8.52085 37.0456 8.61706 37.0483 8.71369C37.0513 8.81033 37.0738 8.90535 37.1148 8.99296C37.1556 9.08056 37.214 9.15887 37.2863 9.2231L41.1046 13.9178L41.3133 14.0639C41.0479 14.1555 40.7898 14.2671 40.5413 14.3977L35.6379 17.8405Z" fill="#BADE4F"/>
<path d="M35.971 5.38383C35.885 5.34696 35.7925 5.328 35.6989 5.32813C35.6052 5.32823 35.5127 5.34744 35.4268 5.38454C35.3408 5.42165 35.2633 5.47588 35.1991 5.54392C35.1348 5.61196 35.0852 5.69238 35.0531 5.78029C34.2602 7.13654 33.4673 8.45105 32.7996 9.95336C32.5075 10.5584 32.2779 11.1844 32.0483 11.8104C31.8189 12.4363 31.631 13.0623 31.4641 13.7091C31.0677 15.2323 30.7964 16.7346 30.5043 18.2786C30.4725 18.38 30.4612 18.4867 30.4714 18.5925C30.4816 18.6982 30.5129 18.8009 30.5635 18.8943C30.6141 18.9877 30.6829 19.07 30.766 19.1363C30.8491 19.2026 30.9446 19.2515 31.0468 19.2802C31.2516 19.3388 31.4712 19.3148 31.6583 19.2134C31.8456 19.112 31.9856 18.9412 32.0483 18.7377C32.6327 17.3188 33.2796 15.9417 33.8637 14.5646C34.1141 13.9595 34.3646 13.3544 34.5939 12.7493C34.8268 12.1409 35.0289 11.5211 35.1991 10.8923C35.6373 9.41086 35.9502 7.92942 36.3675 6.44798C36.4229 6.35427 36.4566 6.24938 36.4664 6.14094C36.476 6.03252 36.4612 5.92331 36.4233 5.82129C36.3852 5.71929 36.325 5.62706 36.2466 5.55138C36.1685 5.47569 36.0743 5.41846 35.971 5.38383Z" fill="#BADE4F"/>
<path d="M49.7636 10.8923C48.5326 -0.333212 51.4536 3.27649 41.0836 1.79505C37.8067 1.31474 34.5042 1.02908 31.1934 0.939575C29.5242 0.939575 27.8759 0.939575 26.2276 1.08563C24.5792 1.23169 22.8474 1.44034 21.2407 1.69073C19.634 1.94111 18.1943 2.04544 16.5877 2.29582C12.5607 2.98437 12.4146 1.62813 12.2686 6.71926C12.2373 7.17081 12.2373 7.62397 12.2686 8.07551C12.2891 8.48872 12.3379 8.90004 12.4146 9.30658C12.6233 10.3498 12.9989 11.3931 13.2075 12.3321C13.215 12.4293 13.2425 12.524 13.2883 12.6102C13.334 12.6963 13.397 12.7721 13.4734 12.8328C13.5498 12.8935 13.6379 12.9378 13.7321 12.963C13.8264 12.9881 13.9248 12.9935 14.0213 12.9789C14.1135 12.9762 14.2044 12.9551 14.2883 12.9167C14.3722 12.8782 14.4476 12.8233 14.5099 12.7552C14.5722 12.6871 14.6201 12.6071 14.6509 12.5201C14.6816 12.4331 14.6946 12.3407 14.689 12.2486C14.9103 11.0503 15.0359 9.83626 15.0645 8.61801C15.05 7.91708 14.9732 7.21883 14.835 6.53149C14.7307 5.78033 14.5012 5.05004 14.5012 4.29889C15.3003 4.1422 16.1088 4.03764 16.9216 3.98591C18.4656 3.88158 20.0096 3.88158 21.5119 3.81899C23.0142 3.75639 24.7461 3.71466 26.3736 3.69381C28.0011 3.67293 29.6078 3.69381 31.2142 3.69381C34.4484 3.69381 37.6617 3.69381 40.9167 3.94418C42.6903 4.06937 44.5682 3.94418 46.3834 3.94418H46.6755C46.8007 4.92485 46.9467 5.90551 47.0094 6.90706C47.0719 7.9086 47.0094 8.9936 47.1346 10.1621C47.2598 11.3305 47.2388 12.2486 47.3015 13.417C47.5311 16.7555 47.7813 20.0731 47.8649 23.3073C47.8809 23.4465 47.9392 23.5775 48.0317 23.6827C44.9988 24.1185 41.9276 24.2233 38.8719 23.9958L35.0744 23.8706H32.508C30.1742 23.9185 27.8461 24.1206 25.539 24.4756C25.4369 24.4675 25.3342 24.4815 25.238 24.5167C25.1419 24.5519 25.0544 24.6075 24.9817 24.6798C24.9092 24.7519 24.853 24.839 24.8174 24.935C24.7815 25.0308 24.7669 25.1335 24.7744 25.2356C24.7821 25.3377 24.8117 25.4371 24.8615 25.5267C24.9111 25.6162 24.9794 25.694 25.0621 25.7546C25.1446 25.8152 25.2392 25.8573 25.3396 25.8777C25.4399 25.8983 25.5436 25.8969 25.6432 25.8737C27.2082 25.8737 28.7521 25.8737 30.2753 26.124C30.123 26.6585 30.0044 27.2021 29.9207 27.7515C29.8896 28.1333 29.8896 28.5173 29.9207 28.8992V30.0467C29.9207 30.9648 30.1503 31.8202 30.2336 32.7175C30.2161 32.9302 30.283 33.141 30.4194 33.305C30.5561 33.469 30.7515 33.5727 30.964 33.5937C31.0686 33.6054 31.1746 33.5952 31.2753 33.5644C31.3761 33.5333 31.4694 33.4821 31.5494 33.4135C31.6296 33.3452 31.6949 33.261 31.7413 33.1665C31.7878 33.0719 31.8144 32.9687 31.8194 32.8635C32.0699 31.9454 32.2992 31.0692 32.4663 30.1302C32.498 29.7412 32.498 29.3506 32.4663 28.9617C32.5078 28.5733 32.5078 28.1817 32.4663 27.7933C32.394 27.2862 32.2894 26.7846 32.1532 26.291L33.7599 26.4371C35.5917 26.5933 37.4303 26.656 39.2684 26.6248C42.4151 26.5944 45.5413 26.1167 48.5534 25.206C48.6567 25.1837 48.7546 25.1412 48.8413 25.0806C48.928 25.0202 49.0017 24.9429 49.0582 24.8535C49.1144 24.7642 49.1524 24.6644 49.1696 24.56C49.1869 24.4556 49.1832 24.349 49.1586 24.2462C49.1586 24.121 49.0334 24.0583 48.9707 23.975C49.1084 23.9246 49.228 23.8342 49.3136 23.715C49.3992 23.5958 49.4469 23.4537 49.4507 23.3073C49.6801 20.866 49.9513 18.3413 49.9932 15.7957C50.0249 14.158 49.9482 12.5199 49.7636 10.8923Z" fill="#BADE4F"/>
<path d="M46.9466 37.7042C46.7987 36.9907 46.3893 36.358 45.7991 35.9307C45.3222 35.633 44.7749 35.4675 44.2132 35.4509C43.368 35.4634 42.5245 35.5332 41.6885 35.6594L34.2397 36.7027C34.1468 36.713 34.0572 36.7417 33.976 36.7875C33.8947 36.8334 33.8237 36.8952 33.7672 36.9694C33.7105 37.0436 33.6695 37.1286 33.6468 37.219C33.6241 37.3094 33.6199 37.4036 33.6345 37.4957C33.6447 37.5884 33.6735 37.6779 33.7193 37.7592C33.7653 37.8404 33.8272 37.9115 33.9012 37.9682C33.9753 38.0246 34.0603 38.0657 34.1507 38.0884C34.2412 38.1113 34.3353 38.1155 34.4274 38.1007L41.9807 38.0173H43.5247C45.3399 38.0173 44.2968 37.7669 44.5053 40.7088C44.6932 42.7954 46.3416 42.7955 42.5441 42.9207L34.5318 43.5257C34.3195 43.5365 34.1201 43.6298 33.9757 43.7859C33.8316 43.9417 33.7541 44.148 33.7597 44.3602C33.7624 44.4663 33.7862 44.5707 33.8299 44.6671C33.8735 44.7638 33.9362 44.8507 34.0139 44.9225C34.0918 44.9946 34.1832 45.0502 34.2828 45.0863C34.3826 45.1223 34.4885 45.138 34.5943 45.1323L42.5022 45.2575C43.4382 45.3623 44.383 45.3623 45.3191 45.2575C45.9357 45.1515 46.5082 44.8688 46.9674 44.4438C47.2876 44.0171 47.4566 43.4957 47.4474 42.9623C47.4089 42.1446 47.3251 41.3296 47.197 40.5211C47.1955 39.5767 47.1118 38.6342 46.9466 37.7042Z" fill="#BADE4F"/>
</g>
<defs>
<clipPath id="clip0_1270_3830">
<rect width="50" height="50" fill="white" transform="translate(0 0.5)"/>
</clipPath>
</defs>
</svg>
