<svg width="50" height="51" viewBox="0 0 50 51" fill="none" xmlns="http://www.w3.org/2000/svg">
<g clip-path="url(#clip0_1270_3848)">
<path d="M21.4976 3.03331C22.3026 2.99198 23.1093 2.99198 23.9143 3.03331H25.9143C26.7268 3.03331 27.4768 2.76248 28.3101 2.72081C28.4731 2.74479 28.6387 2.70352 28.7714 2.606C28.9041 2.50849 28.9929 2.36258 29.0185 2.19998C29.0333 2.11899 29.0314 2.03582 29.0129 1.95559C28.9943 1.87536 28.9597 1.79976 28.911 1.73343C28.8622 1.66709 28.8004 1.61143 28.7293 1.56985C28.6583 1.52827 28.5793 1.50166 28.4976 1.49165C27.6747 1.1357 26.8156 0.870255 25.9351 0.69998C25.5608 0.668773 25.1845 0.668773 24.8101 0.69998C24.4318 0.717799 24.0556 0.766574 23.6851 0.845814C22.8326 1.05381 21.997 1.32541 21.1851 1.65831C21.0893 1.68259 20.9991 1.72563 20.9197 1.78493C20.8406 1.84423 20.7738 1.91864 20.7234 2.00385C20.6731 2.08907 20.6401 2.1834 20.6264 2.28142C20.6127 2.37945 20.6185 2.47922 20.6435 2.57498C20.705 2.74277 20.8259 2.88214 20.9835 2.96664C21.1408 3.05112 21.3239 3.07485 21.4976 3.03331Z" fill="#BADE4F"/>
<path d="M50.0004 23.5558C50.0004 23.3681 49.9256 23.1879 49.7929 23.055C49.66 22.9221 49.4797 22.8475 49.2918 22.8475C49.1039 22.8475 48.9239 22.9221 48.791 23.055C48.6581 23.1879 48.5835 23.3681 48.5835 23.5558V25.6393C48.5835 26.2852 48.5835 27.0771 48.4793 27.7229C48.2743 29.6868 47.8047 31.6141 47.0833 33.4525C46.3797 35.3023 45.4637 37.0641 44.3539 38.7029C42.0062 41.9885 38.7252 44.4929 34.9366 45.891C31.1568 47.376 27.087 47.9748 23.0398 47.641C20.7987 47.451 18.5922 46.9677 16.4768 46.2035C14.3714 45.5373 12.3925 44.5233 10.6222 43.2033C8.05404 41.0587 5.99692 38.3681 4.60088 35.3277C3.17548 32.2358 2.3686 28.8952 2.22569 25.4935C2.22027 25.3314 2.15204 25.1777 2.0354 25.065C1.91877 24.9523 1.76286 24.8891 1.60063 24.8893C1.43297 24.8948 1.27399 24.9652 1.15734 25.0856C1.04068 25.2062 0.975499 25.3675 0.975586 25.5352C0.983203 29.1104 1.69103 32.6496 3.05908 35.9527C4.45035 39.3187 6.58754 42.325 9.30958 44.745C11.1706 46.3862 13.3081 47.6841 15.6226 48.5787C17.9214 49.4646 20.3347 50.0189 22.7898 50.2246C27.1964 50.5941 31.6283 49.9233 35.7283 48.2662C39.8489 46.6243 43.3729 43.7687 45.8333 40.0781C46.9689 38.2885 47.8918 36.3727 48.5835 34.3691C49.3056 32.3568 49.7406 30.2527 49.8752 28.1187V25.8685C50.0004 25.0768 50.0004 24.3268 50.0004 23.5558Z" fill="#BADE4F"/>
<path d="M25.8102 10.0543C25.1467 11.3272 24.7408 12.7184 24.6158 14.1483C24.4906 15.5783 24.6487 17.0189 25.081 18.3876C25.4846 19.7707 26.1704 21.0551 27.0956 22.1596C28.0208 23.264 29.165 24.1646 30.456 24.8044C33.0002 25.9802 35.8125 26.455 38.6019 26.1794C40.7346 26.0567 42.8002 25.3898 44.6019 24.2419C45.5358 23.6217 46.3308 22.8146 46.9369 21.8715C47.5429 20.9283 47.9467 19.8697 48.1227 18.7626C48.391 17.229 48.3556 15.6576 48.0185 14.1376C47.6639 12.5508 46.8527 11.1025 45.6852 9.97093C44.5937 8.99956 43.3162 8.26039 41.9302 7.79837C40.5442 7.33635 39.0785 7.16116 37.6227 7.28343C36.6031 7.34154 35.6125 7.64454 34.735 8.16675C33.8573 8.68898 33.1185 9.41504 32.581 10.2834C31.9167 11.4684 31.7373 12.8649 32.081 14.1793C32.226 14.844 32.5085 15.471 32.9104 16.02C33.3123 16.5689 33.8246 17.0277 34.4144 17.3668C35.5125 17.9262 36.7577 18.1301 37.9769 17.9501C38.4308 17.8875 38.8612 17.7089 39.226 17.4315C39.591 17.1542 39.8783 16.7875 40.0602 16.3668C40.0985 16.282 40.1198 16.1904 40.1227 16.0974C40.1256 16.0044 40.1102 15.9117 40.0775 15.8246C40.0446 15.7376 39.9948 15.6578 39.931 15.59C39.8673 15.5222 39.7908 15.4675 39.706 15.4293C39.5317 15.3587 39.3367 15.3584 39.1619 15.4282C38.9871 15.4981 38.8462 15.6329 38.7685 15.8043C38.5185 16.3876 37.8727 16.5334 37.2269 16.5543C36.5023 16.5384 35.7904 16.3604 35.1435 16.0334C34.7689 15.8041 34.4448 15.5013 34.1906 15.1432C33.9364 14.7852 33.7573 14.3793 33.6644 13.9501C33.4379 13.0599 33.5727 12.1163 34.0394 11.3251C34.5767 10.5522 35.321 9.94671 36.1871 9.57814C37.0533 9.2096 38.0058 9.093 38.9352 9.24177C40.9033 9.37725 42.7646 10.1865 44.206 11.5334C45.0325 12.3921 45.5964 13.4691 45.831 14.6376C46.0704 15.8691 46.0704 17.1352 45.831 18.3668C45.6914 19.1642 45.3879 19.924 44.9396 20.5981C44.4914 21.2723 43.9081 21.846 43.2269 22.2835C41.7677 23.2021 40.0952 23.726 38.3727 23.8044C36.0102 24.0473 33.6254 23.6665 31.456 22.7002C30.4229 22.2112 29.5012 21.5152 28.7487 20.655C27.996 19.7948 27.4283 18.789 27.081 17.7001C26.3296 15.4647 26.4944 13.0226 27.5394 10.9084C28.6098 8.6986 30.2583 6.81968 32.3102 5.47093C33.9254 4.29929 35.8242 3.58008 37.8102 3.3876C38.7837 3.33508 39.7573 3.4941 40.6635 3.85375C41.5698 4.21337 42.3875 4.7651 43.0602 5.47093C43.176 5.54654 43.3135 5.58164 43.4512 5.57073C43.5892 5.55981 43.7194 5.5035 43.8219 5.41062C43.9244 5.31775 43.9929 5.19352 44.0173 5.05741C44.0414 4.92131 44.02 4.781 43.956 4.65843C43.1702 3.7885 42.2035 3.10091 41.1237 2.64387C40.0442 2.18682 38.8777 1.97137 37.706 2.01261C35.4421 2.13821 33.2508 2.85666 31.3519 4.09593C29.0004 5.5451 27.0854 7.60412 25.8102 10.0543Z" fill="#BADE4F"/>
<path d="M11.4752 25.4917C16.1836 25.4917 20.6211 23.0125 21.2669 17.7417C21.4035 16.3262 21.2038 14.8985 20.6836 13.575C20.2013 12.2029 19.3766 10.9767 18.2877 10.0125C16.85 8.92104 15.0686 8.38144 13.2669 8.49169C12.3507 8.51383 11.4515 8.74271 10.6362 9.16117C9.82088 9.57965 9.11065 10.1769 8.55856 10.9084C8.10802 11.6758 7.8705 12.5496 7.8705 13.4396C7.8705 14.3295 8.10802 15.2034 8.55856 15.9709C8.87879 16.5309 9.38842 16.9582 9.99569 17.1759C10.6029 17.3936 11.268 17.3874 11.8711 17.1584C11.9594 17.1323 12.0417 17.0887 12.1129 17.0302C12.1841 16.9718 12.2428 16.8996 12.2856 16.8179C12.3283 16.7363 12.3542 16.6469 12.3618 16.5551C12.3693 16.4633 12.3583 16.3708 12.3294 16.2834C12.2762 16.1042 12.1545 15.9533 11.9906 15.8636C11.8267 15.7739 11.634 15.7525 11.4544 15.8042C10.4752 16.0959 9.85023 15.3875 9.5794 14.5334C9.41021 14.0779 9.34669 13.5899 9.39358 13.1064C9.4405 12.6228 9.59665 12.1561 9.85023 11.7417C10.2854 11.2541 10.823 10.8687 11.4244 10.6131C12.0259 10.3574 12.6763 10.2376 13.3294 10.2625C14.6713 10.2251 15.9838 10.6601 17.0377 11.4917C17.8358 12.2366 18.4247 13.1775 18.7461 14.2209C19.1216 15.2387 19.2501 16.3311 19.1211 17.4084C18.5586 21.4292 15.0794 23.1167 11.4961 23.075C9.698 23.1584 7.91408 22.7211 6.35833 21.8156C4.8026 20.9103 3.54112 19.5753 2.72523 17.9709C1.10023 14.0334 3.12106 9.51252 6.24606 6.61669C9.37106 3.72085 14.2669 2.45001 17.9336 5.36669C17.9929 5.43242 18.0655 5.48481 18.1465 5.5204C18.2276 5.55596 18.3153 5.57392 18.4039 5.57302C18.4924 5.57215 18.5797 5.55248 18.6601 5.51529C18.7404 5.47812 18.812 5.42429 18.87 5.3574C18.928 5.29048 18.9711 5.21202 18.9964 5.12721C19.0218 5.04237 19.0289 4.95312 19.0172 4.86537C19.0055 4.7776 18.9752 4.69333 18.9285 4.61814C18.8818 4.54294 18.8196 4.47854 18.7461 4.42919C14.7044 0.741678 9.16273 1.92918 5.16273 5.28335C1.16273 8.63752 -1.1706 14.0334 0.600231 18.8042C1.56272 20.8584 3.10519 22.5861 5.03756 23.7744C6.96994 24.9627 9.20775 25.5596 11.4752 25.4917Z" fill="#BADE4F"/>
<path d="M36.6847 30.3689C36.6876 30.2768 36.6717 30.1852 36.6384 30.0993C36.6051 30.0135 36.5549 29.9354 36.4909 29.8691C36.4267 29.8031 36.3501 29.7506 36.2653 29.7148C36.1803 29.6789 36.0892 29.6606 35.9972 29.6606C33.2222 29.4846 30.4388 29.4846 27.6638 29.6606C26.4557 29.7435 25.2526 29.8896 24.0597 30.0981C22.8699 30.3018 21.6938 30.5802 20.5388 30.9314C17.8362 31.7839 15.2636 33.0035 12.893 34.5564C12.8208 34.5935 12.7568 34.645 12.7049 34.7075C12.653 34.7698 12.6142 34.8421 12.5909 34.92C12.5676 34.9977 12.5602 35.0793 12.5691 35.1602C12.5781 35.2408 12.6032 35.3189 12.643 35.3898C12.6823 35.4627 12.7356 35.5271 12.7999 35.5791C12.8643 35.6312 12.9383 35.6702 13.0178 35.6933C13.0973 35.7166 13.1806 35.7239 13.2629 35.7146C13.3452 35.7054 13.4248 35.68 13.4972 35.6398C16.2816 34.3646 19.2138 33.4408 22.2263 32.8898H22.4763C22.7263 33.3481 22.9555 33.8064 23.1638 34.2856C23.4026 34.8114 23.5774 35.3639 23.6847 35.9314C23.8036 37.5106 24.0476 39.0781 24.4138 40.6189C24.8822 41.8279 25.7797 42.8216 26.9347 43.4106C28.1986 44.166 29.6967 44.4287 31.1422 44.1481C32.5876 43.8675 33.8786 43.0633 34.768 41.8898C35.9369 40.3883 36.6811 38.6006 36.923 36.7133C37.1649 34.8258 36.8955 32.9083 36.143 31.1606C36.2313 31.1456 36.3157 31.1131 36.3911 31.0648C36.4665 31.0164 36.5313 30.9535 36.5819 30.8798C36.6324 30.8058 36.6676 30.7225 36.6853 30.6348C36.703 30.5471 36.7028 30.4566 36.6847 30.3689ZM33.9972 39.0356C32.7263 41.1189 30.5805 42.6189 28.018 41.1189C27.3078 40.8185 26.7303 40.2708 26.393 39.5773C25.9376 38.2162 25.5824 36.8235 25.3305 35.4106C25.178 34.8989 24.9757 34.4035 24.7263 33.9314C24.4763 33.4314 24.1847 32.9731 23.893 32.4939C25.143 32.2648 26.393 32.0356 27.643 31.8689C29.9763 31.5356 32.3097 31.3064 34.6638 31.1606C35.1703 32.4352 35.3736 33.81 35.258 35.1766C35.1422 36.5431 34.7107 37.8641 33.9972 39.0356Z" fill="#BADE4F"/>
</g>
<defs>
<clipPath id="clip0_1270_3848">
<rect width="50" height="50" fill="white" transform="translate(0 0.5)"/>
</clipPath>
</defs>
</svg>
