<svg width="50" height="51" viewBox="0 0 50 51" fill="none" xmlns="http://www.w3.org/2000/svg">
<g clip-path="url(#clip0_1270_3863)">
<path fill-rule="evenodd" clip-rule="evenodd" d="M39.0738 16.195C38.365 15.586 37.6071 15.0367 36.8077 14.5527C37.1273 14.3615 37.4269 14.1387 37.7017 13.8875C37.9282 13.5957 38.1365 13.2903 38.3254 12.9728C38.3254 12.9728 38.9907 11.9334 39.0113 11.8711L39.2817 12.0582C39.9261 12.4739 40.5913 12.8065 41.1942 13.2639C41.2596 13.3307 41.3377 13.3841 41.4238 13.4208C41.5098 13.4575 41.6025 13.4769 41.6961 13.4779C41.7896 13.4788 41.8825 13.4614 41.9694 13.4264C42.0563 13.3915 42.1354 13.3398 42.2023 13.2743C42.2692 13.2087 42.3225 13.1307 42.3592 13.0446C42.3961 12.9584 42.4154 12.8659 42.4163 12.7723C42.4173 12.6787 42.3998 12.5858 42.3648 12.4989C42.33 12.4121 42.2782 12.3329 42.2127 12.266C41.7567 11.5775 41.2494 10.9244 40.6952 10.312C40.459 10.0553 40.2017 9.81885 39.9261 9.60519C39.6561 9.38708 39.3634 9.1989 39.0529 9.0439C38.3088 8.66248 37.5196 8.37615 36.704 8.19158C36.6304 8.15221 36.5498 8.12794 36.4669 8.12023C36.3838 8.11252 36.3 8.12152 36.2207 8.14671C36.1413 8.17192 36.0675 8.21277 36.0042 8.2669C35.9409 8.32102 35.889 8.38731 35.8515 8.46183C35.7827 8.61208 35.7721 8.7826 35.8221 8.94017C35.8721 9.09773 35.979 9.23104 36.1219 9.31415C36.5792 9.66754 37.0573 10.2704 37.7434 10.9148H37.8888C37.5577 11.0507 37.2436 11.2251 36.9534 11.4345C36.6277 11.6182 36.3213 11.8341 36.0386 12.079C35.7971 12.3567 35.5815 12.656 35.3942 12.9728L35.0617 13.5965C32.9381 12.5951 30.685 11.8954 28.3679 11.5177C28.6173 11.5177 28.5759 10.7901 28.6173 10.6238C28.6877 10.3791 28.7363 10.1287 28.7629 9.87542C28.8136 9.50296 28.8136 9.12533 28.7629 8.75287C28.6357 8.04925 28.4619 7.35479 28.2432 6.67406C29.0746 6.67406 29.9269 6.67406 30.8625 6.52854C31.595 6.48887 32.3077 6.27508 32.9413 5.90492C33.2563 5.66877 33.4977 5.34804 33.6375 4.98002C33.7773 4.612 33.8098 4.21185 33.7313 3.8261C33.6892 3.45725 33.5692 3.10154 33.3792 2.78258C33.1892 2.46361 32.9338 2.18867 32.6294 1.97597C31.5594 1.393 30.3742 1.05236 29.1577 0.978148C27.3123 0.704456 25.4517 0.544778 23.5867 0.500023C22.2786 0.497885 20.9744 0.64434 19.6993 0.936571C19.0686 1.04995 18.4441 1.19566 17.8284 1.37312C17.4992 1.46869 17.1844 1.60855 16.8929 1.78888C16.2765 2.15193 15.7864 2.69552 15.489 3.34617C15.1915 3.99679 15.1011 4.72308 15.2299 5.42679C15.3683 5.93871 15.6804 6.3866 16.1128 6.69377C16.5451 7.00094 17.0707 7.14829 17.5997 7.11062L21.3623 6.73644C21.3582 6.79179 21.3582 6.84737 21.3623 6.90273L21.1129 7.73425C21.1129 7.96292 20.9882 8.17081 20.9673 8.39948C20.9259 8.75165 20.9259 9.10748 20.9673 9.45967C21.0269 9.86727 21.1388 10.2655 21.3 10.6446V10.9772C20.4507 11.015 19.6042 11.0983 18.7638 11.2266C16.7263 11.5338 14.7694 12.2403 13.0055 13.3054L12.8184 12.952C12.6363 12.6617 12.4349 12.3839 12.2156 12.1205C11.9274 11.8891 11.6216 11.6806 11.3009 11.4969L10.8644 11.289L11.0307 11.1643C11.779 10.4783 12.3819 9.68833 13.1095 8.83602C13.2418 8.73679 13.3293 8.58904 13.3527 8.42531C13.3761 8.26156 13.3334 8.09525 13.2342 7.96292C13.1312 7.82923 12.9799 7.74127 12.8127 7.71794C12.6456 7.69462 12.476 7.73779 12.3403 7.83819C11.4257 8.29554 10.6149 8.62815 9.84576 9.08548C9.5034 9.29712 9.17686 9.53333 8.86871 9.79227C8.55565 10.0601 8.25726 10.3446 7.97484 10.6446C7.35228 11.3745 6.78921 12.153 6.29101 12.9728C6.15769 13.1088 6.08303 13.2917 6.08303 13.4821C6.08303 13.6726 6.15769 13.8554 6.29101 13.9915C6.42944 14.12 6.61138 14.1915 6.80032 14.1915C6.98926 14.1915 7.17119 14.12 7.30961 13.9915C8.07878 13.347 8.82715 12.8897 9.49236 12.3908C9.36763 12.5571 9.84576 13.056 9.88734 13.1184C10.0619 13.4219 10.2564 13.7135 10.4694 13.9915C10.7355 14.2291 11.0205 14.4446 11.3217 14.6359C8.58638 16.9095 6.59515 19.9506 5.60501 23.3669C4.70009 26.31 4.3939 29.4046 4.70453 32.4679C5.01515 35.5312 5.93628 38.5015 7.41357 41.2029C8.81132 43.3904 10.6366 45.2731 12.78 46.7377C14.9233 48.2023 17.3405 49.2188 19.8864 49.726C24.8348 50.9854 30.0498 50.7027 34.8329 48.9154C34.9206 48.8829 35.0011 48.8335 35.0694 48.77C35.1379 48.7062 35.1929 48.6298 35.2317 48.5448C35.2702 48.4596 35.2917 48.3677 35.2946 48.2744C35.2975 48.181 35.2819 48.0879 35.2488 48.0006C35.175 47.8258 35.0361 47.6869 34.8613 47.6129C34.6865 47.5392 34.4898 47.5367 34.3134 47.6056C31.8161 48.5106 29.1734 48.9475 26.5177 48.8946C26.6227 48.4904 26.7061 48.081 26.7671 47.6681C26.7867 47.4398 26.7867 47.2102 26.7671 46.9821C26.7977 46.7544 26.7977 46.5237 26.7671 46.296C26.6059 45.7387 26.3973 45.1962 26.1436 44.6746C26.1182 44.5131 26.0342 44.3667 25.9077 44.2631C25.7811 44.1596 25.6209 44.1063 25.4575 44.1133C25.3754 44.121 25.2959 44.145 25.2232 44.1838C25.1504 44.2227 25.0861 44.2754 25.0338 44.3392C24.9817 44.4031 24.9425 44.4765 24.919 44.5554C24.8954 44.6344 24.8877 44.7173 24.8963 44.7994C24.7509 45.4437 24.5638 45.8596 24.4804 46.3792C24.4592 46.6073 24.4592 46.8371 24.4804 47.0652C24.4804 47.2731 24.4804 47.5017 24.5844 47.7512C24.6757 48.1173 24.7867 48.4781 24.9171 48.8321C23.3796 48.7129 21.8559 48.4554 20.3645 48.0631C17.9638 47.4479 15.6907 46.4133 13.65 45.0071C14.0034 44.7577 14.3568 44.529 14.6686 44.2796C14.99 44.0206 15.2827 43.7279 15.5417 43.4065C15.9667 42.7619 16.3024 42.0625 16.5395 41.3277C16.5914 41.2633 16.6295 41.189 16.6515 41.1092C16.6734 41.0294 16.6787 40.9458 16.667 40.864C16.6553 40.7821 16.6269 40.7035 16.5835 40.6331C16.5401 40.5627 16.4827 40.5019 16.4148 40.4546C16.285 40.3531 16.1204 40.3071 15.9568 40.3265C15.7932 40.346 15.644 40.4294 15.5417 40.5585C15.0428 40.9327 14.5231 41.1615 14.0242 41.5356C13.7857 41.6942 13.5629 41.8752 13.3589 42.076C13.1813 42.2746 13.0148 42.4829 12.86 42.6998C12.6314 43.074 12.4235 43.469 12.1948 43.8846C10.9775 42.8327 9.95684 41.5727 9.18055 40.1635C7.77661 37.4654 6.98182 34.4921 6.85228 31.4533C7.28884 31.5573 7.70459 31.6612 8.12036 31.7235C8.53457 31.7744 8.95342 31.7744 9.36763 31.7235C10.0822 31.6065 10.7801 31.404 11.4464 31.1208C11.5276 31.1156 11.6068 31.0942 11.6795 31.0575C11.7521 31.021 11.8165 30.97 11.869 30.9079C11.9214 30.8458 11.9607 30.7738 11.9846 30.6958C12.0084 30.6181 12.0163 30.5365 12.0077 30.4556C12.0024 30.3735 11.981 30.2935 11.9447 30.2198C11.9084 30.1462 11.8578 30.0804 11.796 30.0262C11.7342 29.9723 11.6623 29.9308 11.5845 29.9046C11.5067 29.8785 11.4244 29.8679 11.3425 29.8735C10.7189 29.7487 10.1992 29.5202 9.57551 29.3954C9.31957 29.374 9.0623 29.374 8.80636 29.3954C8.54344 29.3748 8.27932 29.3748 8.01642 29.3954C7.58788 29.465 7.16432 29.5621 6.74834 29.6865C6.81496 27.7371 7.15073 25.8062 7.74617 23.949C8.3989 22.021 9.39161 20.2258 10.6773 18.648C11.0723 19.1469 11.3217 19.6458 11.7167 20.1447C11.8755 20.345 12.0568 20.5264 12.2572 20.6852C12.4508 20.8655 12.6675 21.0192 12.9016 21.1425C13.4453 21.4792 14.0153 21.7712 14.6062 22.0156C14.6797 22.0735 14.7639 22.1162 14.854 22.1412C14.9442 22.1665 15.0384 22.1733 15.1312 22.1617C15.224 22.15 15.3136 22.1202 15.3948 22.0737C15.4759 22.0273 15.5471 21.965 15.604 21.8908C15.7134 21.7379 15.7593 21.5487 15.7322 21.3627C15.705 21.1767 15.607 21.0084 15.4585 20.8931C15.022 20.3526 14.7309 19.8537 14.336 19.4171C14.0751 19.0965 13.7748 18.8101 13.4421 18.5648C12.7905 18.1683 12.0922 17.8541 11.3633 17.6294C13.4561 15.456 16.2284 14.0626 19.2212 13.6796C20.9527 13.4026 22.7075 13.2982 24.4598 13.3678C24.4523 13.4577 24.4523 13.5481 24.4598 13.6381C24.4384 13.894 24.4384 14.1513 24.4598 14.4072C24.44 14.6701 24.44 14.9342 24.4598 15.1972C24.4598 15.7792 24.7509 16.3613 24.9379 17.0265C24.9538 17.2159 25.0431 17.3915 25.1869 17.5158C25.3307 17.6401 25.5173 17.7033 25.7071 17.6917C25.8965 17.6758 26.0719 17.5864 26.1963 17.4426C26.3207 17.2989 26.3838 17.1122 26.3723 16.9226C26.3723 16.2574 26.6634 15.6961 26.7257 15.114C26.7863 14.7074 26.7863 14.2941 26.7257 13.8875C26.7352 13.763 26.7352 13.6379 26.7257 13.5133C30.3588 13.8413 33.8492 15.0858 36.8702 17.1304L36.5375 17.3383C36.329 17.4945 36.1342 17.6684 35.9554 17.858C35.7798 18.0528 35.6198 18.2614 35.4773 18.4817C35.1386 19.0238 34.8331 19.5861 34.5627 20.1655C34.504 20.2378 34.4602 20.321 34.4336 20.4103C34.4071 20.4996 34.3984 20.5933 34.4079 20.6859C34.4177 20.7786 34.4454 20.8684 34.4898 20.9504C34.5342 21.0322 34.5944 21.1046 34.6667 21.1633C34.8127 21.2819 35 21.3375 35.1871 21.318C35.2798 21.3084 35.3696 21.2805 35.4515 21.2362C35.5334 21.1918 35.6059 21.1317 35.6644 21.0594C36.205 20.6436 36.7246 20.3734 37.1821 19.9784C37.4982 19.752 37.7906 19.4944 38.055 19.2092C38.2088 18.9901 38.3477 18.7609 38.4709 18.5233C41.7127 21.6437 43.5948 25.9158 43.7094 30.414C43.1481 30.2892 42.6492 30.0815 42.0671 29.9775C41.8113 29.956 41.554 29.956 41.2979 29.9775C41.0356 29.9467 40.7704 29.9467 40.5081 29.9775C39.8756 30.0827 39.2509 30.2285 38.6371 30.414C38.4479 30.4248 38.2702 30.509 38.1421 30.6488C38.014 30.7885 37.9454 30.9729 37.9511 31.1623C37.9619 31.3517 38.0461 31.5294 38.1859 31.6575C38.3256 31.7856 38.51 31.8542 38.6996 31.8483C39.3854 31.9523 39.9469 32.1602 40.529 32.2225C40.9431 32.2733 41.3619 32.2733 41.7761 32.2225C42.4425 32.1325 43.0931 31.9506 43.7094 31.6821C43.7309 32.9519 43.6823 34.2219 43.564 35.4862C43.3667 37.6192 42.7071 39.6835 41.6306 41.5356C41.2992 42.0681 40.9384 42.5817 40.5496 43.074C40.5042 42.9792 40.4319 42.8996 40.3417 42.8452C39.9052 42.3048 39.6142 41.8058 39.2192 41.3694C38.9584 41.0487 38.6579 40.7623 38.3254 40.5169C37.68 40.1085 36.9802 39.7935 36.2465 39.5815C36.1109 39.481 35.9413 39.4379 35.7742 39.4613C35.6069 39.4846 35.4556 39.5725 35.3527 39.7062C35.2596 39.846 35.2227 40.016 35.2498 40.1817C35.2769 40.3475 35.3654 40.4971 35.4982 40.6002C35.8932 41.099 36.1425 41.5979 36.5375 42.076C36.6904 42.2877 36.8723 42.4767 37.0782 42.6373C37.2769 42.811 37.4929 42.9644 37.7225 43.0946C38.2686 43.4271 38.8384 43.719 39.4271 43.9677L39.635 44.0717C38.8961 44.8446 38.0813 45.541 37.2027 46.1506C37.1331 46.1956 37.0731 46.254 37.0261 46.3221C36.979 46.3904 36.9459 46.4673 36.9284 46.5483C36.9111 46.6294 36.9098 46.7131 36.9248 46.7946C36.9398 46.8762 36.9706 46.954 37.0157 47.0235C37.0606 47.0933 37.119 47.1533 37.1873 47.2004C37.2556 47.2475 37.3325 47.2806 37.4136 47.2979C37.4946 47.3154 37.5784 47.3167 37.6598 47.3017C37.7415 47.2867 37.8192 47.2558 37.8888 47.2106C39.8598 45.9742 41.529 44.3121 42.774 42.3462C43.9971 40.3644 44.7902 38.1477 45.1023 35.8396C46.3911 26.1525 43.5223 19.9784 39.0738 16.195ZM17.0384 4.78235C17.0852 4.53421 17.1908 4.3009 17.3463 4.10198C17.5018 3.90304 17.7028 3.74429 17.9323 3.63902C18.1523 3.52098 18.3917 3.44352 18.6391 3.41035C19.1588 3.41035 19.6785 3.26483 20.1982 3.18169C21.3148 2.96912 22.4502 2.8716 23.5867 2.89065C25.3667 2.93292 27.1434 3.07171 28.9084 3.30642C29.6113 3.34144 30.3084 3.45296 30.9871 3.63902C31.3613 3.76375 31.7771 3.88848 31.8394 4.28344C31.9019 4.67842 31.8394 4.47054 31.6523 4.5121C31.355 4.61083 31.0486 4.68046 30.7377 4.72C29.4282 4.90708 28.264 5.03181 27.1206 5.13575C22.9629 5.48915 19.5953 5.406 17.766 5.406C17.2255 5.36442 17.0176 5.09417 17.0384 4.78235ZM22.9838 11.0188L23.1086 10.5822C23.1086 10.2912 23.254 10.0625 23.3165 9.77148C23.3371 9.59192 23.3371 9.41056 23.3165 9.231C23.2917 8.75669 23.2363 8.28448 23.15 7.81742C23.15 6.69485 23.15 6.69485 26.5594 6.778C26.4479 7.34727 26.3784 7.92396 26.3515 8.50342C26.3202 8.86306 26.3202 9.22475 26.3515 9.5844C26.3515 9.93779 26.5386 10.2496 26.6009 10.5822C26.6634 10.9148 26.6009 10.9772 26.7257 11.2474C25.4636 11.0914 24.1929 11.0151 22.9215 11.0188H22.9838Z" fill="#BADE4F"/>
<path fill-rule="evenodd" clip-rule="evenodd" d="M22.0281 31.7861C21.9464 32.4475 22.0652 33.1181 22.3692 33.7111C22.6731 34.3042 23.1481 34.7923 23.7327 35.1121C24.3717 35.345 25.0621 35.3983 25.7289 35.2663C26.396 35.1344 27.0142 34.8223 27.5162 34.3638C30.3227 31.9108 27.5162 29.6033 26.7679 29.1461C26.4067 28.9458 26.0098 28.8192 25.5994 28.7727C25.1892 28.7263 24.7739 28.7613 24.3773 28.8756C23.9823 28.0027 23.6289 27.1502 23.2131 26.3396C22.9844 25.9031 22.735 25.5081 22.4856 25.1131C22.236 24.7181 21.9242 24.3231 21.6331 23.9698C20.9202 23.0813 20.1567 22.2346 19.3465 21.4336C19.2349 21.2866 19.0702 21.189 18.8877 21.1618C18.7051 21.1346 18.5191 21.1799 18.3695 21.2881C18.2937 21.3436 18.2298 21.4136 18.1814 21.494C18.1329 21.5744 18.101 21.6636 18.0875 21.7565C18.0739 21.8494 18.079 21.944 18.1025 22.035C18.1259 22.1258 18.1672 22.2111 18.224 22.2858C18.7021 23.1175 19.1594 24.1152 19.7623 25.1963C19.9697 25.6206 20.2059 26.0304 20.4691 26.4227C20.7204 26.8286 20.9981 27.2175 21.3006 27.5869C21.841 28.2729 22.4648 28.9173 23.1092 29.6656C22.5073 30.2208 22.1239 30.9729 22.0281 31.7861ZM26.0819 30.6219C26.7887 30.8506 28.1606 31.7861 26.3937 32.8671C26.1714 33.0379 25.906 33.144 25.6273 33.1733C25.3483 33.2027 25.0669 33.1544 24.8137 33.0333C24.4396 32.8463 24.3773 32.3681 24.3981 31.9523C24.4187 31.5367 24.3981 30.9961 24.9385 30.8298C25.0996 30.7081 25.2869 30.6258 25.4854 30.5896C25.6839 30.5536 25.8883 30.5646 26.0819 30.6219Z" fill="#BADE4F"/>
</g>
<defs>
<clipPath id="clip0_1270_3863">
<rect width="50" height="50" fill="white" transform="translate(0 0.5)"/>
</clipPath>
</defs>
</svg>
