<svg width="61" height="61" viewBox="0 0 61 61" fill="none" xmlns="http://www.w3.org/2000/svg">
<g filter="url(#filter0_iiii_286_1627)">
<path d="M10.0098 9.31274C10.0098 8.51709 10.3258 7.75403 10.8884 7.19142C11.4511 6.62881 12.2141 6.31274 13.0098 6.31274H47.9898C48.3837 6.31274 48.7738 6.39034 49.1378 6.54111C49.5018 6.69187 49.8325 6.91285 50.1111 7.19142C50.3897 7.47 50.6106 7.80072 50.7614 8.16469C50.9122 8.52867 50.9898 8.91878 50.9898 9.31274V53.8159C50.9898 54.2098 50.9122 54.5999 50.7614 54.9639C50.6106 55.3279 50.3897 55.6586 50.1111 55.9372C49.8325 56.2158 49.5018 56.4367 49.1378 56.5875C48.7738 56.7383 48.3837 56.8159 47.9898 56.8159H13.0098C12.6158 56.8159 12.2257 56.7383 11.8617 56.5875C11.4977 56.4367 11.167 56.2158 10.8884 55.9372C10.6099 55.6586 10.3889 55.3279 10.2381 54.9639C10.0874 54.5999 10.0098 54.2098 10.0098 53.8159V9.31274Z" fill="url(#paint0_linear_286_1627)"/>
<path d="M10.0098 9.31274C10.0098 8.51709 10.3258 7.75403 10.8884 7.19142C11.4511 6.62881 12.2141 6.31274 13.0098 6.31274H47.9898C48.3837 6.31274 48.7738 6.39034 49.1378 6.54111C49.5018 6.69187 49.8325 6.91285 50.1111 7.19142C50.3897 7.47 50.6106 7.80072 50.7614 8.16469C50.9122 8.52867 50.9898 8.91878 50.9898 9.31274V53.8159C50.9898 54.2098 50.9122 54.5999 50.7614 54.9639C50.6106 55.3279 50.3897 55.6586 50.1111 55.9372C49.8325 56.2158 49.5018 56.4367 49.1378 56.5875C48.7738 56.7383 48.3837 56.8159 47.9898 56.8159H13.0098C12.6158 56.8159 12.2257 56.7383 11.8617 56.5875C11.4977 56.4367 11.167 56.2158 10.8884 55.9372C10.6099 55.6586 10.3889 55.3279 10.2381 54.9639C10.0874 54.5999 10.0098 54.2098 10.0098 53.8159V9.31274Z" fill="url(#paint1_radial_286_1627)"/>
</g>
<g filter="url(#filter1_f_286_1627)">
<path d="M15.4082 10.9928C14.1145 10.9928 13.0645 12.0428 13.0645 13.3365V51.1965C13.0645 52.4903 14.1145 53.5403 15.4082 53.5403H35.4538C35.8267 53.54 36.1841 53.3916 36.4476 53.1278L46.1095 43.4659C46.3733 43.2025 46.5216 42.845 46.522 42.4722V13.3365C46.522 12.0428 45.472 10.9928 44.1782 10.9928H15.4082Z" fill="#CD7D52"/>
</g>
<g filter="url(#filter2_ii_286_1627)">
<path d="M16.0957 10.2897C14.802 10.2897 13.752 11.3397 13.752 12.6334V50.4934C13.752 51.7872 14.802 52.8372 16.0957 52.8372H36.1432C36.516 52.8368 36.8735 52.6885 37.137 52.4247L46.797 42.7628C47.0608 42.4993 47.2091 42.1419 47.2095 41.769V12.6334C47.2095 11.3397 46.1595 10.2897 44.8657 10.2897H16.0957Z" fill="url(#paint2_linear_286_1627)"/>
</g>
<path d="M42.6171 23.1522H18.3584C17.853 23.1522 17.4434 23.5619 17.4434 24.0672V24.0691C17.4434 24.5744 17.853 24.9841 18.3584 24.9841H42.6171C43.1224 24.9841 43.5321 24.5744 43.5321 24.0691V24.0672C43.5321 23.5619 43.1224 23.1522 42.6171 23.1522Z" fill="#9B96A2"/>
<path d="M42.6171 28.7903H18.3584C17.853 28.7903 17.4434 29.1999 17.4434 29.7053V29.7072C17.4434 30.2125 17.853 30.6222 18.3584 30.6222H42.6171C43.1224 30.6222 43.5321 30.2125 43.5321 29.7072V29.7053C43.5321 29.1999 43.1224 28.7903 42.6171 28.7903Z" fill="#9B96A2"/>
<path d="M42.6171 34.4303H18.3584C17.853 34.4303 17.4434 34.84 17.4434 35.3453V35.3472C17.4434 35.8525 17.853 36.2622 18.3584 36.2622H42.6171C43.1224 36.2622 43.5321 35.8525 43.5321 35.3472V35.3453C43.5321 34.84 43.1224 34.4303 42.6171 34.4303Z" fill="#9B96A2"/>
<path d="M33.3452 40.0703H18.3584C17.853 40.0703 17.4434 40.48 17.4434 40.9853V40.9872C17.4434 41.4925 17.853 41.9022 18.3584 41.9022H33.3452C33.8506 41.9022 34.2602 41.4925 34.2602 40.9872V40.9853C34.2602 40.48 33.8506 40.0703 33.3452 40.0703Z" fill="#9B96A2"/>
<g filter="url(#filter3_f_286_1627)">
<path d="M46.6386 41.9285H46.633C46.633 42.3391 46.4023 42.4347 46.1792 42.4591H38.1055C37.6185 42.4596 37.1516 42.6534 36.8074 42.9979C36.4632 43.3425 36.2698 43.8096 36.2698 44.2966V52.3497C36.2136 52.6253 35.8592 52.7828 35.6736 52.8297L35.668 52.8372H35.803C35.9841 52.8379 36.1635 52.8026 36.3309 52.7334C36.4982 52.6642 36.6502 52.5624 36.778 52.4341L46.2355 42.9728C46.3636 42.8453 46.4652 42.6936 46.5344 42.5266C46.6036 42.3596 46.639 42.1805 46.6386 41.9997V41.9285Z" fill="#D0C1E0"/>
</g>
<g filter="url(#filter4_ii_286_1627)">
<path d="M47.2089 41.6959H47.2014C47.2014 42.1159 46.967 42.2153 46.7402 42.2397H38.4939C37.9966 42.2397 37.5197 42.4372 37.1681 42.7888C36.8164 43.1405 36.6189 43.6174 36.6189 44.1147V52.3403C36.5627 52.6215 36.1989 52.7828 36.0095 52.8278L36.0039 52.8372H36.1408C36.5136 52.8368 36.8711 52.6885 37.1345 52.4247L46.7964 42.7628C47.0602 42.4993 47.2086 42.1419 47.2089 41.769V41.6959Z" fill="url(#paint3_linear_286_1627)"/>
</g>
<g filter="url(#filter5_f_286_1627)">
<path d="M20.7128 11.2272C20.7128 10.9785 20.8116 10.7401 20.9874 10.5643C21.1632 10.3884 21.4017 10.2897 21.6503 10.2897H38.8759V15.2715C38.8759 15.5202 38.7772 15.7586 38.6013 15.9345C38.4255 16.1103 38.1871 16.209 37.9384 16.209H21.6484C21.3998 16.209 21.1613 16.1103 20.9855 15.9345C20.8097 15.7586 20.7109 15.5202 20.7109 15.2715L20.7128 11.2272Z" fill="#CABFD5"/>
</g>
<g filter="url(#filter6_ii_286_1627)">
<path fill-rule="evenodd" clip-rule="evenodd" d="M30.4816 4.34216C32.5066 4.34216 34.1509 5.95841 34.2016 7.97029C34.2016 8.02091 34.2447 8.06404 34.2953 8.06404H36.0634C37.058 8.06404 38.0118 8.45913 38.7151 9.16239C39.4183 9.86565 39.8134 10.8195 39.8134 11.814V14.7503C39.8134 14.8744 39.789 14.9973 39.7415 15.1119C39.694 15.2266 39.6244 15.3308 39.5367 15.4185C39.4489 15.5063 39.3447 15.5759 39.2301 15.6234C39.1154 15.6708 38.9925 15.6953 38.8684 15.6953H22.1247C21.8741 15.6953 21.6337 15.5957 21.4565 15.4185C21.2792 15.2413 21.1797 15.0009 21.1797 14.7503V11.8159C21.1797 10.8214 21.5748 9.86752 22.278 9.16426C22.9813 8.461 23.9351 8.06591 24.9297 8.06591H26.6678C26.6927 8.06591 26.7165 8.05604 26.7341 8.03845C26.7517 8.02087 26.7616 7.99703 26.7616 7.97216C26.7855 7.00157 27.188 6.07881 27.8831 5.40092C28.5781 4.72303 29.5107 4.34374 30.4816 4.34404M30.4816 9.74966C30.7028 9.74966 30.9219 9.70609 31.1263 9.62142C31.3307 9.53676 31.5164 9.41267 31.6728 9.25623C31.8293 9.09979 31.9533 8.91407 32.038 8.70968C32.1227 8.50528 32.1662 8.28621 32.1662 8.06498C32.1662 7.84374 32.1227 7.62467 32.038 7.42027C31.9533 7.21588 31.8293 7.03016 31.6728 6.87372C31.5164 6.71728 31.3307 6.59319 31.1263 6.50853C30.9219 6.42386 30.7028 6.38029 30.4816 6.38029C30.0348 6.38029 29.6062 6.55778 29.2903 6.87372C28.9744 7.18966 28.7969 7.61817 28.7969 8.06498C28.7969 8.51178 28.9744 8.94029 29.2903 9.25623C29.6062 9.57217 30.0348 9.74966 30.4816 9.74966Z" fill="url(#paint4_linear_286_1627)"/>
</g>
<defs>
<filter id="filter0_iiii_286_1627" x="9.30977" y="5.81274" width="42.1805" height="51.5032" filterUnits="userSpaceOnUse" color-interpolation-filters="sRGB">
<feFlood flood-opacity="0" result="BackgroundImageFix"/>
<feBlend mode="normal" in="SourceGraphic" in2="BackgroundImageFix" result="shape"/>
<feColorMatrix in="SourceAlpha" type="matrix" values="0 0 0 0 0 0 0 0 0 0 0 0 0 0 0 0 0 0 127 0" result="hardAlpha"/>
<feOffset dx="0.5"/>
<feGaussianBlur stdDeviation="0.5"/>
<feComposite in2="hardAlpha" operator="arithmetic" k2="-1" k3="1"/>
<feColorMatrix type="matrix" values="0 0 0 0 0.670588 0 0 0 0 0.376471 0 0 0 0 0.278431 0 0 0 1 0"/>
<feBlend mode="normal" in2="shape" result="effect1_innerShadow_286_1627"/>
<feColorMatrix in="SourceAlpha" type="matrix" values="0 0 0 0 0 0 0 0 0 0 0 0 0 0 0 0 0 0 127 0" result="hardAlpha"/>
<feOffset dy="-0.5"/>
<feGaussianBlur stdDeviation="0.5"/>
<feComposite in2="hardAlpha" operator="arithmetic" k2="-1" k3="1"/>
<feColorMatrix type="matrix" values="0 0 0 0 0.643137 0 0 0 0 0.329412 0 0 0 0 0.364706 0 0 0 1 0"/>
<feBlend mode="normal" in2="effect1_innerShadow_286_1627" result="effect2_innerShadow_286_1627"/>
<feColorMatrix in="SourceAlpha" type="matrix" values="0 0 0 0 0 0 0 0 0 0 0 0 0 0 0 0 0 0 127 0" result="hardAlpha"/>
<feOffset dx="-0.7" dy="0.5"/>
<feGaussianBlur stdDeviation="0.45"/>
<feComposite in2="hardAlpha" operator="arithmetic" k2="-1" k3="1"/>
<feColorMatrix type="matrix" values="0 0 0 0 1 0 0 0 0 0.760784 0 0 0 0 0.529412 0 0 0 1 0"/>
<feBlend mode="normal" in2="effect2_innerShadow_286_1627" result="effect3_innerShadow_286_1627"/>
<feColorMatrix in="SourceAlpha" type="matrix" values="0 0 0 0 0 0 0 0 0 0 0 0 0 0 0 0 0 0 127 0" result="hardAlpha"/>
<feOffset dx="-0.1" dy="0.1"/>
<feGaussianBlur stdDeviation="0.2"/>
<feComposite in2="hardAlpha" operator="arithmetic" k2="-1" k3="1"/>
<feColorMatrix type="matrix" values="0 0 0 0 0.815686 0 0 0 0 0.560784 0 0 0 0 0.396078 0 0 0 1 0"/>
<feBlend mode="normal" in2="effect3_innerShadow_286_1627" result="effect4_innerShadow_286_1627"/>
</filter>
<filter id="filter1_f_286_1627" x="12.0645" y="9.9928" width="35.457" height="44.5475" filterUnits="userSpaceOnUse" color-interpolation-filters="sRGB">
<feFlood flood-opacity="0" result="BackgroundImageFix"/>
<feBlend mode="normal" in="SourceGraphic" in2="BackgroundImageFix" result="shape"/>
<feGaussianBlur stdDeviation="0.5" result="effect1_foregroundBlur_286_1627"/>
</filter>
<filter id="filter2_ii_286_1627" x="13.452" y="9.98967" width="34.057" height="43.1475" filterUnits="userSpaceOnUse" color-interpolation-filters="sRGB">
<feFlood flood-opacity="0" result="BackgroundImageFix"/>
<feBlend mode="normal" in="SourceGraphic" in2="BackgroundImageFix" result="shape"/>
<feColorMatrix in="SourceAlpha" type="matrix" values="0 0 0 0 0 0 0 0 0 0 0 0 0 0 0 0 0 0 127 0" result="hardAlpha"/>
<feOffset dx="0.3" dy="-0.3"/>
<feGaussianBlur stdDeviation="0.3"/>
<feComposite in2="hardAlpha" operator="arithmetic" k2="-1" k3="1"/>
<feColorMatrix type="matrix" values="0 0 0 0 0.792157 0 0 0 0 0.721569 0 0 0 0 0.862745 0 0 0 1 0"/>
<feBlend mode="normal" in2="shape" result="effect1_innerShadow_286_1627"/>
<feColorMatrix in="SourceAlpha" type="matrix" values="0 0 0 0 0 0 0 0 0 0 0 0 0 0 0 0 0 0 127 0" result="hardAlpha"/>
<feOffset dx="-0.3" dy="0.3"/>
<feGaussianBlur stdDeviation="0.3"/>
<feComposite in2="hardAlpha" operator="arithmetic" k2="-1" k3="1"/>
<feColorMatrix type="matrix" values="0 0 0 0 1 0 0 0 0 1 0 0 0 0 1 0 0 0 1 0"/>
<feBlend mode="normal" in2="effect1_innerShadow_286_1627" result="effect2_innerShadow_286_1627"/>
</filter>
<filter id="filter3_f_286_1627" x="35.168" y="41.4285" width="11.9707" height="11.9088" filterUnits="userSpaceOnUse" color-interpolation-filters="sRGB">
<feFlood flood-opacity="0" result="BackgroundImageFix"/>
<feBlend mode="normal" in="SourceGraphic" in2="BackgroundImageFix" result="shape"/>
<feGaussianBlur stdDeviation="0.25" result="effect1_foregroundBlur_286_1627"/>
</filter>
<filter id="filter4_ii_286_1627" x="36.0039" y="41.6959" width="11.5051" height="11.3412" filterUnits="userSpaceOnUse" color-interpolation-filters="sRGB">
<feFlood flood-opacity="0" result="BackgroundImageFix"/>
<feBlend mode="normal" in="SourceGraphic" in2="BackgroundImageFix" result="shape"/>
<feColorMatrix in="SourceAlpha" type="matrix" values="0 0 0 0 0 0 0 0 0 0 0 0 0 0 0 0 0 0 127 0" result="hardAlpha"/>
<feOffset dx="0.3"/>
<feGaussianBlur stdDeviation="0.25"/>
<feComposite in2="hardAlpha" operator="arithmetic" k2="-1" k3="1"/>
<feColorMatrix type="matrix" values="0 0 0 0 0.662745 0 0 0 0 0.611765 0 0 0 0 0.705882 0 0 0 1 0"/>
<feBlend mode="normal" in2="shape" result="effect1_innerShadow_286_1627"/>
<feColorMatrix in="SourceAlpha" type="matrix" values="0 0 0 0 0 0 0 0 0 0 0 0 0 0 0 0 0 0 127 0" result="hardAlpha"/>
<feOffset dy="0.2"/>
<feGaussianBlur stdDeviation="0.15"/>
<feComposite in2="hardAlpha" operator="arithmetic" k2="-1" k3="1"/>
<feColorMatrix type="matrix" values="0 0 0 0 0.878431 0 0 0 0 0.866667 0 0 0 0 0.890196 0 0 0 1 0"/>
<feBlend mode="normal" in2="effect1_innerShadow_286_1627" result="effect2_innerShadow_286_1627"/>
</filter>
<filter id="filter5_f_286_1627" x="19.9109" y="9.48967" width="19.7641" height="7.51943" filterUnits="userSpaceOnUse" color-interpolation-filters="sRGB">
<feFlood flood-opacity="0" result="BackgroundImageFix"/>
<feBlend mode="normal" in="SourceGraphic" in2="BackgroundImageFix" result="shape"/>
<feGaussianBlur stdDeviation="0.4" result="effect1_foregroundBlur_286_1627"/>
</filter>
<filter id="filter6_ii_286_1627" x="20.9797" y="4.14216" width="19.0328" height="11.7531" filterUnits="userSpaceOnUse" color-interpolation-filters="sRGB">
<feFlood flood-opacity="0" result="BackgroundImageFix"/>
<feBlend mode="normal" in="SourceGraphic" in2="BackgroundImageFix" result="shape"/>
<feColorMatrix in="SourceAlpha" type="matrix" values="0 0 0 0 0 0 0 0 0 0 0 0 0 0 0 0 0 0 127 0" result="hardAlpha"/>
<feOffset dx="0.2" dy="-0.2"/>
<feGaussianBlur stdDeviation="0.2"/>
<feComposite in2="hardAlpha" operator="arithmetic" k2="-1" k3="1"/>
<feColorMatrix type="matrix" values="0 0 0 0 0.556863 0 0 0 0 0.501961 0 0 0 0 0.572549 0 0 0 1 0"/>
<feBlend mode="normal" in2="shape" result="effect1_innerShadow_286_1627"/>
<feColorMatrix in="SourceAlpha" type="matrix" values="0 0 0 0 0 0 0 0 0 0 0 0 0 0 0 0 0 0 127 0" result="hardAlpha"/>
<feOffset dx="-0.2" dy="0.2"/>
<feGaussianBlur stdDeviation="0.1"/>
<feComposite in2="hardAlpha" operator="arithmetic" k2="-1" k3="1"/>
<feColorMatrix type="matrix" values="0 0 0 0 0.67451 0 0 0 0 0.65098 0 0 0 0 0.670588 0 0 0 1 0"/>
<feBlend mode="normal" in2="effect1_innerShadow_286_1627" result="effect2_innerShadow_286_1627"/>
</filter>
<linearGradient id="paint0_linear_286_1627" x1="30.4998" y1="6.31274" x2="30.4998" y2="56.814" gradientUnits="userSpaceOnUse">
<stop stop-color="#E8A874"/>
<stop offset="1" stop-color="#DB925D"/>
</linearGradient>
<radialGradient id="paint1_radial_286_1627" cx="0" cy="0" r="1" gradientUnits="userSpaceOnUse" gradientTransform="translate(29.9091 10.584) rotate(-90) scale(4.6875 3.8037)">
<stop stop-color="#D79769"/>
<stop offset="1" stop-color="#D79769" stop-opacity="0"/>
</radialGradient>
<linearGradient id="paint2_linear_286_1627" x1="30.4807" y1="10.2897" x2="30.4807" y2="52.8372" gradientUnits="userSpaceOnUse">
<stop stop-color="#EAE2F4"/>
<stop offset="1" stop-color="#E4DAEF"/>
</linearGradient>
<linearGradient id="paint3_linear_286_1627" x1="36.7652" y1="43.1622" x2="41.042" y2="47.7897" gradientUnits="userSpaceOnUse">
<stop stop-color="#D6CDE1"/>
<stop offset="1" stop-color="#C6BAD2"/>
</linearGradient>
<linearGradient id="paint4_linear_286_1627" x1="35.5947" y1="7.71154" x2="29.8516" y2="16.0328" gradientUnits="userSpaceOnUse">
<stop stop-color="#948A94"/>
<stop offset="1" stop-color="#8D8291"/>
</linearGradient>
</defs>
</svg>
