<svg width="61" height="61" viewBox="0 0 61 61" fill="none" xmlns="http://www.w3.org/2000/svg">
<mask id="mask0_286_1612" style="mask-type:luminance" maskUnits="userSpaceOnUse" x="0" y="0" width="61" height="61">
<path d="M0.5 0.622192H60.5V60.6222H0.5V0.622192Z" fill="white"/>
</mask>
<g mask="url(#mask0_286_1612)">
<path d="M20.3411 26.3435C22.5911 25.5147 24.7793 27.7029 23.9505 29.9547L19.0436 43.2935C18.9351 43.589 18.7538 43.8524 18.5166 44.0595C18.2794 44.2665 17.9939 44.4105 17.6864 44.4781C17.3789 44.5457 17.0593 44.5348 16.7572 44.4464C16.455 44.358 16.1799 44.1949 15.9574 43.9722L6.32365 34.3385C6.10138 34.1159 5.93868 33.841 5.85052 33.539C5.76237 33.2371 5.7516 32.9178 5.81921 32.6106C5.88681 32.3034 6.03061 32.0181 6.23738 31.7811C6.44414 31.544 6.70722 31.3628 7.0024 31.2541L20.3411 26.3435Z" fill="url(#paint0_linear_286_1612)"/>
<path d="M20.3411 26.3435C22.5911 25.5147 24.7793 27.7029 23.9505 29.9547L19.0436 43.2935C18.9351 43.589 18.7538 43.8524 18.5166 44.0595C18.2794 44.2665 17.9939 44.4105 17.6864 44.4781C17.3789 44.5457 17.0593 44.5348 16.7572 44.4464C16.455 44.358 16.1799 44.1949 15.9574 43.9722L6.32365 34.3385C6.10138 34.1159 5.93868 33.841 5.85052 33.539C5.76237 33.2371 5.7516 32.9178 5.81921 32.6106C5.88681 32.3034 6.03061 32.0181 6.23738 31.7811C6.44414 31.544 6.70722 31.3628 7.0024 31.2541L20.3411 26.3435Z" fill="url(#paint1_radial_286_1612)"/>
<path d="M20.3411 26.3435C22.5911 25.5147 24.7793 27.7029 23.9505 29.9547L19.0436 43.2935C18.9351 43.589 18.7538 43.8524 18.5166 44.0595C18.2794 44.2665 17.9939 44.4105 17.6864 44.4781C17.3789 44.5457 17.0593 44.5348 16.7572 44.4464C16.455 44.358 16.1799 44.1949 15.9574 43.9722L6.32365 34.3385C6.10138 34.1159 5.93868 33.841 5.85052 33.539C5.76237 33.2371 5.7516 32.9178 5.81921 32.6106C5.88681 32.3034 6.03061 32.0181 6.23738 31.7811C6.44414 31.544 6.70722 31.3628 7.0024 31.2541L20.3411 26.3435Z" fill="url(#paint2_linear_286_1612)"/>
<path d="M31.5911 37.5935C33.8411 36.7647 36.0292 38.9529 35.2004 41.2047L30.2898 54.5435C30.1811 54.8386 29.9999 55.1017 29.7628 55.3085C29.5258 55.5153 29.2405 55.6591 28.9333 55.7267C28.6261 55.7943 28.3068 55.7835 28.0049 55.6953C27.7029 55.6072 27.428 55.4445 27.2054 55.2222L17.5717 45.5885C17.3494 45.3659 17.1867 45.091 17.0986 44.789C17.0104 44.4871 16.9996 44.1678 17.0673 43.8606C17.1349 43.5534 17.2787 43.2681 17.4854 43.0311C17.6922 42.794 17.9553 42.6128 18.2504 42.5041L31.5911 37.5935Z" fill="url(#paint3_linear_286_1612)"/>
<path d="M31.5911 37.5935C33.8411 36.7647 36.0292 38.9529 35.2004 41.2047L30.2898 54.5435C30.1811 54.8386 29.9999 55.1017 29.7628 55.3085C29.5258 55.5153 29.2405 55.6591 28.9333 55.7267C28.6261 55.7943 28.3068 55.7835 28.0049 55.6953C27.7029 55.6072 27.428 55.4445 27.2054 55.2222L17.5717 45.5885C17.3494 45.3659 17.1867 45.091 17.0986 44.789C17.0104 44.4871 16.9996 44.1678 17.0673 43.8606C17.1349 43.5534 17.2787 43.2681 17.4854 43.0311C17.6922 42.794 17.9553 42.6128 18.2504 42.5041L31.5911 37.5935Z" fill="url(#paint4_radial_286_1612)"/>
<path d="M31.5911 37.5935C33.8411 36.7647 36.0292 38.9529 35.2004 41.2047L30.2898 54.5435C30.1811 54.8386 29.9999 55.1017 29.7628 55.3085C29.5258 55.5153 29.2405 55.6591 28.9333 55.7267C28.6261 55.7943 28.3068 55.7835 28.0049 55.6953C27.7029 55.6072 27.428 55.4445 27.2054 55.2222L17.5717 45.5885C17.3494 45.3659 17.1867 45.091 17.0986 44.789C17.0104 44.4871 16.9996 44.1678 17.0673 43.8606C17.1349 43.5534 17.2787 43.2681 17.4854 43.0311C17.6922 42.794 17.9553 42.6128 18.2504 42.5041L31.5911 37.5935Z" fill="url(#paint5_radial_286_1612)"/>
<g filter="url(#filter0_i_286_1612)">
<path d="M42.4996 7.27848C42.5509 7.25813 42.6071 7.25333 42.6611 7.26466C42.7151 7.276 42.7646 7.30298 42.8034 7.34223L53.8377 18.461C53.8767 18.5 53.9033 18.5496 53.9143 18.6036C53.9253 18.6576 53.9202 18.7136 53.8996 18.7647C51.2559 25.2522 47.6127 32.1522 42.7359 37.031C37.9846 41.7822 29.9484 45.8304 22.6921 48.8079L12.3965 38.5104C15.374 31.2541 19.4221 23.2197 24.1734 18.4685C29.0671 13.5747 35.9934 9.92411 42.4977 7.28036" fill="url(#paint6_linear_286_1612)"/>
<path d="M42.4996 7.27848C42.5509 7.25813 42.6071 7.25333 42.6611 7.26466C42.7151 7.276 42.7646 7.30298 42.8034 7.34223L53.8377 18.461C53.8767 18.5 53.9033 18.5496 53.9143 18.6036C53.9253 18.6576 53.9202 18.7136 53.8996 18.7647C51.2559 25.2522 47.6127 32.1522 42.7359 37.031C37.9846 41.7822 29.9484 45.8304 22.6921 48.8079L12.3965 38.5104C15.374 31.2541 19.4221 23.2197 24.1734 18.4685C29.0671 13.5747 35.9934 9.92411 42.4977 7.28036" fill="url(#paint7_radial_286_1612)"/>
<path d="M42.4996 7.27848C42.5509 7.25813 42.6071 7.25333 42.6611 7.26466C42.7151 7.276 42.7646 7.30298 42.8034 7.34223L53.8377 18.461C53.8767 18.5 53.9033 18.5496 53.9143 18.6036C53.9253 18.6576 53.9202 18.7136 53.8996 18.7647C51.2559 25.2522 47.6127 32.1522 42.7359 37.031C37.9846 41.7822 29.9484 45.8304 22.6921 48.8079L12.3965 38.5104C15.374 31.2541 19.4221 23.2197 24.1734 18.4685C29.0671 13.5747 35.9934 9.92411 42.4977 7.28036" fill="url(#paint8_radial_286_1612)"/>
<path d="M42.4996 7.27848C42.5509 7.25813 42.6071 7.25333 42.6611 7.26466C42.7151 7.276 42.7646 7.30298 42.8034 7.34223L53.8377 18.461C53.8767 18.5 53.9033 18.5496 53.9143 18.6036C53.9253 18.6576 53.9202 18.7136 53.8996 18.7647C51.2559 25.2522 47.6127 32.1522 42.7359 37.031C37.9846 41.7822 29.9484 45.8304 22.6921 48.8079L12.3965 38.5104C15.374 31.2541 19.4221 23.2197 24.1734 18.4685C29.0671 13.5747 35.9934 9.92411 42.4977 7.28036" fill="url(#paint9_radial_286_1612)"/>
<path d="M42.4996 7.27848C42.5509 7.25813 42.6071 7.25333 42.6611 7.26466C42.7151 7.276 42.7646 7.30298 42.8034 7.34223L53.8377 18.461C53.8767 18.5 53.9033 18.5496 53.9143 18.6036C53.9253 18.6576 53.9202 18.7136 53.8996 18.7647C51.2559 25.2522 47.6127 32.1522 42.7359 37.031C37.9846 41.7822 29.9484 45.8304 22.6921 48.8079L12.3965 38.5104C15.374 31.2541 19.4221 23.2197 24.1734 18.4685C29.0671 13.5747 35.9934 9.92411 42.4977 7.28036" fill="url(#paint10_radial_286_1612)"/>
</g>
<g filter="url(#filter1_dii_286_1612)">
<path d="M46.437 21.3634C46.4514 22.1998 46.2991 23.0306 45.989 23.8075C45.679 24.5844 45.2173 25.2917 44.6309 25.8883C44.0446 26.4849 43.3453 26.9587 42.5739 27.2821C41.8025 27.6055 40.9744 27.7721 40.1379 27.7721C39.3014 27.7721 38.4733 27.6055 37.7019 27.2821C36.9305 26.9587 36.2312 26.4849 35.6449 25.8883C35.0585 25.2917 34.5968 24.5844 34.2867 23.8075C33.9767 23.0306 33.8244 22.1998 33.8388 21.3634C33.8673 19.7116 34.5435 18.1371 35.7217 16.9791C36.8999 15.821 38.4858 15.1721 40.1379 15.1721C41.7899 15.1721 43.3759 15.821 44.5541 16.9791C45.7323 18.1371 46.4085 19.7116 46.437 21.3634Z" fill="url(#paint11_linear_286_1612)"/>
<path d="M46.437 21.3634C46.4514 22.1998 46.2991 23.0306 45.989 23.8075C45.679 24.5844 45.2173 25.2917 44.6309 25.8883C44.0446 26.4849 43.3453 26.9587 42.5739 27.2821C41.8025 27.6055 40.9744 27.7721 40.1379 27.7721C39.3014 27.7721 38.4733 27.6055 37.7019 27.2821C36.9305 26.9587 36.2312 26.4849 35.6449 25.8883C35.0585 25.2917 34.5968 24.5844 34.2867 23.8075C33.9767 23.0306 33.8244 22.1998 33.8388 21.3634C33.8673 19.7116 34.5435 18.1371 35.7217 16.9791C36.8999 15.821 38.4858 15.1721 40.1379 15.1721C41.7899 15.1721 43.3759 15.821 44.5541 16.9791C45.7323 18.1371 46.4085 19.7116 46.437 21.3634Z" fill="url(#paint12_radial_286_1612)"/>
</g>
<path d="M44.4989 21.3635C44.5109 21.9437 44.4071 22.5205 44.1933 23.06C43.9796 23.5996 43.6604 24.091 43.2543 24.5056C42.8482 24.9202 42.3634 25.2496 41.8284 25.4745C41.2934 25.6993 40.7189 25.8152 40.1386 25.8152C39.5583 25.8152 38.9838 25.6993 38.4487 25.4745C37.9137 25.2496 37.429 24.9202 37.0229 24.5056C36.6168 24.091 36.2976 23.5996 36.0839 23.06C35.8701 22.5205 35.7662 21.9437 35.7783 21.3635C35.8019 20.2227 36.2717 19.1366 37.0869 18.3382C37.902 17.5398 38.9976 17.0927 40.1386 17.0927C41.2796 17.0927 42.3752 17.5398 43.1903 18.3382C44.0055 19.1366 44.4752 20.2227 44.4989 21.3635Z" fill="url(#paint13_radial_286_1612)"/>
<g filter="url(#filter2_i_286_1612)">
<path d="M5.04342 55.9965C3.7178 54.6709 4.2503 45.4759 8.9378 43.6009C8.9378 43.6009 13.6253 41.7259 16.6459 44.7259C19.6665 47.7259 18.3128 51.1009 18.3128 51.1009C16.9872 55.0778 11.3434 56.6584 10.6797 55.9947C10.314 55.629 10.9722 54.9634 10.6797 54.6709C10.3872 54.3765 9.93342 54.7122 8.69217 55.3328C7.80717 55.7753 5.57405 56.5272 5.04342 55.9965Z" fill="url(#paint14_radial_286_1612)"/>
<path d="M5.04342 55.9965C3.7178 54.6709 4.2503 45.4759 8.9378 43.6009C8.9378 43.6009 13.6253 41.7259 16.6459 44.7259C19.6665 47.7259 18.3128 51.1009 18.3128 51.1009C16.9872 55.0778 11.3434 56.6584 10.6797 55.9947C10.314 55.629 10.9722 54.9634 10.6797 54.6709C10.3872 54.3765 9.93342 54.7122 8.69217 55.3328C7.80717 55.7753 5.57405 56.5272 5.04342 55.9965Z" fill="url(#paint15_radial_286_1612)"/>
</g>
<path d="M11.8635 39.9634C12.1247 39.7021 12.4348 39.4948 12.7761 39.3533C13.1175 39.2118 13.4833 39.139 13.8528 39.139C14.2223 39.139 14.5882 39.2118 14.9296 39.3533C15.2709 39.4948 15.581 39.7021 15.8422 39.9634L22.4703 46.5934C22.9737 47.1254 23.2498 47.8327 23.2398 48.565C23.2297 49.2973 22.9345 49.9969 22.4167 50.5149C21.899 51.0328 21.1996 51.3284 20.4673 51.3388C19.735 51.3492 19.0275 51.0735 18.4953 50.5703L11.8635 43.9422C11.6021 43.681 11.3948 43.3709 11.2533 43.0295C11.1119 42.6882 11.0391 42.3223 11.0391 41.9528C11.0391 41.5833 11.1119 41.2174 11.2533 40.8761C11.3948 40.5348 11.6021 40.2246 11.8635 39.9634Z" fill="url(#paint16_linear_286_1612)"/>
<path d="M11.8635 39.9634C12.1247 39.7021 12.4348 39.4948 12.7761 39.3533C13.1175 39.2118 13.4833 39.139 13.8528 39.139C14.2223 39.139 14.5882 39.2118 14.9296 39.3533C15.2709 39.4948 15.581 39.7021 15.8422 39.9634L22.4703 46.5934C22.9737 47.1254 23.2498 47.8327 23.2398 48.565C23.2297 49.2973 22.9345 49.9969 22.4167 50.5149C21.899 51.0328 21.1996 51.3284 20.4673 51.3388C19.735 51.3492 19.0275 51.0735 18.4953 50.5703L11.8635 43.9422C11.6021 43.681 11.3948 43.3709 11.2533 43.0295C11.1119 42.6882 11.0391 42.3223 11.0391 41.9528C11.0391 41.5833 11.1119 41.2174 11.2533 40.8761C11.3948 40.5348 11.6021 40.2246 11.8635 39.9634Z" fill="url(#paint17_radial_286_1612)"/>
<path d="M11.8635 39.9634C12.1247 39.7021 12.4348 39.4948 12.7761 39.3533C13.1175 39.2118 13.4833 39.139 13.8528 39.139C14.2223 39.139 14.5882 39.2118 14.9296 39.3533C15.2709 39.4948 15.581 39.7021 15.8422 39.9634L22.4703 46.5934C22.9737 47.1254 23.2498 47.8327 23.2398 48.565C23.2297 49.2973 22.9345 49.9969 22.4167 50.5149C21.899 51.0328 21.1996 51.3284 20.4673 51.3388C19.735 51.3492 19.0275 51.0735 18.4953 50.5703L11.8635 43.9422C11.6021 43.681 11.3948 43.3709 11.2533 43.0295C11.1119 42.6882 11.0391 42.3223 11.0391 41.9528C11.0391 41.5833 11.1119 41.2174 11.2533 40.8761C11.3948 40.5348 11.6021 40.2246 11.8635 39.9634Z" fill="url(#paint18_radial_286_1612)"/>
<path d="M55.1972 6.00534C53.4216 4.22971 50.3072 4.43034 48.0385 5.21034C46.3268 5.79728 44.63 6.42685 42.9497 7.09846C42.9211 7.10997 42.8957 7.12838 42.8758 7.15206C42.856 7.17574 42.8423 7.20395 42.836 7.2342C42.8297 7.26444 42.8309 7.29578 42.8397 7.32542C42.8484 7.35506 42.8643 7.38208 42.886 7.40409L53.7797 18.371C53.8016 18.3923 53.8284 18.4079 53.8577 18.4165C53.887 18.4251 53.918 18.4265 53.948 18.4204C53.9779 18.4143 54.0059 18.4009 54.0295 18.3815C54.0531 18.3621 54.0717 18.3373 54.0835 18.3091C54.7635 16.6111 55.4006 14.8961 55.9941 13.166C56.7629 10.9272 57.3816 8.18971 55.1972 6.00534Z" fill="url(#paint19_linear_286_1612)"/>
<path d="M55.1972 6.00534C53.4216 4.22971 50.3072 4.43034 48.0385 5.21034C46.3268 5.79728 44.63 6.42685 42.9497 7.09846C42.9211 7.10997 42.8957 7.12838 42.8758 7.15206C42.856 7.17574 42.8423 7.20395 42.836 7.2342C42.8297 7.26444 42.8309 7.29578 42.8397 7.32542C42.8484 7.35506 42.8643 7.38208 42.886 7.40409L53.7797 18.371C53.8016 18.3923 53.8284 18.4079 53.8577 18.4165C53.887 18.4251 53.918 18.4265 53.948 18.4204C53.9779 18.4143 54.0059 18.4009 54.0295 18.3815C54.0531 18.3621 54.0717 18.3373 54.0835 18.3091C54.7635 16.6111 55.4006 14.8961 55.9941 13.166C56.7629 10.9272 57.3816 8.18971 55.1972 6.00534Z" fill="url(#paint20_radial_286_1612)"/>
<path d="M55.1972 6.00534C53.4216 4.22971 50.3072 4.43034 48.0385 5.21034C46.3268 5.79728 44.63 6.42685 42.9497 7.09846C42.9211 7.10997 42.8957 7.12838 42.8758 7.15206C42.856 7.17574 42.8423 7.20395 42.836 7.2342C42.8297 7.26444 42.8309 7.29578 42.8397 7.32542C42.8484 7.35506 42.8643 7.38208 42.886 7.40409L53.7797 18.371C53.8016 18.3923 53.8284 18.4079 53.8577 18.4165C53.887 18.4251 53.918 18.4265 53.948 18.4204C53.9779 18.4143 54.0059 18.4009 54.0295 18.3815C54.0531 18.3621 54.0717 18.3373 54.0835 18.3091C54.7635 16.6111 55.4006 14.8961 55.9941 13.166C56.7629 10.9272 57.3816 8.18971 55.1972 6.00534Z" fill="url(#paint21_linear_286_1612)"/>
<path d="M25.9661 31.9685C28.2161 31.1397 30.4042 33.3279 29.5754 35.5797L24.6667 48.9185C24.5581 49.214 24.3769 49.4774 24.1397 49.6845C23.9025 49.8915 23.617 50.0355 23.3095 50.1031C23.002 50.1707 22.6824 50.1598 22.3802 50.0714C22.078 49.983 21.803 49.8199 21.5804 49.5972L11.9467 39.9635C11.7244 39.7409 11.5617 39.466 11.4736 39.164C11.3854 38.8621 11.3746 38.5428 11.4423 38.2356C11.5099 37.9284 11.6537 37.6431 11.8604 37.4061C12.0672 37.169 12.3303 36.9878 12.6254 36.8791L25.9661 31.9685Z" fill="url(#paint22_linear_286_1612)"/>
<path d="M25.9661 31.9685C28.2161 31.1397 30.4042 33.3279 29.5754 35.5797L24.6667 48.9185C24.5581 49.214 24.3769 49.4774 24.1397 49.6845C23.9025 49.8915 23.617 50.0355 23.3095 50.1031C23.002 50.1707 22.6824 50.1598 22.3802 50.0714C22.078 49.983 21.803 49.8199 21.5804 49.5972L11.9467 39.9635C11.7244 39.7409 11.5617 39.466 11.4736 39.164C11.3854 38.8621 11.3746 38.5428 11.4423 38.2356C11.5099 37.9284 11.6537 37.6431 11.8604 37.4061C12.0672 37.169 12.3303 36.9878 12.6254 36.8791L25.9661 31.9685Z" fill="url(#paint23_radial_286_1612)"/>
<path d="M25.9661 31.9685C28.2161 31.1397 30.4042 33.3279 29.5754 35.5797L24.6667 48.9185C24.5581 49.214 24.3769 49.4774 24.1397 49.6845C23.9025 49.8915 23.617 50.0355 23.3095 50.1031C23.002 50.1707 22.6824 50.1598 22.3802 50.0714C22.078 49.983 21.803 49.8199 21.5804 49.5972L11.9467 39.9635C11.7244 39.7409 11.5617 39.466 11.4736 39.164C11.3854 38.8621 11.3746 38.5428 11.4423 38.2356C11.5099 37.9284 11.6537 37.6431 11.8604 37.4061C12.0672 37.169 12.3303 36.9878 12.6254 36.8791L25.9661 31.9685Z" fill="url(#paint24_radial_286_1612)"/>
<path d="M25.9661 31.9685C28.2161 31.1397 30.4042 33.3279 29.5754 35.5797L24.6667 48.9185C24.5581 49.214 24.3769 49.4774 24.1397 49.6845C23.9025 49.8915 23.617 50.0355 23.3095 50.1031C23.002 50.1707 22.6824 50.1598 22.3802 50.0714C22.078 49.983 21.803 49.8199 21.5804 49.5972L11.9467 39.9635C11.7244 39.7409 11.5617 39.466 11.4736 39.164C11.3854 38.8621 11.3746 38.5428 11.4423 38.2356C11.5099 37.9284 11.6537 37.6431 11.8604 37.4061C12.0672 37.169 12.3303 36.9878 12.6254 36.8791L25.9661 31.9685Z" fill="url(#paint25_radial_286_1612)"/>
<g filter="url(#filter3_f_286_1612)">
<path d="M17.7598 41.9604L28.3066 33.6973L21.5098 45.7685L17.7598 41.9604Z" fill="url(#paint26_linear_286_1612)"/>
</g>
</g>
<defs>
<filter id="filter0_i_286_1612" x="11.8965" y="6.25867" width="42.0234" height="42.5492" filterUnits="userSpaceOnUse" color-interpolation-filters="sRGB">
<feFlood flood-opacity="0" result="BackgroundImageFix"/>
<feBlend mode="normal" in="SourceGraphic" in2="BackgroundImageFix" result="shape"/>
<feColorMatrix in="SourceAlpha" type="matrix" values="0 0 0 0 0 0 0 0 0 0 0 0 0 0 0 0 0 0 127 0" result="hardAlpha"/>
<feOffset dx="-0.5" dy="-1"/>
<feGaussianBlur stdDeviation="1.5"/>
<feComposite in2="hardAlpha" operator="arithmetic" k2="-1" k3="1"/>
<feColorMatrix type="matrix" values="0 0 0 0 0.745098 0 0 0 0 0.772549 0 0 0 0 0.952941 0 0 0 1 0"/>
<feBlend mode="normal" in2="shape" result="effect1_innerShadow_286_1612"/>
</filter>
<filter id="filter1_dii_286_1612" x="31.8379" y="13.6721" width="16.5996" height="16.6" filterUnits="userSpaceOnUse" color-interpolation-filters="sRGB">
<feFlood flood-opacity="0" result="BackgroundImageFix"/>
<feColorMatrix in="SourceAlpha" type="matrix" values="0 0 0 0 0 0 0 0 0 0 0 0 0 0 0 0 0 0 127 0" result="hardAlpha"/>
<feOffset dy="0.5"/>
<feGaussianBlur stdDeviation="1"/>
<feComposite in2="hardAlpha" operator="out"/>
<feColorMatrix type="matrix" values="0 0 0 0 0.866667 0 0 0 0 0.764706 0 0 0 0 0.847059 0 0 0 1 0"/>
<feBlend mode="normal" in2="BackgroundImageFix" result="effect1_dropShadow_286_1612"/>
<feBlend mode="normal" in="SourceGraphic" in2="effect1_dropShadow_286_1612" result="shape"/>
<feColorMatrix in="SourceAlpha" type="matrix" values="0 0 0 0 0 0 0 0 0 0 0 0 0 0 0 0 0 0 127 0" result="hardAlpha"/>
<feOffset dx="-0.2" dy="0.2"/>
<feGaussianBlur stdDeviation="0.1"/>
<feComposite in2="hardAlpha" operator="arithmetic" k2="-1" k3="1"/>
<feColorMatrix type="matrix" values="0 0 0 0 0.721569 0 0 0 0 0.690196 0 0 0 0 0.701961 0 0 0 1 0"/>
<feBlend mode="normal" in2="shape" result="effect2_innerShadow_286_1612"/>
<feColorMatrix in="SourceAlpha" type="matrix" values="0 0 0 0 0 0 0 0 0 0 0 0 0 0 0 0 0 0 127 0" result="hardAlpha"/>
<feOffset dx="0.2" dy="-0.2"/>
<feGaussianBlur stdDeviation="0.1"/>
<feComposite in2="hardAlpha" operator="arithmetic" k2="-1" k3="1"/>
<feColorMatrix type="matrix" values="0 0 0 0 0.615686 0 0 0 0 0.560784 0 0 0 0 0.65098 0 0 0 1 0"/>
<feBlend mode="normal" in2="effect2_innerShadow_286_1612" result="effect3_innerShadow_286_1612"/>
</filter>
<filter id="filter2_i_286_1612" x="4.41406" y="42.6222" width="14.2012" height="13.5569" filterUnits="userSpaceOnUse" color-interpolation-filters="sRGB">
<feFlood flood-opacity="0" result="BackgroundImageFix"/>
<feBlend mode="normal" in="SourceGraphic" in2="BackgroundImageFix" result="shape"/>
<feColorMatrix in="SourceAlpha" type="matrix" values="0 0 0 0 0 0 0 0 0 0 0 0 0 0 0 0 0 0 127 0" result="hardAlpha"/>
<feOffset dy="-0.4"/>
<feGaussianBlur stdDeviation="0.4"/>
<feComposite in2="hardAlpha" operator="arithmetic" k2="-1" k3="1"/>
<feColorMatrix type="matrix" values="0 0 0 0 0.847059 0 0 0 0 0.505882 0 0 0 0 0.360784 0 0 0 1 0"/>
<feBlend mode="normal" in2="shape" result="effect1_innerShadow_286_1612"/>
</filter>
<filter id="filter3_f_286_1612" x="15.7598" y="31.6973" width="14.5469" height="16.0713" filterUnits="userSpaceOnUse" color-interpolation-filters="sRGB">
<feFlood flood-opacity="0" result="BackgroundImageFix"/>
<feBlend mode="normal" in="SourceGraphic" in2="BackgroundImageFix" result="shape"/>
<feGaussianBlur stdDeviation="1" result="effect1_foregroundBlur_286_1612"/>
</filter>
<linearGradient id="paint0_linear_286_1612" x1="15.708" y1="33.0747" x2="6.33302" y2="31.5297" gradientUnits="userSpaceOnUse">
<stop stop-color="#EE2452"/>
<stop offset="1" stop-color="#F63E7A"/>
</linearGradient>
<radialGradient id="paint1_radial_286_1612" cx="0" cy="0" r="1" gradientUnits="userSpaceOnUse" gradientTransform="translate(4.99615 32.6154) rotate(-19.9576) scale(15.0031 2.55085)">
<stop offset="0.164" stop-color="#FF8DB0"/>
<stop offset="1" stop-color="#FF8DB0" stop-opacity="0"/>
</radialGradient>
<linearGradient id="paint2_linear_286_1612" x1="9.69677" y1="37.6216" x2="11.2249" y2="36.131" gradientUnits="userSpaceOnUse">
<stop offset="0.491" stop-color="#DD467C"/>
<stop offset="1" stop-color="#DD467C" stop-opacity="0"/>
</linearGradient>
<linearGradient id="paint3_linear_286_1612" x1="34.0473" y1="41.2572" x2="22.3886" y2="50.4054" gradientUnits="userSpaceOnUse">
<stop stop-color="#F83267"/>
<stop offset="1" stop-color="#FF3190"/>
</linearGradient>
<radialGradient id="paint4_radial_286_1612" cx="0" cy="0" r="1" gradientUnits="userSpaceOnUse" gradientTransform="translate(27.8364 42.2522) rotate(86.482) scale(14.3233 12.3489)">
<stop offset="0.757" stop-color="#E76CBE" stop-opacity="0"/>
<stop offset="0.951" stop-color="#E76CBE"/>
</radialGradient>
<radialGradient id="paint5_radial_286_1612" cx="0" cy="0" r="1" gradientUnits="userSpaceOnUse" gradientTransform="translate(25.7261 49.811) rotate(-57.346) scale(9.88221 4.34076)">
<stop stop-color="#FF5898"/>
<stop offset="1" stop-color="#FF5898" stop-opacity="0"/>
</radialGradient>
<linearGradient id="paint6_linear_286_1612" x1="25.7859" y1="16.8822" x2="42.3084" y2="33.5229" gradientUnits="userSpaceOnUse">
<stop stop-color="#CCBBC0"/>
<stop offset="1" stop-color="#EAD2EC"/>
</linearGradient>
<radialGradient id="paint7_radial_286_1612" cx="0" cy="0" r="1" gradientUnits="userSpaceOnUse" gradientTransform="translate(45.4434 41.0791) rotate(-142.447) scale(31.2692 58.7781)">
<stop offset="0.811" stop-color="#E7E5E5" stop-opacity="0"/>
<stop offset="1" stop-color="#E7E5E5"/>
</radialGradient>
<radialGradient id="paint8_radial_286_1612" cx="0" cy="0" r="1" gradientUnits="userSpaceOnUse" gradientTransform="translate(17.714 40.5785) rotate(-56.929) scale(18.3821 8.63944)">
<stop offset="0.281" stop-color="#B5A3A5"/>
<stop offset="1" stop-color="#B5A3A5" stop-opacity="0"/>
</radialGradient>
<radialGradient id="paint9_radial_286_1612" cx="0" cy="0" r="1" gradientUnits="userSpaceOnUse" gradientTransform="translate(12.3952 38.2924) rotate(-73.625) scale(16.296 2.76131)">
<stop offset="0.208" stop-color="#B28F96"/>
<stop offset="1" stop-color="#B28F96" stop-opacity="0"/>
</radialGradient>
<radialGradient id="paint10_radial_286_1612" cx="0" cy="0" r="1" gradientUnits="userSpaceOnUse" gradientTransform="translate(51.3309 13.9535) rotate(137.284) scale(24.7031 7.67004)">
<stop stop-color="#FAECF1"/>
<stop offset="1" stop-color="#FAECF1" stop-opacity="0"/>
</radialGradient>
<linearGradient id="paint11_linear_286_1612" x1="33.8388" y1="20.2928" x2="46.437" y2="21.3634" gradientUnits="userSpaceOnUse">
<stop stop-color="#A796A0"/>
<stop offset="1" stop-color="#A5959F"/>
</linearGradient>
<radialGradient id="paint12_radial_286_1612" cx="0" cy="0" r="1" gradientUnits="userSpaceOnUse" gradientTransform="translate(40.1407 21.3634) rotate(90) scale(6.29884)">
<stop offset="0.587" stop-color="#93859B"/>
<stop offset="1" stop-color="#93859B" stop-opacity="0"/>
</radialGradient>
<radialGradient id="paint13_radial_286_1612" cx="0" cy="0" r="1" gradientUnits="userSpaceOnUse" gradientTransform="translate(40.1377 25.7247) rotate(-90) scale(9.08548 8.35549)">
<stop stop-color="#72CDFF"/>
<stop offset="0.738" stop-color="#66ACFF"/>
<stop offset="1" stop-color="#3B57F4"/>
</radialGradient>
<radialGradient id="paint14_radial_286_1612" cx="0" cy="0" r="1" gradientUnits="userSpaceOnUse" gradientTransform="translate(15.8584 46.0853) rotate(135) scale(10.8871 8.55751)">
<stop stop-color="#D46213"/>
<stop offset="1" stop-color="#FF9542"/>
</radialGradient>
<radialGradient id="paint15_radial_286_1612" cx="0" cy="0" r="1" gradientUnits="userSpaceOnUse" gradientTransform="translate(16.0703 54.9409) rotate(-131.186) scale(13.4523 14.1764)">
<stop offset="0.871" stop-color="#FFC484" stop-opacity="0"/>
<stop offset="1" stop-color="#FFC484"/>
</radialGradient>
<linearGradient id="paint16_linear_286_1612" x1="11.3722" y1="41.7841" x2="21.6847" y2="51.9203" gradientUnits="userSpaceOnUse">
<stop stop-color="#452860"/>
<stop offset="1" stop-color="#51509F"/>
</linearGradient>
<radialGradient id="paint17_radial_286_1612" cx="0" cy="0" r="1" gradientUnits="userSpaceOnUse" gradientTransform="translate(13.3072 40.8466) rotate(77.8285) scale(3.057 2.70094)">
<stop stop-color="#8E839A"/>
<stop offset="1" stop-color="#8E839A" stop-opacity="0"/>
</radialGradient>
<radialGradient id="paint18_radial_286_1612" cx="0" cy="0" r="1" gradientUnits="userSpaceOnUse" gradientTransform="translate(14.0141 42.6559) rotate(47.9357) scale(11.6481 6.10568)">
<stop offset="0.86" stop-color="#6175B9" stop-opacity="0"/>
<stop offset="1" stop-color="#6175B9"/>
</radialGradient>
<linearGradient id="paint19_linear_286_1612" x1="55.2066" y1="6.01471" x2="48.3141" y2="12.9072" gradientUnits="userSpaceOnUse">
<stop stop-color="#FF3745"/>
<stop offset="1" stop-color="#ED224B"/>
</linearGradient>
<radialGradient id="paint20_radial_286_1612" cx="0" cy="0" r="1" gradientUnits="userSpaceOnUse" gradientTransform="translate(54.3853 8.77458) rotate(135) scale(15.4627 3.71194)">
<stop offset="0.189" stop-color="#FF5971"/>
<stop offset="1" stop-color="#FF5971" stop-opacity="0"/>
</radialGradient>
<linearGradient id="paint21_linear_286_1612" x1="48.916" y1="13.3666" x2="49.6041" y2="12.6485" gradientUnits="userSpaceOnUse">
<stop stop-color="#D2575E"/>
<stop offset="1" stop-color="#F93251" stop-opacity="0"/>
</linearGradient>
<linearGradient id="paint22_linear_286_1612" x1="28.9248" y1="32.6191" x2="16.7636" y2="44.7804" gradientUnits="userSpaceOnUse">
<stop stop-color="#FF2644"/>
<stop offset="1" stop-color="#FF2982"/>
</linearGradient>
<radialGradient id="paint23_radial_286_1612" cx="0" cy="0" r="1" gradientUnits="userSpaceOnUse" gradientTransform="translate(12.1923 37.0385) rotate(-20.865) scale(13.9834 3.66074)">
<stop stop-color="#FF95AF"/>
<stop offset="1" stop-color="#FF95AF" stop-opacity="0"/>
</radialGradient>
<radialGradient id="paint24_radial_286_1612" cx="0" cy="0" r="1" gradientUnits="userSpaceOnUse" gradientTransform="translate(10.6211 38.6997) rotate(44.7044) scale(8.64415 2.5534)">
<stop offset="0.382" stop-color="#E14678"/>
<stop offset="1" stop-color="#E14678" stop-opacity="0"/>
</radialGradient>
<radialGradient id="paint25_radial_286_1612" cx="0" cy="0" r="1" gradientUnits="userSpaceOnUse" gradientTransform="translate(22.2123 36.5097) rotate(84.6743) scale(13.8881 14.7998)">
<stop offset="0.832" stop-color="#E67BC7" stop-opacity="0"/>
<stop offset="1" stop-color="#E67BC7"/>
</radialGradient>
<linearGradient id="paint26_linear_286_1612" x1="26.7241" y1="34.5766" x2="18.9898" y2="42.6635" gradientUnits="userSpaceOnUse">
<stop stop-color="#FF5970"/>
<stop offset="1" stop-color="#FF5794"/>
</linearGradient>
</defs>
</svg>
