<svg width="61" height="61" viewBox="0 0 61 61" fill="none" xmlns="http://www.w3.org/2000/svg">
<path d="M16.1484 11.8271C13.2197 13.2052 11.4234 16.0084 10.9922 17.3659L26.5791 14.4934L23.0184 10.8802C22.87 10.7236 22.666 10.6314 22.4503 10.6234C21.1753 10.6009 17.9241 10.9009 16.1503 11.8271" fill="url(#paint0_linear_286_1623)"/>
<path d="M16.1484 11.8271C13.2197 13.2052 11.4234 16.0084 10.9922 17.3659L26.5791 14.4934L23.0184 10.8802C22.87 10.7236 22.666 10.6314 22.4503 10.6234C21.1753 10.6009 17.9241 10.9009 16.1503 11.8271" fill="url(#paint1_linear_286_1623)"/>
<path d="M45.1495 11.8271C48.0801 13.2052 49.8782 16.0084 50.3057 17.3659L34.7207 14.4934L38.2795 10.8802C38.4284 10.7231 38.6331 10.6309 38.8495 10.6234C40.1245 10.6009 43.3757 10.9009 45.1495 11.8271Z" fill="url(#paint2_linear_286_1623)"/>
<path d="M45.1495 11.8271C48.0801 13.2052 49.8782 16.0084 50.3057 17.3659L34.7207 14.4934L38.2795 10.8802C38.4284 10.7231 38.6331 10.6309 38.8495 10.6234C40.1245 10.6009 43.3757 10.9009 45.1495 11.8271Z" fill="url(#paint3_linear_286_1623)"/>
<path d="M18.4992 13.0289C14.4267 13.0289 10.806 15.6539 9.68665 19.5708C7.8689 25.9688 6.26179 32.4248 4.86791 38.9283C4.39166 41.3471 4.13666 46.0458 5.65916 48.3896C8.12103 51.7889 10.6017 51.577 13.3054 49.4133L20.8692 43.3552C21.7006 42.689 22.7343 42.3259 23.7998 42.3258H37.4423C38.5071 42.3263 39.54 42.6894 40.371 43.3552L47.9367 49.4114C50.6404 51.5789 53.121 51.7889 55.581 48.3896C57.1054 46.0458 56.8485 41.3471 56.3723 38.9264C56.3723 38.9264 54.4748 29.7821 51.5554 19.5708C50.436 15.6558 46.8135 13.0289 42.7429 13.0289H18.4992Z" fill="url(#paint4_linear_286_1623)"/>
<path d="M18.4992 13.0289C14.4267 13.0289 10.806 15.6539 9.68665 19.5708C7.8689 25.9688 6.26179 32.4248 4.86791 38.9283C4.39166 41.3471 4.13666 46.0458 5.65916 48.3896C8.12103 51.7889 10.6017 51.577 13.3054 49.4133L20.8692 43.3552C21.7006 42.689 22.7343 42.3259 23.7998 42.3258H37.4423C38.5071 42.3263 39.54 42.6894 40.371 43.3552L47.9367 49.4114C50.6404 51.5789 53.121 51.7889 55.581 48.3896C57.1054 46.0458 56.8485 41.3471 56.3723 38.9264C56.3723 38.9264 54.4748 29.7821 51.5554 19.5708C50.436 15.6558 46.8135 13.0289 42.7429 13.0289H18.4992Z" fill="url(#paint5_radial_286_1623)"/>
<path d="M18.4992 13.0289C14.4267 13.0289 10.806 15.6539 9.68665 19.5708C7.8689 25.9688 6.26179 32.4248 4.86791 38.9283C4.39166 41.3471 4.13666 46.0458 5.65916 48.3896C8.12103 51.7889 10.6017 51.577 13.3054 49.4133L20.8692 43.3552C21.7006 42.689 22.7343 42.3259 23.7998 42.3258H37.4423C38.5071 42.3263 39.54 42.6894 40.371 43.3552L47.9367 49.4114C50.6404 51.5789 53.121 51.7889 55.581 48.3896C57.1054 46.0458 56.8485 41.3471 56.3723 38.9264C56.3723 38.9264 54.4748 29.7821 51.5554 19.5708C50.436 15.6558 46.8135 13.0289 42.7429 13.0289H18.4992Z" fill="url(#paint6_radial_286_1623)"/>
<path d="M18.4992 13.0289C14.4267 13.0289 10.806 15.6539 9.68665 19.5708C7.8689 25.9688 6.26179 32.4248 4.86791 38.9283C4.39166 41.3471 4.13666 46.0458 5.65916 48.3896C8.12103 51.7889 10.6017 51.577 13.3054 49.4133L20.8692 43.3552C21.7006 42.689 22.7343 42.3259 23.7998 42.3258H37.4423C38.5071 42.3263 39.54 42.6894 40.371 43.3552L47.9367 49.4114C50.6404 51.5789 53.121 51.7889 55.581 48.3896C57.1054 46.0458 56.8485 41.3471 56.3723 38.9264C56.3723 38.9264 54.4748 29.7821 51.5554 19.5708C50.436 15.6558 46.8135 13.0289 42.7429 13.0289H18.4992Z" fill="url(#paint7_radial_286_1623)"/>
<path d="M18.4992 13.0289C14.4267 13.0289 10.806 15.6539 9.68665 19.5708C7.8689 25.9688 6.26179 32.4248 4.86791 38.9283C4.39166 41.3471 4.13666 46.0458 5.65916 48.3896C8.12103 51.7889 10.6017 51.577 13.3054 49.4133L20.8692 43.3552C21.7006 42.689 22.7343 42.3259 23.7998 42.3258H37.4423C38.5071 42.3263 39.54 42.6894 40.371 43.3552L47.9367 49.4114C50.6404 51.5789 53.121 51.7889 55.581 48.3896C57.1054 46.0458 56.8485 41.3471 56.3723 38.9264C56.3723 38.9264 54.4748 29.7821 51.5554 19.5708C50.436 15.6558 46.8135 13.0289 42.7429 13.0289H18.4992Z" fill="url(#paint8_radial_286_1623)"/>
<path d="M18.4992 13.0289C14.4267 13.0289 10.806 15.6539 9.68665 19.5708C7.8689 25.9688 6.26179 32.4248 4.86791 38.9283C4.39166 41.3471 4.13666 46.0458 5.65916 48.3896C8.12103 51.7889 10.6017 51.577 13.3054 49.4133L20.8692 43.3552C21.7006 42.689 22.7343 42.3259 23.7998 42.3258H37.4423C38.5071 42.3263 39.54 42.6894 40.371 43.3552L47.9367 49.4114C50.6404 51.5789 53.121 51.7889 55.581 48.3896C57.1054 46.0458 56.8485 41.3471 56.3723 38.9264C56.3723 38.9264 54.4748 29.7821 51.5554 19.5708C50.436 15.6558 46.8135 13.0289 42.7429 13.0289H18.4992Z" fill="url(#paint9_radial_286_1623)"/>
<path d="M18.4992 13.0289C14.4267 13.0289 10.806 15.6539 9.68665 19.5708C7.8689 25.9688 6.26179 32.4248 4.86791 38.9283C4.39166 41.3471 4.13666 46.0458 5.65916 48.3896C8.12103 51.7889 10.6017 51.577 13.3054 49.4133L20.8692 43.3552C21.7006 42.689 22.7343 42.3259 23.7998 42.3258H37.4423C38.5071 42.3263 39.54 42.6894 40.371 43.3552L47.9367 49.4114C50.6404 51.5789 53.121 51.7889 55.581 48.3896C57.1054 46.0458 56.8485 41.3471 56.3723 38.9264C56.3723 38.9264 54.4748 29.7821 51.5554 19.5708C50.436 15.6558 46.8135 13.0289 42.7429 13.0289H18.4992Z" fill="url(#paint10_radial_286_1623)"/>
<path d="M18.4992 13.0289C14.4267 13.0289 10.806 15.6539 9.68665 19.5708C7.8689 25.9688 6.26179 32.4248 4.86791 38.9283C4.39166 41.3471 4.13666 46.0458 5.65916 48.3896C8.12103 51.7889 10.6017 51.577 13.3054 49.4133L20.8692 43.3552C21.7006 42.689 22.7343 42.3259 23.7998 42.3258H37.4423C38.5071 42.3263 39.54 42.6894 40.371 43.3552L47.9367 49.4114C50.6404 51.5789 53.121 51.7889 55.581 48.3896C57.1054 46.0458 56.8485 41.3471 56.3723 38.9264C56.3723 38.9264 54.4748 29.7821 51.5554 19.5708C50.436 15.6558 46.8135 13.0289 42.7429 13.0289H18.4992Z" fill="url(#paint11_radial_286_1623)"/>
<path d="M18.4992 13.0289C14.4267 13.0289 10.806 15.6539 9.68665 19.5708C7.8689 25.9688 6.26179 32.4248 4.86791 38.9283C4.39166 41.3471 4.13666 46.0458 5.65916 48.3896C8.12103 51.7889 10.6017 51.577 13.3054 49.4133L20.8692 43.3552C21.7006 42.689 22.7343 42.3259 23.7998 42.3258H37.4423C38.5071 42.3263 39.54 42.6894 40.371 43.3552L47.9367 49.4114C50.6404 51.5789 53.121 51.7889 55.581 48.3896C57.1054 46.0458 56.8485 41.3471 56.3723 38.9264C56.3723 38.9264 54.4748 29.7821 51.5554 19.5708C50.436 15.6558 46.8135 13.0289 42.7429 13.0289H18.4992Z" fill="url(#paint12_radial_286_1623)"/>
<path d="M18.4992 13.0289C14.4267 13.0289 10.806 15.6539 9.68665 19.5708C7.8689 25.9688 6.26179 32.4248 4.86791 38.9283C4.39166 41.3471 4.13666 46.0458 5.65916 48.3896C8.12103 51.7889 10.6017 51.577 13.3054 49.4133L20.8692 43.3552C21.7006 42.689 22.7343 42.3259 23.7998 42.3258H37.4423C38.5071 42.3263 39.54 42.6894 40.371 43.3552L47.9367 49.4114C50.6404 51.5789 53.121 51.7889 55.581 48.3896C57.1054 46.0458 56.8485 41.3471 56.3723 38.9264C56.3723 38.9264 54.4748 29.7821 51.5554 19.5708C50.436 15.6558 46.8135 13.0289 42.7429 13.0289H18.4992Z" fill="url(#paint13_radial_286_1623)"/>
<path d="M39.1544 26.0959C40.396 26.0959 41.4025 25.0893 41.4025 23.8477C41.4025 22.6061 40.396 21.5996 39.1544 21.5996C37.9128 21.5996 36.9062 22.6061 36.9062 23.8477C36.9062 25.0893 37.9128 26.0959 39.1544 26.0959Z" fill="url(#paint14_radial_286_1623)"/>
<path d="M41.1834 19.6571C41.1834 20.8987 42.19 21.9052 43.4316 21.9052C44.6732 21.9052 45.6797 20.8987 45.6797 19.6571C45.6797 18.4155 44.6732 17.4089 43.4316 17.4089C42.19 17.4089 41.1834 18.4155 41.1834 19.6571Z" fill="url(#paint15_radial_286_1623)"/>
<path d="M47.5313 26.0959C48.7729 26.0959 49.7795 25.0893 49.7795 23.8477C49.7795 22.6061 48.7729 21.5996 47.5313 21.5996C46.2897 21.5996 45.2832 22.6061 45.2832 23.8477C45.2832 25.0893 46.2897 26.0959 47.5313 26.0959Z" fill="url(#paint16_radial_286_1623)"/>
<path d="M41.1834 28.0365C41.1834 29.2781 42.19 30.2846 43.4316 30.2846C44.6732 30.2846 45.6797 29.2781 45.6797 28.0365C45.6797 26.7949 44.6732 25.7883 43.4316 25.7883C42.19 25.7883 41.1834 26.7949 41.1834 28.0365Z" fill="url(#paint17_radial_286_1623)"/>
<path d="M18.9907 27.4721C21.0297 27.4721 22.6826 25.8192 22.6826 23.7803C22.6826 21.7413 21.0297 20.0884 18.9907 20.0884C16.9517 20.0884 15.2988 21.7413 15.2988 23.7803C15.2988 25.8192 16.9517 27.4721 18.9907 27.4721Z" fill="url(#paint18_radial_286_1623)"/>
<path d="M18.9907 27.4721C21.0297 27.4721 22.6826 25.8192 22.6826 23.7803C22.6826 21.7413 21.0297 20.0884 18.9907 20.0884C16.9517 20.0884 15.2988 21.7413 15.2988 23.7803C15.2988 25.8192 16.9517 27.4721 18.9907 27.4721Z" fill="url(#paint19_radial_286_1623)"/>
<path d="M37.0063 36.9353C39.0453 36.9353 40.6982 35.2824 40.6982 33.2434C40.6982 31.2044 39.0453 29.5515 37.0063 29.5515C34.9674 29.5515 33.3145 31.2044 33.3145 33.2434C33.3145 35.2824 34.9674 36.9353 37.0063 36.9353Z" fill="url(#paint20_radial_286_1623)"/>
<path d="M37.0063 36.9353C39.0453 36.9353 40.6982 35.2824 40.6982 33.2434C40.6982 31.2044 39.0453 29.5515 37.0063 29.5515C34.9674 29.5515 33.3145 31.2044 33.3145 33.2434C33.3145 35.2824 34.9674 36.9353 37.0063 36.9353Z" fill="url(#paint21_radial_286_1623)"/>
<g filter="url(#filter0_ii_286_1623)">
<path d="M25.5077 29.0546C25.2243 29.0546 24.9524 29.1672 24.752 29.3676C24.5516 29.568 24.439 29.8399 24.439 30.1233V31.4564C24.439 31.7051 24.3402 31.9435 24.1644 32.1194C23.9886 32.2952 23.7501 32.3939 23.5015 32.3939H22.1684C21.8849 32.3939 21.6131 32.5065 21.4126 32.707C21.2122 32.9074 21.0996 33.1792 21.0996 33.4627C21.0996 33.7461 21.2122 34.018 21.4126 34.2184C21.6131 34.4188 21.8849 34.5314 22.1684 34.5314H23.4996C23.7483 34.5314 23.9867 34.6302 24.1625 34.806C24.3383 34.9818 24.4371 35.2203 24.4371 35.4689V36.8039C24.4371 37.0879 24.5499 37.3602 24.7507 37.561C24.9515 37.7618 25.2238 37.8746 25.5077 37.8746C25.7917 37.8746 26.064 37.7618 26.2648 37.561C26.4656 37.3602 26.5784 37.0879 26.5784 36.8039V35.4708C26.5784 35.2222 26.6771 34.9837 26.8529 34.8079C27.0288 34.6321 27.2672 34.5333 27.5159 34.5333H28.8471C29.1306 34.5333 29.4024 34.4207 29.6028 34.2203C29.8033 34.0199 29.9159 33.748 29.9159 33.4646C29.9159 33.1811 29.8033 32.9093 29.6028 32.7088C29.4024 32.5084 29.1306 32.3958 28.8471 32.3958H27.5159C27.2672 32.3958 27.0288 32.297 26.8529 32.1212C26.6771 31.9454 26.5784 31.707 26.5784 31.4583V30.1233C26.5784 29.8399 26.4658 29.568 26.2653 29.3676C26.0649 29.1672 25.7912 29.0546 25.5077 29.0546Z" fill="url(#paint22_radial_286_1623)"/>
</g>
<defs>
<filter id="filter0_ii_286_1623" x="20.9996" y="28.9546" width="9.01641" height="9.01995" filterUnits="userSpaceOnUse" color-interpolation-filters="sRGB">
<feFlood flood-opacity="0" result="BackgroundImageFix"/>
<feBlend mode="normal" in="SourceGraphic" in2="BackgroundImageFix" result="shape"/>
<feColorMatrix in="SourceAlpha" type="matrix" values="0 0 0 0 0 0 0 0 0 0 0 0 0 0 0 0 0 0 127 0" result="hardAlpha"/>
<feOffset dx="-0.1" dy="0.1"/>
<feGaussianBlur stdDeviation="0.1"/>
<feComposite in2="hardAlpha" operator="arithmetic" k2="-1" k3="1"/>
<feColorMatrix type="matrix" values="0 0 0 0 0.564706 0 0 0 0 0.568627 0 0 0 0 0.945098 0 0 0 1 0"/>
<feBlend mode="normal" in2="shape" result="effect1_innerShadow_286_1623"/>
<feColorMatrix in="SourceAlpha" type="matrix" values="0 0 0 0 0 0 0 0 0 0 0 0 0 0 0 0 0 0 127 0" result="hardAlpha"/>
<feOffset dx="0.1" dy="-0.1"/>
<feGaussianBlur stdDeviation="0.1"/>
<feComposite in2="hardAlpha" operator="arithmetic" k2="-1" k3="1"/>
<feColorMatrix type="matrix" values="0 0 0 0 0.396078 0 0 0 0 0.360784 0 0 0 0 0.796078 0 0 0 1 0"/>
<feBlend mode="normal" in2="effect1_innerShadow_286_1623" result="effect2_innerShadow_286_1623"/>
</filter>
<linearGradient id="paint0_linear_286_1623" x1="13.3059" y1="16.3684" x2="23.4441" y2="11.8571" gradientUnits="userSpaceOnUse">
<stop stop-color="#3C1B3C"/>
<stop offset="0.355" stop-color="#501752"/>
</linearGradient>
<linearGradient id="paint1_linear_286_1623" x1="25.6997" y1="11.7109" x2="23.0634" y2="12.5302" gradientUnits="userSpaceOnUse">
<stop offset="0.827" stop-color="#613060"/>
<stop offset="1" stop-color="#613060" stop-opacity="0"/>
</linearGradient>
<linearGradient id="paint2_linear_286_1623" x1="38.9113" y1="11.6227" x2="47.5232" y2="14.8459" gradientUnits="userSpaceOnUse">
<stop stop-color="#521852"/>
<stop offset="1" stop-color="#603260"/>
</linearGradient>
<linearGradient id="paint3_linear_286_1623" x1="36.3032" y1="12.5902" x2="38.3395" y2="13.059" gradientUnits="userSpaceOnUse">
<stop offset="0.83" stop-color="#3D193D"/>
<stop offset="1" stop-color="#3D193D" stop-opacity="0"/>
</linearGradient>
<linearGradient id="paint4_linear_286_1623" x1="30.621" y1="13.0289" x2="30.621" y2="42.3258" gradientUnits="userSpaceOnUse">
<stop stop-color="#6259A7"/>
<stop offset="1" stop-color="#562F80"/>
</linearGradient>
<radialGradient id="paint5_radial_286_1623" cx="0" cy="0" r="1" gradientUnits="userSpaceOnUse" gradientTransform="translate(30.6192 44.3658) rotate(-90) scale(5.85139 20.0526)">
<stop offset="0.357" stop-color="#5E2696"/>
<stop offset="1" stop-color="#5E2696" stop-opacity="0"/>
</radialGradient>
<radialGradient id="paint6_radial_286_1623" cx="0" cy="0" r="1" gradientUnits="userSpaceOnUse" gradientTransform="translate(57.3982 46.8274) rotate(-107.504) scale(14.5812 16.3566)">
<stop stop-color="#6A4592"/>
<stop offset="1" stop-color="#6A4592" stop-opacity="0"/>
</radialGradient>
<radialGradient id="paint7_radial_286_1623" cx="0" cy="0" r="1" gradientUnits="userSpaceOnUse" gradientTransform="translate(18.9154 23.7521) rotate(90) scale(4.62891)">
<stop offset="0.418" stop-color="#4A3383"/>
<stop offset="1" stop-color="#4A3383" stop-opacity="0"/>
</radialGradient>
<radialGradient id="paint8_radial_286_1623" cx="0" cy="0" r="1" gradientUnits="userSpaceOnUse" gradientTransform="translate(37.0204 33.3633) rotate(90) scale(4.62891)">
<stop offset="0.671" stop-color="#4A3383"/>
<stop offset="1" stop-color="#4A3383" stop-opacity="0"/>
</radialGradient>
<radialGradient id="paint9_radial_286_1623" cx="0" cy="0" r="1" gradientUnits="userSpaceOnUse" gradientTransform="translate(39.1579 23.8121) rotate(90) scale(2.8125)">
<stop offset="0.671" stop-color="#4A3383"/>
<stop offset="1" stop-color="#4A3383" stop-opacity="0"/>
</radialGradient>
<radialGradient id="paint10_radial_286_1623" cx="0" cy="0" r="1" gradientUnits="userSpaceOnUse" gradientTransform="translate(43.4217 28.0608) rotate(90) scale(2.79786)">
<stop offset="0.671" stop-color="#4A3383"/>
<stop offset="1" stop-color="#4A3383" stop-opacity="0"/>
</radialGradient>
<radialGradient id="paint11_radial_286_1623" cx="0" cy="0" r="1" gradientUnits="userSpaceOnUse" gradientTransform="translate(47.5373 23.8402) rotate(90) scale(2.73926)">
<stop offset="0.671" stop-color="#4A3383"/>
<stop offset="1" stop-color="#4A3383" stop-opacity="0"/>
</radialGradient>
<radialGradient id="paint12_radial_286_1623" cx="0" cy="0" r="1" gradientUnits="userSpaceOnUse" gradientTransform="translate(43.4198 19.6664) rotate(90) scale(2.68067)">
<stop offset="0.671" stop-color="#4A3383"/>
<stop offset="1" stop-color="#4A3383" stop-opacity="0"/>
</radialGradient>
<radialGradient id="paint13_radial_286_1623" cx="0" cy="0" r="1" gradientUnits="userSpaceOnUse" gradientTransform="translate(25.566 33.4214) rotate(90) scale(5.09766)">
<stop offset="0.197" stop-color="#4A3383"/>
<stop offset="1" stop-color="#4A3383" stop-opacity="0"/>
</radialGradient>
<radialGradient id="paint14_radial_286_1623" cx="0" cy="0" r="1" gradientUnits="userSpaceOnUse" gradientTransform="translate(41.4006 23.4596) rotate(180) scale(3.36915 2.94023)">
<stop stop-color="#5CC5FF"/>
<stop offset="1" stop-color="#259AF4"/>
</radialGradient>
<radialGradient id="paint15_radial_286_1623" cx="0" cy="0" r="1" gradientUnits="userSpaceOnUse" gradientTransform="translate(45.1558 19.6574) rotate(180) scale(3.96973 3.46436)">
<stop stop-color="#FFDE74"/>
<stop offset="1" stop-color="#EEB84D"/>
</radialGradient>
<radialGradient id="paint16_radial_286_1623" cx="0" cy="0" r="1" gradientUnits="userSpaceOnUse" gradientTransform="translate(49.7813 23.4596) rotate(180) scale(3.36915 2.94023)">
<stop stop-color="#FF5B74"/>
<stop offset="1" stop-color="#F21F4D"/>
</radialGradient>
<radialGradient id="paint17_radial_286_1623" cx="0" cy="0" r="1" gradientUnits="userSpaceOnUse" gradientTransform="translate(45.1528 28.0365) rotate(180) scale(3.96973 3.46436)">
<stop stop-color="#57FBA4"/>
<stop offset="1" stop-color="#21E28C"/>
</radialGradient>
<radialGradient id="paint18_radial_286_1623" cx="0" cy="0" r="1" gradientUnits="userSpaceOnUse" gradientTransform="translate(22.6814 22.9188) rotate(160.894) scale(7.35304 6.79603)">
<stop stop-color="#9395E9"/>
<stop offset="1" stop-color="#6969BD"/>
</radialGradient>
<radialGradient id="paint19_radial_286_1623" cx="0" cy="0" r="1" gradientUnits="userSpaceOnUse" gradientTransform="translate(18.9888 26.8253) rotate(90) scale(2.99514)">
<stop stop-color="#806FE7"/>
<stop offset="1" stop-color="#806FE7" stop-opacity="0"/>
</radialGradient>
<radialGradient id="paint20_radial_286_1623" cx="0" cy="0" r="1" gradientUnits="userSpaceOnUse" gradientTransform="translate(39.3801 32.1296) rotate(154.717) scale(6.22625 5.75461)">
<stop stop-color="#9395E9"/>
<stop offset="1" stop-color="#6969BD"/>
</radialGradient>
<radialGradient id="paint21_radial_286_1623" cx="0" cy="0" r="1" gradientUnits="userSpaceOnUse" gradientTransform="translate(37.0063 36.2865) rotate(90) scale(2.99514)">
<stop stop-color="#806FE7"/>
<stop offset="1" stop-color="#806FE7" stop-opacity="0"/>
</radialGradient>
<radialGradient id="paint22_radial_286_1623" cx="0" cy="0" r="1" gradientUnits="userSpaceOnUse" gradientTransform="translate(27.6633 31.6615) rotate(136.975) scale(4.80898 4.42631)">
<stop stop-color="#8886E9"/>
<stop offset="1" stop-color="#8076E3"/>
</radialGradient>
</defs>
</svg>
