<svg width="20" height="20" viewBox="0 0 20 20" fill="none" xmlns="http://www.w3.org/2000/svg">
<g clip-path="url(#clip0_1106_2675)">
<path d="M13.8343 7.67297C13.755 6.91877 13.4064 6.21844 12.8525 5.70047C12.2986 5.1825 11.5765 4.88164 10.8187 4.85306C8.10159 4.78671 6.70158 6.91492 6.70158 9.9571C6.70158 12.9993 8.2459 15.4311 10.895 15.4311C13.544 15.4311 13.8343 12.3922 13.8343 12.3922L18.9101 12.6957C18.9621 13.5858 18.8266 14.477 18.5123 15.3113C18.1979 16.1457 17.7119 16.9048 17.0855 17.5394C16.212 18.3625 15.1817 19.0013 14.056 19.4176C12.9303 19.834 11.7322 20.0194 10.5333 19.9628C9.2899 20.08 8.03595 19.9194 6.8621 19.4929C5.68825 19.0663 4.6238 18.3843 3.74565 17.4962C2.77984 16.5513 2.02622 15.4116 1.53487 14.1529C1.04352 12.8942 0.825698 11.5453 0.895883 10.196C0.807468 8.70431 1.06527 7.21241 1.64913 5.83692C2.233 4.46143 3.1271 3.23963 4.26153 2.26704C5.91879 0.828783 8.04044 0.0386852 10.2348 0.0426239C12.4267 -0.0824703 14.5815 0.649512 16.2437 2.0839C17.9059 3.51828 18.9453 5.5427 19.1424 7.72937L13.8343 7.67297Z" fill="#868686"/>
</g>
<defs>
<clipPath id="clip0_1106_2675">
<rect width="19" height="20" fill="#868686" transform="translate(0.642578)"/>
</clipPath>
</defs>
</svg>
