<svg width="20" height="20" viewBox="0 0 20 20" fill="none" xmlns="http://www.w3.org/2000/svg">
<g clip-path="url(#clip0_1106_2678)">
<path d="M18.4015 4.42516L11.0543 0.1833C10.6311 -0.0611 9.93844 -0.0611 9.5152 0.1833L2.16801 4.42516C1.74471 4.66951 1.39844 5.26936 1.39844 5.75811V14.2419C1.43137 14.8111 1.72209 15.2825 2.16801 15.5748L9.5152 19.8167C9.93844 20.0611 10.6311 20.0611 11.0543 19.8167L18.4015 15.5748C18.88 15.2566 19.1523 14.7777 19.1711 14.2419V5.75811C19.1539 5.24386 18.846 4.72519 18.4015 4.42516ZM4.36055 10C4.32574 4.21531 12.0738 1.661 15.4151 7.03606L12.8512 8.51967C11.3035 5.95976 7.46058 6.87509 7.32266 10C7.36408 12.8801 11.1412 14.2179 12.8514 11.4802L15.4153 12.9638C12.4706 18.0756 4.50905 16.2364 4.36055 10ZM16.209 10.3291H15.5507V10.9874H14.8925V10.3291H14.2343V9.67088H14.8925V9.01266H15.5507V9.67088H16.209V10.3291ZM18.6774 10.3291H18.0191V10.9874H17.361V10.3291H16.7027V9.67088H17.361V9.01266H18.0191V9.67088H18.6774V10.3291Z" fill="#868686"/>
</g>
<defs>
<clipPath id="clip0_1106_2678">
<rect width="19" height="20" fill="#868686" transform="translate(0.285156)"/>
</clipPath>
</defs>
</svg>
