<svg width="20" height="20" viewBox="0 0 20 20" fill="none" xmlns="http://www.w3.org/2000/svg">
<g clip-path="url(#clip0_1106_2681)">
<path d="M15.1356 9.55718H15.6897L15.6177 10.2344H15.0655L15.1356 9.55718ZM19.8137 5.75811V14.2419C19.7949 14.7777 19.5226 15.2566 19.0441 15.5748L11.6969 19.8167C11.2737 20.0611 10.581 20.0611 10.1578 19.8167L2.81058 15.5748C2.36467 15.2825 2.07394 14.8111 2.04102 14.2419V5.75811C2.04102 5.26936 2.38729 4.66951 2.81058 4.42516L10.1578 0.1833C10.581 -0.0611001 11.2737 -0.0611001 11.6969 0.1833L19.0441 4.42516C19.4885 4.72519 19.7965 5.24386 19.8137 5.75811ZM16.0578 12.9638L13.494 11.4802C11.7837 14.2179 8.00666 12.8801 7.96524 10C8.10316 6.87509 11.9461 5.95976 13.4938 8.51967L16.0577 7.03606C12.7164 1.661 4.96832 4.21531 5.00313 10C5.15163 16.2364 13.1132 18.0756 16.0578 12.9638ZM16.6699 9.08562H16.2304L16.3096 8.32031H15.8213L15.7399 9.08562H15.1844L15.2637 8.32031H14.7754L14.694 9.08562H14.2285V9.55718H14.6438L14.5718 10.2344H14.0918V10.7059H14.5216L14.4326 11.543H14.93L15.0167 10.7059H15.5676L15.4785 11.543H15.976L16.0626 10.7059H16.5332V10.2344H16.1114L16.1815 9.55718H16.6699V9.08562Z" fill="#868686"/>
</g>
<defs>
<clipPath id="clip0_1106_2681">
<rect width="19" height="20" fill="#868686" transform="translate(0.927734)"/>
</clipPath>
</defs>
</svg>
