<svg width="53" height="20" viewBox="0 0 53 20" fill="none" xmlns="http://www.w3.org/2000/svg">
<g clip-path="url(#clip0_1106_2672)">
<path d="M3.87515 6.08704L4.62722 5.12739L14.1822 5.12286L13.567 6.08251L3.87515 6.08704ZM12.5412 8.44781L12.8581 7.48816L0.752078 7.49652L0 8.45617L12.5412 8.44781ZM12.1933 10.8169L12.2848 9.85729L6.7781 9.86182L6.24363 10.8215L12.1933 10.8169ZM47.3163 18.3321C42.0184 21.2506 34.7802 20.0146 32.845 13.6868C31.7013 15.9374 29.8341 17.7819 27.6088 18.8338C22.3364 21.3259 15.1781 19.1526 14.2574 12.323C13.5832 5.77692 18.8813 1.73187 22.0133 0.710619C26.9908 -0.839914 31.8999 0.982033 33.5974 5.51654L28.2508 6.91792C27.6828 5.33711 24.5954 4.19876 22.2222 5.91459C18.4897 8.2175 18.5587 14.0128 23.0683 14.8734C25.4095 15.1735 26.9822 14.0166 28.1612 12.2372L22.3553 12.2496L24.2208 8.22695H32.922C36.6906 -2.40476 51.3883 -1.93923 52.882 7.6142C53.4129 11.0097 52.2538 15.6122 47.3163 18.3321ZM42.4877 5.17828C38.4649 6.04387 37.4623 9.59734 38.0833 11.8741C38.7441 14.297 41.3036 15.8857 44.5511 14.3664C49.756 11.9314 48.3916 3.9079 42.4877 5.17828Z" fill="#868686"/>
</g>
<defs>
<clipPath id="clip0_1106_2672">
<rect width="53" height="20" fill="#868686"/>
</clipPath>
</defs>
</svg>
