<svg width="20" height="20" viewBox="0 0 20 20" fill="none" xmlns="http://www.w3.org/2000/svg">
<path d="M7.57948 15.3059C7.14798 15.4193 6.37352 15.7044 6.58345 16.2882C6.98445 16.9222 7.84256 17.0147 8.52035 17.1518C10.239 17.3926 12.0242 17.1347 13.5917 16.3875C13.0533 16.2182 12.5489 15.8985 12.0521 15.7032C10.605 15.9982 9.06085 16.1224 7.62086 15.7363C7.69454 15.5644 8.35456 15.1694 7.80368 15.2894C7.72895 15.2949 7.65421 15.3004 7.57948 15.3059ZM7.1158 13.2057C6.68444 13.3793 5.91642 13.5862 5.99007 14.188C6.25675 14.7902 7.05857 14.8454 7.62242 14.977C9.76502 15.2881 11.9623 15.0142 14.0192 14.3728C13.5653 14.2028 13.0806 14.0425 12.7445 13.6747C10.9216 14.0361 8.99648 14.2178 7.17369 13.832C6.91728 13.6969 7.43627 13.4445 7.46506 13.308C7.9797 12.8674 7.28557 13.2435 7.1158 13.2057ZM14.3643 4.37692C12.8461 4.83508 11.2014 5.46261 10.3003 6.83759C9.65848 7.83813 10.1243 9.12271 10.8769 9.91958C11.3986 10.4327 11.1929 11.2746 10.659 11.6937C10.0994 12.1824 10.7455 12.0968 11.0701 11.862C11.8636 11.3721 12.7499 10.477 12.411 9.45599C12.1444 8.68496 11.1436 8.04598 11.4971 7.14493C12.1839 5.90559 13.6147 5.3604 14.6924 4.51903C15.1069 4.24226 14.5247 4.41453 14.3643 4.37692ZM4.51919 17.6399C5.18203 17.1993 5.99872 17.085 6.7817 17.1929C6.41486 16.927 6.07941 16.6262 5.59541 16.6935C4.6861 16.7822 3.7123 17.02 3.04886 17.6868C2.71993 18.0737 3.18656 18.5158 3.58138 18.5614C6.94521 19.1946 10.4502 19.2875 13.8286 18.6966C14.7107 18.4671 15.765 18.366 16.403 17.6537C16.7005 17.1492 16.0007 16.7797 15.5905 16.7479C15.421 16.7902 15.8915 17.0906 15.8787 17.3116C15.4657 17.7675 14.7344 17.7548 14.157 17.8993C9.87109 18.457 5.63759 18.2342 4.51919 17.6399ZM13.6994 12.3398C14.0263 12.163 14.3723 12.0243 14.643 11.7603C13.5824 11.6969 12.545 12.0459 11.4897 12.0832C9.77587 12.1884 8.01994 12.3842 6.32138 12.0583C6.0587 11.9976 6.53501 11.8606 6.60281 11.8072C7.21375 11.5357 7.88868 11.4751 8.47626 11.145C8.23263 11.0896 7.99637 10.9866 7.74228 11.0181C6.64151 11.0795 5.50778 11.3501 4.58852 11.9645C4.2633 12.2722 4.66837 12.6715 5.00516 12.7123C7.34188 13.3592 12.6445 13.0339 13.6994 12.3398ZM15.4597 10.8361C14.9023 10.8337 14.367 11.1004 14.1406 11.6358C13.8795 11.9899 14.5781 11.4736 14.8113 11.479C15.5555 11.1701 16.4569 11.9798 16.1026 12.7427C15.7367 13.6697 14.7448 14.1145 14.0001 14.6465C13.3807 15.154 13.5785 15.1776 14.2397 14.9373C15.4367 14.5872 16.8715 14.0266 17.2642 12.7233C17.5472 11.6505 16.5042 10.7365 15.4597 10.8361ZM11.7154 0C11.7633 0.220733 11.8111 0.441628 11.8589 0.662361C12.6901 3.95833 8.54948 4.71354 7.56008 7.05005C7.15289 8.24424 8.09648 9.33398 8.85129 10.1493C9.37061 10.6758 9.89799 11.2102 10.5041 11.6468C10.2276 10.2454 8.66701 9.34244 8.80724 7.83606C9.08567 6.38927 10.6025 5.75424 11.4727 4.70993C12.918 3.10547 13.2385 1.4277 11.7154 0ZM5.05463 19.0303C5.91943 19.8682 7.20928 19.8116 8.32154 19.9435C10.8606 20.0532 13.4683 20.0762 15.9093 19.3117C16.6057 19.0853 17.4952 18.5374 17.3001 17.6702C17.3579 17.1513 17.0956 17.8342 16.9853 17.9238C15.4771 19.4189 8.75832 19.6242 5.05463 19.0303Z" fill="#868686"/>
</svg>
