<svg width="20" height="20" viewBox="0 0 20 20" fill="none" xmlns="http://www.w3.org/2000/svg">
<g clip-path="url(#clip0_1106_2684)">
<path d="M0.572266 0.5H19.5723V19.5H0.572266V0.5ZM5.56504 16.3756C5.98727 17.2728 6.82116 18.0117 8.24616 18.0117C9.82949 18.0117 10.9167 17.1672 10.9167 15.32V9.21889H9.12227V15.2778C9.12227 16.1856 8.75282 16.4178 8.17227 16.4178C7.56004 16.4178 7.30671 15.9956 7.02171 15.4994L5.56504 16.3756ZM11.8773 16.1856C12.405 17.22 13.4712 18.0117 15.1389 18.0117C16.8278 18.0117 18.0945 17.1356 18.0945 15.5206C18.0945 14.0322 17.2395 13.3672 15.7195 12.7128L15.2762 12.5228C14.5056 12.1956 14.1784 11.9739 14.1784 11.4461C14.1784 11.0133 14.5056 10.6756 15.0334 10.6756C15.54 10.6756 15.8778 10.8972 16.1839 11.4461L17.5667 10.5278C16.9862 9.51444 16.1628 9.12389 15.0334 9.12389C13.4395 9.12389 12.4156 10.1372 12.4156 11.4778C12.4156 12.9344 13.2706 13.6206 14.5584 14.1694L15.0017 14.3594C15.825 14.7183 16.3106 14.94 16.3106 15.5522C16.3106 16.0589 15.8356 16.4283 15.0967 16.4283C14.2206 16.4283 13.7139 15.9744 13.3339 15.3411L11.8773 16.1856Z" fill="#868686"/>
</g>
<defs>
<clipPath id="clip0_1106_2684">
<rect width="19" height="20" fill="#868686" transform="translate(0.572266)"/>
</clipPath>
</defs>
</svg>
