<svg width="42" height="20" viewBox="0 0 42 20" fill="none" xmlns="http://www.w3.org/2000/svg">
<g clip-path="url(#clip0_1106_2699)">
<path d="M10.9909 4.11705H3.73437L0.597656 20H4.3233L5.10794 15.8829H8.63788C11.9703 16.0786 15.6978 13.3333 15.6978 8.62734C15.6978 5.88202 14.1276 4.31275 10.9909 4.11705ZM8.24465 12.9419H5.89075L6.87109 7.05989H9.42069C10.7924 7.05989 11.7746 7.64882 11.7746 8.82486C11.5789 12.1591 10.0096 12.7462 8.24465 12.9419ZM24.1276 4.11797L20.5976 4.11705L21.3823 0H17.6566L14.5199 15.8829H18.2456L20.0105 7.05989H22.9515C24.3251 7.05989 24.3251 7.64883 24.1276 8.62917L22.7558 15.8848H26.6772L28.0489 7.84453C28.4403 5.88385 27.2643 4.31367 24.1276 4.11797ZM37.2661 4.11705H30.0096L26.8729 20H30.5985L31.3832 15.8829H34.9131C38.2474 16.0786 41.973 13.3333 41.973 8.62734C41.973 5.88202 40.4028 4.31275 37.2661 4.11705ZM34.5199 12.9419H32.166L33.1463 7.05989H35.6959C37.0695 7.05989 38.0498 7.64882 38.0498 8.82486C37.8541 12.1591 36.2849 12.7462 34.5199 12.9419Z" fill="#868686"/>
</g>
<defs>
<clipPath id="clip0_1106_2699">
<rect width="41" height="20" fill="#868686" transform="translate(0.142578)"/>
</clipPath>
</defs>
</svg>
