<svg width="20" height="20" viewBox="0 0 20 20" fill="none" xmlns="http://www.w3.org/2000/svg">
<g clip-path="url(#clip0_1106_2696)">
<path d="M10.4271 0C5.35 0 5.66714 2.21286 5.66714 2.21286V4.50571H10.5186V5.19429H3.74857C3.74857 5.19429 0.5 4.82429 0.5 9.97429C0.5 15.1243 3.33571 14.9414 3.33571 14.9414H5.02714V12.5514C5.00503 12.1762 5.06153 11.8004 5.19302 11.4482C5.3245 11.0961 5.52808 10.7752 5.79072 10.5063C6.05335 10.2373 6.36926 10.0262 6.71821 9.88634C7.06715 9.74652 7.44146 9.6811 7.81714 9.69429H12.6243C12.9765 9.70991 13.3282 9.65334 13.6577 9.52807C13.9872 9.40279 14.2877 9.21144 14.5406 8.96579C14.7934 8.72014 14.9934 8.42537 15.1282 8.0996C15.263 7.77383 15.3297 7.42394 15.3243 7.07143V2.66857C15.3243 2.66857 15.7343 0 10.4271 0ZM7.75571 1.54143C7.92909 1.54058 8.09882 1.59122 8.2434 1.68693C8.38797 1.78263 8.50088 1.9191 8.56782 2.07904C8.63476 2.23898 8.65271 2.41519 8.61941 2.58534C8.5861 2.7555 8.50304 2.91194 8.38074 3.03484C8.25844 3.15774 8.10241 3.24157 7.93243 3.2757C7.76244 3.30984 7.58614 3.29275 7.42588 3.2266C7.26561 3.16045 7.12859 3.04821 7.03217 2.90411C6.93576 2.76 6.88429 2.59052 6.88429 2.41714C6.88391 2.3024 6.90616 2.1887 6.94977 2.08257C6.99338 1.97643 7.05748 1.87993 7.13842 1.7986C7.21936 1.71726 7.31554 1.65268 7.42146 1.60855C7.52739 1.56443 7.64097 1.54162 7.75571 1.54143ZM10.5743 20C15.6514 20 15.3343 17.7871 15.3343 17.7871V15.4943H10.4829V14.8057H17.2529C17.2529 14.8057 20.5 15.1757 20.5 10.0257C20.5 4.87571 17.6643 5.05857 17.6643 5.05857H15.9743V7.44857C15.9964 7.82384 15.9399 8.19959 15.8084 8.55176C15.6769 8.90394 15.4733 9.22477 15.2107 9.49373C14.9481 9.76269 14.6322 9.97384 14.2832 10.1137C13.9343 10.2535 13.56 10.3189 13.1843 10.3057H8.37714C8.02494 10.2901 7.67326 10.3467 7.34372 10.4719C7.01418 10.5972 6.71374 10.7886 6.46086 11.0342C6.20799 11.2799 6.00802 11.5746 5.87324 11.9004C5.73847 12.2262 5.67173 12.5761 5.67714 12.9286V17.3386C5.67714 17.3386 5.26714 20 10.5743 20ZM13.2457 18.4586C13.0723 18.4594 12.9026 18.4088 12.758 18.3131C12.6135 18.2174 12.5005 18.0809 12.4336 17.921C12.3667 17.761 12.3487 17.5848 12.382 17.4147C12.4153 17.2445 12.4984 17.0881 12.6207 16.9652C12.743 16.8423 12.899 16.7584 13.069 16.7243C13.239 16.6902 13.4153 16.7072 13.5756 16.7734C13.7358 16.8396 13.8728 16.9518 13.9693 17.0959C14.0657 17.24 14.1171 17.4095 14.1171 17.5829C14.1175 17.6976 14.0953 17.8113 14.0517 17.9174C14.0081 18.0236 13.9439 18.1201 13.863 18.2014C13.7821 18.2827 13.6859 18.3473 13.58 18.3914C13.474 18.4356 13.3605 18.4584 13.2457 18.4586Z" fill="#868686"/>
</g>
<defs>
<clipPath id="clip0_1106_2696">
<rect width="19" height="20" fill="#868686" transform="translate(0.5)"/>
</clipPath>
</defs>
</svg>
