<svg width="25" height="20" viewBox="0 0 25 20" fill="none" xmlns="http://www.w3.org/2000/svg">
<g clip-path="url(#clip0_1106_2705)">
<path d="M15.2276 0.186707C15.2276 0.186707 20.3149 3.0949 21.6455 7.7163C22.8454 11.8898 21.8842 13.8809 21.8842 13.8809C22.4975 14.5486 22.9809 15.3247 23.3097 16.1695C23.6397 16.7129 23.8335 17.328 23.8748 17.9624C23.9161 18.5968 23.8035 19.2318 23.5467 19.8133C23.5467 19.8133 23.4683 18.1116 20.9311 17.7585C18.6066 17.4315 17.7614 19.694 13.3247 19.5845C10.8641 19.5386 8.45201 18.8913 6.29898 17.6991C4.14594 16.5069 2.31733 14.806 0.972656 12.7447C3.14195 13.9283 5.98312 15.7641 9.52232 15.4846C13.0615 15.205 13.8004 14.1147 13.8004 14.1147C9.82227 10.9662 6.30113 7.28004 3.33812 3.16193C6.1188 5.48979 13.0109 10.1226 12.8506 10.0049C10.33 7.54202 8.02375 4.86882 5.95697 2.01434C5.95697 2.01434 16.2967 10.515 17.1288 10.461C17.4704 9.75645 19.2392 6.10935 15.2276 0.186707Z" fill="#868686"/>
</g>
<defs>
<clipPath id="clip0_1106_2705">
<rect width="24" height="20" fill="#868686" transform="translate(0.427734)"/>
</clipPath>
</defs>
</svg>
