<svg width="20" height="20" viewBox="0 0 20 20" fill="none" xmlns="http://www.w3.org/2000/svg">
<g clip-path="url(#clip0_1106_2687)">
<path fill-rule="evenodd" clip-rule="evenodd" d="M0.214844 0.499939V19.5H19.2149V0.499939H0.214844ZM14.6521 9.72847V9.72875C14.8343 9.72932 15.0413 9.73869 15.1971 9.75558C15.8313 9.82419 16.3252 10.0978 16.7454 10.6132C16.9547 10.8699 17.0263 10.9823 17.011 11.0303C17.0012 11.0613 16.8576 11.1641 16.4011 11.4672C15.9527 11.7648 15.8083 11.854 15.7747 11.854C15.7407 11.854 15.6699 11.7811 15.5677 11.6411C15.371 11.3715 15.1702 11.2484 14.8596 11.2074C14.5257 11.1632 14.2262 11.2684 14.0795 11.4816C13.9541 11.6638 13.9352 11.9569 14.0349 12.1699C14.1503 12.4166 14.3593 12.5529 15.1602 12.9042C16.084 13.3092 16.5521 13.5864 16.893 13.9305C17.2602 14.301 17.4462 14.7288 17.5033 15.3339C17.5312 15.6289 17.4971 15.9784 17.4127 16.2627C17.2057 16.9594 16.6472 17.4695 15.8284 17.7096C15.6021 17.776 15.3915 17.8156 15.1832 17.8309C14.8653 17.8543 14.4101 17.8414 14.1361 17.8015C13.443 17.7006 12.6605 17.2972 12.2704 16.8399C12.0788 16.6154 11.8343 16.2459 11.8343 16.1809C11.8343 16.1495 11.8499 16.1317 11.9114 16.0926C12.0941 15.9766 13.1406 15.3783 13.1609 15.3783C13.1732 15.3783 13.2278 15.4428 13.2823 15.5215C13.4058 15.6997 13.7094 16.0061 13.8637 16.1083C13.9898 16.1918 14.151 16.2589 14.3424 16.3073C14.452 16.3346 14.51 16.3395 14.7492 16.3395C14.9936 16.3394 15.0437 16.3353 15.153 16.3059C15.4422 16.2281 15.6679 16.067 15.7636 15.8703C15.8055 15.7853 15.8063 15.7747 15.8063 15.5685V15.3548L15.755 15.2528C15.6305 15.0057 15.3622 14.8362 14.5141 14.4688C14.1246 14.3 13.6474 14.0621 13.4612 13.9437C13.0361 13.6736 12.7414 13.3647 12.5481 12.9867C12.3558 12.6107 12.3271 12.4708 12.3266 11.9055C12.3261 11.463 12.3254 11.4684 12.417 11.186C12.5002 10.9297 12.6703 10.6434 12.8582 10.4437C13.2331 10.0452 13.7808 9.78905 14.3673 9.7381C14.4423 9.731 14.5427 9.72823 14.652 9.72855L14.6521 9.72847ZM9.6059 9.81588H9.60609C10.7355 9.81646 11.383 9.82036 11.3933 9.82689C11.4129 9.83901 11.4154 9.9373 11.4154 10.5646V11.2884L10.2883 11.2925L9.16134 11.2965V14.4964C9.16134 16.2564 9.15777 17.7068 9.15288 17.7196C9.14491 17.7411 9.05823 17.7428 8.32493 17.7428H7.50588L7.49742 17.7097C7.49195 17.6915 7.48797 16.2411 7.48787 14.4865L7.4876 11.2964L6.36059 11.2924L5.23358 11.2883V10.5731C5.23358 10.0059 5.2375 9.854 5.25259 9.83891C5.26809 9.82292 5.84326 9.8188 8.32156 9.81635C8.7994 9.81587 9.2294 9.81565 9.6059 9.81588Z" fill="#868686"/>
</g>
<defs>
<clipPath id="clip0_1106_2687">
<rect width="19" height="20" fill="#868686" transform="translate(0.214844)"/>
</clipPath>
</defs>
</svg>
