<svg width="21" height="21" viewBox="0 0 21 21" fill="none" xmlns="http://www.w3.org/2000/svg">
<path d="M1.36133 11.7472L10.7033 2.40525C11.1875 1.91075 11.765 1.51718 12.4023 1.2473C13.0396 0.977421 13.7241 0.836591 14.4162 0.832958C15.1083 0.829325 15.7942 0.962961 16.4343 1.22613C17.0744 1.48931 17.656 1.8768 18.1454 2.36618C18.6348 2.85557 19.0223 3.43713 19.2854 4.07724C19.5486 4.71734 19.6823 5.40328 19.6786 6.09537C19.675 6.78745 19.5342 7.47195 19.2643 8.10925C18.9944 8.74656 18.6008 9.32403 18.1063 9.80825L9.38033 18.5322C8.83976 19.0553 8.11528 19.3449 7.36311 19.3388C6.61094 19.3326 5.89133 19.031 5.35945 18.4991C4.82757 17.9672 4.52602 17.2476 4.51982 16.4955C4.51363 15.7433 4.80328 15.0188 5.32633 14.4782L13.6983 6.10525" stroke="white" stroke-width="1.5" stroke-linecap="round" stroke-linejoin="round"/>
</svg>
