<svg width="5" height="20" viewBox="0 0 5 20" fill="none" xmlns="http://www.w3.org/2000/svg">
<g opacity="0.5">
<path d="M0.145249 2.91584C0.145249 2.33785 0.374856 1.78353 0.783559 1.37482C1.19226 0.966118 1.74658 0.736511 2.32458 0.736511C2.90257 0.736511 3.45689 0.966118 3.8656 1.37482C4.2743 1.78353 4.50391 2.33785 4.50391 2.91584C4.50391 3.49383 4.2743 4.04816 3.8656 4.45686C3.45689 4.86556 2.90257 5.09517 2.32458 5.09517C1.74658 5.09517 1.19226 4.86556 0.783559 4.45686C0.374856 4.04816 0.145249 3.49383 0.145249 2.91584ZM0.145249 10.1803C0.145249 9.60228 0.374856 9.04795 0.783559 8.63925C1.19226 8.23055 1.74658 8.00094 2.32458 8.00094C2.90257 8.00094 3.45689 8.23055 3.8656 8.63925C4.2743 9.04795 4.50391 9.60228 4.50391 10.1803C4.50391 10.7583 4.2743 11.3126 3.8656 11.7213C3.45689 12.13 2.90257 12.3596 2.32458 12.3596C1.74658 12.3596 1.19226 12.13 0.783559 11.7213C0.374856 11.3126 0.145249 10.7583 0.145249 10.1803ZM0.145249 17.4447C0.145249 16.8667 0.374856 16.3124 0.783559 15.9037C1.19226 15.495 1.74658 15.2654 2.32458 15.2654C2.90257 15.2654 3.45689 15.495 3.8656 15.9037C4.2743 16.3124 4.50391 16.8667 4.50391 17.4447C4.50391 18.0227 4.2743 18.577 3.8656 18.9857C3.45689 19.3944 2.90257 19.624 2.32458 19.624C1.74658 19.624 1.19226 19.3944 0.783559 18.9857C0.374856 18.577 0.145249 18.0227 0.145249 17.4447Z" fill="white"/>
</g>
</svg>
