<svg width="21" height="20" viewBox="0 0 21 20" fill="none" xmlns="http://www.w3.org/2000/svg">
<g clip-path="url(#clip0_730_18247)">
<path d="M14.4272 7.83587C14.3503 7.10514 14.0126 6.42661 13.4759 5.92476C12.9393 5.42292 12.2396 5.13141 11.5054 5.10373C8.87288 5.03944 7.51645 7.10141 7.51645 10.0489C7.51645 12.9964 9.0127 15.3525 11.5793 15.3525C14.1459 15.3525 14.4272 12.4082 14.4272 12.4082L19.345 12.7023C19.3954 13.5647 19.2641 14.4281 18.9595 15.2365C18.655 16.0449 18.184 16.7803 17.5772 17.3952C16.7308 18.1927 15.7326 18.8116 14.6419 19.215C13.5513 19.6184 12.3905 19.798 11.2289 19.7432C10.0242 19.8567 8.80928 19.7012 7.67197 19.2879C6.53465 18.8746 5.50333 18.2138 4.65252 17.3534C3.71677 16.4378 2.9866 15.3336 2.51055 14.1141C2.03449 12.8946 1.82345 11.5877 1.89145 10.2803C1.80578 8.8351 2.05556 7.38964 2.62125 6.05696C3.18695 4.72429 4.05322 3.54051 5.15234 2.59819C6.75802 1.2047 8.81364 0.439198 10.9397 0.443014C13.0634 0.321813 15.1511 1.03101 16.7615 2.42075C18.372 3.81049 19.3791 5.7719 19.57 7.89051L14.4272 7.83587Z" fill="#F2F2F2"/>
</g>
<defs>
<clipPath id="clip0_730_18247">
<rect width="19.2857" height="19.2857" fill="white" transform="translate(0.820312 0.445312)"/>
</clipPath>
</defs>
</svg>
