<svg width="19" height="20" viewBox="0 0 19 20" fill="none" xmlns="http://www.w3.org/2000/svg">
<g clip-path="url(#clip0_730_18249)">
<path d="M17.276 4.75529L10.2497 0.69873C9.84498 0.465007 9.18257 0.465007 8.77782 0.69873L1.75158 4.75529C1.34677 4.98896 1.01562 5.56262 1.01562 6.03001V14.1432C1.04712 14.6875 1.32514 15.1383 1.75158 15.4179L8.77782 19.4745C9.18257 19.7082 9.84498 19.7082 10.2497 19.4745L17.276 15.4179C17.7335 15.1136 17.9939 14.6556 18.0119 14.1432V6.03001C17.9955 5.53823 17.701 5.04222 17.276 4.75529ZM3.84834 10.0866C3.81505 4.55461 11.2246 2.11188 14.42 7.25214L11.9681 8.67094C10.488 6.22286 6.81295 7.0982 6.68106 10.0866C6.72067 12.8409 10.3328 14.1203 11.9683 11.5022L14.4201 12.9209C11.6041 17.8094 3.99036 16.0506 3.84834 10.0866ZM15.1792 10.4013H14.5497V11.0309H13.9203V10.4013H13.2907V9.77186H13.9203V9.14239H14.5497V9.77186H15.1792V10.4013ZM17.5398 10.4013H16.9103V11.0309H16.2809V10.4013H15.6513V9.77186H16.2809V9.14239H16.9103V9.77186H17.5398V10.4013Z" fill="#F2F2F2"/>
</g>
<defs>
<clipPath id="clip0_730_18249">
<rect width="17.5325" height="19.2857" fill="white" transform="translate(0.75 0.445312)"/>
</clipPath>
</defs>
</svg>
