<svg width="21" height="20" viewBox="0 0 21 20" fill="none" xmlns="http://www.w3.org/2000/svg">
<g clip-path="url(#clip0_730_18251)">
<path d="M14.623 9.66116H15.1574L15.0879 10.3142H14.5554L14.623 9.66116ZM19.134 5.99778V14.1786C19.1159 14.6952 18.8533 15.1571 18.3919 15.4639L11.3071 19.5543C10.899 19.7899 10.2311 19.7899 9.82298 19.5543L2.73818 15.4639C2.30819 15.182 2.02785 14.7274 1.99609 14.1786V5.99778C1.99609 5.52648 2.33 4.94805 2.73818 4.71243L9.82298 0.622066C10.2311 0.386395 10.899 0.386395 11.3071 0.622066L18.3919 4.71243C18.8205 5.00175 19.1175 5.50189 19.134 5.99778ZM15.5123 12.9461L13.04 11.5155C11.3909 14.1555 7.74868 12.8654 7.70874 10.0882C7.84173 7.07487 11.5474 6.19222 13.0399 8.66071L15.5122 7.23008C12.2902 2.04699 4.81885 4.51008 4.85242 10.0882C4.99562 16.1019 12.6728 17.8754 15.5123 12.9461ZM16.1025 9.20645H15.6787L15.7551 8.46847H15.2842L15.2057 9.20645H14.6701L14.7465 8.46847H14.2757L14.1972 9.20645H13.7483V9.66116H14.1488L14.0793 10.3142H13.6165V10.7689H14.031L13.9451 11.576H14.4248L14.5084 10.7689H15.0395L14.9537 11.576H15.4334L15.5169 10.7689H15.9707V10.3142H15.564L15.6316 9.66116H16.1025V9.20645Z" fill="#F2F2F2"/>
</g>
<defs>
<clipPath id="clip0_730_18251">
<rect width="19.2857" height="19.2857" fill="white" transform="translate(0.921875 0.445312)"/>
</clipPath>
</defs>
</svg>
