<svg width="17" height="20" viewBox="0 0 17 20" fill="none" xmlns="http://www.w3.org/2000/svg">
<path d="M8.5 12.9565C8.37733 12.9565 8.26381 12.9349 8.15943 12.8916C8.05505 12.8484 7.95333 12.7733 7.85429 12.6663L4.86 9.45939C4.74876 9.34021 4.69086 9.1998 4.68629 9.03817C4.68171 8.87654 4.73962 8.72837 4.86 8.59368C4.98648 8.45817 5.12248 8.38919 5.268 8.38674C5.41429 8.38429 5.55029 8.45082 5.676 8.58633L7.92857 10.9998V1.02021C7.92857 0.846335 7.98305 0.700621 8.092 0.58307C8.20095 0.465519 8.33695 0.407151 8.5 0.407967C8.66305 0.408784 8.79905 0.467151 8.908 0.58307C9.01695 0.698988 9.07143 0.844702 9.07143 1.02021V10.9998L11.324 8.58633C11.4352 8.46715 11.5674 8.4047 11.7206 8.39898C11.8737 8.39327 12.0131 8.45817 12.1389 8.59368C12.2608 8.72837 12.3229 8.87286 12.3251 9.02715C12.3274 9.18143 12.2657 9.32551 12.14 9.45939L9.14571 12.6676C9.04667 12.7737 8.94495 12.8484 8.84057 12.8916C8.73695 12.9349 8.62343 12.9565 8.5 12.9565ZM2.34686 17.5508C1.82038 17.5508 1.38114 17.3622 1.02914 16.9851C0.677143 16.608 0.500762 16.1369 0.5 15.572V13.2173C0.5 13.0435 0.554476 12.8982 0.663429 12.7814C0.772381 12.6647 0.908381 12.6059 1.07143 12.6051C1.23448 12.6043 1.37048 12.6631 1.47943 12.7814C1.58838 12.8998 1.64286 13.0451 1.64286 13.2173V15.572C1.64286 15.7606 1.716 15.9337 1.86229 16.0912C2.00857 16.2488 2.16971 16.3271 2.34571 16.3263H14.6543C14.8295 16.3263 14.9907 16.248 15.1377 16.0912C15.2848 15.9345 15.3579 15.7614 15.3571 15.572V13.2173C15.3571 13.0435 15.4116 12.8982 15.5206 12.7814C15.6295 12.6647 15.7655 12.6059 15.9286 12.6051C16.0916 12.6043 16.2276 12.6631 16.3366 12.7814C16.4455 12.8998 16.5 13.0451 16.5 13.2173V15.572C16.5 16.1361 16.324 16.6067 15.972 16.9839C15.62 17.361 15.1804 17.55 14.6531 17.5508H2.34686Z" fill="#1C1C1C"/>
</svg>
