<svg width="53" height="20" viewBox="0 0 53 20" fill="none" xmlns="http://www.w3.org/2000/svg">
<g clip-path="url(#clip0_730_18245)">
<path d="M3.90593 6.25061L4.64351 5.30945L14.0143 5.30501L13.411 6.24617L3.90593 6.25061ZM12.4049 8.56588L12.7158 7.62472L0.843052 7.63292L0.105469 8.57408L12.4049 8.56588ZM12.0638 10.8894L12.1535 9.94819L6.75293 9.95264L6.22877 10.8938L12.0638 10.8894ZM46.5098 18.2597C41.3141 21.1219 34.2153 19.9098 32.3174 13.7039C31.1958 15.9111 29.3645 17.7201 27.1822 18.7517C22.0114 21.1958 14.9911 19.0644 14.0881 12.3664C13.4269 5.94646 18.6229 1.97937 21.6945 0.977804C26.5761 -0.542846 31.3906 1.24399 33.0554 5.6911L27.8118 7.06548C27.2548 5.51514 24.2269 4.39872 21.8994 6.08148C18.2388 8.34001 18.3065 14.0236 22.7291 14.8676C25.0253 15.162 26.5677 14.0274 27.7239 12.2822L22.0299 12.2944L23.8595 8.34927H32.393C36.0889 -2.07753 50.5034 -1.62097 51.9683 7.74834C52.489 11.0784 51.3522 15.5922 46.5098 18.2597ZM41.7743 5.35936C37.8291 6.20827 36.8458 9.69325 37.4548 11.9261C38.1028 14.3023 40.6131 15.8604 43.798 14.3704C48.9025 11.9823 47.5645 4.11347 41.7743 5.35936Z" fill="#F2F2F2"/>
</g>
<defs>
<clipPath id="clip0_730_18245">
<rect width="52.0714" height="19.2857" fill="white" transform="translate(0.105469 0.445312)"/>
</clipPath>
</defs>
</svg>
