<svg width="41" height="41" viewBox="0 0 41 41" fill="none" xmlns="http://www.w3.org/2000/svg">
<path d="M7.16732 19.6889L6.35898 19.8906C5.63785 20.0708 4.99766 20.4869 4.54016 21.0728C4.08266 21.6586 3.8341 22.3806 3.83398 23.1239V26.2522C3.8341 26.9955 4.08266 27.7175 4.54016 28.3033C4.99766 28.8892 5.63785 29.3053 6.35898 29.4855L9.25898 30.2105C9.40634 30.2472 9.56013 30.2499 9.70867 30.2183C9.85721 30.1867 9.9966 30.1217 10.1163 30.0282C10.2359 29.9347 10.3328 29.8152 10.3994 29.6787C10.466 29.5423 10.5006 29.3924 10.5007 29.2406V20.1355C10.5007 19.9835 10.466 19.8335 10.3993 19.6968C10.3326 19.5602 10.2356 19.4406 10.1158 19.3471C9.99589 19.2535 9.85626 19.1886 9.70751 19.1571C9.55876 19.1257 9.40479 19.1286 9.25732 19.1655L7.16732 19.6889ZM7.16732 19.6889V18.8555C7.16732 15.3193 8.57208 11.9279 11.0726 9.42746C13.573 6.92697 16.9644 5.52222 20.5007 5.52222C24.0369 5.52222 27.4283 6.92697 29.9287 9.42746C32.4292 11.9279 33.834 15.3193 33.834 18.8555V19.6889M33.834 19.6889L34.6423 19.8906C35.3634 20.0708 36.0036 20.4869 36.4611 21.0728C36.9186 21.6586 37.1672 22.3806 37.1673 23.1239V26.2522C37.1672 26.9955 36.9186 27.7175 36.4611 28.3033C36.0036 28.8892 35.3634 29.3053 34.6423 29.4855L33.834 29.6889M33.834 19.6889L31.7423 19.1655C31.595 19.1288 31.4412 19.1262 31.2926 19.1578C31.1441 19.1894 31.0047 19.2544 30.885 19.3479C30.7654 19.4414 30.6685 19.5609 30.6019 19.6974C30.5353 19.8338 30.5007 19.9837 30.5007 20.1355V29.2406C30.5007 29.3924 30.5353 29.5423 30.6019 29.6787C30.6685 29.8152 30.7654 29.9347 30.885 30.0282C31.0047 30.1217 31.1441 30.1867 31.2926 30.2183C31.4412 30.2499 31.595 30.2472 31.7423 30.2105L33.834 29.6889M33.834 29.6889V31.3555C33.834 32.2396 33.4828 33.0875 32.8577 33.7126C32.2326 34.3377 31.3847 34.6889 30.5007 34.6889H25.5007M25.5007 34.6889C25.5007 34.0258 25.2373 33.39 24.7684 32.9211C24.2996 32.4523 23.6637 32.1889 23.0007 32.1889H18.0007C17.3376 32.1889 16.7017 32.4523 16.2329 32.9211C15.764 33.39 15.5007 34.0258 15.5007 34.6889C15.5007 35.3519 15.764 35.9878 16.2329 36.4566C16.7017 36.9255 17.3376 37.1889 18.0007 37.1889H23.0007C23.6637 37.1889 24.2996 36.9255 24.7684 36.4566C25.2373 35.9878 25.5007 35.3519 25.5007 34.6889Z" stroke="#F2F2F2" stroke-width="2"/>
</svg>
