<svg width="20" height="20" viewBox="0 0 20 20" fill="none" xmlns="http://www.w3.org/2000/svg">
<g clip-path="url(#clip0_730_18270)">
<path d="M7.58948 15.2046C7.17339 15.3139 6.42658 15.5889 6.62902 16.1518C7.0157 16.7632 7.84316 16.8523 8.49674 16.9845C10.1541 17.2167 11.8755 16.9681 13.387 16.2475C12.8678 16.0843 12.3814 15.776 11.9023 15.5877C10.507 15.8722 9.01794 15.9919 7.62938 15.6196C7.70042 15.4538 8.33688 15.073 7.80567 15.1887C7.73361 15.194 7.66154 15.1993 7.58948 15.2046ZM7.14236 13.1794C6.7264 13.3468 5.98581 13.5463 6.05683 14.1266C6.31398 14.7073 7.08717 14.7605 7.63089 14.8874C9.69697 15.1874 11.8158 14.9233 13.7992 14.3048C13.3615 14.1409 12.8941 13.9863 12.57 13.6317C10.8122 13.9801 8.95587 14.1553 7.19818 13.7833C6.95093 13.6531 7.45139 13.4096 7.47914 13.278C7.9754 12.8532 7.30606 13.2159 7.14236 13.1794ZM14.132 4.66591C12.668 5.10771 11.0821 5.71283 10.2131 7.0387C9.59422 8.00351 10.0434 9.24222 10.7692 10.0106C11.2722 10.5054 11.0738 11.3172 10.559 11.7214C10.0194 12.1927 10.6424 12.11 10.9554 11.8837C11.7206 11.4113 12.5752 10.5482 12.2485 9.56359C11.9913 8.8201 11.0263 8.20394 11.3672 7.33507C12.0295 6.13999 13.4092 5.61427 14.4484 4.80295C14.8481 4.53606 14.2867 4.70218 14.132 4.66591ZM4.63848 17.4552C5.27765 17.0304 6.06517 16.9202 6.82019 17.0242C6.46645 16.7678 6.14298 16.4777 5.67627 16.5426C4.79944 16.6281 3.86041 16.8574 3.22066 17.5004C2.90348 17.8736 3.35345 18.2999 3.73417 18.3438C6.97786 18.9544 10.3577 19.044 13.6154 18.4742C14.466 18.2529 15.4826 18.1554 16.0978 17.4685C16.3848 16.982 15.7099 16.6258 15.3144 16.5951C15.151 16.6359 15.6046 16.9255 15.5923 17.1386C15.194 17.5783 14.4889 17.566 13.9321 17.7053C9.79925 18.2432 5.71694 18.0283 4.63848 17.4552ZM13.4908 12.3444C13.8061 12.174 14.1397 12.0402 14.4008 11.7856C13.378 11.7245 12.3776 12.061 11.36 12.097C9.70743 12.1984 8.0142 12.3872 6.37631 12.073C6.12301 12.0144 6.5823 11.8823 6.64769 11.8309C7.23681 11.569 7.88764 11.5106 8.45423 11.1923C8.2193 11.1389 7.99147 11.0395 7.74646 11.0699C6.68501 11.1291 5.59176 11.39 4.70534 11.9825C4.39173 12.2793 4.78234 12.6642 5.1071 12.7036C7.36036 13.3274 12.4736 13.0137 13.4908 12.3444ZM15.1883 10.8944C14.6508 10.8921 14.1346 11.1493 13.9163 11.6656C13.6645 12.007 14.3381 11.5092 14.563 11.5143C15.2806 11.2165 16.1498 11.9972 15.8082 12.7329C15.4553 13.6268 14.4989 14.0557 13.7808 14.5687C13.1835 15.0581 13.3742 15.0808 14.0118 14.8492C15.1661 14.5115 16.5496 13.971 16.9283 12.7142C17.2012 11.6797 16.1955 10.7983 15.1883 10.8944ZM11.5777 0.445312C11.6238 0.658163 11.6699 0.871168 11.716 1.08402C12.5176 4.26228 8.52483 4.99051 7.57077 7.24357C7.17812 8.39512 8.08801 9.44593 8.81586 10.2322C9.31664 10.7398 9.82518 11.2551 10.4097 11.6761C10.1431 10.3248 8.63817 9.45409 8.77339 8.00151C9.04188 6.60639 10.5046 5.99405 11.3436 4.98703C12.7373 3.43987 13.0464 1.82203 11.5777 0.445312ZM5.1548 18.7959C5.98871 19.6039 7.2325 19.5494 8.30504 19.6766C10.7534 19.7823 13.268 19.8045 15.6218 19.0673C16.2933 18.849 17.151 18.3206 16.963 17.4845C17.0187 16.9841 16.7657 17.6426 16.6594 17.729C15.205 19.1707 8.72621 19.3686 5.1548 18.7959Z" fill="#F2F2F2"/>
</g>
<defs>
<clipPath id="clip0_730_18270">
<rect width="19.2857" height="19.2857" fill="white" transform="translate(0.421875 0.445312)"/>
</clipPath>
</defs>
</svg>
