<svg width="22" height="20" viewBox="0 0 22 20" fill="none" xmlns="http://www.w3.org/2000/svg">
<g clip-path="url(#clip0_730_18253)">
<path d="M1.4375 0.445312H20.7232V19.731H1.4375V0.445312ZM6.50536 16.5596C6.93393 17.4703 7.78036 18.2203 9.22679 18.2203C10.8339 18.2203 11.9375 17.3632 11.9375 15.4882V9.29531H10.1161V15.4453C10.1161 16.3667 9.74107 16.6025 9.15179 16.6025C8.53036 16.6025 8.27321 16.1739 7.98393 15.6703L6.50536 16.5596ZM12.9125 16.3667C13.4482 17.4167 14.5304 18.2203 16.2232 18.2203C17.9375 18.2203 19.2232 17.331 19.2232 15.6917C19.2232 14.181 18.3554 13.506 16.8125 12.8417L16.3625 12.6489C15.5804 12.3167 15.2482 12.0917 15.2482 11.556C15.2482 11.1167 15.5804 10.7739 16.1161 10.7739C16.6304 10.7739 16.9732 10.9989 17.2839 11.556L18.6875 10.6239C18.0982 9.59531 17.2625 9.19888 16.1161 9.19888C14.4982 9.19888 13.4589 10.2275 13.4589 11.5882C13.4589 13.0667 14.3268 13.7632 15.6339 14.3203L16.0839 14.5132C16.9196 14.8775 17.4125 15.1025 17.4125 15.7239C17.4125 16.2382 16.9304 16.6132 16.1804 16.6132C15.2911 16.6132 14.7768 16.1525 14.3911 15.5096L12.9125 16.3667Z" fill="#F2F2F2"/>
</g>
<defs>
<clipPath id="clip0_730_18253">
<rect width="20.3571" height="19.2857" fill="white" transform="translate(0.851562 0.445312)"/>
</clipPath>
</defs>
</svg>
