<svg width="22" height="20" viewBox="0 0 22 20" fill="none" xmlns="http://www.w3.org/2000/svg">
<g clip-path="url(#clip0_192_1214)">
<path d="M1.4375 0.443665H20.7232V19.7294H1.4375V0.443665ZM6.50536 16.558C6.93393 17.4687 7.78036 18.2187 9.22679 18.2187C10.8339 18.2187 11.9375 17.3615 11.9375 15.4865V9.29367H10.1161V15.4437C10.1161 16.3651 9.74107 16.6008 9.15179 16.6008C8.53036 16.6008 8.27321 16.1722 7.98393 15.6687L6.50536 16.558ZM12.9125 16.3651C13.4482 17.4151 14.5304 18.2187 16.2232 18.2187C17.9375 18.2187 19.2232 17.3294 19.2232 15.6901C19.2232 14.1794 18.3554 13.5044 16.8125 12.8401L16.3625 12.6472C15.5804 12.3151 15.2482 12.0901 15.2482 11.5544C15.2482 11.1151 15.5804 10.7722 16.1161 10.7722C16.6304 10.7722 16.9732 10.9972 17.2839 11.5544L18.6875 10.6222C18.0982 9.59367 17.2625 9.19724 16.1161 9.19724C14.4982 9.19724 13.4589 10.2258 13.4589 11.5865C13.4589 13.0651 14.3268 13.7615 15.6339 14.3187L16.0839 14.5115C16.9196 14.8758 17.4125 15.1008 17.4125 15.7222C17.4125 16.2365 16.9304 16.6115 16.1804 16.6115C15.2911 16.6115 14.7768 16.1508 14.3911 15.508L12.9125 16.3651Z" fill="#F2F2F2"/>
</g>
<defs>
<clipPath id="clip0_192_1214">
<rect width="20.3571" height="19.2857" fill="white" transform="translate(0.853516 0.443665)"/>
</clipPath>
</defs>
</svg>
