<svg width="41" height="41" viewBox="0 0 41 41" fill="none" xmlns="http://www.w3.org/2000/svg">
<path d="M17.3583 36.9738C18.3683 37.8072 19.4217 38.5688 20.5 39.3122C21.5807 38.5787 22.6289 37.7985 23.6417 36.9738C25.33 35.5875 26.9189 34.0844 28.3967 32.4755C31.8033 28.7505 35.5 23.3505 35.5 17.2888C35.5 15.319 35.112 13.3684 34.3582 11.5486C33.6044 9.72868 32.4995 8.07509 31.1066 6.68222C29.7137 5.28934 28.0601 4.18445 26.2403 3.43063C24.4204 2.6768 22.4698 2.28882 20.5 2.28882C18.5302 2.28882 16.5796 2.6768 14.7597 3.43063C12.9399 4.18445 11.2863 5.28934 9.8934 6.68222C8.50052 8.07509 7.39563 9.72868 6.64181 11.5486C5.88799 13.3684 5.5 15.319 5.5 17.2888C5.5 23.3505 9.19667 28.7488 12.6033 32.4755C14.081 34.0849 15.6699 35.587 17.3583 36.9738ZM20.5 22.7055C19.0634 22.7055 17.6857 22.1348 16.6698 21.119C15.654 20.1032 15.0833 18.7254 15.0833 17.2888C15.0833 15.8522 15.654 14.4745 16.6698 13.4587C17.6857 12.4428 19.0634 11.8722 20.5 11.8722C21.9366 11.8722 23.3143 12.4428 24.3302 13.4587C25.346 14.4745 25.9167 15.8522 25.9167 17.2888C25.9167 18.7254 25.346 20.1032 24.3302 21.119C23.3143 22.1348 21.9366 22.7055 20.5 22.7055Z" fill="#F2F2F2"/>
</svg>
