<svg width="41" height="41" viewBox="0 0 41 41" fill="none" xmlns="http://www.w3.org/2000/svg">
<path d="M11.2223 4.52222C13.559 4.27222 16.5607 4.27222 20.4223 4.27222H20.579C24.4407 4.27222 27.4423 4.27222 29.779 4.52222C32.1423 4.77722 34.014 5.30555 35.5073 6.49888C37.0407 7.72555 37.7573 9.32055 38.0956 11.3322C38.4173 13.2522 38.4173 15.6955 38.4173 18.7422V19.0472C38.4173 22.0172 38.4173 24.0722 38.084 25.6039C37.9276 26.391 37.619 27.14 37.1757 27.8089C36.7357 28.4622 36.1757 29.0122 35.509 29.5455C34.014 30.7405 32.1423 31.2672 29.779 31.5206C27.4423 31.7722 24.4407 31.7722 20.579 31.7722H20.5007C18.7407 31.7722 17.3957 32.3672 15.989 33.2822C15.419 33.6505 14.864 34.0555 14.2623 34.4972L13.7557 34.8639C12.964 35.4389 12.099 36.0472 11.1223 36.6072C10.9322 36.7162 10.7168 36.7733 10.4976 36.7728C10.2785 36.7722 10.0633 36.7141 9.87375 36.6042C9.68416 36.4943 9.52679 36.3365 9.41743 36.1466C9.30807 35.9567 9.25056 35.7414 9.25065 35.5222V31.2139C7.78565 30.8972 6.54565 30.3872 5.49398 29.5472C4.82732 29.0122 4.26565 28.4639 3.82732 27.8089C3.38336 27.1401 3.07425 26.3911 2.91732 25.6039C2.58398 24.0722 2.58398 22.0172 2.58398 19.0472V18.7422C2.58398 15.6955 2.58398 13.2522 2.90565 11.3339C3.24398 9.32055 3.96065 7.72555 5.49398 6.49888C6.98732 5.30388 8.85898 4.77555 11.2223 4.52222ZM15.084 18.0239C15.084 17.6924 14.9523 17.3744 14.7179 17.14C14.4834 16.9056 14.1655 16.7739 13.834 16.7739C13.5025 16.7739 13.1845 16.9056 12.9501 17.14C12.7157 17.3744 12.584 17.6924 12.584 18.0239V18.8572C12.584 19.1887 12.7157 19.5067 12.9501 19.7411C13.1845 19.9755 13.5025 20.1072 13.834 20.1072C14.1655 20.1072 14.4834 19.9755 14.7179 19.7411C14.9523 19.5067 15.084 19.1887 15.084 18.8572V18.0239ZM21.7507 18.0239C21.7507 17.6924 21.619 17.3744 21.3845 17.14C21.1501 16.9056 20.8322 16.7739 20.5007 16.7739C20.1691 16.7739 19.8512 16.9056 19.6168 17.14C19.3823 17.3744 19.2507 17.6924 19.2507 18.0239V18.8572C19.2507 19.1887 19.3823 19.5067 19.6168 19.7411C19.8512 19.9755 20.1691 20.1072 20.5007 20.1072C20.8322 20.1072 21.1501 19.9755 21.3845 19.7411C21.619 19.5067 21.7507 19.1887 21.7507 18.8572V18.0239ZM28.4173 18.0239C28.4173 17.6924 28.2856 17.3744 28.0512 17.14C27.8168 16.9056 27.4988 16.7739 27.1673 16.7739C26.8358 16.7739 26.5179 16.9056 26.2834 17.14C26.049 17.3744 25.9173 17.6924 25.9173 18.0239V18.8572C25.9173 19.1887 26.049 19.5067 26.2834 19.7411C26.5179 19.9755 26.8358 20.1072 27.1673 20.1072C27.4988 20.1072 27.8168 19.9755 28.0512 19.7411C28.2856 19.5067 28.4173 19.1887 28.4173 18.8572V18.0239Z" fill="#F2F2F2"/>
</svg>
