<svg width="41" height="41" viewBox="0 0 41 41" fill="none" xmlns="http://www.w3.org/2000/svg">
<path d="M20.4993 36.7722C22.3327 36.7722 23.8327 35.2722 23.8327 33.4389H17.166C17.166 35.2722 18.666 36.7722 20.4993 36.7722ZM30.4993 26.7722V18.4389C30.4993 13.3222 27.7827 9.03888 22.9993 7.90555V6.77222C22.9993 5.38888 21.8827 4.27222 20.4993 4.27222C19.116 4.27222 17.9993 5.38888 17.9993 6.77222V7.90555C13.2327 9.03888 10.4993 13.3055 10.4993 18.4389V26.7722L7.16602 30.1055V31.7722H33.8327V30.1055L30.4993 26.7722ZM27.166 28.4389H13.8327V18.4389C13.8327 14.3055 16.3493 10.9389 20.4993 10.9389C24.6493 10.9389 27.166 14.3055 27.166 18.4389V28.4389Z" fill="#F2F2F2"/>
</svg>
