<svg width="40" height="20" viewBox="0 0 40 20" fill="none" xmlns="http://www.w3.org/2000/svg">
<g clip-path="url(#clip0_730_18264)">
<path d="M10.728 4.60367H3.96321L1.03906 19.4102H4.51223L5.24369 15.5722H8.53442C11.641 15.7546 15.1159 13.1954 15.1159 8.8083C15.1159 6.24903 13.6521 4.78611 10.728 4.60367ZM8.16784 12.8305H5.97345L6.88735 7.34708H9.26418C10.543 7.34708 11.4586 7.8961 11.4586 8.99244C11.2761 12.1007 9.8132 12.648 8.16784 12.8305ZM22.9744 4.60452L19.6837 4.60367L20.4151 0.765625H16.942L14.0178 15.5722H17.491L19.1364 7.34708H21.8781C23.1586 7.34708 23.1586 7.8961 22.9744 8.81001L21.6956 15.5739H25.3512L26.63 8.07855C26.9949 6.25074 25.8986 4.78696 22.9744 4.60452ZM35.2226 4.60367H28.4578L25.5337 19.4102H29.0068L29.7383 15.5722H33.029C36.1373 15.7546 39.6105 13.1954 39.6105 8.8083C39.6105 6.24903 38.1467 4.78611 35.2226 4.60367ZM32.6624 12.8305H30.4681L31.382 7.34708H33.7588C35.0393 7.34708 35.9532 7.8961 35.9532 8.99244C35.7707 12.1007 34.3078 12.648 32.6624 12.8305Z" fill="#F2F2F2"/>
</g>
<defs>
<clipPath id="clip0_730_18264">
<rect width="38.5714" height="19.2857" fill="white" transform="translate(0.566406 0.445312)"/>
</clipPath>
</defs>
</svg>
