<svg width="20" height="20" viewBox="0 0 20 20" fill="none" xmlns="http://www.w3.org/2000/svg">
<g clip-path="url(#clip0_730_18262)">
<path d="M10.1062 0.882812C5.43295 0.882812 5.72487 2.91965 5.72487 2.91965V5.03012H10.1904V5.66392H3.95891C3.95891 5.66392 0.96875 5.32335 0.96875 10.0637C0.96875 14.804 3.5789 14.6357 3.5789 14.6357H5.13578V12.4358C5.11543 12.0904 5.16743 11.7446 5.28846 11.4204C5.40949 11.0962 5.59687 10.8009 5.83861 10.5534C6.08036 10.3058 6.37114 10.1114 6.69233 9.98274C7.01352 9.85404 7.35804 9.79383 7.70385 9.80596H12.1286C12.4528 9.82034 12.7765 9.76828 13.0798 9.65296C13.3831 9.53765 13.6597 9.36153 13.8925 9.13542C14.1252 8.9093 14.3093 8.63798 14.4333 8.33813C14.5574 8.03827 14.6188 7.71621 14.6138 7.39174V3.33911C14.6138 3.33911 14.9912 0.882812 10.1062 0.882812ZM7.64731 2.30163C7.80689 2.30085 7.96312 2.34746 8.0962 2.43555C8.22927 2.52364 8.3332 2.64926 8.39481 2.79648C8.45642 2.94369 8.47295 3.10589 8.4423 3.2625C8.41164 3.41912 8.33518 3.56312 8.22261 3.67624C8.11004 3.78936 7.96643 3.86653 7.80996 3.89795C7.65349 3.92937 7.49122 3.91364 7.3437 3.85275C7.19619 3.79186 7.07006 3.68855 6.98132 3.55591C6.89257 3.42327 6.8452 3.26727 6.84519 3.10768C6.84485 3.00206 6.86533 2.89741 6.90547 2.79972C6.94561 2.70203 7.00462 2.61321 7.07912 2.53834C7.15362 2.46347 7.24215 2.40403 7.33964 2.36341C7.43714 2.3228 7.54169 2.3018 7.64731 2.30163ZM10.2417 19.2919C14.915 19.2919 14.623 17.2551 14.623 17.2551V15.1446H10.1575V14.5108H16.389C16.389 14.5108 19.3778 14.8514 19.3778 10.111C19.3778 5.37069 16.7677 5.539 16.7677 5.539H15.2121V7.73888C15.2325 8.0843 15.1805 8.43016 15.0594 8.75432C14.9384 9.07848 14.751 9.3738 14.5093 9.62136C14.2675 9.86892 13.9768 10.0633 13.6556 10.192C13.3344 10.3207 12.9899 10.3809 12.6441 10.3688H8.2193C7.89511 10.3544 7.57141 10.4064 7.26808 10.5218C6.96476 10.6371 6.68822 10.8132 6.45545 11.0393C6.22269 11.2654 6.03863 11.5367 5.91457 11.8366C5.79052 12.1364 5.72909 12.4585 5.73408 12.783V16.8422C5.73408 16.8422 5.35669 19.2919 10.2417 19.2919ZM12.7006 17.8731C12.541 17.8739 12.3848 17.8273 12.2517 17.7392C12.1186 17.6511 12.0147 17.5255 11.9531 17.3782C11.8915 17.231 11.875 17.0688 11.9056 16.9122C11.9363 16.7556 12.0127 16.6116 12.1253 16.4985C12.2379 16.3854 12.3815 16.3082 12.5379 16.2768C12.6944 16.2453 12.8567 16.2611 13.0042 16.322C13.1517 16.3829 13.2778 16.4862 13.3666 16.6188C13.4553 16.7514 13.5027 16.9074 13.5027 17.067C13.5031 17.1727 13.4826 17.2773 13.4424 17.375C13.4023 17.4727 13.3433 17.5615 13.2688 17.6364C13.1943 17.7112 13.1058 17.7707 13.0083 17.8113C12.9108 17.8519 12.8062 17.8729 12.7006 17.8731Z" fill="#F2F2F2"/>
</g>
<defs>
<clipPath id="clip0_730_18262">
<rect width="19.2857" height="19.2857" fill="white" transform="translate(0.636719 0.445312)"/>
</clipPath>
</defs>
</svg>
