<svg width="41" height="41" viewBox="0 0 41 41" fill="none" xmlns="http://www.w3.org/2000/svg">
<path d="M19.7059 27.3108C20.8609 27.3108 21.3966 26.5073 21.3966 25.4358V24.8665C21.4302 22.6565 22.2338 21.7358 24.9123 19.8951C27.7752 17.9523 29.5995 15.7094 29.5995 12.478C29.5995 7.45582 25.5152 4.57654 20.4423 4.57654C16.6588 4.57654 13.3273 6.36797 11.9045 9.59868C11.5531 10.3858 11.4023 11.1558 11.4023 11.7915C11.4023 12.7458 11.9545 13.4158 12.9759 13.4158C13.8295 13.4158 14.3988 12.9137 14.6502 12.093C15.5202 8.91225 17.6131 7.70725 20.3252 7.70725C23.5895 7.70725 26.1345 9.54868 26.1345 12.4615C26.1345 14.8551 24.6445 16.1944 22.5016 17.7015C19.8731 19.5265 17.9481 21.4851 17.9481 24.4315V25.4858C17.9481 26.5573 18.5345 27.3108 19.7059 27.3108ZM19.7052 36.468C21.0273 36.468 22.0823 35.3965 22.0823 34.0908C22.084 33.7782 22.0237 33.4683 21.9049 33.1791C21.786 32.8899 21.611 32.6272 21.3899 32.4061C21.1688 32.1851 20.9061 32.01 20.6169 31.8912C20.3277 31.7723 20.0178 31.712 19.7052 31.7137C18.3995 31.7137 17.3109 32.7687 17.3109 34.0908C17.3109 35.3965 18.3995 36.468 19.7052 36.468Z" fill="#F2F2F2"/>
</svg>
