<svg width="24" height="25" viewBox="0 0 24 25" fill="none" xmlns="http://www.w3.org/2000/svg">
<g opacity="0.5">
<path d="M15.7539 14.3828H14.9639L14.6839 14.1128C15.6639 12.9728 16.2539 11.4928 16.2539 9.88281C16.2539 6.29281 13.3439 3.38281 9.75391 3.38281C6.16391 3.38281 3.25391 6.29281 3.25391 9.88281C3.25391 13.4728 6.16391 16.3828 9.75391 16.3828C11.3639 16.3828 12.8439 15.7928 13.9839 14.8128L14.2539 15.0928V15.8828L19.2539 20.8728L20.7439 19.3828L15.7539 14.3828ZM9.75391 14.3828C7.26391 14.3828 5.25391 12.3728 5.25391 9.88281C5.25391 7.39281 7.26391 5.38281 9.75391 5.38281C12.2439 5.38281 14.2539 7.39281 14.2539 9.88281C14.2539 12.3728 12.2439 14.3828 9.75391 14.3828Z" fill="#F2F2F2"/>
</g>
</svg>
