<svg width="41" height="41" viewBox="0 0 41 41" fill="none" xmlns="http://www.w3.org/2000/svg">
<path d="M32.4008 22.0889C32.4675 21.5889 32.5008 21.0722 32.5008 20.5222C32.5008 19.9889 32.4675 19.4555 32.3842 18.9555L35.7675 16.3222C36.0675 16.0889 36.1508 15.6389 35.9675 15.3055L32.7675 9.77222C32.5675 9.40555 32.1508 9.28888 31.7842 9.40555L27.8008 11.0055C26.9675 10.3722 26.0842 9.83888 25.1008 9.43888L24.5008 5.20555C24.4342 4.80555 24.1008 4.52222 23.7008 4.52222H17.3008C16.9008 4.52222 16.5842 4.80555 16.5175 5.20555L15.9175 9.43888C14.9342 9.83888 14.0342 10.3889 13.2175 11.0055L9.23417 9.40555C8.8675 9.27222 8.45083 9.40555 8.25083 9.77222L5.0675 15.3055C4.8675 15.6555 4.93417 16.0889 5.2675 16.3222L8.65083 18.9555C8.5675 19.4555 8.50083 20.0056 8.50083 20.5222C8.50083 21.0389 8.53417 21.5889 8.6175 22.0889L5.23417 24.7222C4.93417 24.9556 4.85083 25.4055 5.03417 25.7389L8.23417 31.2722C8.43417 31.6389 8.85083 31.7556 9.2175 31.6389L13.2008 30.0389C14.0342 30.6722 14.9175 31.2055 15.9008 31.6055L16.5008 35.8389C16.5842 36.2389 16.9008 36.5222 17.3008 36.5222H23.7008C24.1008 36.5222 24.4342 36.2389 24.4842 35.8389L25.0842 31.6055C26.0675 31.2055 26.9675 30.6722 27.7842 30.0389L31.7675 31.6389C32.1342 31.7722 32.5508 31.6389 32.7508 31.2722L35.9508 25.7389C36.1508 25.3722 36.0675 24.9556 35.7508 24.7222L32.4008 22.0889ZM20.5008 26.5222C17.2008 26.5222 14.5008 23.8222 14.5008 20.5222C14.5008 17.2222 17.2008 14.5222 20.5008 14.5222C23.8008 14.5222 26.5008 17.2222 26.5008 20.5222C26.5008 23.8222 23.8008 26.5222 20.5008 26.5222Z" fill="#F2F2F2"/>
</svg>
