<svg width="22" height="18" viewBox="0 0 22 18" fill="none" xmlns="http://www.w3.org/2000/svg">
<g clip-path="url(#clip0_730_18268)">
<path d="M13.2613 0.398438C13.2613 0.398438 17.7626 2.97163 18.94 7.06069C20.0017 10.7534 19.1512 12.5152 19.1512 12.5152C19.6938 13.1059 20.1215 13.7927 20.4124 14.5402C20.7044 15.021 20.8759 15.5652 20.9125 16.1265C20.949 16.6878 20.8494 17.2497 20.6222 17.7643C20.6222 17.7643 20.5527 16.2585 18.3079 15.9461C16.2511 15.6568 15.5033 17.6587 11.5777 17.5618C9.40044 17.5212 7.26624 16.9485 5.36121 15.8936C3.45619 14.8387 1.83821 13.3337 0.648438 11.5099C2.56785 12.5571 5.08174 14.1815 8.21326 13.9341C11.3448 13.6868 11.9986 12.722 11.9986 12.722C8.47865 9.93626 5.36312 6.67468 2.74142 3.03094C5.20179 5.09065 11.2999 9.18983 11.1582 9.08569C8.92788 6.90648 6.88731 4.54121 5.0586 2.01554C5.0586 2.01554 14.2073 9.53697 14.9435 9.48924C15.2458 8.86583 16.8108 5.63885 13.2613 0.398438Z" fill="#F2F2F2"/>
</g>
<defs>
<clipPath id="clip0_730_18268">
<rect width="21.2143" height="17.3571" fill="white" transform="translate(0.566406 0.40625)"/>
</clipPath>
</defs>
</svg>
