<svg width="21" height="20" viewBox="0 0 21 20" fill="none" xmlns="http://www.w3.org/2000/svg">
<g clip-path="url(#clip0_730_18255)">
<path fill-rule="evenodd" clip-rule="evenodd" d="M0.933594 0.648438V19.533H19.8182V0.648438H0.933594ZM15.2831 9.82088V9.82115C15.4642 9.82172 15.67 9.83103 15.8248 9.84782C16.4551 9.91602 16.946 10.188 17.3637 10.7002C17.5717 10.9554 17.6428 11.067 17.6277 11.1148C17.6179 11.1456 17.4752 11.2478 17.0215 11.549C16.5758 11.8449 16.4322 11.9335 16.3989 11.9335C16.3651 11.9335 16.2947 11.861 16.1932 11.7218C15.9976 11.4539 15.798 11.3316 15.4894 11.2908C15.1575 11.2469 14.8598 11.3515 14.714 11.5634C14.5894 11.7444 14.5706 12.0358 14.6696 12.2474C14.7844 12.4926 14.9921 12.6282 15.7882 12.9773C16.7063 13.3798 17.1715 13.6554 17.5104 13.9974C17.8753 14.3656 18.0602 14.7908 18.117 15.3923C18.1447 15.6854 18.1108 16.0329 18.0269 16.3153C17.8212 17.0078 17.266 17.5149 16.4523 17.7535C16.2274 17.8195 16.018 17.8589 15.811 17.874C15.495 17.8973 15.0425 17.8845 14.7702 17.8448C14.0813 17.7445 13.3036 17.3436 12.9158 16.889C12.7255 16.6659 12.4824 16.2987 12.4824 16.2341C12.4824 16.2029 12.4979 16.1852 12.5591 16.1463C12.7406 16.031 13.7808 15.4364 13.801 15.4364C13.8131 15.4364 13.8675 15.5004 13.9216 15.5787C14.0443 15.7558 14.3461 16.0604 14.4995 16.162C14.6248 16.2449 14.785 16.3116 14.9752 16.3597C15.0842 16.3868 15.1419 16.3917 15.3796 16.3917C15.6225 16.3916 15.6723 16.3875 15.781 16.3583C16.0684 16.281 16.2928 16.1209 16.3878 15.9254C16.4295 15.8409 16.4303 15.8303 16.4303 15.6254V15.413L16.3793 15.3116C16.2555 15.066 15.9889 14.8975 15.146 14.5324C14.7588 14.3647 14.2845 14.1282 14.0994 14.0105C13.6769 13.742 13.3841 13.435 13.1919 13.0593C13.0007 12.6856 12.9722 12.5465 12.9717 11.9847C12.9713 11.5449 12.9706 11.5503 13.0616 11.2695C13.1442 11.0148 13.3134 10.7302 13.5001 10.5318C13.8727 10.1356 14.4171 9.88109 15 9.83045C15.0746 9.82339 15.1744 9.82063 15.283 9.82096L15.2831 9.82088ZM10.2676 9.90776H10.2678C11.3903 9.90832 12.0338 9.91221 12.0442 9.9187C12.0636 9.93074 12.066 10.0284 12.066 10.652V11.3713L10.9459 11.3753L9.82571 11.3794V14.5598C9.82571 16.3091 9.82217 17.7507 9.8173 17.7634C9.80938 17.7848 9.72322 17.7865 8.99439 17.7865H8.18031L8.17191 17.7536C8.16647 17.7355 8.16251 16.2939 8.16241 14.55L8.16214 11.3792L7.04198 11.3753L5.92182 11.3712V10.6604C5.92182 10.0966 5.92572 9.94564 5.94072 9.93064C5.95613 9.91475 6.5278 9.91065 8.99104 9.90822C9.46597 9.90774 9.89335 9.90753 10.2676 9.90776Z" fill="#F2F2F2"/>
</g>
<defs>
<clipPath id="clip0_730_18255">
<rect width="19.2857" height="19.2857" fill="white" transform="translate(0.851562 0.445312)"/>
</clipPath>
</defs>
</svg>
